<svg width="139" height="80" viewBox="0 0 139 80" fill="none" xmlns="http://www.w3.org/2000/svg">
<defs>
<linearGradient id="paint0_linear" x1="-5.9075" y1="87.7333" x2="31.8816" y2="-92.6466" gradientUnits="userSpaceOnUse">
<stop stop-color="#CF1D5B" stop-opacity="0.37"/>
<stop offset="1" stop-color="white" stop-opacity="0"/>
</linearGradient>
<linearGradient id="paint1_linear" x1="91.7325" y1="25.2169" x2="-107.784" y2="224.733" gradientUnits="userSpaceOnUse">
<stop stop-color="#BE9DCF"/>
<stop offset="1" stop-color="#DFC4DD"/>
</linearGradient>
<linearGradient id="paint2_linear" x1="78.2686" y1="18.5898" x2="78.2686" y2="222.371" gradientUnits="userSpaceOnUse">
<stop stop-color="#F4ECF4"/>
<stop offset="1" stop-color="#E9D6EB"/>
</linearGradient>
<clipPath id="clip0">
<rect width="139" height="80" rx="12" fill="white"/>
</clipPath>
</defs>
<g clip-path="url(#clip0)">
<rect width="139" height="80" rx="12" fill="white"/>
<rect width="139" height="80" rx="12" fill="url(#paint0_linear)" fill-opacity="0.5"/>
<g opacity="0.6">
<path fill-rule="evenodd" clip-rule="evenodd" d="M115.613 65.7346C119.169 69.2906 125.773 68.4514 130.364 63.8601C130.366 63.8582 130.368 63.8563 130.37 63.8545L138.949 72.4338L-60.5666 271.95L-69.1383 263.378C-64.5485 258.787 -63.7099 252.184 -67.2655 248.628C-70.821 245.073 -77.4245 245.911 -82.0156 250.501L-90.6006 241.916C-86.0119 237.325 -85.1738 230.722 -88.729 227.167C-92.2842 223.612 -98.8868 224.45 -103.478 229.039L-112.075 220.441C-107.486 215.85 -106.647 209.247 -110.203 205.691C-113.758 202.135 -120.362 202.974 -124.953 207.564L-133.522 198.994C-128.934 194.403 -128.096 187.801 -131.651 184.246C-135.206 180.69 -141.809 181.528 -146.4 186.117L-155 177.516L44.5156 -22L53.1089 -13.4067L53.1005 -13.3984C48.5093 -8.80713 47.67 -2.2025 51.226 1.35348C54.782 4.90946 61.3866 4.07022 65.9779 -0.521023L65.9862 -0.529394L74.5568 8.0412L74.5525 8.04554C69.9613 12.6368 69.122 19.2414 72.678 22.7974C76.234 26.3534 82.8386 25.5141 87.4298 20.9229L87.4342 20.9185L96.032 29.5164L96.027 29.5215C91.4357 34.1127 90.5965 40.7173 94.1525 44.2733C97.7084 47.8293 104.313 46.99 108.904 42.3988L108.909 42.3937L117.493 50.9771C117.491 50.979 117.489 50.9809 117.487 50.9828C112.896 55.574 112.057 62.1787 115.613 65.7346Z" fill="url(#paint1_linear)"/>
<rect x="29.7051" y="18.5898" width="97.127" height="203.781" transform="rotate(45 29.7051 18.5898)" fill="url(#paint2_linear)"/>
</g>
</g>
</svg>
