<svg width="20" height="20" viewBox="0 0 20 20" fill="none" xmlns="http://www.w3.org/2000/svg">
<path d="M16.6663 2.91699H3.33301C2.66997 2.91699 2.03408 3.18038 1.56524 3.64923C1.0964 4.11807 0.833008 4.75395 0.833008 5.41699V16.2503C0.833008 16.4713 0.920805 16.6833 1.07709 16.8396C1.23337 16.9959 1.44533 17.0837 1.66634 17.0837H4.99967C5.13693 17.083 5.27189 17.0483 5.39255 16.9829C5.51321 16.9175 5.61585 16.8233 5.69134 16.7087L7.11634 14.5837H12.883L14.308 16.7087C14.3835 16.8233 14.4861 16.9175 14.6068 16.9829C14.7275 17.0483 14.8624 17.083 14.9997 17.0837H18.333C18.554 17.0837 18.766 16.9959 18.9223 16.8396C19.0785 16.6833 19.1663 16.4713 19.1663 16.2503V5.41699C19.1663 4.75395 18.9029 4.11807 18.4341 3.64923C17.9653 3.18038 17.3294 2.91699 16.6663 2.91699ZM17.4997 15.417H15.4497L14.0247 13.3337C13.9541 13.2113 13.8537 13.1088 13.7327 13.036C13.6117 12.9631 13.4742 12.9221 13.333 12.917H6.66634C6.52908 12.9177 6.39413 12.9523 6.27347 13.0177C6.1528 13.0831 6.05016 13.1774 5.97467 13.292L4.54967 15.417H2.49967V11.2503H17.4997V15.417ZM5.83301 9.58366V8.75033C5.83301 8.52931 5.9208 8.31735 6.07709 8.16107C6.23337 8.00479 6.44533 7.91699 6.66634 7.91699H8.33301C8.55402 7.91699 8.76598 8.00479 8.92226 8.16107C9.07854 8.31735 9.16634 8.52931 9.16634 8.75033V9.58366H5.83301ZM10.833 9.58366V8.75033C10.833 8.52931 10.9208 8.31735 11.0771 8.16107C11.2334 8.00479 11.4453 7.91699 11.6663 7.91699H13.333C13.554 7.91699 13.766 8.00479 13.9223 8.16107C14.0785 8.31735 14.1663 8.52931 14.1663 8.75033V9.58366H10.833ZM17.4997 9.58366H15.833V8.75033C15.833 8.08729 15.5696 7.4514 15.1008 6.98256C14.6319 6.51372 13.996 6.25033 13.333 6.25033H11.6663C11.0496 6.254 10.456 6.4855 9.99967 6.90033C9.54331 6.4855 8.94972 6.254 8.33301 6.25033H6.66634C6.0033 6.25033 5.36741 6.51372 4.89857 6.98256C4.42973 7.4514 4.16634 8.08729 4.16634 8.75033V9.58366H2.49967V5.41699C2.49967 5.19598 2.58747 4.98402 2.74375 4.82774C2.90003 4.67146 3.11199 4.58366 3.33301 4.58366H16.6663C16.8874 4.58366 17.0993 4.67146 17.2556 4.82774C17.4119 4.98402 17.4997 5.19598 17.4997 5.41699V9.58366Z" fill="#454754"/>
</svg>
