<svg width="40" height="40" viewBox="0 0 40 40" fill="none" xmlns="http://www.w3.org/2000/svg">
<path d="M0 8C0 3.58172 3.58172 0 8 0H32C36.4183 0 40 3.58172 40 8V32C40 36.4183 36.4183 40 32 40H8C3.58172 40 0 36.4183 0 32V8Z" fill="#EEE7F8"/>
<path d="M27 17.5H26.68L25.43 14.38C25.2068 13.8253 24.8228 13.3499 24.3275 13.0149C23.8321 12.6799 23.248 12.5006 22.65 12.5H16.65C15.9553 12.498 15.2814 12.7372 14.7434 13.1767C14.2054 13.6162 13.8366 14.2289 13.7 14.91L13.18 17.5H13C12.2044 17.5 11.4413 17.8161 10.8787 18.3787C10.3161 18.9413 10 19.7044 10 20.5V23.5C10 23.7652 10.1054 24.0196 10.2929 24.2071C10.4804 24.3947 10.7348 24.5 11 24.5H12C12 25.2957 12.3161 26.0587 12.8787 26.6213C13.4413 27.1839 14.2044 27.5 15 27.5C15.7956 27.5 16.5587 27.1839 17.1213 26.6213C17.6839 26.0587 18 25.2957 18 24.5H22C22 25.2957 22.3161 26.0587 22.8787 26.6213C23.4413 27.1839 24.2044 27.5 25 27.5C25.7956 27.5 26.5587 27.1839 27.1213 26.6213C27.6839 26.0587 28 25.2957 28 24.5H29C29.2652 24.5 29.5196 24.3947 29.7071 24.2071C29.8946 24.0196 30 23.7652 30 23.5V20.5C30 19.7044 29.6839 18.9413 29.1213 18.3787C28.5587 17.8161 27.7956 17.5 27 17.5ZM21 14.5H22.65C22.8486 14.5018 23.0421 14.5627 23.206 14.6749C23.3698 14.7871 23.4965 14.9455 23.57 15.13L24.52 17.5H21V14.5ZM15.66 15.3C15.7068 15.0707 15.8324 14.8651 16.0151 14.7189C16.1979 14.5728 16.4261 14.4953 16.66 14.5H19V17.5H15.22L15.66 15.3ZM15 25.5C14.8022 25.5 14.6089 25.4414 14.4444 25.3315C14.28 25.2216 14.1518 25.0654 14.0761 24.8827C14.0004 24.7 13.9806 24.4989 14.0192 24.3049C14.0578 24.1109 14.153 23.9328 14.2929 23.7929C14.4327 23.6531 14.6109 23.5578 14.8049 23.5192C14.9989 23.4806 15.2 23.5004 15.3827 23.5761C15.5654 23.6518 15.7216 23.78 15.8315 23.9444C15.9414 24.1089 16 24.3022 16 24.5C16 24.7652 15.8946 25.0196 15.7071 25.2071C15.5196 25.3947 15.2652 25.5 15 25.5ZM25 25.5C24.8022 25.5 24.6089 25.4414 24.4444 25.3315C24.28 25.2216 24.1518 25.0654 24.0761 24.8827C24.0004 24.7 23.9806 24.4989 24.0192 24.3049C24.0578 24.1109 24.153 23.9328 24.2929 23.7929C24.4327 23.6531 24.6109 23.5578 24.8049 23.5192C24.9989 23.4806 25.2 23.5004 25.3827 23.5761C25.5654 23.6518 25.7216 23.78 25.8315 23.9444C25.9414 24.1089 26 24.3022 26 24.5C26 24.7652 25.8946 25.0196 25.7071 25.2071C25.5196 25.3947 25.2652 25.5 25 25.5ZM28 22.5H27.22C26.9388 22.1907 26.5961 21.9435 26.2138 21.7743C25.8315 21.6052 25.418 21.5178 25 21.5178C24.582 21.5178 24.1685 21.6052 23.7862 21.7743C23.4039 21.9435 23.0612 22.1907 22.78 22.5H17.22C16.9388 22.1907 16.5961 21.9435 16.2138 21.7743C15.8315 21.6052 15.418 21.5178 15 21.5178C14.582 21.5178 14.1685 21.6052 13.7862 21.7743C13.4039 21.9435 13.0612 22.1907 12.78 22.5H12V20.5C12 20.2348 12.1054 19.9804 12.2929 19.7929C12.4804 19.6054 12.7348 19.5 13 19.5H27C27.2652 19.5 27.5196 19.6054 27.7071 19.7929C27.8946 19.9804 28 20.2348 28 20.5V22.5Z" fill="#A33AA3"/>
</svg>
