<svg width="16" height="16" viewBox="0 0 16 16" fill="none" xmlns="http://www.w3.org/2000/svg">
<path d="M12.6668 6.83334H12.4535L11.6202 4.75334C11.4713 4.38351 11.2154 4.0666 10.8851 3.84328C10.5549 3.61996 10.1655 3.50042 9.76683 3.50001H5.76683C5.30369 3.49868 4.85444 3.65814 4.49577 3.95115C4.1371 4.24416 3.89125 4.65258 3.80016 5.10667L3.4535 6.83334H3.3335C2.80306 6.83334 2.29436 7.04406 1.91928 7.41913C1.54421 7.7942 1.3335 8.30291 1.3335 8.83334V10.8333C1.3335 11.0102 1.40373 11.1797 1.52876 11.3047C1.65378 11.4298 1.82335 11.5 2.00016 11.5H2.66683C2.66683 12.0304 2.87754 12.5391 3.25262 12.9142C3.62769 13.2893 4.1364 13.5 4.66683 13.5C5.19726 13.5 5.70597 13.2893 6.08104 12.9142C6.45612 12.5391 6.66683 12.0304 6.66683 11.5H9.3335C9.3335 12.0304 9.54421 12.5391 9.91928 12.9142C10.2944 13.2893 10.8031 13.5 11.3335 13.5C11.8639 13.5 12.3726 13.2893 12.7477 12.9142C13.1228 12.5391 13.3335 12.0304 13.3335 11.5H14.0002C14.177 11.5 14.3465 11.4298 14.4716 11.3047C14.5966 11.1797 14.6668 11.0102 14.6668 10.8333V8.83334C14.6668 8.30291 14.4561 7.7942 14.081 7.41913C13.706 7.04406 13.1973 6.83334 12.6668 6.83334ZM8.66683 4.83334H9.76683C9.89921 4.83454 10.0282 4.87512 10.1375 4.94992C10.2467 5.02472 10.3312 5.13035 10.3802 5.25334L11.0135 6.83334H8.66683V4.83334ZM5.10683 5.36668C5.138 5.21382 5.22178 5.07674 5.34359 4.97929C5.4654 4.88184 5.61753 4.8302 5.7735 4.83334H7.3335V6.83334H4.8135L5.10683 5.36668ZM4.66683 12.1667C4.53498 12.1667 4.40608 12.1276 4.29645 12.0543C4.18682 11.9811 4.10137 11.8769 4.05091 11.7551C4.00045 11.6333 3.98725 11.4993 4.01297 11.3699C4.0387 11.2406 4.10219 11.1218 4.19543 11.0286C4.28866 10.9354 4.40745 10.8719 4.53677 10.8462C4.66609 10.8204 4.80013 10.8336 4.92195 10.8841C5.04377 10.9345 5.14789 11.02 5.22114 11.1296C5.2944 11.2393 5.3335 11.3682 5.3335 11.5C5.3335 11.6768 5.26326 11.8464 5.13823 11.9714C5.01321 12.0964 4.84364 12.1667 4.66683 12.1667ZM11.3335 12.1667C11.2016 12.1667 11.0727 12.1276 10.9631 12.0543C10.8535 11.9811 10.768 11.8769 10.7176 11.7551C10.6671 11.6333 10.6539 11.4993 10.6796 11.3699C10.7054 11.2406 10.7689 11.1218 10.8621 11.0286C10.9553 10.9354 11.0741 10.8719 11.2034 10.8462C11.3328 10.8204 11.4668 10.8336 11.5886 10.8841C11.7104 10.9345 11.8146 11.02 11.8878 11.1296C11.9611 11.2393 12.0002 11.3682 12.0002 11.5C12.0002 11.6768 11.9299 11.8464 11.8049 11.9714C11.6799 12.0964 11.5103 12.1667 11.3335 12.1667ZM13.3335 10.1667H12.8135C12.626 9.96044 12.3976 9.79566 12.1427 9.6829C11.8878 9.57014 11.6122 9.51189 11.3335 9.51189C11.0548 9.51189 10.7792 9.57014 10.5243 9.6829C10.2694 9.79566 10.041 9.96044 9.8535 10.1667H6.14683C5.95938 9.96044 5.73089 9.79566 5.47602 9.6829C5.22115 9.57014 4.94553 9.51189 4.66683 9.51189C4.38813 9.51189 4.11251 9.57014 3.85764 9.6829C3.60277 9.79566 3.37428 9.96044 3.18683 10.1667H2.66683V8.83334C2.66683 8.65653 2.73707 8.48696 2.86209 8.36194C2.98712 8.23691 3.15669 8.16668 3.3335 8.16668H12.6668C12.8436 8.16668 13.0132 8.23691 13.1382 8.36194C13.2633 8.48696 13.3335 8.65653 13.3335 8.83334V10.1667Z" fill="#73768C"/>
</svg>
