<svg width="16" height="16" viewBox="0 0 16 16" fill="none" xmlns="http://www.w3.org/2000/svg">
<path fill-rule="evenodd" clip-rule="evenodd" d="M12 5.6H6.86914L8.35485 4H12V5.6ZM5.03457 7.2H12.8C13.2418 7.2 13.6 6.84183 13.6 6.4V3.2C13.6 2.75817 13.2418 2.4 12.8 2.4H8.006C7.78354 2.4 7.57113 2.49263 7.41976 2.65564L4.44833 5.85564C3.97302 6.36752 4.33604 7.2 5.03457 7.2Z" fill="#454754"/>
<path fill-rule="evenodd" clip-rule="evenodd" d="M0 12.8V7.92645C0 7.10768 0.313846 6.32005 0.876951 5.72566L5.35464 0.999217C5.95895 0.361325 6.79899 0 7.67769 0H12.8C14.5673 0 16 1.43269 16 3.2V12.8C16 14.5673 14.5673 16 12.8 16H3.2C1.43269 16 0 14.5673 0 12.8ZM1.6 7.92645V12.8C1.6 13.6837 2.31634 14.4 3.2 14.4H12.8C13.6837 14.4 14.4 13.6837 14.4 12.8V3.2C14.4 2.31634 13.6837 1.6 12.8 1.6H7.67769C7.23834 1.6 6.81832 1.78066 6.51616 2.09961L2.03848 6.82605C1.75692 7.12325 1.6 7.51706 1.6 7.92645Z" fill="#454754"/>
<path d="M10.4 8.8C10.4 8.35817 10.7582 8 11.2 8H12C12.4418 8 12.8 8.35817 12.8 8.8C12.8 9.24183 12.4418 9.6 12 9.6H11.2C10.7582 9.6 10.4 9.24183 10.4 8.8Z" fill="#454754"/>
</svg>
