<svg width="100" height="109" viewBox="0 0 100 109" fill="none" xmlns="http://www.w3.org/2000/svg">
<defs>
<linearGradient id="paint0_linear_701_23059" x1="-7.34731" y1="-5.82704" x2="74.7498" y2="35.1242" gradientUnits="userSpaceOnUse">
<stop stop-color="#FEFCFD"/>
<stop offset="1" stop-color="#F9E5EC"/>
</linearGradient>
<linearGradient id="paint1_linear_701_23059" x1="86.4406" y1="-3.12889" x2="-143.872" y2="334.01" gradientUnits="userSpaceOnUse">
<stop stop-color="#CF1D5B" stop-opacity="0.37"/>
<stop offset="1" stop-color="white" stop-opacity="0"/>
</linearGradient>
<linearGradient id="paint2_linear_701_23059" x1="0.229167" y1="35.2832" x2="65.8194" y2="34.0543" gradientUnits="userSpaceOnUse">
<stop stop-color="#CFA9E0"/>
<stop offset="1" stop-color="#D295B9" stop-opacity="0"/>
</linearGradient>
<linearGradient id="paint3_linear_701_23059" x1="-120.311" y1="105.118" x2="24.8124" y2="-26.6215" gradientUnits="userSpaceOnUse">
<stop stop-color="#CFA9E0"/>
<stop offset="1" stop-color="#D295B9" stop-opacity="0"/>
</linearGradient>
<linearGradient id="paint4_linear_701_23059" x1="67.5926" y1="163.587" x2="-95.2265" y2="66.1781" gradientUnits="userSpaceOnUse">
<stop stop-color="#CF1D5B" stop-opacity="0.37"/>
<stop offset="1" stop-color="white" stop-opacity="0"/>
</linearGradient>
<linearGradient id="paint5_linear_701_23059" x1="55.3542" y1="47.1416" x2="90.67" y2="46.429" gradientUnits="userSpaceOnUse">
<stop stop-color="#CFA9E0"/>
<stop offset="1" stop-color="#D295B9" stop-opacity="0"/>
</linearGradient>
<linearGradient id="paint6_linear_701_23059" x1="31.3298" y1="109.062" x2="108.001" y2="25.7557" gradientUnits="userSpaceOnUse">
<stop stop-color="#CFA9E0"/>
<stop offset="1" stop-color="#D295B9" stop-opacity="0"/>
</linearGradient>
<linearGradient id="paint7_linear_701_23059" x1="-27.719" y1="105.12" x2="119.975" y2="-36.396" gradientUnits="userSpaceOnUse">
<stop stop-color="#CFA9E0"/>
<stop offset="1" stop-color="#D295B9" stop-opacity="0"/>
</linearGradient>
<linearGradient id="paint8_linear_701_23059" x1="1.33221" y1="104.176" x2="107.676" y2="46.4465" gradientUnits="userSpaceOnUse">
<stop stop-color="#D295B9"/>
<stop offset="1" stop-color="#ECDAF5"/>
</linearGradient>
<linearGradient id="paint9_linear_701_23059" x1="67.453" y1="123.172" x2="167.343" y2="104.46" gradientUnits="userSpaceOnUse">
<stop stop-color="#D2A0D2"/>
<stop offset="1" stop-color="#DAB8EA"/>
</linearGradient>
<linearGradient id="paint10_linear_701_23059" x1="17.0431" y1="123.122" x2="90.3278" y2="113.204" gradientUnits="userSpaceOnUse">
<stop stop-color="#D295B9"/>
<stop offset="1" stop-color="#DAB8EA"/>
</linearGradient>
<linearGradient id="paint11_linear_701_23059" x1="1.88449" y1="80.5064" x2="51.9041" y2="78.1953" gradientUnits="userSpaceOnUse">
<stop stop-color="#CFA9E0"/>
<stop offset="1" stop-color="#D295B9" stop-opacity="0"/>
</linearGradient>
<linearGradient id="paint12_linear_701_23059" x1="1.88449" y1="80.5064" x2="51.9041" y2="78.1953" gradientUnits="userSpaceOnUse">
<stop stop-color="#CFA9E0"/>
<stop offset="1" stop-color="#D295B9" stop-opacity="0"/>
</linearGradient>
<linearGradient id="paint13_linear_701_23059" x1="-8.67958" y1="81.1277" x2="57.048" y2="78.0909" gradientUnits="userSpaceOnUse">
<stop stop-color="#923DB9"/>
<stop offset="1" stop-color="#CC88B0"/>
</linearGradient>
<linearGradient id="paint14_linear_701_23059" x1="41.6283" y1="103.859" x2="59.3813" y2="63.35" gradientUnits="userSpaceOnUse">
<stop stop-color="#CF1D5B" stop-opacity="0.37"/>
<stop offset="1" stop-color="white" stop-opacity="0"/>
</linearGradient>
<linearGradient id="paint15_linear_701_23059" x1="-9.01831" y1="94.7923" x2="118.127" y2="-27.2235" gradientUnits="userSpaceOnUse">
<stop stop-color="#CFA9E0"/>
<stop offset="1" stop-color="#D295B9" stop-opacity="0"/>
</linearGradient>
<linearGradient id="paint16_linear_701_23059" x1="49.7128" y1="93.8049" x2="51.8671" y2="120.69" gradientUnits="userSpaceOnUse">
<stop stop-color="#DABAE9"/>
<stop offset="1" stop-color="#B22B7A"/>
</linearGradient>
<linearGradient id="paint17_linear_701_23059" x1="49.313" y1="80.4572" x2="90.9731" y2="78.8536" gradientUnits="userSpaceOnUse">
<stop stop-color="#CFA9E0"/>
<stop offset="1" stop-color="#D295B9" stop-opacity="0"/>
</linearGradient>
<linearGradient id="paint18_linear_701_23059" x1="49.313" y1="80.4572" x2="90.9731" y2="78.8536" gradientUnits="userSpaceOnUse">
<stop stop-color="#CFA9E0"/>
<stop offset="1" stop-color="#D295B9" stop-opacity="0"/>
</linearGradient>
<linearGradient id="paint19_linear_701_23059" x1="44.966" y1="80.9482" x2="92.847" y2="79.1053" gradientUnits="userSpaceOnUse">
<stop stop-color="#923DB9"/>
<stop offset="1" stop-color="#CC88B0"/>
</linearGradient>
<linearGradient id="paint20_linear_701_23059" x1="79.3285" y1="103.9" x2="99.2076" y2="66.1114" gradientUnits="userSpaceOnUse">
<stop stop-color="#CF1D5B" stop-opacity="0.37"/>
<stop offset="1" stop-color="white" stop-opacity="0"/>
</linearGradient>
<linearGradient id="paint21_linear_701_23059" x1="-9.01782" y1="94.7923" x2="118.127" y2="-27.2235" gradientUnits="userSpaceOnUse">
<stop stop-color="#CFA9E0"/>
<stop offset="1" stop-color="#D295B9" stop-opacity="0"/>
</linearGradient>
<linearGradient id="paint22_linear_701_23059" x1="47.5317" y1="96.1123" x2="57.7285" y2="95.6393" gradientUnits="userSpaceOnUse">
<stop stop-color="#CFA9E0"/>
<stop offset="1" stop-color="#D295B9" stop-opacity="0"/>
</linearGradient>
<clipPath id="clip0_701_23059">
<rect width="100" height="109" rx="12" fill="white"/>
</clipPath>
<clipPath id="clip1_701_23059">
<rect width="100" height="109" fill="white"/>
</clipPath>
</defs>
<g clip-path="url(#clip0_701_23059)">
<rect width="100" height="109" rx="12" fill="white"/>
<rect x="-11" width="122" height="109" fill="url(#paint0_linear_701_23059)"/>
<g opacity="0.6">
<path d="M59.5923 6.78066C-18.594 18.5117 -111 105 -111 105L133.945 105L205 22.7851C205 22.7851 116.016 -1.68512 59.5923 6.78066Z" fill="white"/>
<path d="M59.5923 6.78066C-18.594 18.5117 -111 105 -111 105L133.945 105L205 22.7851C205 22.7851 116.016 -1.68512 59.5923 6.78066Z" fill="url(#paint1_linear_701_23059)" fill-opacity="0.5"/>
</g>
<ellipse cx="46" cy="36" rx="26" ry="27" fill="#F4F4F4"/>
<ellipse cx="46" cy="36" rx="26" ry="27" fill="url(#paint2_linear_701_23059)" fill-opacity="0.4"/>
<path d="M-143 105H28C28 105 9.70308 75.9098 -8.62651 68.0267C-23.5792 61.5959 -33.8583 72.7341 -49.3765 68.0267C-70.6705 61.5671 -75.1158 32.2039 -98.1325 33.0165C-129.997 34.1416 -143 105 -143 105Z" fill="#F4F4F4"/>
<path d="M-143 105H28C28 105 9.70308 75.9098 -8.62651 68.0267C-23.5792 61.5959 -33.8583 72.7341 -49.3765 68.0267C-70.6705 61.5671 -75.1158 32.2039 -98.1325 33.0165C-129.997 34.1416 -143 105 -143 105Z" fill="url(#paint3_linear_701_23059)"/>
<g clip-path="url(#clip1_701_23059)">
<rect width="100" height="109" fill="white"/>
<rect width="100" height="109" fill="url(#paint4_linear_701_23059)" fill-opacity="0.5"/>
<path d="M94 47.5C94 54.9558 87.732 61 80 61C72.268 61 66 54.9558 66 47.5C66 40.0442 72.268 34 80 34C87.732 34 94 40.0442 94 47.5Z" fill="#F4F4F4"/>
<path d="M94 47.5C94 54.9558 87.732 61 80 61C72.268 61 66 54.9558 66 47.5C66 40.0442 72.268 34 80 34C87.732 34 94 40.0442 94 47.5Z" fill="url(#paint5_linear_701_23059)" fill-opacity="0.4"/>
<path d="M91.4828 86.7846C84.0262 87.2401 79.9752 84.1823 72.5074 84.1538C49.1359 84.0647 17 109 17 109H125V71C125 71 105.679 85.9174 91.4828 86.7846Z" fill="#F4F4F4"/>
<path d="M91.4828 86.7846C84.0262 87.2401 79.9752 84.1823 72.5074 84.1538C49.1359 84.0647 17 109 17 109H125V71C125 71 105.679 85.9174 91.4828 86.7846Z" fill="url(#paint6_linear_701_23059)"/>
<g opacity="0.4">
<path d="M-52 105H131C131 105 111.419 75.5058 91.8032 67.5132C75.8013 60.9931 64.8008 72.286 48.1936 67.5132C25.4052 60.9639 20.648 31.1928 -3.98394 32.0168C-38.0846 33.1575 -52 105 -52 105Z" fill="#F4F4F4"/>
<path d="M-52 105H131C131 105 111.419 75.5058 91.8032 67.5132C75.8013 60.9931 64.8008 72.286 48.1936 67.5132C25.4052 60.9639 20.648 31.1928 -3.98394 32.0168C-38.0846 33.1575 -52 105 -52 105Z" fill="url(#paint7_linear_701_23059)"/>
</g>
<path d="M-4.00163 88.0718C-15.236 89.3298 -24.9869 93.5756 -28.458 95.5413V121.736H126.123V93.9428C126.123 93.9428 102.647 58.0371 28.9727 69.7962C17.4256 71.6392 11.1975 86.578 11.1975 86.578C10.3823 86.5517 7.2327 86.8138 -4.00163 88.0718Z" fill="url(#paint8_linear_701_23059)"/>
<path d="M58.5327 123.085V70.2061C107.157 70.2061 125.763 106.31 125.763 107.667V123.085H58.5327Z" fill="url(#paint9_linear_701_23059)"/>
<path d="M59.1289 123.035V70.208C19.938 70.2083 21.0267 72.763 10.7195 93.8225C3.13507 108.318 21.4008 140.088 33.7513 134.305L59.1289 123.035Z" fill="url(#paint10_linear_701_23059)"/>
<path d="M56.7151 75.0295V86.548C56.7151 87.9534 55.572 89.0926 54.1619 89.0926H19.3849C17.7855 89.0926 16.5766 87.6374 17.1213 86.1387C18.0468 83.5918 19.9093 80.0783 23.6942 76.9915C29.0975 72.585 44.9612 71.9876 54.391 72.5333C55.711 72.6097 56.7151 73.7118 56.7151 75.0295Z" fill="#F4F4F4"/>
<path d="M56.7151 75.0295V86.548C56.7151 87.9534 55.572 89.0926 54.1619 89.0926H19.3849C17.7855 89.0926 16.5766 87.6374 17.1213 86.1387C18.0468 83.5918 19.9093 80.0783 23.6942 76.9915C29.0975 72.585 44.9612 71.9876 54.391 72.5333C55.711 72.6097 56.7151 73.7118 56.7151 75.0295Z" fill="url(#paint11_linear_701_23059)" fill-opacity="0.4"/>
<mask id="mask0_701_23059" style="mask-type:alpha" maskUnits="userSpaceOnUse" x="16" y="72" width="41" height="18">
<path d="M56.7151 75.0295V86.548C56.7151 87.9534 55.572 89.0926 54.1619 89.0926H19.3849C17.7855 89.0926 16.5766 87.6374 17.1213 86.1387C18.0468 83.5918 19.9093 80.0783 23.6942 76.9915C29.0975 72.585 44.9612 71.9876 54.391 72.5333C55.711 72.6097 56.7151 73.7118 56.7151 75.0295Z" fill="#F4F4F4"/>
<path d="M56.7151 75.0295V86.548C56.7151 87.9534 55.572 89.0926 54.1619 89.0926H19.3849C17.7855 89.0926 16.5766 87.6374 17.1213 86.1387C18.0468 83.5918 19.9093 80.0783 23.6942 76.9915C29.0975 72.585 44.9612 71.9876 54.391 72.5333C55.711 72.6097 56.7151 73.7118 56.7151 75.0295Z" fill="url(#paint12_linear_701_23059)" fill-opacity="0.4"/>
</mask>
<g mask="url(#mask0_701_23059)">
<path d="M63.3697 73.931V89.0667C63.3697 90.9134 61.8677 92.4104 60.0148 92.4104H14.3166C12.215 92.4104 10.6264 90.4982 11.3421 88.5288C12.5583 85.182 15.0057 80.5652 19.9792 76.5091C27.0793 70.7187 47.9247 69.9338 60.3158 70.6509C62.0503 70.7513 63.3697 72.1994 63.3697 73.931Z" fill="url(#paint13_linear_701_23059)" fill-opacity="0.4"/>
<path d="M59.2214 76.9446V88.4631C59.2214 89.8684 58.0783 91.0076 56.6683 91.0076H21.8912C20.2919 91.0076 19.083 89.5524 19.6276 88.0537C20.5531 85.5068 22.4157 81.9933 26.2006 78.9066C31.6038 74.5 47.4675 73.9027 56.8974 74.4484C58.2173 74.5248 59.2214 75.6268 59.2214 76.9446Z" fill="white"/>
<path d="M59.2214 76.9446V88.4631C59.2214 89.8684 58.0783 91.0076 56.6683 91.0076H21.8912C20.2919 91.0076 19.083 89.5524 19.6276 88.0537C20.5531 85.5068 22.4157 81.9933 26.2006 78.9066C31.6038 74.5 47.4675 73.9027 56.8974 74.4484C58.2173 74.5248 59.2214 75.6268 59.2214 76.9446Z" fill="url(#paint14_linear_701_23059)" fill-opacity="0.5"/>
<g opacity="0.4">
<path d="M-29.9521 94.6891H127.821C127.821 94.6891 110.94 69.3 94.0277 62.4199C80.2316 56.8073 70.7476 66.5284 56.4297 62.4199C36.7827 56.7821 32.6813 31.1548 11.4449 31.8641C-17.955 32.846 -29.9521 94.6891 -29.9521 94.6891Z" fill="#F4F4F4"/>
<path d="M-29.9521 94.6891H127.821C127.821 94.6891 110.94 69.3 94.0277 62.4199C80.2316 56.8073 70.7476 66.5284 56.4297 62.4199C36.7827 56.7821 32.6813 31.1548 11.4449 31.8641C-17.955 32.846 -29.9521 94.6891 -29.9521 94.6891Z" fill="url(#paint15_linear_701_23059)"/>
</g>
<path d="M19.9159 84.3889C20.2808 84.2077 20.724 84.3556 20.9058 84.7192L24.1728 91.2518C24.3546 91.6155 24.2063 92.0572 23.8414 92.2384C23.4765 92.4197 23.0333 92.2718 22.8515 91.9082L19.5845 85.3755C19.4027 85.0119 19.551 84.5702 19.9159 84.3889Z" fill="white"/>
</g>
<path opacity="0.5" d="M-11.472 97.4276C-21.4333 98.7639 -29.7454 109.659 -31.6289 111.918L-30.5651 127.848H129.991V113.07C126.637 108.868 125.016 100.122 118.581 98.953C75.5532 91.1355 31.1684 91.7076 -11.472 97.4276Z" fill="url(#paint16_linear_701_23059)"/>
<path d="M90.5031 89.0358H64.4296C63.0195 89.0358 61.8848 87.8965 61.8848 86.4912V74.8237C61.8848 73.4184 63.0283 72.2749 64.4375 72.3238C74.4964 72.6729 84.3882 75.0464 89.477 78.483C96.5136 83.2351 96.6675 89.0358 90.5031 89.0358Z" fill="#F4F4F4"/>
<path d="M90.5031 89.0358H64.4296C63.0195 89.0358 61.8848 87.8965 61.8848 86.4912V74.8237C61.8848 73.4184 63.0283 72.2749 64.4375 72.3238C74.4964 72.6729 84.3882 75.0464 89.477 78.483C96.5136 83.2351 96.6675 89.0358 90.5031 89.0358Z" fill="url(#paint17_linear_701_23059)" fill-opacity="0.4"/>
<mask id="mask1_701_23059" style="mask-type:alpha" maskUnits="userSpaceOnUse" x="61" y="72" width="34" height="18">
<path d="M90.5031 89.0358H64.4296C63.0195 89.0358 61.8848 87.8965 61.8848 86.4912V74.8237C61.8848 73.4184 63.0283 72.2749 64.4375 72.3238C74.4964 72.6729 84.3882 75.0464 89.477 78.483C96.5136 83.2351 96.6675 89.0358 90.5031 89.0358Z" fill="#F4F4F4"/>
<path d="M90.5031 89.0358H64.4296C63.0195 89.0358 61.8848 87.8965 61.8848 86.4912V74.8237C61.8848 73.4184 63.0283 72.2749 64.4375 72.3238C74.4964 72.6729 84.3882 75.0464 89.477 78.483C96.5136 83.2351 96.6675 89.0358 90.5031 89.0358Z" fill="url(#paint18_linear_701_23059)" fill-opacity="0.4"/>
</mask>
<g mask="url(#mask1_701_23059)">
<path d="M92.3067 90.8078H62.3398C60.7192 90.8078 59.415 89.4985 59.415 87.8833V74.4736C59.415 72.8585 60.7293 71.5442 62.3489 71.6004C73.9099 72.0016 85.2788 74.7295 91.1274 78.6793C99.2147 84.141 99.3916 90.8078 92.3067 90.8078Z" fill="url(#paint19_linear_701_23059)" fill-opacity="0.4"/>
<path d="M89.5246 91.0602H63.4511C62.041 91.0602 60.9062 89.9209 60.9062 88.5156V76.8482C60.9062 75.4429 62.0498 74.2993 63.459 74.3482C73.5179 74.6973 83.4097 77.0708 88.4985 80.5075C95.5351 85.2595 95.689 91.0602 89.5246 91.0602Z" fill="white"/>
<path d="M89.5246 91.0602H63.4511C62.041 91.0602 60.9062 89.9209 60.9062 88.5156V76.8482C60.9062 75.4429 62.0498 74.2993 63.459 74.3482C73.5179 74.6973 83.4097 77.0708 88.4985 80.5075C95.5351 85.2595 95.689 91.0602 89.5246 91.0602Z" fill="url(#paint20_linear_701_23059)" fill-opacity="0.5"/>
<g opacity="0.4">
<path d="M-29.9517 94.6891H127.822C127.822 94.6891 110.94 69.3 94.0282 62.4198C80.2321 56.8073 70.7481 66.5284 56.4302 62.4199C36.7832 56.7821 32.6818 31.1548 11.4454 31.8641C-17.9545 32.846 -29.9517 94.6891 -29.9517 94.6891Z" fill="#F4F4F4"/>
<path d="M-29.9517 94.6891H127.822C127.822 94.6891 110.94 69.3 94.0282 62.4198C80.2321 56.8073 70.7481 66.5284 56.4302 62.4199C36.7832 56.7821 32.6818 31.1548 11.4454 31.8641C-17.9545 32.846 -29.9517 94.6891 -29.9517 94.6891Z" fill="url(#paint21_linear_701_23059)"/>
</g>
</g>
<g opacity="0.5">
<ellipse cx="54.6601" cy="96.1574" rx="4.04928" ry="1.69838" fill="#F4F4F4"/>
<ellipse cx="54.6601" cy="96.1574" rx="4.04928" ry="1.69838" fill="url(#paint22_linear_701_23059)" fill-opacity="0.4"/>
</g>
</g>
</g>
</svg>
