<svg width="11" height="18" viewBox="0 0 11 18" fill="none" xmlns="http://www.w3.org/2000/svg">
<path d="M4.33317 7.33366H3.49984V1.50033C3.49984 1.27931 3.41204 1.06735 3.25576 0.91107C3.09948 0.75479 2.88752 0.666992 2.6665 0.666992C2.44549 0.666992 2.23353 0.75479 2.07725 0.91107C1.92097 1.06735 1.83317 1.27931 1.83317 1.50033V7.33366H0.999837C0.778823 7.33366 0.566861 7.42146 0.410581 7.57774C0.254301 7.73402 0.166504 7.94598 0.166504 8.16699C0.166504 8.38801 0.254301 8.59997 0.410581 8.75625C0.566861 8.91253 0.778823 9.00033 0.999837 9.00033H4.33317C4.55418 9.00033 4.76615 8.91253 4.92243 8.75625C5.07871 8.59997 5.1665 8.38801 5.1665 8.16699C5.1665 7.94598 5.07871 7.73402 4.92243 7.57774C4.76615 7.42146 4.55418 7.33366 4.33317 7.33366ZM2.6665 10.667C2.44549 10.667 2.23353 10.7548 2.07725 10.9111C1.92097 11.0674 1.83317 11.2793 1.83317 11.5003V16.5003C1.83317 16.7213 1.92097 16.9333 2.07725 17.0896C2.23353 17.2459 2.44549 17.3337 2.6665 17.3337C2.88752 17.3337 3.09948 17.2459 3.25576 17.0896C3.41204 16.9333 3.49984 16.7213 3.49984 16.5003V11.5003C3.49984 11.2793 3.41204 11.0674 3.25576 10.9111C3.09948 10.7548 2.88752 10.667 2.6665 10.667Z" fill="#454754"/>
<path d="M8.49984 1.50033C8.49984 1.04009 8.87293 0.666992 9.33317 0.666992C9.79341 0.666992 10.1665 1.04009 10.1665 1.50033V2.33366C10.1665 2.7939 9.79341 3.16699 9.33317 3.16699C8.87293 3.16699 8.49984 2.7939 8.49984 2.33366V1.50033Z" fill="#454754"/>
<path d="M8.49984 6.22255C8.49984 5.76231 8.87293 5.38921 9.33317 5.38921C9.79341 5.38921 10.1665 5.76231 10.1665 6.22255V7.05588C10.1665 7.51612 9.79341 7.88921 9.33317 7.88921C8.87293 7.88921 8.49984 7.51612 8.49984 7.05588V6.22255Z" fill="#454754"/>
<path d="M8.49984 10.9448C8.49984 10.4845 8.87293 10.1114 9.33317 10.1114C9.79341 10.1114 10.1665 10.4845 10.1665 10.9448V11.7781C10.1665 12.2383 9.79341 12.6114 9.33317 12.6114C8.87293 12.6114 8.49984 12.2383 8.49984 11.7781V10.9448Z" fill="#454754"/>
<path d="M8.49984 15.667C8.49984 15.2068 8.87293 14.8337 9.33317 14.8337C9.79341 14.8337 10.1665 15.2068 10.1665 15.667V16.5003C10.1665 16.9606 9.79341 17.3337 9.33317 17.3337C8.87293 17.3337 8.49984 16.9606 8.49984 16.5003V15.667Z" fill="#454754"/>
</svg>
