<svg width="12" height="18" viewBox="0 0 12 18" fill="none" xmlns="http://www.w3.org/2000/svg">
<path d="M3.9165 14.0003H2.6665V6.50033H3.9165V14.0003ZM6.62484 14.0003H5.37484V6.50033H6.62484V14.0003ZM9.33317 14.0003H8.08317V6.50033H9.33317V14.0003ZM10.1665 4.00033H8.49984V1.50033C8.49984 1.04199 8.12484 0.666992 7.6665 0.666992H4.33317C3.87484 0.666992 3.49984 1.04199 3.49984 1.50033V4.00033H1.83317C0.916504 4.00033 0.166504 4.75033 0.166504 5.66699V14.8337C0.166504 15.7503 0.916504 16.5003 1.83317 16.5003C1.83317 16.9587 2.20817 17.3337 2.6665 17.3337C3.12484 17.3337 3.49984 16.9587 3.49984 16.5003H8.49984C8.49984 16.9587 8.87484 17.3337 9.33317 17.3337C9.7915 17.3337 10.1665 16.9587 10.1665 16.5003C11.0832 16.5003 11.8332 15.7503 11.8332 14.8337V5.66699C11.8332 4.75033 11.0832 4.00033 10.1665 4.00033ZM4.74984 1.91699H7.24984V4.00033H4.74984V1.91699ZM10.1665 14.8337H1.83317V5.66699H10.1665V14.8337Z" fill="#454754"/>
</svg>
