<svg width="24" height="24" viewBox="0 0 24 24" fill="none" xmlns="http://www.w3.org/2000/svg">
<defs>
<linearGradient id="paint0_linear_4594_22032" x1="2" y1="22" x2="22.986" y2="3.09455" gradientUnits="userSpaceOnUse">
<stop stop-color="#CF1E9E"/>
<stop offset="1" stop-color="#7F50B2"/>
</linearGradient>
<linearGradient id="paint1_linear_4594_22032" x1="2" y1="22" x2="22.986" y2="3.09455" gradientUnits="userSpaceOnUse">
<stop stop-color="#CF1E9E"/>
<stop offset="1" stop-color="#7F50B2"/>
</linearGradient>
</defs>
<path d="M2 12C2 6.47715 6.47715 2 12 2C17.5228 2 22 6.47715 22 12C22 17.5228 17.5228 22 12 22C6.47715 22 2 17.5228 2 12Z" fill="url(#paint0_linear_4594_22032)"/>
<path d="M10.0373 13.3625L15.3998 7.98751C15.634 7.7547 15.9508 7.62402 16.2811 7.62402C16.6113 7.62402 16.9281 7.7547 17.1623 7.98751C17.2795 8.10372 17.3725 8.24197 17.4359 8.39429C17.4994 8.54662 17.5321 8.71 17.5321 8.87501C17.5321 9.04003 17.4994 9.20341 17.4359 9.35573C17.3725 9.50806 17.2795 9.64631 17.1623 9.76251L10.9123 16.0125C10.6795 16.2434 10.3652 16.3736 10.0373 16.375C9.87281 16.376 9.70973 16.3444 9.55744 16.2822C9.40514 16.22 9.26662 16.1284 9.14982 16.0125L6.21232 13.0625C6.08147 12.9505 5.97519 12.8126 5.90016 12.6575C5.82513 12.5024 5.78297 12.3335 5.77632 12.1613C5.76967 11.9892 5.79868 11.8175 5.86152 11.6571C5.92437 11.4967 6.01969 11.351 6.14151 11.2292C6.26333 11.1074 6.40901 11.0121 6.56942 10.9492C6.72982 10.8864 6.90149 10.8574 7.07364 10.864C7.24579 10.8707 7.4147 10.9128 7.56978 10.9879C7.72486 11.0629 7.86276 11.1692 7.97482 11.3L10.0373 13.3625Z" fill="white"/>
<path d="M12 21C7.02944 21 3 16.9706 3 12H1C1 18.0751 5.92487 23 12 23V21ZM21 12C21 16.9706 16.9706 21 12 21V23C18.0751 23 23 18.0751 23 12H21ZM12 3C16.9706 3 21 7.02944 21 12H23C23 5.92487 18.0751 1 12 1V3ZM12 1C5.92487 1 1 5.92487 1 12H3C3 7.02944 7.02944 3 12 3V1Z" fill="url(#paint1_linear_4594_22032)"/>
</svg>
