<svg width="20" height="20" viewBox="0 0 20 20" fill="none" xmlns="http://www.w3.org/2000/svg">
<path d="M12.266 7.32484L8.69102 10.9082L7.31602 9.53317C7.24131 9.44594 7.14938 9.37509 7.04599 9.32507C6.94261 9.27505 6.83 9.24694 6.71523 9.24251C6.60046 9.23807 6.48602 9.25741 6.37908 9.29931C6.27215 9.3412 6.17502 9.40475 6.09381 9.48596C6.0126 9.56717 5.94905 9.6643 5.90715 9.77124C5.86526 9.87817 5.84592 9.99262 5.85035 10.1074C5.85479 10.2221 5.88289 10.3348 5.93291 10.4381C5.98293 10.5415 6.05378 10.6335 6.14102 10.7082L8.09935 12.6748C8.17722 12.7521 8.26957 12.8132 8.3711 12.8546C8.47263 12.8961 8.58135 12.9171 8.69102 12.9165C8.90964 12.9156 9.11914 12.8288 9.27435 12.6748L13.441 8.50817C13.5191 8.4307 13.5811 8.33853 13.6234 8.23698C13.6657 8.13544 13.6875 8.02651 13.6875 7.9165C13.6875 7.80649 13.6657 7.69757 13.6234 7.59602C13.5811 7.49447 13.5191 7.40231 13.441 7.32484C13.2849 7.16963 13.0737 7.08251 12.8535 7.08251C12.6334 7.08251 12.4222 7.16963 12.266 7.32484ZM9.99935 1.6665C8.35118 1.6665 6.74001 2.15525 5.3696 3.07092C3.99919 3.9866 2.93109 5.28809 2.30036 6.81081C1.66963 8.33353 1.5046 10.0091 1.82614 11.6256C2.14769 13.2421 2.94136 14.727 4.1068 15.8924C5.27223 17.0578 6.75709 17.8515 8.3736 18.173C9.99011 18.4946 11.6657 18.3296 13.1884 17.6988C14.7111 17.0681 16.0126 16 16.9283 14.6296C17.8439 13.2592 18.3327 11.648 18.3327 9.99984C18.3327 8.90549 18.1171 7.82186 17.6983 6.81081C17.2796 5.79976 16.6657 4.8811 15.8919 4.10728C15.1181 3.33346 14.1994 2.71963 13.1884 2.30084C12.1773 1.88205 11.0937 1.6665 9.99935 1.6665ZM9.99935 16.6665C8.68081 16.6665 7.39188 16.2755 6.29555 15.543C5.19922 14.8104 4.34474 13.7692 3.84016 12.5511C3.33557 11.3329 3.20355 9.99244 3.46078 8.69924C3.71802 7.40603 4.35296 6.21814 5.28531 5.28579C6.21766 4.35344 7.40554 3.7185 8.69875 3.46127C9.99196 3.20403 11.3324 3.33606 12.5506 3.84064C13.7687 4.34522 14.8099 5.19971 15.5425 6.29604C16.275 7.39236 16.666 8.6813 16.666 9.99984C16.666 11.7679 15.9636 13.4636 14.7134 14.7139C13.4632 15.9641 11.7675 16.6665 9.99935 16.6665Z" fill="#A33AA3"/>
</svg>
