<svg width="20" height="20" viewBox="0 0 20 20" fill="none" xmlns="http://www.w3.org/2000/svg">
<path d="M12.5001 9.16663H10.8334V5.83329C10.8334 5.61228 10.7456 5.40032 10.5893 5.24404C10.4331 5.08776 10.2211 4.99996 10.0001 4.99996C9.77907 4.99996 9.56711 5.08776 9.41083 5.24404C9.25455 5.40032 9.16675 5.61228 9.16675 5.83329V9.99996C9.16675 10.221 9.25455 10.4329 9.41083 10.5892C9.56711 10.7455 9.77907 10.8333 10.0001 10.8333H12.5001C12.7211 10.8333 12.9331 10.7455 13.0893 10.5892C13.2456 10.4329 13.3334 10.221 13.3334 9.99996C13.3334 9.77895 13.2456 9.56698 13.0893 9.4107C12.9331 9.25442 12.7211 9.16663 12.5001 9.16663ZM10.0001 1.66663C8.35191 1.66663 6.74074 2.15537 5.37033 3.07105C3.99992 3.98672 2.93182 5.28821 2.30109 6.81093C1.67036 8.33365 1.50533 10.0092 1.82687 11.6257C2.14842 13.2422 2.94209 14.7271 4.10753 15.8925C5.27297 17.058 6.75782 17.8516 8.37433 18.1732C9.99084 18.4947 11.6664 18.3297 13.1891 17.699C14.7118 17.0682 16.0133 16.0001 16.929 14.6297C17.8447 13.2593 18.3334 11.6481 18.3334 9.99996C18.331 7.79057 17.4522 5.67236 15.89 4.11008C14.3277 2.54781 12.2095 1.66905 10.0001 1.66663ZM10.0001 16.6666C8.68154 16.6666 7.39261 16.2756 6.29628 15.5431C5.19996 14.8105 4.34547 13.7694 3.84089 12.5512C3.3363 11.333 3.20428 9.99256 3.46152 8.69936C3.71875 7.40615 4.35369 6.21826 5.28604 5.28591C6.21839 4.35356 7.40628 3.71863 8.69948 3.46139C9.99269 3.20416 11.3331 3.33618 12.5513 3.84076C13.7695 4.34535 14.8107 5.19983 15.5432 6.29616C16.2758 7.39249 16.6668 8.68142 16.6668 9.99996C16.6645 11.7674 15.9615 13.4618 14.7117 14.7116C13.4619 15.9613 11.7675 16.6644 10.0001 16.6666Z" fill="#454754"/>
</svg>
