<svg width="16" height="17" viewBox="0 0 16 17" fill="none" xmlns="http://www.w3.org/2000/svg">
<path d="M8.94028 8.5L13.1403 4.30667C13.2658 4.18113 13.3363 4.01087 13.3363 3.83333C13.3363 3.6558 13.2658 3.48554 13.1403 3.36C13.0147 3.23447 12.8445 3.16394 12.667 3.16394C12.4894 3.16394 12.3192 3.23447 12.1936 3.36L8.00029 7.56L3.80695 3.36C3.68142 3.23447 3.51115 3.16394 3.33362 3.16394C3.15608 3.16394 2.98582 3.23447 2.86028 3.36C2.73475 3.48554 2.66422 3.6558 2.66422 3.83333C2.66422 4.01087 2.73475 4.18113 2.86028 4.30667L7.06029 8.5L2.86028 12.6933C2.7978 12.7553 2.7482 12.829 2.71436 12.9103C2.68051 12.9915 2.66309 13.0787 2.66309 13.1667C2.66309 13.2547 2.68051 13.3418 2.71436 13.4231C2.7482 13.5043 2.7978 13.578 2.86028 13.64C2.92226 13.7025 2.99599 13.7521 3.07723 13.7859C3.15847 13.8198 3.24561 13.8372 3.33362 13.8372C3.42163 13.8372 3.50876 13.8198 3.59 13.7859C3.67124 13.7521 3.74498 13.7025 3.80695 13.64L8.00029 9.44L12.1936 13.64C12.2556 13.7025 12.3293 13.7521 12.4106 13.7859C12.4918 13.8198 12.5789 13.8372 12.667 13.8372C12.755 13.8372 12.8421 13.8198 12.9233 13.7859C13.0046 13.7521 13.0783 13.7025 13.1403 13.64C13.2028 13.578 13.2524 13.5043 13.2862 13.4231C13.3201 13.3418 13.3375 13.2547 13.3375 13.1667C13.3375 13.0787 13.3201 12.9915 13.2862 12.9103C13.2524 12.829 13.2028 12.7553 13.1403 12.6933L8.94028 8.5Z" fill="#73768C"/>
</svg>
