<svg width="17" height="18" viewBox="0 0 17 18" fill="none" xmlns="http://www.w3.org/2000/svg">
<path d="M8.47347 10.6667C8.26745 10.6667 8.06606 10.7278 7.89475 10.8423C7.72345 10.9568 7.58994 11.1194 7.5111 11.3098C7.43226 11.5001 7.41163 11.7096 7.45182 11.9116C7.49202 12.1137 7.59122 12.2993 7.7369 12.445C7.88258 12.5907 8.06819 12.6899 8.27025 12.7301C8.47232 12.7703 8.68176 12.7496 8.8721 12.6708C9.06244 12.5919 9.22513 12.4584 9.33959 12.2871C9.45405 12.1158 9.51514 11.9144 9.51514 11.7084C9.51514 11.4321 9.40539 11.1672 9.21004 10.9718C9.01469 10.7765 8.74974 10.6667 8.47347 10.6667ZM8.47347 9.41675C8.69449 9.41675 8.90645 9.32895 9.06273 9.17267C9.21901 9.01639 9.30681 8.80443 9.30681 8.58342V6.08342C9.30681 5.8624 9.21901 5.65044 9.06273 5.49416C8.90645 5.33788 8.69449 5.25008 8.47347 5.25008C8.25246 5.25008 8.0405 5.33788 7.88422 5.49416C7.72794 5.65044 7.64014 5.8624 7.64014 6.08342V8.58342C7.64014 8.80443 7.72794 9.01639 7.88422 9.17267C8.0405 9.32895 8.25246 9.41675 8.47347 9.41675ZM8.47347 0.666748C6.8253 0.666748 5.21413 1.15549 3.84372 2.07117C2.47331 2.98685 1.40521 4.28834 0.774478 5.81105C0.143747 7.33377 -0.0212804 9.00933 0.300263 10.6258C0.621807 12.2423 1.41548 13.7272 2.58092 14.8926C3.74635 16.0581 5.23121 16.8517 6.84772 17.1733C8.46423 17.4948 10.1398 17.3298 11.6625 16.6991C13.1852 16.0683 14.4867 15.0002 15.4024 13.6298C16.3181 12.2594 16.8068 10.6483 16.8068 9.00008C16.8044 6.79069 15.9256 4.67248 14.3633 3.1102C12.8011 1.54793 10.6829 0.669174 8.47347 0.666748ZM8.47347 15.6667C7.15493 15.6667 5.866 15.2758 4.76967 14.5432C3.67334 13.8107 2.81886 12.7695 2.31428 11.5513C1.80969 10.3331 1.67767 8.99269 1.93491 7.69948C2.19214 6.40627 2.82708 5.21839 3.75943 4.28604C4.69178 3.35369 5.87967 2.71875 7.17287 2.46151C8.46608 2.20428 9.80652 2.3363 11.0247 2.84088C12.2429 3.34547 13.2841 4.19995 14.0166 5.29628C14.7491 6.39261 15.1401 7.68154 15.1401 9.00008C15.1379 10.7675 14.4348 12.4619 13.1851 13.7117C11.9353 14.9615 10.2409 15.6645 8.47347 15.6667Z" fill="#454754"/>
</svg>
