<svg width="20" height="20" viewBox="0 0 20 20" fill="none" xmlns="http://www.w3.org/2000/svg">
<path d="M15 10.125V2.49996C15 2.27895 14.9122 2.06698 14.7559 1.9107C14.5996 1.75442 14.3877 1.66663 14.1667 1.66663C13.9457 1.66663 13.7337 1.75442 13.5774 1.9107C13.4211 2.06698 13.3333 2.27895 13.3333 2.49996V10.125C12.6116 10.3345 11.9776 10.7729 11.5267 11.3741C11.0758 11.9753 10.8324 12.7068 10.8333 13.4583C10.8333 15.1666 12.1 18.2916 14.1667 18.2916C16.2333 18.2916 17.5 15.1666 17.5 13.4583C17.5009 12.7068 17.2576 11.9753 16.8067 11.3741C16.3558 10.7729 15.7217 10.3345 15 10.125ZM14.1667 16.6666C13.5 16.6666 12.5 14.775 12.5 13.5C12.4796 13.0363 12.6434 12.5833 12.9556 12.2399C13.2678 11.8964 13.7031 11.6904 14.1667 11.6666C14.6302 11.6904 15.0655 11.8964 15.3778 12.2399C15.69 12.5833 15.8537 13.0363 15.8333 13.5C15.8333 14.775 14.8333 16.6666 14.1667 16.6666ZM8.33333 1.66663C8.11232 1.66663 7.90036 1.75442 7.74408 1.9107C7.5878 2.06698 7.5 2.27895 7.5 2.49996V7.04996L6.66667 7.60829V2.49996C6.66667 2.27895 6.57887 2.06698 6.42259 1.9107C6.26631 1.75442 6.05435 1.66663 5.83333 1.66663C5.61232 1.66663 5.40036 1.75442 5.24408 1.9107C5.0878 2.06698 5 2.27895 5 2.49996V7.60829L4.16667 7.04996V2.49996C4.16667 2.27895 4.07887 2.06698 3.92259 1.9107C3.76631 1.75442 3.55435 1.66663 3.33333 1.66663C3.11232 1.66663 2.90036 1.75442 2.74408 1.9107C2.5878 2.06698 2.5 2.27895 2.5 2.49996V7.49996C2.50071 7.63722 2.53531 7.77217 2.60073 7.89284C2.66615 8.0135 2.76037 8.11614 2.875 8.19163L5 9.61663V17.5C5 17.721 5.0878 17.9329 5.24408 18.0892C5.40036 18.2455 5.61232 18.3333 5.83333 18.3333C6.05435 18.3333 6.26631 18.2455 6.42259 18.0892C6.57887 17.9329 6.66667 17.721 6.66667 17.5V9.61663L8.79167 8.19163C8.9063 8.11614 9.00051 8.0135 9.06593 7.89284C9.13135 7.77217 9.16596 7.63722 9.16667 7.49996V2.49996C9.16667 2.27895 9.07887 2.06698 8.92259 1.9107C8.76631 1.75442 8.55435 1.66663 8.33333 1.66663Z" fill="#454754"/>
</svg>
