<svg width="18" height="17" viewBox="0 0 18 17" fill="none" xmlns="http://www.w3.org/2000/svg">
<path d="M10.4099 8.00409L16.7099 1.71409C16.8982 1.52579 17.004 1.27039 17.004 1.00409C17.004 0.73779 16.8982 0.482395 16.7099 0.294092C16.5216 0.105788 16.2662 0 15.9999 0C15.7336 0 15.4782 0.105788 15.2899 0.294092L8.99994 6.59409L2.70994 0.294092C2.52164 0.105788 2.26624 2.36434e-07 1.99994 2.38419e-07C1.73364 2.40403e-07 1.47824 0.105788 1.28994 0.294092C1.10164 0.482395 0.995847 0.73779 0.995847 1.00409C0.995847 1.27039 1.10164 1.52579 1.28994 1.71409L7.58994 8.00409L1.28994 14.2941C1.19621 14.3871 1.12182 14.4977 1.07105 14.6195C1.02028 14.7414 0.994141 14.8721 0.994141 15.0041C0.994141 15.1361 1.02028 15.2668 1.07105 15.3887C1.12182 15.5105 1.19621 15.6211 1.28994 15.7141C1.3829 15.8078 1.4935 15.8822 1.61536 15.933C1.73722 15.9838 1.86793 16.0099 1.99994 16.0099C2.13195 16.0099 2.26266 15.9838 2.38452 15.933C2.50638 15.8822 2.61698 15.8078 2.70994 15.7141L8.99994 9.41409L15.2899 15.7141C15.3829 15.8078 15.4935 15.8822 15.6154 15.933C15.7372 15.9838 15.8679 16.0099 15.9999 16.0099C16.132 16.0099 16.2627 15.9838 16.3845 15.933C16.5064 15.8822 16.617 15.8078 16.7099 15.7141C16.8037 15.6211 16.8781 15.5105 16.9288 15.3887C16.9796 15.2668 17.0057 15.1361 17.0057 15.0041C17.0057 14.8721 16.9796 14.7414 16.9288 14.6195C16.8781 14.4977 16.8037 14.3871 16.7099 14.2941L10.4099 8.00409Z" fill="white"/>
</svg>
