<svg width="219" height="207" viewBox="0 0 219 207" fill="none" xmlns="http://www.w3.org/2000/svg">
<defs>
<filter id="filter0_d_8062_19549" x="78.7305" y="0.19043" width="140.036" height="129.584" filterUnits="userSpaceOnUse" color-interpolation-filters="sRGB">
<feFlood flood-opacity="0" result="BackgroundImageFix"/>
<feColorMatrix in="SourceAlpha" type="matrix" values="0 0 0 0 0 0 0 0 0 0 0 0 0 0 0 0 0 0 127 0" result="hardAlpha"/>
<feOffset dx="3" dy="4"/>
<feGaussianBlur stdDeviation="15"/>
<feColorMatrix type="matrix" values="0 0 0 0 0.635294 0 0 0 0 0.560784 0 0 0 0 0.639216 0 0 0 0.2 0"/>
<feBlend mode="normal" in2="BackgroundImageFix" result="effect1_dropShadow_8062_19549"/>
<feBlend mode="normal" in="SourceGraphic" in2="effect1_dropShadow_8062_19549" result="shape"/>
</filter>
<filter id="filter1_d_8062_19549" x="81.2939" y="57.0972" width="77.5659" height="75.7168" filterUnits="userSpaceOnUse" color-interpolation-filters="sRGB">
<feFlood flood-opacity="0" result="BackgroundImageFix"/>
<feColorMatrix in="SourceAlpha" type="matrix" values="0 0 0 0 0 0 0 0 0 0 0 0 0 0 0 0 0 0 127 0" result="hardAlpha"/>
<feOffset dx="3" dy="4"/>
<feGaussianBlur stdDeviation="15"/>
<feColorMatrix type="matrix" values="0 0 0 0 0.635294 0 0 0 0 0.560784 0 0 0 0 0.639216 0 0 0 0.2 0"/>
<feBlend mode="normal" in2="BackgroundImageFix" result="effect1_dropShadow_8062_19549"/>
<feBlend mode="normal" in="SourceGraphic" in2="effect1_dropShadow_8062_19549" result="shape"/>
</filter>
<linearGradient id="paint0_linear_8062_19549" x1="63.8028" y1="220.659" x2="182.235" y2="47.5453" gradientUnits="userSpaceOnUse">
<stop stop-color="#D1145A" stop-opacity="0.37"/>
<stop offset="1" stop-color="white" stop-opacity="0"/>
</linearGradient>
<linearGradient id="paint1_linear_8062_19549" x1="136.723" y1="158.908" x2="98.0855" y2="135.206" gradientUnits="userSpaceOnUse">
<stop stop-color="#562F88"/>
<stop offset="1" stop-color="#CFA9E0"/>
</linearGradient>
<linearGradient id="paint2_linear_8062_19549" x1="113.747" y1="206.382" x2="20.6697" y2="138.695" gradientUnits="userSpaceOnUse">
<stop stop-color="#562F88"/>
<stop offset="1" stop-color="#CFA9E0"/>
</linearGradient>
<linearGradient id="paint3_linear_8062_19549" x1="68.3009" y1="112.262" x2="77.727" y2="152.831" gradientUnits="userSpaceOnUse">
<stop stop-color="#7345A2"/>
<stop offset="1" stop-color="#7A53A2" stop-opacity="0"/>
</linearGradient>
<linearGradient id="paint4_linear_8062_19549" x1="83.8487" y1="218.508" x2="126.823" y2="108.565" gradientUnits="userSpaceOnUse">
<stop stop-color="#E1C5E3"/>
<stop offset="1" stop-color="white" stop-opacity="0"/>
</linearGradient>
<linearGradient id="paint5_linear_8062_19549" x1="58.0969" y1="162.956" x2="100.583" y2="159.249" gradientUnits="userSpaceOnUse">
<stop stop-color="#F0AEC0"/>
<stop offset="1" stop-color="#F5C0C5" stop-opacity="0"/>
</linearGradient>
<linearGradient id="paint6_linear_8062_19549" x1="28.8012" y1="218.447" x2="72.3702" y2="106.63" gradientUnits="userSpaceOnUse">
<stop stop-color="#E1C5E3"/>
<stop offset="1" stop-color="white" stop-opacity="0"/>
</linearGradient>
<linearGradient id="paint7_linear_8062_19549" x1="2.54982" y1="161.995" x2="45.8583" y2="158.205" gradientUnits="userSpaceOnUse">
<stop stop-color="#F0AEC0"/>
<stop offset="1" stop-color="#F5C0C5" stop-opacity="0"/>
</linearGradient>
<linearGradient id="paint8_linear_8062_19549" x1="116.164" y1="181.038" x2="147.394" y2="167.841" gradientUnits="userSpaceOnUse">
<stop stop-color="#E1A77E"/>
<stop offset="1" stop-color="#F6D3BA" stop-opacity="0"/>
</linearGradient>
<radialGradient id="paint9_radial_8062_19549" cx="0" cy="0" r="1" gradientUnits="userSpaceOnUse" gradientTransform="translate(144.197 148.361) rotate(-175.833) scale(20.4412 41.5324)">
<stop stop-color="white" stop-opacity="0.63"/>
<stop offset="1" stop-color="white" stop-opacity="0"/>
</radialGradient>
<linearGradient id="paint10_linear_8062_19549" x1="55.6891" y1="111.237" x2="69.7786" y2="83.9466" gradientUnits="userSpaceOnUse">
<stop stop-color="#DB822F"/>
<stop offset="1" stop-color="#F6D3BA" stop-opacity="0"/>
</linearGradient>
<linearGradient id="paint11_linear_8062_19549" x1="58.2895" y1="98.7541" x2="61.6052" y2="78.8598" gradientUnits="userSpaceOnUse">
<stop/>
<stop offset="1" stop-opacity="0"/>
</linearGradient>
<linearGradient id="paint12_linear_8062_19549" x1="86.2418" y1="96.355" x2="93.763" y2="94.7511" gradientUnits="userSpaceOnUse">
<stop stop-color="#322113"/>
<stop offset="1" stop-color="#402D2D" stop-opacity="0"/>
</linearGradient>
<linearGradient id="paint13_linear_8062_19549" x1="84.6783" y1="124.904" x2="77.1013" y2="108.745" gradientUnits="userSpaceOnUse">
<stop stop-color="#E1C5E3"/>
<stop offset="1" stop-color="white" stop-opacity="0"/>
</linearGradient>
<linearGradient id="paint14_linear_8062_19549" x1="72.8928" y1="123.356" x2="82.8664" y2="112.951" gradientUnits="userSpaceOnUse">
<stop stop-color="#F0AEC0"/>
<stop offset="1" stop-color="#F5C0C5" stop-opacity="0"/>
</linearGradient>
<linearGradient id="paint15_linear_8062_19549" x1="54.5152" y1="117.395" x2="65.2965" y2="102.308" gradientUnits="userSpaceOnUse">
<stop stop-color="#E1C5E3"/>
<stop offset="1" stop-color="white" stop-opacity="0"/>
</linearGradient>
<linearGradient id="paint16_linear_8062_19549" x1="50.2476" y1="106.166" x2="64.0321" y2="109.748" gradientUnits="userSpaceOnUse">
<stop stop-color="#F0AEC0"/>
<stop offset="1" stop-color="#F5C0C5" stop-opacity="0"/>
</linearGradient>
<linearGradient id="paint17_linear_8062_19549" x1="31.212" y1="143.191" x2="5.48965" y2="128.437" gradientUnits="userSpaceOnUse">
<stop stop-color="#562F88"/>
<stop offset="1" stop-color="#CFA9E0"/>
</linearGradient>
<linearGradient id="paint18_linear_8062_19549" x1="35.2196" y1="162.23" x2="0.592427" y2="148.02" gradientUnits="userSpaceOnUse">
<stop stop-color="#562F88"/>
<stop offset="1" stop-color="#CFA9E0"/>
</linearGradient>
<linearGradient id="paint19_linear_8062_19549" x1="17.5759" y1="118.855" x2="22.8584" y2="130.118" gradientUnits="userSpaceOnUse">
<stop stop-color="#6E489A"/>
<stop offset="1" stop-color="#6E489A" stop-opacity="0"/>
</linearGradient>
<linearGradient id="paint20_linear_8062_19549" x1="51.6866" y1="94.613" x2="185.924" y2="21.1052" gradientUnits="userSpaceOnUse">
<stop stop-color="#CF1E9E"/>
<stop offset="1" stop-color="#7F50B2"/>
</linearGradient>
<linearGradient id="paint21_linear_8062_19549" x1="75.6571" y1="92.2293" x2="73.4116" y2="65.0973" gradientUnits="userSpaceOnUse">
<stop stop-color="#AB6FC8"/>
<stop offset="0.884034" stop-color="#E80088" stop-opacity="0"/>
</linearGradient>
<linearGradient id="paint22_linear_8062_19549" x1="83.7106" y1="90.6115" x2="68.6623" y2="74.288" gradientUnits="userSpaceOnUse">
<stop/>
<stop offset="1" stop-opacity="0"/>
</linearGradient>
<linearGradient id="paint23_linear_8062_19549" x1="157.073" y1="106.675" x2="133.481" y2="114.318" gradientUnits="userSpaceOnUse">
<stop offset="0.1683" stop-color="#282828"/>
<stop offset="1" stop-color="#D5D5D5"/>
</linearGradient>
<linearGradient id="paint24_linear_8062_19549" x1="149.49" y1="128.448" x2="158.002" y2="106.857" gradientUnits="userSpaceOnUse">
<stop stop-color="#D1145A" stop-opacity="0.37"/>
<stop offset="1" stop-color="white" stop-opacity="0"/>
</linearGradient>
<linearGradient id="paint25_linear_8062_19549" x1="146.28" y1="105.081" x2="146.28" y2="127.075" gradientUnits="userSpaceOnUse">
<stop offset="0.676695" stop-opacity="0"/>
<stop offset="1" stop-color="#151515" stop-opacity="0.1"/>
</linearGradient>
<linearGradient id="paint26_linear_8062_19549" x1="131.175" y1="119.601" x2="132.392" y2="112.012" gradientUnits="userSpaceOnUse">
<stop stop-color="#A474A8"/>
<stop offset="1" stop-color="white" stop-opacity="0"/>
</linearGradient>
<linearGradient id="paint27_linear_8062_19549" x1="130.242" y1="119.134" x2="134.387" y2="116.77" gradientUnits="userSpaceOnUse">
<stop offset="0.0108745" stop-color="#7F50B2"/>
<stop offset="1" stop-color="white" stop-opacity="0"/>
</linearGradient>
<linearGradient id="paint28_linear_8062_19549" x1="119.019" y1="120.799" x2="129.09" y2="116.204" gradientUnits="userSpaceOnUse">
<stop stop-color="#A474A8"/>
<stop offset="1" stop-color="white" stop-opacity="0"/>
</linearGradient>
<linearGradient id="paint29_linear_8062_19549" x1="118.467" y1="118.502" x2="127.674" y2="121.137" gradientUnits="userSpaceOnUse">
<stop offset="0.0108745" stop-color="#7F50B2"/>
<stop offset="1" stop-color="white" stop-opacity="0"/>
</linearGradient>
<linearGradient id="paint30_linear_8062_19549" x1="112.07" y1="195.314" x2="128.55" y2="129.667" gradientUnits="userSpaceOnUse">
<stop stop-color="#DB822F"/>
<stop offset="1" stop-color="#F6D3BA" stop-opacity="0"/>
</linearGradient>
<linearGradient id="paint31_linear_8062_19549" x1="53.4542" y1="162.46" x2="84.6164" y2="171.236" gradientUnits="userSpaceOnUse">
<stop stop-opacity="0"/>
<stop offset="0.940625"/>
</linearGradient>
<linearGradient id="paint32_linear_8062_19549" x1="72.1032" y1="157.873" x2="85.1412" y2="170.856" gradientUnits="userSpaceOnUse">
<stop stop-opacity="0"/>
<stop offset="0.940625"/>
</linearGradient>
<linearGradient id="paint33_linear_8062_19549" x1="82.1231" y1="168.083" x2="79.931" y2="158.328" gradientUnits="userSpaceOnUse">
<stop stop-color="#A474A8"/>
<stop offset="1" stop-color="white" stop-opacity="0"/>
</linearGradient>
<linearGradient id="paint34_linear_8062_19549" x1="32.0622" y1="124.011" x2="14.9851" y2="108.61" gradientUnits="userSpaceOnUse">
<stop stop-color="#E1A77E"/>
<stop offset="1" stop-color="#F6D3BA" stop-opacity="0"/>
</linearGradient>
<radialGradient id="paint35_radial_8062_19549" cx="0" cy="0" r="1" gradientUnits="userSpaceOnUse" gradientTransform="translate(57.9223 102.761) rotate(173.449) scale(37.0353 25.9751)">
<stop stop-color="white" stop-opacity="0.63"/>
<stop offset="1" stop-color="white" stop-opacity="0"/>
</radialGradient>
<linearGradient id="paint36_linear_8062_19549" x1="44.5412" y1="152.749" x2="14.2657" y2="60.4491" gradientUnits="userSpaceOnUse">
<stop stop-color="#F5F4CA"/>
<stop offset="1" stop-color="white" stop-opacity="0"/>
</linearGradient>
<linearGradient id="paint37_linear_8062_19549" x1="146.515" y1="98.7326" x2="143.122" y2="77.6259" gradientUnits="userSpaceOnUse">
<stop stop-color="#F5F4CA"/>
<stop offset="1" stop-color="white" stop-opacity="0"/>
</linearGradient>
<linearGradient id="paint38_linear_8062_19549" x1="140.67" y1="79.8191" x2="201.346" y2="44.5248" gradientUnits="userSpaceOnUse">
<stop stop-color="#D1145A" stop-opacity="0.37"/>
<stop offset="1" stop-color="white" stop-opacity="0"/>
</linearGradient>
<linearGradient id="paint39_linear_8062_19549" x1="142.442" y1="87.6531" x2="163.542" y2="55.0868" gradientUnits="userSpaceOnUse">
<stop stop-color="#D1145A" stop-opacity="0.37"/>
<stop offset="1" stop-color="white" stop-opacity="0"/>
</linearGradient>
</defs>
<path d="M18.0874 167.937C-4.7773 139.034 6.04665 67.2554 54.4594 67.2554C66.4215 46.0159 115.087 29.3671 152.679 53.129C204.266 85.7376 199.175 173.893 145.798 194.112C83.4854 217.717 50.3939 208.775 18.0874 167.937Z" fill="#FFFBD5"/>
<path d="M18.0874 167.937C-4.7773 139.034 6.04665 67.2554 54.4594 67.2554C66.4215 46.0159 115.087 29.3671 152.679 53.129C204.266 85.7376 199.175 173.893 145.798 194.112C83.4854 217.717 50.3939 208.775 18.0874 167.937Z" fill="url(#paint0_linear_8062_19549)"/>
<path d="M141.577 146.296C133.071 129.479 112.146 118.113 102.747 114.531C111.622 123.126 118.156 147.697 120.313 158.908C124.751 151.061 136.338 147.23 141.577 146.296Z" fill="url(#paint1_linear_8062_19549)"/>
<path d="M64.5645 106.21C54.4781 108.119 41.8121 115.91 36.74 119.567C30.8272 125.673 26.3364 156.838 24.1626 174.965C53.1454 209.761 85.6524 211.477 121.237 202.131L118.909 151.05C114.04 117.086 97.751 108.596 90.2152 108.596C76.3029 110.504 66.1586 110.345 64.5645 106.21Z" fill="url(#paint2_linear_8062_19549)"/>
<path d="M64.5645 106.21C54.4781 108.119 41.8121 115.91 36.74 119.567C30.8272 125.673 26.3364 156.838 24.1626 174.965C53.1454 209.761 85.6524 211.477 121.237 202.131L118.909 151.05C114.04 117.086 97.751 108.596 90.2152 108.596C76.3029 110.504 66.1586 110.345 64.5645 106.21Z" fill="url(#paint3_linear_8062_19549)"/>
<path d="M87.0123 108.159L77.7847 118.012C91.5224 133.473 92.3401 186.368 89.335 206.983C98.8267 206.983 113.576 204.689 124.935 201.08L119.639 156.886C117.064 132.522 108.191 118.623 103.755 114.718C97.9167 108.721 91.3054 107.69 87.0123 108.159Z" fill="#F7F7F7"/>
<path d="M87.0123 108.159L77.7847 118.012C91.5224 133.473 92.3401 186.368 89.335 206.983C98.8267 206.983 113.576 204.689 124.935 201.08L119.639 156.886C117.064 132.522 108.191 118.623 103.755 114.718C97.9167 108.721 91.3054 107.69 87.0123 108.159Z" fill="url(#paint4_linear_8062_19549)"/>
<path d="M87.0123 108.159L77.7847 118.012C91.5224 133.473 92.3401 186.368 89.335 206.983C98.8267 206.983 113.576 204.689 124.935 201.08L119.639 156.886C117.064 132.522 108.191 118.623 103.755 114.718C97.9167 108.721 91.3054 107.69 87.0123 108.159Z" fill="url(#paint5_linear_8062_19549)"/>
<path d="M62.0157 106.21C54.56 107.33 42.529 114.762 37.4456 118.338C40.8346 131.771 30.3857 154.109 24.7374 163.438L21.3887 171.371C31.146 185.631 52.4343 199.806 60.9465 201.436C56.4676 182.539 61.3377 123.934 68.5393 113.673L62.0157 106.21Z" fill="#F7F7F7"/>
<path d="M62.0157 106.21C54.56 107.33 42.529 114.762 37.4456 118.338C40.8346 131.771 30.3857 154.109 24.7374 163.438L21.3887 171.371C31.146 185.631 52.4343 199.806 60.9465 201.436C56.4676 182.539 61.3377 123.934 68.5393 113.673L62.0157 106.21Z" fill="url(#paint6_linear_8062_19549)"/>
<path d="M62.0157 106.21C54.56 107.33 42.529 114.762 37.4456 118.338C40.8346 131.771 30.3857 154.109 24.7374 163.438L21.3887 171.371C31.146 185.631 52.4343 199.806 60.9465 201.436C56.4676 182.539 61.3377 123.934 68.5393 113.673L62.0157 106.21Z" fill="url(#paint7_linear_8062_19549)"/>
<path d="M118.546 179.519C109.934 176.314 110.53 161.8 111.8 154.956C120.148 140.026 131.565 125.872 140.618 118.562C139.093 115.95 139.983 111.564 140.618 109.697C141.571 106.587 144.239 102.045 147.288 108.764C150.338 115.483 143.477 124.006 139.665 127.428C140.427 130.414 141.888 140.181 142.524 144.691C144.43 166.341 135.47 176.875 131.658 179.519C127.846 181.385 124.804 181.848 118.546 179.519Z" fill="#F7D3BA"/>
<path d="M118.546 179.519C109.934 176.314 110.53 161.8 111.8 154.956C120.148 140.026 131.565 125.872 140.618 118.562C139.093 115.95 139.983 111.564 140.618 109.697C141.571 106.587 144.239 102.045 147.288 108.764C150.338 115.483 143.477 124.006 139.665 127.428C140.427 130.414 141.888 140.181 142.524 144.691C144.43 166.341 135.47 176.875 131.658 179.519C127.846 181.385 124.804 181.848 118.546 179.519Z" fill="url(#paint8_linear_8062_19549)"/>
<path d="M118.546 179.519C109.934 176.314 110.53 161.8 111.8 154.956C120.148 140.026 131.565 125.872 140.618 118.562C139.093 115.95 139.983 111.564 140.618 109.697C141.571 106.587 144.239 102.045 147.288 108.764C150.338 115.483 143.477 124.006 139.665 127.428C140.427 130.414 141.888 140.181 142.524 144.691C144.43 166.341 135.47 176.875 131.658 179.519C127.846 181.385 124.804 181.848 118.546 179.519Z" fill="url(#paint9_radial_8062_19549)"/>
<path d="M89.1747 98.9427C87.1029 109.867 75.0628 111.635 69.932 109.415C62.4156 106.162 56.0602 99.2849 61.0918 89.37C63.9654 80.9399 72.5823 76.2553 80.3345 78.8978C88.0866 81.5403 92.0464 90.5183 89.1747 98.9427Z" fill="#F6D3BA"/>
<path d="M89.1742 98.9419C87.1023 109.866 75.0625 111.635 69.9315 109.414C62.1793 106.772 56.0597 99.2841 61.0912 89.3692C63.9649 80.9391 72.5818 76.2545 80.334 78.897C88.0861 81.5395 92.0459 90.5175 89.1742 98.9419Z" fill="#F7D3BA"/>
<path d="M89.1742 98.9419C87.1023 109.866 75.0625 111.635 69.9315 109.414C62.1793 106.772 56.0597 99.2841 61.0912 89.3692C63.9649 80.9391 72.5818 76.2545 80.334 78.897C88.0861 81.5395 92.0459 90.5175 89.1742 98.9419Z" fill="url(#paint10_linear_8062_19549)"/>
<path d="M88.9424 95.1832C81.763 96.5659 76.0841 90.5799 73.6397 84.2179C69.2641 89.1904 64.682 86.5868 62.2669 88.7474C61.5402 90.8792 59.4941 94.6501 59.2688 96.132C55.1631 92.1813 52.9263 87.203 57.5214 81.1093C61.1937 76.2343 65.8611 75.9716 68.1461 77.4567C71.3385 73.0162 82.538 72.1512 90.7143 82.5984C97.2604 90.9566 91.414 99.0032 88.8881 100.267C89.5487 97.0885 89.0609 96.0761 88.9424 95.1832Z" fill="#7A5C47"/>
<path d="M88.9424 95.1832C81.763 96.5659 76.0841 90.5799 73.6397 84.2179C69.2641 89.1904 64.682 86.5868 62.2669 88.7474C61.5402 90.8792 59.4941 94.6501 59.2688 96.132C55.1631 92.1813 52.9263 87.203 57.5214 81.1093C61.1937 76.2343 65.8611 75.9716 68.1461 77.4567C71.3385 73.0162 82.538 72.1512 90.7143 82.5984C97.2604 90.9566 91.414 99.0032 88.8881 100.267C89.5487 97.0885 89.0609 96.0761 88.9424 95.1832Z" fill="url(#paint11_linear_8062_19549)" fill-opacity="0.6"/>
<path d="M93.4298 90.3571C92.5814 92.5065 92.5279 93.4184 88.8229 95.0489C89.615 96.921 89.1263 99.2727 88.8719 100.357C90.0032 99.4784 92.314 97.0662 92.7916 95.0794C93.5619 92.4129 93.6055 90.9055 93.4298 90.3571Z" fill="url(#paint12_linear_8062_19549)"/>
<path d="M86.7765 104.392L90.8721 107.948L87.7113 120.642L77.9259 118.141L77.5071 118.102L77.9952 117.376L86.7765 104.392Z" fill="#F7F7F7"/>
<path d="M86.7765 104.392L90.8721 107.948L87.7113 120.642L77.9259 118.141L77.5071 118.102L77.9952 117.376L86.7765 104.392Z" fill="url(#paint13_linear_8062_19549)"/>
<path d="M86.7765 104.392L90.8721 107.948L87.7113 120.642L77.9259 118.141L77.5071 118.102L77.9952 117.376L86.7765 104.392Z" fill="url(#paint14_linear_8062_19549)"/>
<path d="M103.049 175.355C103.035 175.338 103.016 175.318 103.001 175.302L102.998 175.308C103.012 175.324 103.035 175.338 103.049 175.355Z" fill="#F7F8F8"/>
<path d="M71.8973 114.707L71.6342 114.856L62.3564 119.102L57.6617 106.18L61.378 102.503L63.583 105.058L71.6286 114.393L71.8973 114.707Z" fill="#F7F7F7"/>
<path d="M71.8973 114.707L71.6342 114.856L62.3564 119.102L57.6617 106.18L61.378 102.503L63.583 105.058L71.6286 114.393L71.8973 114.707Z" fill="url(#paint15_linear_8062_19549)"/>
<path d="M71.8973 114.707L71.6342 114.856L62.3564 119.102L57.6617 106.18L61.378 102.503L63.583 105.058L71.6286 114.393L71.8973 114.707Z" fill="url(#paint16_linear_8062_19549)"/>
<path d="M34.3322 112.682L9.45397 143.191C9.45397 143.191 8.81419 137.766 11.0685 134.358C17.5999 124.485 34.3322 112.682 34.3322 112.682Z" fill="url(#paint17_linear_8062_19549)"/>
<path d="M9.37012 143.348C16.1477 135.636 27.9599 115.834 34.0408 111.758C46.2775 124.182 32.686 158.481 25.4335 162.607C17.5571 154.661 11.6336 146.921 9.37012 143.348Z" fill="url(#paint18_linear_8062_19549)"/>
<path d="M33.3234 124.83C35.6256 122.827 35.402 116.513 35.0024 113.606L18.6152 132.097C22.5588 130.509 31.0213 126.832 33.3234 124.83Z" fill="url(#paint19_linear_8062_19549)"/>
<path d="M57.5125 69.2052C46.8762 68.2102 52.1777 75.479 58.3582 79.7003L90.5476 94.1515C90.3779 78.9067 70.5479 70.4247 57.5125 69.2052Z" fill="url(#paint20_linear_8062_19549)"/>
<path d="M58.3864 79.3444C68.0573 89.4027 85.0605 94.0784 91.9382 95.118C93.4964 85.3304 95.0496 78.358 80.01 72.2523C64.2282 65.8453 59.0753 75.8747 58.3864 79.3444Z" fill="white"/>
<path d="M58.3864 79.3444C68.0573 89.4027 85.0605 94.0784 91.9382 95.118C93.4964 85.3304 95.0496 78.358 80.01 72.2523C64.2282 65.8453 59.0753 75.8747 58.3864 79.3444Z" fill="url(#paint21_linear_8062_19549)"/>
<path d="M85.4173 89.8616C81.2282 89.0723 77.3805 86.9226 75.9802 85.9465C76.0695 85.1341 77.5561 82.8308 82.7031 84.63C85.7428 85.6925 85.8072 88.808 85.4173 89.8616Z" fill="#7A5C47"/>
<path d="M85.4173 89.8616C81.2282 89.0723 77.3805 86.9226 75.9802 85.9465C76.0695 85.1341 77.5561 82.8308 82.7031 84.63C85.7428 85.6925 85.8072 88.808 85.4173 89.8616Z" fill="url(#paint22_linear_8062_19549)" fill-opacity="0.3"/>
<rect x="141.105" y="103.26" width="13.9963" height="24.6602" rx="4" transform="rotate(60.0912 141.105 103.26)" fill="url(#paint23_linear_8062_19549)"/>
<rect x="140.615" y="105.081" width="11.3303" height="21.9942" rx="2" transform="rotate(60.0912 140.615 105.081)" fill="#FFFBD5"/>
<rect x="140.615" y="105.081" width="11.3303" height="21.9942" rx="2" transform="rotate(60.0912 140.615 105.081)" fill="url(#paint24_linear_8062_19549)"/>
<rect x="140.615" y="105.081" width="11.3303" height="21.9942" rx="2" transform="rotate(60.0912 140.615 105.081)" fill="url(#paint25_linear_8062_19549)"/>
<circle cx="132.332" cy="114.074" r="2.33272" transform="rotate(60.0912 132.332 114.074)" fill="#F7F7F7"/>
<circle cx="132.332" cy="114.074" r="2.33272" transform="rotate(60.0912 132.332 114.074)" fill="url(#paint26_linear_8062_19549)"/>
<circle cx="132.332" cy="114.074" r="2.33272" transform="rotate(60.0912 132.332 114.074)" fill="url(#paint27_linear_8062_19549)"/>
<path d="M124.589 114.643C129.241 113.826 132.986 120.335 129.941 123.946C128.673 125.451 127.05 125.609 127.05 125.609L121.698 116.306C121.698 116.306 122.651 114.983 124.589 114.643Z" fill="#F7F7F7"/>
<path d="M124.589 114.643C129.241 113.826 132.986 120.335 129.941 123.946C128.673 125.451 127.05 125.609 127.05 125.609L121.698 116.306C121.698 116.306 122.651 114.983 124.589 114.643Z" fill="url(#paint28_linear_8062_19549)"/>
<path d="M124.589 114.643C129.241 113.826 132.986 120.335 129.941 123.946C128.673 125.451 127.05 125.609 127.05 125.609L121.698 116.306C121.698 116.306 122.651 114.983 124.589 114.643Z" fill="url(#paint29_linear_8062_19549)"/>
<path d="M136.028 118.73C136.028 116.413 134.723 113.078 136.96 112.707C138.668 112.398 141.525 114.838 139.289 127.071C141.929 138.191 145.716 163.513 137.517 174.263C132.226 180.756 122.312 185.01 113.201 175.723C100.665 162.945 120.654 136.492 132.767 124.29C134.164 123.364 135.873 120.275 136.028 118.73Z" fill="#F7D3BA"/>
<path d="M136.028 118.73C136.028 116.413 134.723 113.078 136.96 112.707C138.668 112.398 141.525 114.838 139.289 127.071C141.929 138.191 145.716 163.513 137.517 174.263C132.226 180.756 122.312 185.01 113.201 175.723C100.665 162.945 120.654 136.492 132.767 124.29C134.164 123.364 135.873 120.275 136.028 118.73Z" fill="url(#paint30_linear_8062_19549)"/>
<path d="M88.9568 158.848C94.9063 145.638 89.5088 116.824 87.0298 104.361C90.6105 146.422 87.3041 155.421 87.3041 156.978C87.3041 158.225 88.4977 159.159 88.9568 158.848Z" fill="#7A5C47"/>
<path d="M77.8458 154.286C76.5769 154.286 76.4712 155.391 76.5769 155.944L67.3776 156.607C65.8549 156.872 65.6858 157.823 65.7915 158.265L66.0593 166.548C66.0593 168.405 66.3524 170.927 70.7495 170.927L87.3623 169.207C89.2274 169.015 89.767 168.243 89.8037 167.881C89.8037 165.49 89.7451 160.242 89.5106 158.373C89.276 156.504 87.5577 155.754 86.7278 155.612H83.8729C83.8729 154.286 82.9212 154.286 82.604 154.286H77.8458Z" fill="#7A5C47"/>
<path d="M77.8458 154.286C76.5769 154.286 76.4712 155.391 76.5769 155.944L67.3776 156.607C65.8549 156.872 65.6858 157.823 65.7915 158.265L66.0593 166.548C66.0593 168.405 66.3524 170.927 70.7495 170.927L87.3623 169.207C89.2274 169.015 89.767 168.243 89.8037 167.881C89.8037 165.49 89.7451 160.242 89.5106 158.373C89.276 156.504 87.5577 155.754 86.7278 155.612H83.8729C83.8729 154.286 82.9212 154.286 82.604 154.286H77.8458Z" fill="url(#paint31_linear_8062_19549)" fill-opacity="0.32"/>
<path d="M79.7734 156.135C78.5934 156.135 78.495 157.1 78.5934 157.583L70.0382 158.162C68.6222 158.394 68.4648 159.224 68.5632 159.611L68.8582 169.17C68.8582 170.792 70.0382 171.004 70.6282 170.908L88.6235 169.17C89.3316 168.938 89.7052 168.301 89.8036 168.011L89.5086 159.031C89.5086 157.004 88.5252 157.293 88.0335 157.293H85.3785C85.3785 156.135 84.4935 156.135 84.1985 156.135H79.7734Z" fill="#7A5C47"/>
<path d="M79.7734 156.135C78.5934 156.135 78.495 157.1 78.5934 157.583L70.0382 158.162C68.6222 158.394 68.4648 159.224 68.5632 159.611L68.8582 169.17C68.8582 170.792 70.0382 171.004 70.6282 170.908L88.6235 169.17C89.3316 168.938 89.7052 168.301 89.8036 168.011L89.5086 159.031C89.5086 157.004 88.5252 157.293 88.0335 157.293H85.3785C85.3785 156.135 84.4935 156.135 84.1985 156.135H79.7734Z" fill="url(#paint32_linear_8062_19549)" fill-opacity="0.32"/>
<circle cx="82.4076" cy="163.531" r="3.69809" fill="#F7F7F7"/>
<circle cx="82.4076" cy="163.531" r="3.69809" fill="url(#paint33_linear_8062_19549)"/>
<path d="M66.5083 159.318C57.5486 143.238 58.5052 114.553 61.0651 102.512C59.4648 142.713 69.7086 158.153 68.4286 159.318C67.4047 160.25 66.7218 159.706 66.5083 159.318Z" fill="#7A5C47"/>
<path fill-rule="evenodd" clip-rule="evenodd" d="M36.9832 86.7948C40.4522 82.3438 49.4667 74.1019 57.7721 76.7426C66.0775 79.3834 59.4603 83.166 55.1136 84.7273C53.7458 85.0777 50.7846 86.1908 49.8824 87.8397C51.4046 87.4676 54.7793 87.0577 54.2476 88.6546C53.7159 90.2515 52.6565 90.7807 48.2208 92.8301C46.7859 93.8243 43.8627 96.1056 43.6492 97.2772C43.7549 100.275 37.8289 109.047 32.6798 115.922C31.5498 117.431 30.5968 118.902 29.6871 120.306C27.0763 124.335 24.823 127.812 19.7698 130.057L11.177 141.524L2.00268 130.681L2.0346 130.671C0.496808 127.535 -1.63717 119.784 2.01109 113.584C6.58782 105.806 19.2455 91.6616 36.9832 86.7948Z" fill="#F7D3BA"/>
<path fill-rule="evenodd" clip-rule="evenodd" d="M36.9832 86.7948C40.4522 82.3438 49.4667 74.1019 57.7721 76.7426C66.0775 79.3834 59.4603 83.166 55.1136 84.7273C53.7458 85.0777 50.7846 86.1908 49.8824 87.8397C51.4046 87.4676 54.7793 87.0577 54.2476 88.6546C53.7159 90.2515 52.6565 90.7807 48.2208 92.8301C46.7859 93.8243 43.8627 96.1056 43.6492 97.2772C43.7549 100.275 37.8289 109.047 32.6798 115.922C31.5498 117.431 30.5968 118.902 29.6871 120.306C27.0763 124.335 24.823 127.812 19.7698 130.057L11.177 141.524L2.00268 130.681L2.0346 130.671C0.496808 127.535 -1.63717 119.784 2.01109 113.584C6.58782 105.806 19.2455 91.6616 36.9832 86.7948Z" fill="url(#paint34_linear_8062_19549)"/>
<path fill-rule="evenodd" clip-rule="evenodd" d="M36.9832 86.7948C40.4522 82.3438 49.4667 74.1019 57.7721 76.7426C66.0775 79.3834 59.4603 83.166 55.1136 84.7273C53.7458 85.0777 50.7846 86.1908 49.8824 87.8397C51.4046 87.4676 54.7793 87.0577 54.2476 88.6546C53.7159 90.2515 52.6565 90.7807 48.2208 92.8301C46.7859 93.8243 43.8627 96.1056 43.6492 97.2772C43.7549 100.275 37.8289 109.047 32.6798 115.922C31.5498 117.431 30.5968 118.902 29.6871 120.306C27.0763 124.335 24.823 127.812 19.7698 130.057L11.177 141.524L2.00268 130.681L2.0346 130.671C0.496808 127.535 -1.63717 119.784 2.01109 113.584C6.58782 105.806 19.2455 91.6616 36.9832 86.7948Z" fill="url(#paint35_radial_8062_19549)"/>
<g filter="url(#filter0_d_8062_19549)">
<path d="M164.025 34.0125C145.573 19.7407 121.901 25.6505 109.779 46.4354C97.6563 67.2203 114.683 96.7191 135.404 95.7514C156.126 94.7837 185.217 89.4798 185.759 62.7686C186.127 44.6826 172.187 34.742 164.025 34.0125Z" fill="white"/>
<path d="M164.025 34.0125C145.573 19.7407 121.901 25.6505 109.779 46.4354C97.6563 67.2203 114.683 96.7191 135.404 95.7514C156.126 94.7837 185.217 89.4798 185.759 62.7686C186.127 44.6826 172.187 34.742 164.025 34.0125Z" fill="url(#paint36_linear_8062_19549)"/>
</g>
<g filter="url(#filter1_d_8062_19549)">
<path d="M116.981 83.0972C110.764 83.0972 102.992 95.2491 113.355 98.4191C123.717 101.589 133.562 84.6822 116.981 83.0972Z" fill="white"/>
<path d="M116.981 83.0972C110.764 83.0972 102.992 95.2491 113.355 98.4191C123.717 101.589 133.562 84.6822 116.981 83.0972Z" fill="url(#paint37_linear_8062_19549)"/>
</g>
<path d="M76.415 101.679C72.2827 101.075 70.6756 103.609 70.3887 104.951L80.4326 106.211C80.8152 104.952 80.5474 102.283 76.415 101.679Z" fill="#EB6666"/>
<path d="M142.836 69.2294H148.303C148.991 69.2294 149.567 68.7156 149.636 68.0407L152.664 38.3238C152.743 37.5461 152.124 36.8711 151.331 36.8711H138.294C137.475 36.8711 136.847 37.5898 136.969 38.3886L141.512 68.1054C141.61 68.7513 142.174 69.2294 142.836 69.2294Z" fill="url(#paint38_linear_8062_19549)"/>
<path d="M145.275 84.022C148.338 84.022 150.822 81.5385 150.822 78.4749C150.822 75.4113 148.338 72.9277 145.275 72.9277C142.211 72.9277 139.728 75.4113 139.728 78.4749C139.728 81.5385 142.211 84.022 145.275 84.022Z" fill="url(#paint39_linear_8062_19549)"/>
</svg>
