<svg width="40" height="40" viewBox="0 0 40 40" fill="none" xmlns="http://www.w3.org/2000/svg">
<rect width="40" height="40" rx="8" fill="#F6E5F6"/>
<path d="M18 16H24C24.2652 16 24.5196 15.8946 24.7071 15.7071C24.8946 15.5196 25 15.2652 25 15C25 14.7348 24.8946 14.4804 24.7071 14.2929C24.5196 14.1054 24.2652 14 24 14H18C17.7348 14 17.4804 14.1054 17.2929 14.2929C17.1054 14.4804 17 14.7348 17 15C17 15.2652 17.1054 15.5196 17.2929 15.7071C17.4804 15.8946 17.7348 16 18 16ZM16 20H24C24.2652 20 24.5196 19.8946 24.7071 19.7071C24.8946 19.5196 25 19.2652 25 19C25 18.7348 24.8946 18.4804 24.7071 18.2929C24.5196 18.1054 24.2652 18 24 18H16C15.7348 18 15.4804 18.1054 15.2929 18.2929C15.1054 18.4804 15 18.7348 15 19C15 19.2652 15.1054 19.5196 15.2929 19.7071C15.4804 19.8946 15.7348 20 16 20ZM16 24H24C24.2652 24 24.5196 23.8946 24.7071 23.7071C24.8946 23.5196 25 23.2652 25 23C25 22.7348 24.8946 22.4804 24.7071 22.2929C24.5196 22.1054 24.2652 22 24 22H16C15.7348 22 15.4804 22.1054 15.2929 22.2929C15.1054 22.4804 15 22.7348 15 23C15 23.2652 15.1054 23.5196 15.2929 23.7071C15.4804 23.8946 15.7348 24 16 24ZM28 10H12C11.7348 10 11.4804 10.1054 11.2929 10.2929C11.1054 10.4804 11 10.7348 11 11V29C11 29.1857 11.0517 29.3678 11.1493 29.5257C11.247 29.6837 11.3867 29.8114 11.5528 29.8944C11.7189 29.9775 11.9048 30.0126 12.0898 29.996C12.2748 29.9793 12.4514 29.9114 12.6 29.8L14.67 28.25L16.73 29.8C16.9031 29.9298 17.1136 30 17.33 30C17.5464 30 17.7569 29.9298 17.93 29.8L20 28.25L22.07 29.8C22.2431 29.9298 22.4536 30 22.67 30C22.8864 30 23.0969 29.9298 23.27 29.8L25.33 28.25L27.4 29.8C27.5493 29.9113 27.7267 29.9786 27.9122 29.9945C28.0977 30.0104 28.284 29.9742 28.45 29.89C28.6149 29.8069 28.7536 29.6798 28.8507 29.5227C28.9478 29.3656 28.9994 29.1847 29 29V11C29 10.7348 28.8946 10.4804 28.7071 10.2929C28.5196 10.1054 28.2652 10 28 10ZM27 27L25.93 26.2C25.7569 26.0702 25.5464 26 25.33 26C25.1136 26 24.9031 26.0702 24.73 26.2L22.67 27.75L20.6 26.2C20.4269 26.0702 20.2164 26 20 26C19.7836 26 19.5731 26.0702 19.4 26.2L17.33 27.75L15.27 26.2C15.0969 26.0702 14.8864 26 14.67 26C14.4536 26 14.2431 26.0702 14.07 26.2L13 27V12H27V27Z" fill="#A33AA3"/>
</svg>
