<svg width="250" height="250" viewBox="0 0 250 250" fill="none" xmlns="http://www.w3.org/2000/svg">
<defs xmlns="http://www.w3.org/2000/svg">
<filter id="filter0_d_3742_4634" x="13.9697" y="14.7559" width="149.602" height="137.901" filterUnits="userSpaceOnUse" color-interpolation-filters="sRGB">
<feFlood flood-opacity="0" result="BackgroundImageFix"/>
<feColorMatrix in="SourceAlpha" type="matrix" values="0 0 0 0 0 0 0 0 0 0 0 0 0 0 0 0 0 0 127 0" result="hardAlpha"/>
<feOffset dx="3" dy="4"/>
<feGaussianBlur stdDeviation="15"/>
<feColorMatrix type="matrix" values="0 0 0 0 0.635294 0 0 0 0 0.560784 0 0 0 0 0.639216 0 0 0 0.2 0"/>
<feBlend mode="normal" in2="BackgroundImageFix" result="effect1_dropShadow_3742_4634"/>
<feBlend mode="normal" in="SourceGraphic" in2="effect1_dropShadow_3742_4634" result="shape"/>
</filter>
<filter id="filter1_d_3742_4634" x="82.2119" y="81.0288" width="71.123" height="69.269" filterUnits="userSpaceOnUse" color-interpolation-filters="sRGB">
<feFlood flood-opacity="0" result="BackgroundImageFix"/>
<feColorMatrix in="SourceAlpha" type="matrix" values="0 0 0 0 0 0 0 0 0 0 0 0 0 0 0 0 0 0 127 0" result="hardAlpha"/>
<feOffset dx="3" dy="4"/>
<feGaussianBlur stdDeviation="15"/>
<feColorMatrix type="matrix" values="0 0 0 0 0.635294 0 0 0 0 0.560784 0 0 0 0 0.639216 0 0 0 0.2 0"/>
<feBlend mode="normal" in2="BackgroundImageFix" result="effect1_dropShadow_3742_4634"/>
<feBlend mode="normal" in="SourceGraphic" in2="effect1_dropShadow_3742_4634" result="shape"/>
</filter>
<linearGradient id="paint0_linear_3742_4634" x1="163.957" y1="248.139" x2="38.9626" y2="47.8232" gradientUnits="userSpaceOnUse">
<stop stop-color="#D1145A" stop-opacity="0.37"/>
<stop offset="1" stop-color="white" stop-opacity="0"/>
</linearGradient>
<linearGradient id="paint1_linear_3742_4634" x1="199.074" y1="182.44" x2="232.968" y2="79.109" gradientUnits="userSpaceOnUse">
<stop stop-color="#F5F4CA"/>
<stop offset="1" stop-color="white" stop-opacity="0"/>
</linearGradient>
<linearGradient id="paint2_linear_3742_4634" x1="148.88" y1="123.15" x2="144.827" y2="95.7998" gradientUnits="userSpaceOnUse">
<stop stop-color="#DB822F"/>
<stop offset="1" stop-color="#F6D3BA" stop-opacity="0"/>
</linearGradient>
<linearGradient id="paint3_linear_3742_4634" x1="62.1055" y1="145.732" x2="50.3287" y2="144.706" gradientUnits="userSpaceOnUse">
<stop stop-color="#DB822F"/>
<stop offset="1" stop-color="#F6D3BA" stop-opacity="0"/>
</linearGradient>
<linearGradient id="paint4_linear_3742_4634" x1="109.304" y1="182.967" x2="86.1315" y2="124.656" gradientUnits="userSpaceOnUse">
<stop stop-color="#A474A8"/>
<stop offset="1" stop-color="white" stop-opacity="0"/>
</linearGradient>
<linearGradient id="paint5_linear_3742_4634" x1="63.8372" y1="139.08" x2="57.9137" y2="133.028" gradientUnits="userSpaceOnUse">
<stop stop-color="#CF1E9E"/>
<stop offset="1" stop-color="#7F50B2"/>
</linearGradient>
<linearGradient id="paint6_linear_3742_4634" x1="65.6844" y1="141.405" x2="58.7625" y2="134.833" gradientUnits="userSpaceOnUse">
<stop stop-color="#CF1E9E"/>
<stop offset="1" stop-color="#7F50B2"/>
</linearGradient>
<linearGradient id="paint7_linear_3742_4634" x1="146.246" y1="93.2922" x2="156.788" y2="100.562" gradientUnits="userSpaceOnUse">
<stop stop-color="#1C140D"/>
<stop offset="1" stop-color="#3F2C2C" stop-opacity="0"/>
</linearGradient>
<linearGradient id="paint8_linear_3742_4634" x1="117.742" y1="189.881" x2="102.457" y2="113.7" gradientUnits="userSpaceOnUse">
<stop stop-color="#A474A8"/>
<stop offset="1" stop-color="white" stop-opacity="0"/>
</linearGradient>
<linearGradient id="paint9_linear_3742_4634" x1="118.669" y1="118.862" x2="119.718" y2="112.438" gradientUnits="userSpaceOnUse">
<stop stop-color="#CF1E9E"/>
<stop offset="1" stop-color="#7F50B2"/>
</linearGradient>
<linearGradient id="paint10_linear_3742_4634" x1="106.618" y1="127.085" x2="161.623" y2="170.706" gradientUnits="userSpaceOnUse">
<stop stop-color="#F1E081"/>
<stop offset="1" stop-color="#F0885C"/>
</linearGradient>
<linearGradient id="paint11_linear_3742_4634" x1="84.868" y1="156.371" x2="167.826" y2="159.971" gradientUnits="userSpaceOnUse">
<stop stop-color="#F0885C"/>
<stop offset="1" stop-color="#F1E081"/>
</linearGradient>
<linearGradient id="paint12_linear_3742_4634" x1="127.867" y1="99.6375" x2="121.537" y2="96.6055" gradientUnits="userSpaceOnUse">
<stop stop-color="#322010"/>
<stop offset="1" stop-color="#3F2C2C" stop-opacity="0"/>
</linearGradient>
<linearGradient id="paint13_linear_3742_4634" x1="96.1326" y1="116.25" x2="98.0027" y2="103.76" gradientUnits="userSpaceOnUse">
<stop stop-color="#F5F4CA"/>
<stop offset="1" stop-color="white" stop-opacity="0"/>
</linearGradient>
<linearGradient id="paint14_linear_3742_4634" x1="166.682" y1="190.649" x2="76.6344" y2="179.695" gradientUnits="userSpaceOnUse">
<stop stop-color="#D1145A" stop-opacity="0.37"/>
<stop offset="1" stop-color="white" stop-opacity="0"/>
</linearGradient>
<linearGradient id="paint15_linear_3742_4634" x1="89.9422" y1="140.063" x2="102.675" y2="162.775" gradientUnits="userSpaceOnUse">
<stop stop-color="#A33AA3"/>
<stop offset="1" stop-color="white" stop-opacity="0"/>
</linearGradient>
<linearGradient id="paint16_linear_3742_4634" x1="144.341" y1="186.534" x2="157.579" y2="199.447" gradientUnits="userSpaceOnUse">
<stop stop-color="#DB822F"/>
<stop offset="1" stop-color="#F6D3BA" stop-opacity="0"/>
</linearGradient>
<linearGradient id="paint17_linear_3742_4634" x1="167.585" y1="236.172" x2="182.735" y2="118.785" gradientUnits="userSpaceOnUse">
<stop stop-color="#E1C5E3"/>
<stop offset="1" stop-color="white" stop-opacity="0"/>
</linearGradient>
<linearGradient id="paint18_linear_3742_4634" x1="66.7071" y1="160.464" x2="83.2081" y2="108.397" gradientUnits="userSpaceOnUse">
<stop stop-color="#CF1E9E"/>
<stop offset="1" stop-color="#7F50B2"/>
</linearGradient>
<linearGradient id="paint19_linear_3742_4634" x1="88.4552" y1="117.275" x2="76.0428" y2="100.794" gradientUnits="userSpaceOnUse">
<stop stop-color="#AB6FC8"/>
<stop offset="1" stop-color="#E80088" stop-opacity="0"/>
</linearGradient>
<linearGradient id="paint20_linear_3742_4634" x1="153.754" y1="193.055" x2="144.817" y2="196.336" gradientUnits="userSpaceOnUse">
<stop stop-color="#CF1E9E"/>
<stop offset="1" stop-color="#7F50B2"/>
</linearGradient>
<linearGradient id="paint21_linear_3742_4634" x1="157.918" y1="191.544" x2="148.04" y2="195.495" gradientUnits="userSpaceOnUse">
<stop stop-color="#CF1E9E"/>
<stop offset="1" stop-color="#7F50B2"/>
</linearGradient>
<linearGradient id="paint22_linear_3742_4634" x1="57.5947" y1="120.793" x2="78.2421" y2="122.857" gradientUnits="userSpaceOnUse">
<stop stop-color="#4B2885"/>
<stop offset="1" stop-color="#C4C4C4" stop-opacity="0"/>
</linearGradient>
<linearGradient id="paint23_linear_3742_4634" x1="70.6709" y1="113.91" x2="85.1241" y2="115.631" gradientUnits="userSpaceOnUse">
<stop stop-color="#4B2885"/>
<stop offset="1" stop-color="#C4C4C4" stop-opacity="0"/>
</linearGradient>
<linearGradient id="paint24_linear_3742_4634" x1="63.7484" y1="113.077" x2="62.4027" y2="107.159" gradientUnits="userSpaceOnUse">
<stop stop-color="#C4C4C4"/>
<stop offset="0.0001" stop-color="#C4C4C4"/>
<stop offset="1" stop-color="#D7D7D7"/>
</linearGradient>
<linearGradient id="paint25_linear_3742_4634" x1="52.7402" y1="118.361" x2="60.6848" y2="114.239" gradientUnits="userSpaceOnUse">
<stop stop-color="white"/>
<stop offset="1" stop-color="#C4C4C4" stop-opacity="0"/>
</linearGradient>
<linearGradient id="paint26_linear_3742_4634" x1="77.1447" y1="106.519" x2="75.7988" y2="100.62" gradientUnits="userSpaceOnUse">
<stop stop-color="#C4C4C4"/>
<stop offset="0.0001" stop-color="#C4C4C4"/>
<stop offset="1" stop-color="#D7D7D7"/>
</linearGradient>
<linearGradient id="paint27_linear_3742_4634" x1="66.1393" y1="111.803" x2="74.0828" y2="107.683" gradientUnits="userSpaceOnUse">
<stop stop-color="white"/>
<stop offset="1" stop-color="#C4C4C4" stop-opacity="0"/>
</linearGradient>
<linearGradient id="paint28_linear_3742_4634" x1="89.2534" y1="112.189" x2="82.0268" y2="131.46" gradientUnits="userSpaceOnUse">
<stop stop-color="#4B2885"/>
<stop offset="1" stop-color="#7631C1" stop-opacity="0"/>
</linearGradient>
<linearGradient id="paint29_linear_3742_4634" x1="71.5988" y1="112.436" x2="156.887" y2="-6.65701" gradientUnits="userSpaceOnUse">
<stop stop-color="#D1145A" stop-opacity="0.37"/>
<stop offset="1" stop-color="white" stop-opacity="0"/>
</linearGradient>
<linearGradient id="paint30_linear_3742_4634" x1="135.216" y1="152.536" x2="120.415" y2="150.483" gradientUnits="userSpaceOnUse">
<stop stop-color="#C83192"/>
<stop offset="1" stop-color="#562F88"/>
</linearGradient>
<linearGradient id="paint31_linear_3742_4634" x1="139.282" y1="152.903" x2="142.37" y2="147.395" gradientUnits="userSpaceOnUse">
<stop stop-color="#FFD95F"/>
<stop offset="0.1554" stop-color="#FDD056"/>
<stop offset="0.4209" stop-color="#F6BB3F"/>
<stop offset="0.7581" stop-color="#ED9A22"/>
<stop offset="0.8021" stop-color="#EA9523"/>
<stop offset="0.86" stop-color="#E48926"/>
<stop offset="0.9257" stop-color="#D97629"/>
<stop offset="0.9967" stop-color="#CC592C"/>
<stop offset="1" stop-color="#CB582C"/>
</linearGradient>
<linearGradient id="paint32_linear_3742_4634" x1="140.845" y1="148.941" x2="140.947" y2="148.747" gradientUnits="userSpaceOnUse">
<stop stop-color="#FFD95F"/>
<stop offset="0.1554" stop-color="#FDD056"/>
<stop offset="0.4209" stop-color="#F6BB3F"/>
<stop offset="0.7581" stop-color="#ED9A22"/>
<stop offset="0.8023" stop-color="#E89422"/>
<stop offset="0.8605" stop-color="#DD8524"/>
<stop offset="0.9266" stop-color="#CE7026"/>
<stop offset="0.998" stop-color="#BB5227"/>
<stop offset="1" stop-color="#BB5127"/>
</linearGradient>
<linearGradient id="paint33_linear_3742_4634" x1="131.038" y1="161.459" x2="126.416" y2="151.349" gradientUnits="userSpaceOnUse">
<stop stop-color="#C83192"/>
<stop offset="1" stop-color="#562F88"/>
</linearGradient>
<linearGradient id="paint34_linear_3742_4634" x1="123.365" y1="156.577" x2="137.766" y2="157.202" gradientUnits="userSpaceOnUse">
<stop stop-color="#4C2E84"/>
<stop offset="0.1655" stop-color="#4F2E85"/>
<stop offset="0.3309" stop-color="#583087"/>
<stop offset="0.4964" stop-color="#66358B"/>
<stop offset="0.661" stop-color="#7A3C92"/>
<stop offset="0.7807" stop-color="#8B439A"/>
</linearGradient>
</defs>
<path d="M195.935 158.346C218.044 130.502 207.578 61.352 160.765 61.352C149.198 40.8903 102.14 24.8512 65.7906 47.7429C15.9075 79.1573 20.8307 164.084 72.4442 183.563C132.698 206.303 164.696 197.689 195.935 158.346Z" fill="#FFFBD5"/>
<path d="M195.935 158.346C218.044 130.502 207.578 61.352 160.765 61.352C149.198 40.8903 102.14 24.8512 65.7906 47.7429C15.9075 79.1573 20.8307 164.084 72.4442 183.563C132.698 206.303 164.696 197.689 195.935 158.346Z" fill="url(#paint0_linear_3742_4634)"/>
<g filter="url(#filter0_d_3742_4634)">
<path d="M65.3095 49.5128C85.9675 33.5353 112.468 40.1514 126.04 63.4205C139.611 86.6895 120.549 119.714 97.3513 118.63C74.1533 117.547 41.5851 111.609 40.9779 81.7058C40.5667 61.4582 56.1727 50.3296 65.3095 49.5128Z" fill="white"/>
<path d="M65.3095 49.5128C85.9675 33.5353 112.468 40.1514 126.04 63.4205C139.611 86.6895 120.549 119.714 97.3513 118.63C74.1533 117.547 41.5851 111.609 40.9779 81.7058C40.5667 61.4582 56.1727 50.3296 65.3095 49.5128Z" fill="url(#paint1_linear_3742_4634)"/>
</g>
<path d="M123.874 102.961C122.465 112.879 127.044 116.42 137.257 117.483C144.649 117.483 152.05 112.879 150.641 102.961C150.641 94.9412 144.649 88.4397 137.257 88.4397C129.866 88.4397 123.874 94.9412 123.874 102.961Z" fill="#F7D3BA"/>
<path d="M123.874 102.961C122.465 112.879 127.044 116.42 137.257 117.483C144.649 117.483 152.05 112.879 150.641 102.961C150.641 94.9412 144.649 88.4397 137.257 88.4397C129.866 88.4397 123.874 94.9412 123.874 102.961Z" fill="url(#paint2_linear_3742_4634)"/>
<path d="M47.2905 135.4C46.0013 141.321 52.5724 147.057 56.1465 146.972L61.4936 143.446C60.9707 141.495 59.3881 138.649 57.5891 135.157C55.79 131.665 55.5434 134.346 55.4794 136.679C52.8934 133.182 48.6196 129.296 47.2905 135.4Z" fill="#F7D3BA"/>
<path d="M47.2905 135.4C46.0013 141.321 52.5724 147.057 56.1465 146.972L61.4936 143.446C60.9707 141.495 59.3881 138.649 57.5891 135.157C55.79 131.665 55.5434 134.346 55.4794 136.679C52.8934 133.182 48.6196 129.296 47.2905 135.4Z" fill="url(#paint3_linear_3742_4634)"/>
<path d="M125.64 98.7824C131.234 102.047 144.173 100.596 148.018 95.8805C150.256 101.394 149.415 100.233 150.814 102.773C150.814 104.803 150.348 106.883 150.115 108.214C154.66 106.037 158.505 102.409 156.407 95.8805C154.729 90.6576 150.349 89.1103 148.018 89.7146C146.62 84.9989 137.53 81.0088 127.74 87.5381C119.909 92.7616 122.494 101.322 124.242 103.135C124.591 100.233 125.291 99.5079 125.64 98.7824Z" fill="#795B46"/>
<path d="M61.4428 134.73C86.1531 166.951 85.8228 121.513 116.11 120.26C124.755 128.841 141.191 146.087 122.44 173.496C103.69 200.905 64.6552 186.218 52.6791 148.167L48.8966 144.908L61.4428 134.73Z" fill="#F7F7F7"/>
<path d="M61.4428 134.73C86.1531 166.951 85.8228 121.513 116.11 120.26C124.755 128.841 141.191 146.087 122.44 173.496C103.69 200.905 64.6552 186.218 52.6791 148.167L48.8966 144.908L61.4428 134.73Z" fill="url(#paint4_linear_3742_4634)"/>
<path fill-rule="evenodd" clip-rule="evenodd" d="M62.1087 135.632C61.9574 135.436 61.6879 135.402 61.5067 135.557L49.6663 145.659C49.4851 145.814 49.4608 146.098 49.6121 146.294C49.7634 146.49 50.0329 146.524 50.2142 146.369L62.0546 136.267C62.2358 136.112 62.26 135.828 62.1087 135.632Z" fill="url(#paint5_linear_3742_4634)"/>
<path fill-rule="evenodd" clip-rule="evenodd" d="M63.7098 137.472C63.543 137.245 63.2634 137.192 63.0855 137.352L51.4574 147.859C51.2795 148.019 51.2705 148.334 51.4374 148.56C51.6043 148.787 51.8838 148.841 52.0618 148.68L63.6898 138.174C63.8677 138.013 63.8767 137.699 63.7098 137.472Z" fill="url(#paint6_linear_3742_4634)"/>
<path d="M151.057 90.9131C150.81 92.1593 149.576 93.9719 147.726 96.0111C149.576 100.09 150.316 102.469 152.167 104.508C153.771 103.715 157.274 101.517 156.977 97.7104C156.681 93.9039 152.907 91.5928 151.057 90.9131Z" fill="url(#paint7_linear_3742_4634)"/>
<path fill-rule="evenodd" clip-rule="evenodd" d="M125.198 116.25C136.887 124.375 147.241 116.25 147.241 116.25L148.433 120.129C148.932 120.255 149.863 120.741 150.518 120.902C158.189 122.787 173.16 126.321 175.541 131.757C178.126 137.657 173.234 170.072 169.166 187.902C169.166 187.902 157.552 192.42 150.026 195.077C140.303 198.514 122.257 198.11 122.257 198.11C122.257 198.11 112.282 198.084 101.597 196.845C90.9108 195.606 84.3867 190.215 84.3867 190.215C89.4508 151.295 103.761 128.924 111.495 122.143C114.551 119.464 119.98 120.494 123.708 120.129L125.198 116.25Z" fill="white"/>
<path fill-rule="evenodd" clip-rule="evenodd" d="M125.293 116.563C138.762 123.75 147.337 116.563 147.337 116.563L148.449 120.313C148.948 120.438 149.981 120.777 150.637 120.938C158.449 122.813 173.762 126.563 175.637 132.069C178.222 137.97 173.33 170.385 169.262 188.215C169.262 188.215 157.648 192.733 150.122 195.39C140.399 198.827 122.92 194.063 122.92 194.063C122.92 194.063 112.885 194.052 102.199 192.813C91.5135 191.574 84.3867 187.813 84.3867 187.813C90.6367 150.625 101.887 130.938 110.637 122.813C114.074 119.621 120.033 120.365 123.762 120L125.293 116.563Z" fill="url(#paint8_linear_3742_4634)"/>
<path d="M146.887 116.885C143.64 118.427 138.623 123.053 125.637 116.875" stroke="url(#paint9_linear_3742_4634)" stroke-width="2" stroke-linecap="round"/>
<path opacity="0.65" d="M163.449 170C156.806 161.616 157.864 139.038 164.27 124.488C164.45 124.078 163.765 123.99 163.332 123.863L161.887 123.437C161.511 123.327 161.279 123.498 161.145 123.863L156.686 135.336C155.767 137.825 153.28 139.396 150.612 139.172L124.395 136.971C121.28 136.709 118.893 134.101 119.037 131.009C119.091 129.859 119.158 128.693 119.243 127.693C119.466 125.051 119.763 122.029 120.011 120.313C120.078 119.851 119.713 119.662 119.243 119.688L118.136 119.688C117.756 119.709 117.218 119.935 117.199 120.312C116.09 142.245 98.6427 152.269 89.0741 163.75L83.9388 188.542C83.8324 189.056 84.0528 189.575 84.5134 189.827C87.4499 191.43 99.0768 197.158 120.949 200.625C146.574 204.688 167.41 198.945 167.41 198.945C167.41 198.945 174.387 174.085 174.387 171.25C174.387 168.414 169.387 177.494 163.449 170Z" fill="url(#paint10_linear_3742_4634)"/>
<path d="M162.199 170C155.556 161.616 156.73 138.613 163.136 124.063C163.317 123.653 162.632 123.565 162.199 123.438L160.753 123.012C160.377 122.902 160.146 123.073 160.011 123.438L155.436 135.336C154.517 137.825 152.03 139.396 149.362 139.172L123.145 136.971C120.03 136.709 117.643 134.101 117.787 131.009C117.841 129.859 117.908 128.693 117.993 127.693C118.216 125.051 118.513 122.029 118.761 120.313C118.828 119.851 118.463 119.662 117.993 119.688L116.886 119.688C116.506 119.709 115.968 119.935 115.949 120.312C114.84 142.245 97.3927 152.269 87.8241 163.75L82.6888 188.542C82.5824 189.056 82.8028 189.575 83.2634 189.827C86.1999 191.43 97.8268 197.158 119.699 200.625C145.324 204.688 166.16 198.945 166.16 198.945C166.16 198.945 173.137 174.085 173.137 171.25C173.137 168.414 168.137 177.494 162.199 170Z" fill="white"/>
<path d="M162.199 170C155.556 161.616 156.73 138.613 163.136 124.063C163.317 123.653 162.632 123.565 162.199 123.438L160.753 123.012C160.377 122.902 160.146 123.073 160.011 123.438L155.436 135.336C154.517 137.825 152.03 139.396 149.362 139.172L123.145 136.971C120.03 136.709 117.643 134.101 117.787 131.009C117.841 129.859 117.908 128.693 117.993 127.693C118.216 125.051 118.513 122.029 118.761 120.313C118.828 119.851 118.463 119.662 117.993 119.688L116.886 119.688C116.506 119.709 115.968 119.935 115.949 120.312C114.84 142.245 97.3927 152.269 87.8241 163.75L82.6888 188.542C82.5824 189.056 82.8028 189.575 83.2634 189.827C86.1999 191.43 97.8268 197.158 119.699 200.625C145.324 204.688 166.16 198.945 166.16 198.945C166.16 198.945 173.137 174.085 173.137 171.25C173.137 168.414 168.137 177.494 162.199 170Z" fill="url(#paint11_linear_3742_4634)" fill-opacity="0.65"/>
<path d="M123.336 94.6167C124.984 97.6292 124.778 97.6292 125.602 98.6333C124.675 100.487 124.366 102.264 124.366 103.268C123.542 102.264 122.512 99.5705 122.512 97.9639C122.512 96.3572 123.061 95.063 123.336 94.6167Z" fill="url(#paint12_linear_3742_4634)"/>
<g filter="url(#filter1_d_3742_4634)">
<path d="M114.834 107.029C118.771 107.029 123.692 114.195 117.13 116.065C110.569 117.935 104.335 107.964 114.834 107.029Z" fill="white"/>
<path d="M114.834 107.029C118.771 107.029 123.692 114.195 117.13 116.065C110.569 117.935 104.335 107.964 114.834 107.029Z" fill="url(#paint13_linear_3742_4634)"/>
</g>
<path d="M135.537 108.943C131.268 108.216 129.608 111.265 129.312 112.879L139.687 114.394C140.082 112.88 139.805 109.67 135.537 108.943Z" fill="#EB6666"/>
<path fill-rule="evenodd" clip-rule="evenodd" d="M105.834 180.04C113.261 189.081 123.167 195.466 140.528 195.466C145.629 195.466 148.438 194.067 150.558 192.084C152.317 190.44 153.624 188.426 155.252 185.918C155.834 185.022 156.456 184.063 157.154 183.036C159.701 179.29 162.961 175.187 168.377 171.666C173.776 168.157 181.138 165.339 191.76 163.834L192.533 169.286C182.508 170.706 175.954 173.308 171.378 176.283C166.818 179.247 164.045 182.693 161.708 186.131C161.195 186.886 160.684 187.675 160.165 188.476C158.434 191.15 156.615 193.959 154.318 196.106C151.068 199.145 146.867 200.972 140.528 200.972C121.412 200.972 109.982 193.764 101.58 183.535C97.4536 178.512 94.0844 172.798 90.8894 167.034C90.128 165.661 89.3781 164.287 88.63 162.917C86.2039 158.475 83.7972 154.068 81.0811 149.799L85.7262 146.843C88.5512 151.282 91.0788 155.912 93.522 160.387C94.2554 161.73 94.9811 163.059 95.705 164.365C98.8762 170.086 102.045 175.427 105.834 180.04Z" fill="#4B2885"/>
<path fill-rule="evenodd" clip-rule="evenodd" d="M105.834 180.04C113.261 189.081 123.167 195.466 140.528 195.466C145.629 195.466 148.438 194.067 150.558 192.084C152.317 190.44 153.624 188.426 155.252 185.918C155.834 185.022 156.456 184.063 157.154 183.036C159.701 179.29 162.961 175.187 168.377 171.666C173.776 168.157 181.138 165.339 191.76 163.834L192.533 169.286C182.508 170.706 175.954 173.308 171.378 176.283C166.818 179.247 164.045 182.693 161.708 186.131C161.195 186.886 160.684 187.675 160.165 188.476C158.434 191.15 156.615 193.959 154.318 196.106C151.068 199.145 146.867 200.972 140.528 200.972C121.412 200.972 109.982 193.764 101.58 183.535C97.4536 178.512 94.0844 172.798 90.8894 167.034C90.128 165.661 89.3781 164.287 88.63 162.917C86.2039 158.475 83.7972 154.068 81.0811 149.799L85.7262 146.843C88.5512 151.282 91.0788 155.912 93.522 160.387C94.2554 161.73 94.9811 163.059 95.705 164.365C98.8762 170.086 102.045 175.427 105.834 180.04Z" fill="url(#paint14_linear_3742_4634)"/>
<path fill-rule="evenodd" clip-rule="evenodd" d="M105.834 180.04C113.261 189.081 123.167 195.466 140.528 195.466C145.629 195.466 148.438 194.067 150.558 192.084C152.317 190.44 153.624 188.426 155.252 185.918C155.834 185.022 156.456 184.063 157.154 183.036C159.701 179.29 162.961 175.187 168.377 171.666C173.776 168.157 181.138 165.339 191.76 163.834L192.533 169.286C182.508 170.706 175.954 173.308 171.378 176.283C166.818 179.247 164.045 182.693 161.708 186.131C161.195 186.886 160.684 187.675 160.165 188.476C158.434 191.15 156.615 193.959 154.318 196.106C151.068 199.145 146.867 200.972 140.528 200.972C121.412 200.972 109.982 193.764 101.58 183.535C97.4536 178.512 94.0844 172.798 90.8894 167.034C90.128 165.661 89.3781 164.287 88.63 162.917C86.2039 158.475 83.7972 154.068 81.0811 149.799L85.7262 146.843C88.5512 151.282 91.0788 155.912 93.522 160.387C94.2554 161.73 94.9811 163.059 95.705 164.365C98.8762 170.086 102.045 175.427 105.834 180.04Z" fill="url(#paint15_linear_3742_4634)"/>
<path d="M147.021 209.2C150.641 208.285 152.68 208.104 158.297 204.267L155.744 193.142C153.76 193.518 149.118 195.859 144.932 196.276C139.882 196.779 143.265 198.743 145.864 199.311C144.467 200.095 144.216 200.022 140.311 200.219C135.429 200.466 136.077 204.906 135.928 206.878C135.779 208.849 143.401 210.116 147.021 209.2Z" fill="#F7D3BA"/>
<path d="M147.021 209.2C150.641 208.285 152.68 208.104 158.297 204.267L155.744 193.142C153.76 193.518 149.118 195.859 144.932 196.276C139.882 196.779 143.265 198.743 145.864 199.311C144.467 200.095 144.216 200.022 140.311 200.219C135.429 200.466 136.077 204.906 135.928 206.878C135.779 208.849 143.401 210.116 147.021 209.2Z" fill="url(#paint16_linear_3742_4634)"/>
<path d="M169.225 174.446C165.255 159.443 165.607 159.725 163.764 145.986C162.455 136.228 169.862 122.212 184.734 135.003C199.606 147.794 209.553 166.828 205.852 184.078C202.152 201.327 175.279 213.115 154.694 212.331L149.639 194.189C152.867 190.643 168.079 184.045 169.225 174.446Z" fill="#F7F7F7"/>
<path d="M169.225 174.446C165.255 159.443 165.607 159.725 163.764 145.986C162.455 136.228 169.862 122.212 184.734 135.003C199.606 147.794 209.553 166.828 205.852 184.078C202.152 201.327 175.279 213.115 154.694 212.331L149.639 194.189C152.867 190.643 168.079 184.045 169.225 174.446Z" fill="url(#paint17_linear_3742_4634)"/>
<path d="M49.3691 127.815L84.7442 108.884L92.7649 123.987C97.9107 133.677 94.1632 145.77 84.3946 150.998C74.6261 156.226 62.5357 152.608 57.3899 142.919L49.3691 127.815Z" fill="url(#paint18_linear_3742_4634)"/>
<path d="M84.6146 108.852C85.8519 111.181 78.9584 117.29 69.2176 122.497C59.4767 127.704 50.5772 130.037 49.3399 127.708C48.1026 125.379 54.9961 119.27 64.7369 114.063C74.4778 108.856 83.3773 106.523 84.6146 108.852Z" fill="white"/>
<path d="M84.6146 108.852C85.8519 111.181 78.9584 117.29 69.2176 122.497C59.4767 127.704 50.5772 130.037 49.3399 127.708C48.1026 125.379 54.9961 119.27 64.7369 114.063C74.4778 108.856 83.3773 106.523 84.6146 108.852Z" fill="url(#paint19_linear_3742_4634)"/>
<path fill-rule="evenodd" clip-rule="evenodd" d="M149.504 193.55C149.269 193.623 149.136 193.872 149.208 194.108L155.156 213.649C155.228 213.884 155.477 214.017 155.712 213.944C155.948 213.872 156.081 213.622 156.009 213.386L150.061 193.845C149.989 193.61 149.74 193.478 149.504 193.55Z" fill="url(#paint20_linear_3742_4634)"/>
<path fill-rule="evenodd" clip-rule="evenodd" d="M153.077 192.109C152.843 192.188 152.717 192.441 152.795 192.675L159.327 212.176C159.405 212.41 159.658 212.535 159.891 212.456C160.125 212.377 160.251 212.124 160.173 211.89L153.641 192.389C153.563 192.155 153.31 192.03 153.077 192.109Z" fill="url(#paint21_linear_3742_4634)"/>
<path d="M54.7228 135.314C53.6904 133.593 49.9051 132.561 48.1844 133.593C47.8403 134.396 47.7899 136.936 48.7608 138.687C50.0645 141.038 53.0061 142.358 54.4973 141.784C55.1856 140.179 55.5487 136.69 54.7228 135.314Z" fill="#F7D3BA"/>
<path d="M68.9508 122.857H57.5947L61.036 119.416C65.6243 119.416 74.6632 119.485 74.1126 119.76C73.562 120.036 70.442 121.94 68.9508 122.857Z" fill="url(#paint22_linear_3742_4634)" fill-opacity="0.4"/>
<path d="M82.027 115.975H70.6709L74.1121 112.534C78.7004 112.534 87.7394 112.603 87.1888 112.878C86.6382 113.153 83.5182 115.057 82.027 115.975Z" fill="url(#paint23_linear_3742_4634)" fill-opacity="0.4"/>
<path fill-rule="evenodd" clip-rule="evenodd" d="M50.93 104.814C49.4299 105.59 48.863 107.421 49.664 108.905L56.9218 122.355L56.9335 122.349C57.2708 122.883 58.7058 122.693 60.1796 121.91C61.6812 121.113 62.6544 120.003 62.3534 119.431C62.3175 119.362 62.2652 119.305 62.1983 119.258L55.0966 106.098C54.2956 104.614 52.4302 104.039 50.93 104.814Z" fill="url(#paint24_linear_3742_4634)"/>
<path fill-rule="evenodd" clip-rule="evenodd" d="M50.93 104.814C49.4299 105.59 48.863 107.421 49.664 108.905L56.9218 122.355L56.9335 122.349C57.2708 122.883 58.7058 122.693 60.1796 121.91C61.6812 121.113 62.6544 120.003 62.3534 119.431C62.3175 119.362 62.2652 119.305 62.1983 119.258L55.0966 106.098C54.2956 104.614 52.4302 104.039 50.93 104.814Z" fill="url(#paint25_linear_3742_4634)"/>
<path fill-rule="evenodd" clip-rule="evenodd" d="M64.3477 98.2919C62.8476 99.0672 62.2808 100.899 63.0817 102.383L70.313 115.784L70.3263 115.777C70.6644 116.307 72.0974 116.115 73.5698 115.334C75.0714 114.536 76.0454 113.428 75.7453 112.857C75.709 112.788 75.6557 112.73 75.5874 112.683L68.5143 99.5756C67.7133 98.0913 65.8479 97.5166 64.3477 98.2919Z" fill="url(#paint26_linear_3742_4634)"/>
<path fill-rule="evenodd" clip-rule="evenodd" d="M64.3477 98.2919C62.8476 99.0672 62.2808 100.899 63.0817 102.383L70.313 115.784L70.3263 115.777C70.6644 116.307 72.0974 116.115 73.5698 115.334C75.0714 114.536 76.0454 113.428 75.7453 112.857C75.709 112.788 75.6557 112.73 75.5874 112.683L68.5143 99.5756C67.7133 98.0913 65.8479 97.5166 64.3477 98.2919Z" fill="url(#paint27_linear_3742_4634)"/>
<path d="M88.221 148.322C92.3505 143.848 88.5651 130.083 78.9297 116.318C83.4033 112.877 85.1239 110.583 84.7798 109.092C85.1239 109.78 86.8445 113.221 91.3181 121.48C99.554 136.685 90.6299 146.601 88.221 148.322Z" fill="url(#paint28_linear_3742_4634)"/>
<path fill-rule="evenodd" clip-rule="evenodd" d="M66.8594 93.5143C66.6154 93.2702 66.6154 92.8745 66.8594 92.6304L71.4911 87.9987C71.7329 87.7569 71.4224 86.9372 71.1795 86.6965L68.4996 84.0398C67.9899 83.5349 68.007 82.7072 68.5439 82.2304C72.6029 78.6247 77.6173 76.6508 82.7224 76.3112C83.0332 76.2906 83.328 76.1619 83.5482 75.9416L87.3771 72.1127C88.0979 71.392 87.696 70.1743 86.6799 70.0938C78.6876 69.4608 70.4879 72.0425 64.1902 77.8377C63.6938 78.2949 62.925 78.2848 62.4472 77.808L59.7828 75.1528C59.2817 74.6534 59.2918 73.8381 59.8101 73.3567C69.1498 64.6793 82.0081 61.8806 93.6175 64.9651C94.057 65.0819 94.5277 64.9621 94.8493 64.6405L102.3 57.1901C102.544 56.9461 102.939 56.9461 103.184 57.1901L106.702 60.7081C106.901 60.9075 106.937 61.2082 106.811 61.4447C106.782 61.4985 106.74 61.5438 106.697 61.587L84.0429 84.241C83.9997 84.2842 83.9609 84.3326 83.9177 84.3758L71.2613 97.0322C71.0172 97.2763 70.6215 97.2763 70.3774 97.0322L66.8594 93.5143ZM91.3769 82.0197C90.7221 82.6745 90.9804 83.7982 91.8167 84.1957C93.2068 84.8563 94.526 85.7108 95.733 86.7591C96.2303 87.1905 96.982 87.16 97.4489 86.6965L100.129 84.0398C100.639 83.5349 100.621 82.7064 100.085 82.2304C98.6722 80.9752 97.1439 79.918 95.5367 79.0586C95.0664 78.8072 94.4901 78.9065 94.1131 79.2835L91.3769 82.0197ZM100.481 72.9159C99.9018 73.4948 100.027 74.4645 100.71 74.9163C102.011 75.7771 103.259 76.7508 104.44 77.8377C104.936 78.2949 105.705 78.284 106.183 77.808L108.847 75.1528C109.347 74.6534 109.337 73.8381 108.819 73.3567C107.518 72.1482 106.149 71.0537 104.725 70.0734C104.24 69.7391 103.587 69.8099 103.17 70.2268L100.481 72.9159ZM84.3146 88.7639C81.5638 88.7639 79.3345 91.0032 79.3345 93.7662C79.3345 96.5293 81.5638 98.7686 84.3146 98.7686C87.0653 98.7686 89.2947 96.5293 89.2947 93.7662C89.2947 91.0032 87.0653 88.7639 84.3146 88.7639Z" fill="#FFFBD5"/>
<path fill-rule="evenodd" clip-rule="evenodd" d="M66.8594 93.5143C66.6154 93.2702 66.6154 92.8745 66.8594 92.6304L71.4911 87.9987C71.7329 87.7569 71.4224 86.9372 71.1795 86.6965L68.4996 84.0398C67.9899 83.5349 68.007 82.7072 68.5439 82.2304C72.6029 78.6247 77.6173 76.6508 82.7224 76.3112C83.0332 76.2906 83.328 76.1619 83.5482 75.9416L87.3771 72.1127C88.0979 71.392 87.696 70.1743 86.6799 70.0938C78.6876 69.4608 70.4879 72.0425 64.1902 77.8377C63.6938 78.2949 62.925 78.2848 62.4472 77.808L59.7828 75.1528C59.2817 74.6534 59.2918 73.8381 59.8101 73.3567C69.1498 64.6793 82.0081 61.8806 93.6175 64.9651C94.057 65.0819 94.5277 64.9621 94.8493 64.6405L102.3 57.1901C102.544 56.9461 102.939 56.9461 103.184 57.1901L106.702 60.7081C106.901 60.9075 106.937 61.2082 106.811 61.4447C106.782 61.4985 106.74 61.5438 106.697 61.587L84.0429 84.241C83.9997 84.2842 83.9609 84.3326 83.9177 84.3758L71.2613 97.0322C71.0172 97.2763 70.6215 97.2763 70.3774 97.0322L66.8594 93.5143ZM91.3769 82.0197C90.7221 82.6745 90.9804 83.7982 91.8167 84.1957C93.2068 84.8563 94.526 85.7108 95.733 86.7591C96.2303 87.1905 96.982 87.16 97.4489 86.6965L100.129 84.0398C100.639 83.5349 100.621 82.7064 100.085 82.2304C98.6722 80.9752 97.1439 79.918 95.5367 79.0586C95.0664 78.8072 94.4901 78.9065 94.1131 79.2835L91.3769 82.0197ZM100.481 72.9159C99.9018 73.4948 100.027 74.4645 100.71 74.9163C102.011 75.7771 103.259 76.7508 104.44 77.8377C104.936 78.2949 105.705 78.284 106.183 77.808L108.847 75.1528C109.347 74.6534 109.337 73.8381 108.819 73.3567C107.518 72.1482 106.149 71.0537 104.725 70.0734C104.24 69.7391 103.587 69.8099 103.17 70.2268L100.481 72.9159ZM84.3146 88.7639C81.5638 88.7639 79.3345 91.0032 79.3345 93.7662C79.3345 96.5293 81.5638 98.7686 84.3146 98.7686C87.0653 98.7686 89.2947 96.5293 89.2947 93.7662C89.2947 91.0032 87.0653 88.7639 84.3146 88.7639Z" fill="url(#paint29_linear_3742_4634)"/>
<path d="M119.954 153.818C119.954 153.818 123.146 149.166 129.876 148.412C129.876 148.412 133.288 148.009 135.468 150.752C135.468 150.752 131.987 150.258 129.095 152.078C129.095 152.078 127.931 152.866 127.399 153.174C127.399 153.169 124.089 155.291 119.954 153.818Z" fill="url(#paint30_linear_3742_4634)"/>
<path d="M141.317 147.976C138.955 147.991 136.804 149.034 135.469 150.747C136.064 150.835 136.7 150.907 137.316 150.911L137.373 150.914C137.721 150.912 138.07 150.894 138.408 150.863C140.058 150.715 141.607 150.237 142.991 149.499C142.821 149.34 142.633 149.208 142.433 149.098C142.054 148.89 141.614 148.77 141.152 148.761C141.169 148.762 141.187 148.757 141.209 148.758C141.711 148.757 142.188 148.829 142.638 148.972C142.897 149.051 143.149 149.157 143.383 149.28L143.405 149.292C143.731 149.16 144.082 149.085 144.453 149.084C145.115 149.079 145.727 149.308 146.201 149.689C144.374 148.142 142.128 147.971 141.317 147.976ZM140.729 148.777C140.844 148.759 140.959 148.753 141.078 148.752C141.101 148.753 141.118 148.754 141.135 148.755C140.998 148.755 140.867 148.766 140.729 148.777Z" fill="url(#paint31_linear_3742_4634)"/>
<path d="M141.099 148.826C140.961 148.832 140.83 148.843 140.692 148.859C140.807 148.836 140.922 148.83 141.036 148.824C141.064 148.825 141.082 148.826 141.099 148.826Z" fill="url(#paint32_linear_3742_4634)"/>
<path d="M140.894 155.104C140.901 155.082 140.698 154.905 140.676 154.881C140.599 154.805 140.522 154.734 140.44 154.657C140.292 154.521 140.138 154.385 139.978 154.26C139.681 154.017 139.376 153.796 139.055 153.585C138.356 153.133 137.601 152.768 136.82 152.493C136.28 152.306 135.723 152.147 135.156 152.066C130.648 151.415 128.238 153.582 125.77 154.83C120.83 157.332 115.72 156.233 115.72 156.233C119.463 158.583 123.288 157.467 123.288 157.467C123.311 157.462 123.335 157.452 123.358 157.447C123.346 157.452 123.335 157.452 123.323 157.457C123.446 157.383 124.768 156.243 126.38 155.644C129.117 154.632 133.621 154.164 137.711 158.396C140.112 157.353 140.894 155.104 140.894 155.104Z" fill="url(#paint33_linear_3742_4634)"/>
<path d="M137.71 158.408C133.621 154.176 129.111 154.644 126.379 155.655C124.767 156.255 123.446 157.389 123.323 157.468C123.334 157.463 123.346 157.464 123.357 157.459C124.061 157.281 124.621 156.996 125.233 156.826C130.62 155.345 134.241 158.943 134.241 158.943C136.187 159.191 137.716 158.408 137.71 158.408C137.716 158.408 137.71 158.408 137.71 158.408Z" fill="url(#paint34_linear_3742_4634)"/>
<defs xmlns="http://www.w3.org/2000/svg">
<filter id="filter0_d_3742_4634" x="13.9697" y="14.7559" width="149.602" height="137.901" filterUnits="userSpaceOnUse" color-interpolation-filters="sRGB">
<feFlood flood-opacity="0" result="BackgroundImageFix"/>
<feColorMatrix in="SourceAlpha" type="matrix" values="0 0 0 0 0 0 0 0 0 0 0 0 0 0 0 0 0 0 127 0" result="hardAlpha"/>
<feOffset dx="3" dy="4"/>
<feGaussianBlur stdDeviation="15"/>
<feColorMatrix type="matrix" values="0 0 0 0 0.635294 0 0 0 0 0.560784 0 0 0 0 0.639216 0 0 0 0.2 0"/>
<feBlend mode="normal" in2="BackgroundImageFix" result="effect1_dropShadow_3742_4634"/>
<feBlend mode="normal" in="SourceGraphic" in2="effect1_dropShadow_3742_4634" result="shape"/>
</filter>
<filter id="filter1_d_3742_4634" x="82.2119" y="81.0288" width="71.123" height="69.269" filterUnits="userSpaceOnUse" color-interpolation-filters="sRGB">
<feFlood flood-opacity="0" result="BackgroundImageFix"/>
<feColorMatrix in="SourceAlpha" type="matrix" values="0 0 0 0 0 0 0 0 0 0 0 0 0 0 0 0 0 0 127 0" result="hardAlpha"/>
<feOffset dx="3" dy="4"/>
<feGaussianBlur stdDeviation="15"/>
<feColorMatrix type="matrix" values="0 0 0 0 0.635294 0 0 0 0 0.560784 0 0 0 0 0.639216 0 0 0 0.2 0"/>
<feBlend mode="normal" in2="BackgroundImageFix" result="effect1_dropShadow_3742_4634"/>
<feBlend mode="normal" in="SourceGraphic" in2="effect1_dropShadow_3742_4634" result="shape"/>
</filter>
<linearGradient id="paint0_linear_3742_4634" x1="163.957" y1="248.139" x2="38.9626" y2="47.8232" gradientUnits="userSpaceOnUse">
<stop stop-color="#D1145A" stop-opacity="0.37"/>
<stop offset="1" stop-color="white" stop-opacity="0"/>
</linearGradient>
<linearGradient id="paint1_linear_3742_4634" x1="199.074" y1="182.44" x2="232.968" y2="79.109" gradientUnits="userSpaceOnUse">
<stop stop-color="#F5F4CA"/>
<stop offset="1" stop-color="white" stop-opacity="0"/>
</linearGradient>
<linearGradient id="paint2_linear_3742_4634" x1="148.88" y1="123.15" x2="144.827" y2="95.7998" gradientUnits="userSpaceOnUse">
<stop stop-color="#DB822F"/>
<stop offset="1" stop-color="#F6D3BA" stop-opacity="0"/>
</linearGradient>
<linearGradient id="paint3_linear_3742_4634" x1="62.1055" y1="145.732" x2="50.3287" y2="144.706" gradientUnits="userSpaceOnUse">
<stop stop-color="#DB822F"/>
<stop offset="1" stop-color="#F6D3BA" stop-opacity="0"/>
</linearGradient>
<linearGradient id="paint4_linear_3742_4634" x1="109.304" y1="182.967" x2="86.1315" y2="124.656" gradientUnits="userSpaceOnUse">
<stop stop-color="#A474A8"/>
<stop offset="1" stop-color="white" stop-opacity="0"/>
</linearGradient>
<linearGradient id="paint5_linear_3742_4634" x1="63.8372" y1="139.08" x2="57.9137" y2="133.028" gradientUnits="userSpaceOnUse">
<stop stop-color="#CF1E9E"/>
<stop offset="1" stop-color="#7F50B2"/>
</linearGradient>
<linearGradient id="paint6_linear_3742_4634" x1="65.6844" y1="141.405" x2="58.7625" y2="134.833" gradientUnits="userSpaceOnUse">
<stop stop-color="#CF1E9E"/>
<stop offset="1" stop-color="#7F50B2"/>
</linearGradient>
<linearGradient id="paint7_linear_3742_4634" x1="146.246" y1="93.2922" x2="156.788" y2="100.562" gradientUnits="userSpaceOnUse">
<stop stop-color="#1C140D"/>
<stop offset="1" stop-color="#3F2C2C" stop-opacity="0"/>
</linearGradient>
<linearGradient id="paint8_linear_3742_4634" x1="117.742" y1="189.881" x2="102.457" y2="113.7" gradientUnits="userSpaceOnUse">
<stop stop-color="#A474A8"/>
<stop offset="1" stop-color="white" stop-opacity="0"/>
</linearGradient>
<linearGradient id="paint9_linear_3742_4634" x1="118.669" y1="118.862" x2="119.718" y2="112.438" gradientUnits="userSpaceOnUse">
<stop stop-color="#CF1E9E"/>
<stop offset="1" stop-color="#7F50B2"/>
</linearGradient>
<linearGradient id="paint10_linear_3742_4634" x1="106.618" y1="127.085" x2="161.623" y2="170.706" gradientUnits="userSpaceOnUse">
<stop stop-color="#F1E081"/>
<stop offset="1" stop-color="#F0885C"/>
</linearGradient>
<linearGradient id="paint11_linear_3742_4634" x1="84.868" y1="156.371" x2="167.826" y2="159.971" gradientUnits="userSpaceOnUse">
<stop stop-color="#F0885C"/>
<stop offset="1" stop-color="#F1E081"/>
</linearGradient>
<linearGradient id="paint12_linear_3742_4634" x1="127.867" y1="99.6375" x2="121.537" y2="96.6055" gradientUnits="userSpaceOnUse">
<stop stop-color="#322010"/>
<stop offset="1" stop-color="#3F2C2C" stop-opacity="0"/>
</linearGradient>
<linearGradient id="paint13_linear_3742_4634" x1="96.1326" y1="116.25" x2="98.0027" y2="103.76" gradientUnits="userSpaceOnUse">
<stop stop-color="#F5F4CA"/>
<stop offset="1" stop-color="white" stop-opacity="0"/>
</linearGradient>
<linearGradient id="paint14_linear_3742_4634" x1="166.682" y1="190.649" x2="76.6344" y2="179.695" gradientUnits="userSpaceOnUse">
<stop stop-color="#D1145A" stop-opacity="0.37"/>
<stop offset="1" stop-color="white" stop-opacity="0"/>
</linearGradient>
<linearGradient id="paint15_linear_3742_4634" x1="89.9422" y1="140.063" x2="102.675" y2="162.775" gradientUnits="userSpaceOnUse">
<stop stop-color="#A33AA3"/>
<stop offset="1" stop-color="white" stop-opacity="0"/>
</linearGradient>
<linearGradient id="paint16_linear_3742_4634" x1="144.341" y1="186.534" x2="157.579" y2="199.447" gradientUnits="userSpaceOnUse">
<stop stop-color="#DB822F"/>
<stop offset="1" stop-color="#F6D3BA" stop-opacity="0"/>
</linearGradient>
<linearGradient id="paint17_linear_3742_4634" x1="167.585" y1="236.172" x2="182.735" y2="118.785" gradientUnits="userSpaceOnUse">
<stop stop-color="#E1C5E3"/>
<stop offset="1" stop-color="white" stop-opacity="0"/>
</linearGradient>
<linearGradient id="paint18_linear_3742_4634" x1="66.7071" y1="160.464" x2="83.2081" y2="108.397" gradientUnits="userSpaceOnUse">
<stop stop-color="#CF1E9E"/>
<stop offset="1" stop-color="#7F50B2"/>
</linearGradient>
<linearGradient id="paint19_linear_3742_4634" x1="88.4552" y1="117.275" x2="76.0428" y2="100.794" gradientUnits="userSpaceOnUse">
<stop stop-color="#AB6FC8"/>
<stop offset="1" stop-color="#E80088" stop-opacity="0"/>
</linearGradient>
<linearGradient id="paint20_linear_3742_4634" x1="153.754" y1="193.055" x2="144.817" y2="196.336" gradientUnits="userSpaceOnUse">
<stop stop-color="#CF1E9E"/>
<stop offset="1" stop-color="#7F50B2"/>
</linearGradient>
<linearGradient id="paint21_linear_3742_4634" x1="157.918" y1="191.544" x2="148.04" y2="195.495" gradientUnits="userSpaceOnUse">
<stop stop-color="#CF1E9E"/>
<stop offset="1" stop-color="#7F50B2"/>
</linearGradient>
<linearGradient id="paint22_linear_3742_4634" x1="57.5947" y1="120.793" x2="78.2421" y2="122.857" gradientUnits="userSpaceOnUse">
<stop stop-color="#4B2885"/>
<stop offset="1" stop-color="#C4C4C4" stop-opacity="0"/>
</linearGradient>
<linearGradient id="paint23_linear_3742_4634" x1="70.6709" y1="113.91" x2="85.1241" y2="115.631" gradientUnits="userSpaceOnUse">
<stop stop-color="#4B2885"/>
<stop offset="1" stop-color="#C4C4C4" stop-opacity="0"/>
</linearGradient>
<linearGradient id="paint24_linear_3742_4634" x1="63.7484" y1="113.077" x2="62.4027" y2="107.159" gradientUnits="userSpaceOnUse">
<stop stop-color="#C4C4C4"/>
<stop offset="0.0001" stop-color="#C4C4C4"/>
<stop offset="1" stop-color="#D7D7D7"/>
</linearGradient>
<linearGradient id="paint25_linear_3742_4634" x1="52.7402" y1="118.361" x2="60.6848" y2="114.239" gradientUnits="userSpaceOnUse">
<stop stop-color="white"/>
<stop offset="1" stop-color="#C4C4C4" stop-opacity="0"/>
</linearGradient>
<linearGradient id="paint26_linear_3742_4634" x1="77.1447" y1="106.519" x2="75.7988" y2="100.62" gradientUnits="userSpaceOnUse">
<stop stop-color="#C4C4C4"/>
<stop offset="0.0001" stop-color="#C4C4C4"/>
<stop offset="1" stop-color="#D7D7D7"/>
</linearGradient>
<linearGradient id="paint27_linear_3742_4634" x1="66.1393" y1="111.803" x2="74.0828" y2="107.683" gradientUnits="userSpaceOnUse">
<stop stop-color="white"/>
<stop offset="1" stop-color="#C4C4C4" stop-opacity="0"/>
</linearGradient>
<linearGradient id="paint28_linear_3742_4634" x1="89.2534" y1="112.189" x2="82.0268" y2="131.46" gradientUnits="userSpaceOnUse">
<stop stop-color="#4B2885"/>
<stop offset="1" stop-color="#7631C1" stop-opacity="0"/>
</linearGradient>
<linearGradient id="paint29_linear_3742_4634" x1="71.5988" y1="112.436" x2="156.887" y2="-6.65701" gradientUnits="userSpaceOnUse">
<stop stop-color="#D1145A" stop-opacity="0.37"/>
<stop offset="1" stop-color="white" stop-opacity="0"/>
</linearGradient>
<linearGradient id="paint30_linear_3742_4634" x1="135.216" y1="152.536" x2="120.415" y2="150.483" gradientUnits="userSpaceOnUse">
<stop stop-color="#C83192"/>
<stop offset="1" stop-color="#562F88"/>
</linearGradient>
<linearGradient id="paint31_linear_3742_4634" x1="139.282" y1="152.903" x2="142.37" y2="147.395" gradientUnits="userSpaceOnUse">
<stop stop-color="#FFD95F"/>
<stop offset="0.1554" stop-color="#FDD056"/>
<stop offset="0.4209" stop-color="#F6BB3F"/>
<stop offset="0.7581" stop-color="#ED9A22"/>
<stop offset="0.8021" stop-color="#EA9523"/>
<stop offset="0.86" stop-color="#E48926"/>
<stop offset="0.9257" stop-color="#D97629"/>
<stop offset="0.9967" stop-color="#CC592C"/>
<stop offset="1" stop-color="#CB582C"/>
</linearGradient>
<linearGradient id="paint32_linear_3742_4634" x1="140.845" y1="148.941" x2="140.947" y2="148.747" gradientUnits="userSpaceOnUse">
<stop stop-color="#FFD95F"/>
<stop offset="0.1554" stop-color="#FDD056"/>
<stop offset="0.4209" stop-color="#F6BB3F"/>
<stop offset="0.7581" stop-color="#ED9A22"/>
<stop offset="0.8023" stop-color="#E89422"/>
<stop offset="0.8605" stop-color="#DD8524"/>
<stop offset="0.9266" stop-color="#CE7026"/>
<stop offset="0.998" stop-color="#BB5227"/>
<stop offset="1" stop-color="#BB5127"/>
</linearGradient>
<linearGradient id="paint33_linear_3742_4634" x1="131.038" y1="161.459" x2="126.416" y2="151.349" gradientUnits="userSpaceOnUse">
<stop stop-color="#C83192"/>
<stop offset="1" stop-color="#562F88"/>
</linearGradient>
<linearGradient id="paint34_linear_3742_4634" x1="123.365" y1="156.577" x2="137.766" y2="157.202" gradientUnits="userSpaceOnUse">
<stop stop-color="#4C2E84"/>
<stop offset="0.1655" stop-color="#4F2E85"/>
<stop offset="0.3309" stop-color="#583087"/>
<stop offset="0.4964" stop-color="#66358B"/>
<stop offset="0.661" stop-color="#7A3C92"/>
<stop offset="0.7807" stop-color="#8B439A"/>
</linearGradient>
</defs>
</svg>
