<svg width="16" height="18" viewBox="0 0 16 18" fill="none" xmlns="http://www.w3.org/2000/svg">
<path d="M13 9.125V1.50001C13 1.27899 12.9122 1.06703 12.7559 0.910749C12.5996 0.754469 12.3877 0.666672 12.1667 0.666672C11.9457 0.666672 11.7337 0.754469 11.5774 0.910749C11.4211 1.06703 11.3333 1.27899 11.3333 1.50001V9.125C10.6116 9.33456 9.97757 9.77296 9.52666 10.3742C9.07576 10.9754 8.83243 11.7068 8.83333 12.4583C8.83333 14.1667 10.1 17.2917 12.1667 17.2917C14.2333 17.2917 15.5 14.1667 15.5 12.4583C15.5009 11.7068 15.2576 10.9754 14.8067 10.3742C14.3558 9.77296 13.7217 9.33456 13 9.125ZM12.1667 15.6667C11.5 15.6667 10.5 13.775 10.5 12.5C10.4796 12.0363 10.6434 11.5834 10.9556 11.2399C11.2678 10.8965 11.7031 10.6904 12.1667 10.6667C12.6302 10.6904 13.0655 10.8965 13.3778 11.2399C13.69 11.5834 13.8537 12.0363 13.8333 12.5C13.8333 13.775 12.8333 15.6667 12.1667 15.6667ZM6.33333 0.666672C6.11232 0.666672 5.90036 0.754469 5.74408 0.910749C5.5878 1.06703 5.5 1.27899 5.5 1.50001V6.05001L4.66667 6.60834V1.50001C4.66667 1.27899 4.57887 1.06703 4.42259 0.910749C4.26631 0.754469 4.05435 0.666672 3.83333 0.666672C3.61232 0.666672 3.40036 0.754469 3.24408 0.910749C3.0878 1.06703 3 1.27899 3 1.50001V6.60834L2.16667 6.05001V1.50001C2.16667 1.27899 2.07887 1.06703 1.92259 0.910749C1.76631 0.754469 1.55435 0.666672 1.33333 0.666672C1.11232 0.666672 0.900358 0.754469 0.744078 0.910749C0.587797 1.06703 0.5 1.27899 0.5 1.50001V6.50001C0.50071 6.63726 0.535313 6.77222 0.600733 6.89288C0.666153 7.01355 0.760366 7.11618 0.875 7.19167L3 8.61667V16.5C3 16.721 3.0878 16.933 3.24408 17.0893C3.40036 17.2455 3.61232 17.3333 3.83333 17.3333C4.05435 17.3333 4.26631 17.2455 4.42259 17.0893C4.57887 16.933 4.66667 16.721 4.66667 16.5V8.61667L6.79167 7.19167C6.9063 7.11618 7.00051 7.01355 7.06593 6.89288C7.13135 6.77222 7.16596 6.63726 7.16667 6.50001V1.50001C7.16667 1.27899 7.07887 1.06703 6.92259 0.910749C6.76631 0.754469 6.55435 0.666672 6.33333 0.666672Z" fill="#A33AA3"/>
</svg>
