<svg width="20" height="16" viewBox="0 0 20 16" fill="none" xmlns="http://www.w3.org/2000/svg">
<path d="M10.2497 8.18335C10.6943 7.79846 11.051 7.32242 11.2954 6.78754C11.5398 6.25265 11.6663 5.67144 11.6663 5.08335C11.6663 3.97828 11.2274 2.91848 10.446 2.13708C9.66455 1.35567 8.60474 0.916687 7.49967 0.916687C6.39461 0.916687 5.3348 1.35567 4.5534 2.13708C3.77199 2.91848 3.33301 3.97828 3.33301 5.08335C3.333 5.67144 3.45951 6.25265 3.70395 6.78754C3.94838 7.32242 4.30503 7.79846 4.74967 8.18335C3.58312 8.71159 2.5934 9.56463 1.89882 10.6405C1.20425 11.7163 0.834234 12.9694 0.833008 14.25C0.833008 14.471 0.920805 14.683 1.07709 14.8393C1.23337 14.9956 1.44533 15.0834 1.66634 15.0834C1.88735 15.0834 2.09932 14.9956 2.2556 14.8393C2.41188 14.683 2.49967 14.471 2.49967 14.25C2.49967 12.9239 3.02646 11.6522 3.96414 10.7145C4.90182 9.7768 6.17359 9.25002 7.49967 9.25002C8.82576 9.25002 10.0975 9.7768 11.0352 10.7145C11.9729 11.6522 12.4997 12.9239 12.4997 14.25C12.4997 14.471 12.5875 14.683 12.7438 14.8393C12.9 14.9956 13.112 15.0834 13.333 15.0834C13.554 15.0834 13.766 14.9956 13.9223 14.8393C14.0785 14.683 14.1663 14.471 14.1663 14.25C14.1651 12.9694 13.7951 11.7163 13.1005 10.6405C12.406 9.56463 11.4162 8.71159 10.2497 8.18335ZM7.49967 7.58335C7.00522 7.58335 6.52187 7.43673 6.11075 7.16203C5.69963 6.88732 5.37919 6.49688 5.18998 6.04006C5.00076 5.58325 4.95125 5.08058 5.04771 4.59563C5.14417 4.11068 5.38228 3.66522 5.73191 3.31559C6.08154 2.96596 6.527 2.72785 7.01195 2.63139C7.4969 2.53493 7.99957 2.58444 8.45638 2.77366C8.9132 2.96287 9.30364 3.28331 9.57835 3.69443C9.85305 4.10555 9.99967 4.5889 9.99967 5.08335C9.99967 5.74639 9.73628 6.38228 9.26744 6.85112C8.7986 7.31996 8.16272 7.58335 7.49967 7.58335ZM15.6163 7.85002C16.1496 7.24946 16.498 6.50757 16.6195 5.71364C16.741 4.91971 16.6304 4.10758 16.3011 3.37502C15.9718 2.64246 15.4378 2.02068 14.7634 1.58454C14.089 1.1484 13.3028 0.916472 12.4997 0.916687C12.2787 0.916687 12.0667 1.00448 11.9104 1.16076C11.7541 1.31705 11.6663 1.52901 11.6663 1.75002C11.6663 1.97103 11.7541 2.183 11.9104 2.33928C12.0667 2.49556 12.2787 2.58335 12.4997 2.58335C13.1627 2.58335 13.7986 2.84675 14.2674 3.31559C14.7363 3.78443 14.9997 4.42031 14.9997 5.08335C14.9985 5.52105 14.8824 5.95077 14.6631 6.32954C14.4437 6.7083 14.1287 7.02284 13.7497 7.24169C13.6261 7.31295 13.5229 7.41474 13.45 7.5373C13.377 7.65987 13.3367 7.7991 13.333 7.94169C13.3295 8.08316 13.3621 8.22318 13.4277 8.34857C13.4933 8.47395 13.5898 8.58056 13.708 8.65835L14.033 8.87502L14.1413 8.93335C15.1458 9.40979 15.9933 10.1633 16.5838 11.1053C17.1744 12.0472 17.4835 13.1383 17.4747 14.25C17.4747 14.471 17.5625 14.683 17.7188 14.8393C17.875 14.9956 18.087 15.0834 18.308 15.0834C18.529 15.0834 18.741 14.9956 18.8973 14.8393C19.0535 14.683 19.1413 14.471 19.1413 14.25C19.1482 12.9712 18.8279 11.7119 18.2109 10.5917C17.5939 9.47158 16.7008 8.52778 15.6163 7.85002Z" fill="#454754"/>
</svg>
