<svg width="14" height="14" viewBox="0 0 14 14" fill="none" xmlns="http://www.w3.org/2000/svg">
<path d="M9.16429 7.41416C9.73618 6.96421 10.1536 6.3472 10.3585 5.64896C10.5634 4.95072 10.5456 4.20598 10.3075 3.51835C10.0694 2.83072 9.62294 2.23439 9.03016 1.81232C8.43739 1.39026 7.7278 1.16345 7.00012 1.16345C6.27244 1.16345 5.56285 1.39026 4.97008 1.81232C4.37731 2.23439 3.93082 2.83072 3.69274 3.51835C3.45467 4.20598 3.43684 4.95072 3.64173 5.64896C3.84663 6.3472 4.26406 6.96421 4.83595 7.41416C3.856 7.80677 3.00095 8.45795 2.36197 9.29828C1.72299 10.1386 1.32403 11.1366 1.20762 12.1858C1.19919 12.2624 1.20594 12.3399 1.22747 12.4139C1.249 12.4879 1.28489 12.557 1.3331 12.6171C1.43046 12.7385 1.57208 12.8163 1.72679 12.8333C1.8815 12.8503 2.03663 12.8052 2.15806 12.7078C2.27949 12.6105 2.35727 12.4689 2.37429 12.3142C2.50238 11.1739 3.0461 10.1207 3.90158 9.35595C4.75706 8.59119 5.86431 8.16843 7.01179 8.16843C8.15926 8.16843 9.26652 8.59119 10.122 9.35595C10.9775 10.1207 11.5212 11.1739 11.6493 12.3142C11.6651 12.4575 11.7335 12.5899 11.8413 12.6858C11.949 12.7816 12.0884 12.8342 12.2326 12.8333H12.2968C12.4497 12.8157 12.5895 12.7384 12.6856 12.6182C12.7818 12.498 12.8265 12.3447 12.8101 12.1917C12.6932 11.1394 12.292 10.1389 11.6498 9.29728C11.0075 8.45565 10.1483 7.80469 9.16429 7.41416ZM7.00012 6.99999C6.53863 6.99999 6.08751 6.86314 5.70379 6.60675C5.32008 6.35036 5.02101 5.98595 4.8444 5.55959C4.6678 5.13323 4.62159 4.66407 4.71162 4.21145C4.80165 3.75883 5.02388 3.34306 5.3502 3.01674C5.67653 2.69042 6.09229 2.46819 6.54491 2.37816C6.99753 2.28813 7.46669 2.33433 7.89305 2.51094C8.31941 2.68754 8.68383 2.98661 8.94022 3.37033C9.19661 3.75404 9.33346 4.20517 9.33346 4.66666C9.33346 5.2855 9.08762 5.87899 8.65004 6.31657C8.21245 6.75416 7.61896 6.99999 7.00012 6.99999Z" fill="#73768C"/>
</svg>
