<svg width="21" height="14" viewBox="0 0 21 14" fill="none" xmlns="http://www.w3.org/2000/svg">
<path d="M13.8096 14C12.4252 14.0002 11.0717 13.5899 9.92047 12.8209C8.76921 12.0519 7.87184 10.9587 7.34184 9.67975C6.81184 8.40074 6.673 6.9933 6.9429 5.63539C7.21279 4.27748 7.87929 3.0301 8.85811 2.05099C9.83694 1.07188 11.0841 0.405008 12.4419 0.134709C13.7998 -0.135589 15.2073 0.00282475 16.4864 0.532448C17.7656 1.06207 18.859 1.95912 19.6283 3.11015C20.3976 4.26118 20.8084 5.61449 20.8086 6.99896V7C20.8067 8.85574 20.0687 10.6349 18.7566 11.9473C17.4445 13.2596 15.6654 13.9978 13.8096 14Z" fill="#F79E1C"/>
<path d="M7 14C5.61553 14 4.26216 13.5895 3.11101 12.8203C1.95987 12.0511 1.06266 10.9579 0.532846 9.67878C0.003033 8.3997 -0.13559 6.99224 0.134506 5.63437C0.404603 4.2765 1.07129 3.02922 2.05026 2.05026C3.02922 1.07129 4.2765 0.404603 5.63437 0.134506C6.99224 -0.13559 8.3997 0.00303318 9.67879 0.532846C10.9579 1.06266 12.0511 1.95987 12.8203 3.11101C13.5895 4.26215 14 5.61553 14 7C13.9981 8.85592 13.26 10.6353 11.9476 11.9476C10.6353 13.26 8.85593 13.9981 7 14Z" fill="#EA001B"/>
<path d="M13.8096 14C12.4252 14.0002 11.0717 13.5899 9.92047 12.8209C8.76921 12.0519 7.87184 10.9587 7.34184 9.67975C6.81184 8.40074 6.673 6.9933 6.9429 5.63539C7.21279 4.27748 7.87929 3.0301 8.85811 2.05099C9.83694 1.07188 11.0841 0.405008 12.4419 0.134709C13.7998 -0.135589 15.2073 0.00282475 16.4864 0.532448C17.7656 1.06207 18.859 1.95912 19.6283 3.11015C20.3976 4.26118 20.8084 5.61449 20.8086 6.99896V7C20.8067 8.85574 20.0687 10.6349 18.7566 11.9473C17.4445 13.2596 15.6654 13.9978 13.8096 14Z" fill="#F79E1C" fill-opacity="0.6"/>
</svg>
