<svg width="24" height="24" viewBox="0 0 24 24" fill="none" xmlns="http://www.w3.org/2000/svg">
<path fill-rule="evenodd" clip-rule="evenodd" d="M13.293 17.0671H3.1141C2.60613 17.0671 2.19434 16.6553 2.19434 16.1473C2.19434 15.6393 2.60613 15.2275 3.1141 15.2275L13.2947 15.2275C13.6801 14.109 14.7454 13.2998 15.9905 13.2998C17.2356 13.2998 18.3009 14.109 18.6864 15.2275L21.5101 15.2275C22.018 15.2275 22.4298 15.6393 22.4298 16.1473C22.4298 16.6553 22.018 17.0671 21.5101 17.0671L18.6881 17.0671C18.304 18.1881 17.2374 18.9996 15.9905 18.9996C14.7436 18.9996 13.6771 18.1881 13.293 17.0671ZM15.9905 15C15.3582 15 14.8408 15.5174 14.8408 16.1497C14.8408 16.7821 15.3582 17.2995 15.9905 17.2995C16.6229 17.2995 17.1403 16.7821 17.1403 16.1497C17.1403 15.5174 16.6229 15 15.9905 15Z" fill="#454754"/>
<path fill-rule="evenodd" clip-rule="evenodd" d="M6.15983 8.78874H3.1141C2.60613 8.78874 2.19434 8.37695 2.19434 7.86898C2.19434 7.36101 2.60613 6.94922 3.1141 6.94922L6.14672 6.94922C6.5259 5.81962 7.59684 5 8.8499 5C10.103 5 11.1739 5.81962 11.5531 6.94922L21.5104 6.94922C22.0184 6.94922 22.4302 7.36101 22.4302 7.86898C22.4302 8.37695 22.0184 8.78874 21.5104 8.78874L11.54 8.78874C11.1497 9.89862 10.0888 10.6998 8.8499 10.6998C7.61099 10.6998 6.55011 9.89861 6.15983 8.78874ZM8.84991 6.7002C8.21757 6.7002 7.7002 7.21757 7.7002 7.84991C7.7002 8.48226 8.21757 8.99965 8.84991 8.99965C9.48226 8.99965 9.99963 8.48227 9.99963 7.84993C9.99963 7.21758 9.48226 6.7002 8.84991 6.7002Z" fill="#454754"/>
</svg>
