<svg width="16" height="16" viewBox="0 0 16 16" fill="none" xmlns="http://www.w3.org/2000/svg">
<path d="M9.3335 5.33325H10.0002C10.177 5.33325 10.3465 5.26301 10.4716 5.13799C10.5966 5.01297 10.6668 4.8434 10.6668 4.66659C10.6668 4.48977 10.5966 4.32021 10.4716 4.19518C10.3465 4.07016 10.177 3.99992 10.0002 3.99992H9.3335C9.15669 3.99992 8.98712 4.07016 8.86209 4.19518C8.73707 4.32021 8.66683 4.48977 8.66683 4.66659C8.66683 4.8434 8.73707 5.01297 8.86209 5.13799C8.98712 5.26301 9.15669 5.33325 9.3335 5.33325ZM9.3335 7.99992H10.0002C10.177 7.99992 10.3465 7.92968 10.4716 7.80466C10.5966 7.67963 10.6668 7.51006 10.6668 7.33325C10.6668 7.15644 10.5966 6.98687 10.4716 6.86185C10.3465 6.73682 10.177 6.66659 10.0002 6.66659H9.3335C9.15669 6.66659 8.98712 6.73682 8.86209 6.86185C8.73707 6.98687 8.66683 7.15644 8.66683 7.33325C8.66683 7.51006 8.73707 7.67963 8.86209 7.80466C8.98712 7.92968 9.15669 7.99992 9.3335 7.99992ZM6.00016 5.33325H6.66683C6.84364 5.33325 7.01321 5.26301 7.13823 5.13799C7.26326 5.01297 7.3335 4.8434 7.3335 4.66659C7.3335 4.48977 7.26326 4.32021 7.13823 4.19518C7.01321 4.07016 6.84364 3.99992 6.66683 3.99992H6.00016C5.82335 3.99992 5.65378 4.07016 5.52876 4.19518C5.40373 4.32021 5.3335 4.48977 5.3335 4.66659C5.3335 4.8434 5.40373 5.01297 5.52876 5.13799C5.65378 5.26301 5.82335 5.33325 6.00016 5.33325ZM6.00016 7.99992H6.66683C6.84364 7.99992 7.01321 7.92968 7.13823 7.80466C7.26326 7.67963 7.3335 7.51006 7.3335 7.33325C7.3335 7.15644 7.26326 6.98687 7.13823 6.86185C7.01321 6.73682 6.84364 6.66659 6.66683 6.66659H6.00016C5.82335 6.66659 5.65378 6.73682 5.52876 6.86185C5.40373 6.98687 5.3335 7.15644 5.3335 7.33325C5.3335 7.51006 5.40373 7.67963 5.52876 7.80466C5.65378 7.92968 5.82335 7.99992 6.00016 7.99992ZM14.0002 13.3333H13.3335V1.99992C13.3335 1.82311 13.2633 1.65354 13.1382 1.52851C13.0132 1.40349 12.8436 1.33325 12.6668 1.33325H3.3335C3.15669 1.33325 2.98712 1.40349 2.86209 1.52851C2.73707 1.65354 2.66683 1.82311 2.66683 1.99992V13.3333H2.00016C1.82335 13.3333 1.65378 13.4035 1.52876 13.5285C1.40373 13.6535 1.3335 13.8231 1.3335 13.9999C1.3335 14.1767 1.40373 14.3463 1.52876 14.4713C1.65378 14.5963 1.82335 14.6666 2.00016 14.6666H14.0002C14.177 14.6666 14.3465 14.5963 14.4716 14.4713C14.5966 14.3463 14.6668 14.1767 14.6668 13.9999C14.6668 13.8231 14.5966 13.6535 14.4716 13.5285C14.3465 13.4035 14.177 13.3333 14.0002 13.3333ZM8.66683 13.3333H7.3335V10.6666H8.66683V13.3333ZM12.0002 13.3333H10.0002V9.99992C10.0002 9.82311 9.92992 9.65354 9.8049 9.52851C9.67988 9.40349 9.51031 9.33325 9.3335 9.33325H6.66683C6.49002 9.33325 6.32045 9.40349 6.19543 9.52851C6.0704 9.65354 6.00016 9.82311 6.00016 9.99992V13.3333H4.00016V2.66659H12.0002V13.3333Z" fill="#ABADBA"/>
</svg>
