<svg width="16" height="10" viewBox="0 0 16 10" fill="none" xmlns="http://www.w3.org/2000/svg">
<path d="M3.13074 0H7.12092C7.67791 0 8.02434 0.453997 7.8944 1.01284L6.03669 8.98872C5.90559 9.54561 5.34791 10 4.79053 10H0.800745C0.24453 10 -0.102679 9.54561 0.027257 8.98872L1.88575 1.01284C2.01568 0.453997 2.57307 0 3.13074 0Z" fill="#E21836"/>
<path d="M6.78887 0H11.3775C11.9344 0 11.6833 0.453997 11.5522 1.01284L9.69483 8.98872C9.5645 9.54561 9.60516 10 9.04709 10H4.45849C3.90043 10 3.55507 9.54561 3.68617 8.98872L5.54349 1.01284C5.67538 0.453997 6.23159 0 6.78887 0Z" fill="#00447C"/>
<path d="M11.1955 0H15.1857C15.7434 0 16.0899 0.453997 15.9589 1.01284L14.1014 8.98872C13.9703 9.54561 13.4123 10 12.8546 10H8.86627C8.30821 10 7.96207 9.54561 8.09278 8.98872L9.9505 1.01284C10.0804 0.453997 10.6374 0 11.1955 0Z" fill="#007B84"/>
<path d="M4.17282 2.55607C3.76249 2.56026 3.64131 2.55607 3.6026 2.54693C3.58772 2.61764 3.31083 3.89492 3.31005 3.89599C3.25043 4.1544 3.20705 4.33861 3.05971 4.45755C2.97607 4.5267 2.87842 4.56006 2.76521 4.56006C2.58325 4.56006 2.47724 4.46971 2.45944 4.29834L2.45603 4.2395C2.45603 4.2395 2.51147 3.89336 2.51147 3.89142C2.51147 3.89142 2.80208 2.72744 2.85411 2.57358C2.85683 2.56483 2.85761 2.56026 2.85829 2.55607C2.29264 2.56104 2.19237 2.55607 2.18546 2.54693C2.18167 2.55948 2.16767 2.63164 2.16767 2.63164L1.87093 3.94355L1.84545 4.05481L1.79614 4.41875C1.79614 4.5267 1.81734 4.61482 1.85955 4.68932C1.99474 4.92556 2.38037 4.96096 2.59852 4.96096C2.87959 4.96096 3.14325 4.90124 3.32143 4.79222C3.63071 4.60947 3.71163 4.32382 3.78379 4.06998L3.81725 3.93976C3.81725 3.93976 4.11661 2.73085 4.16747 2.57358C4.16942 2.56483 4.17019 2.56026 4.17282 2.55607ZM5.19137 3.53131C5.1192 3.53131 4.98732 3.54882 4.86886 3.60688C4.82587 3.62896 4.78522 3.65444 4.74233 3.67983L4.78104 3.54007L4.75984 3.51653C4.50862 3.5674 4.45241 3.5742 4.22035 3.60688L4.2009 3.61982C4.17396 3.84322 4.15003 4.01118 4.05015 4.4503C4.01212 4.61213 3.97264 4.77553 3.93305 4.93697L3.94375 4.95749C4.18154 4.94495 4.25371 4.94495 4.46038 4.94835L4.47711 4.93017C4.50337 4.79566 4.50677 4.76415 4.56493 4.49173C4.59226 4.36257 4.64925 4.07877 4.67736 3.97772C4.72901 3.9538 4.77997 3.93026 4.8286 3.93026C4.94443 3.93026 4.93033 4.03131 4.92585 4.07158C4.92089 4.13917 4.87868 4.35995 4.83541 4.5495L4.80652 4.67185C4.78639 4.7622 4.76431 4.85003 4.74418 4.9396L4.75293 4.95749C4.98732 4.94495 5.05881 4.94495 5.25896 4.94835L5.2825 4.93017C5.31868 4.72009 5.32928 4.66387 5.39347 4.358L5.42576 4.21746C5.48849 3.94242 5.52 3.80295 5.47254 3.68936C5.42235 3.56205 5.30195 3.53131 5.19137 3.53131ZM6.3292 3.81928C6.20461 3.84321 6.12515 3.85916 6.04618 3.86947C5.96789 3.88201 5.89154 3.89339 5.77114 3.91012L5.76161 3.91878L5.75285 3.92568C5.74031 4.01535 5.73155 4.09287 5.71492 4.184C5.70082 4.27824 5.67913 4.38532 5.64383 4.53918C5.6165 4.65696 5.6024 4.698 5.58683 4.73943C5.57166 4.78087 5.55493 4.82113 5.5242 4.93696L5.5314 4.94766L5.53743 4.95748C5.64996 4.95214 5.72358 4.94834 5.79925 4.94766C5.87481 4.94494 5.95311 4.94766 6.07429 4.94834L6.08489 4.93969L6.09627 4.93016C6.11377 4.8257 6.1164 4.79759 6.1271 4.74663C6.1377 4.69197 6.15598 4.61631 6.20082 4.41421C6.22202 4.31928 6.24566 4.22465 6.26764 4.12778C6.29049 4.0313 6.31442 3.93628 6.33718 3.84136L6.33377 3.82988L6.3292 3.81928ZM6.33186 3.43101C6.21865 3.3642 6.01995 3.3854 5.88622 3.4777C5.75288 3.56814 5.73771 3.69652 5.85053 3.76422C5.96179 3.82918 6.16127 3.80983 6.29383 3.71675C6.42688 3.62436 6.44351 3.49715 6.33186 3.43101ZM7.0165 4.97842C7.24554 4.97842 7.48032 4.9153 7.65703 4.72799C7.793 4.57607 7.85534 4.35004 7.87693 4.25697C7.94725 3.94847 7.8925 3.80443 7.82373 3.71671C7.71928 3.58298 7.53469 3.54009 7.34319 3.54009C7.22803 3.54009 6.95377 3.55146 6.73951 3.74899C6.58565 3.89148 6.51455 4.08482 6.47166 4.2702C6.42838 4.45907 6.37859 4.79908 6.69127 4.92561C6.78775 4.96705 6.92683 4.97842 7.0165 4.97842ZM6.9986 4.2843C7.05141 4.05069 7.11376 3.85462 7.27287 3.85462C7.39755 3.85462 7.4066 4.0005 7.35116 4.23489C7.34124 4.28692 7.29572 4.48037 7.23416 4.56275C7.19117 4.62353 7.14031 4.66039 7.08409 4.66039C7.06736 4.66039 6.96787 4.66039 6.96631 4.51266C6.96554 4.43972 6.98042 4.36522 6.9986 4.2843ZM8.44949 4.94838L8.46738 4.93019C8.49277 4.79569 8.49695 4.76408 8.55317 4.49176C8.58127 4.3626 8.63943 4.0788 8.66676 3.97775C8.7185 3.95373 8.76859 3.93019 8.81877 3.93019C8.93383 3.93019 8.91982 4.03125 8.91525 4.07151C8.91107 4.1392 8.86886 4.35988 8.8248 4.54943L8.79748 4.67178C8.77657 4.76223 8.75381 4.84996 8.73367 4.93963L8.74243 4.95752C8.9776 4.94498 9.04636 4.94498 9.24768 4.94838L9.27199 4.93019C9.3073 4.72002 9.31683 4.66381 9.38296 4.35803L9.41448 4.2174C9.4775 3.94235 9.5094 3.80298 9.46272 3.68939C9.41107 3.56208 9.28989 3.53134 9.18086 3.53134C9.1086 3.53134 8.97604 3.54875 8.85826 3.60691C8.81615 3.62899 8.77394 3.65437 8.73251 3.67985L8.76859 3.5401L8.74924 3.51646C8.49812 3.56742 8.44074 3.57423 8.20897 3.60691L8.19117 3.61985C8.16307 3.84325 8.14021 4.01111 8.04033 4.45033C8.0023 4.61216 7.96281 4.77556 7.92333 4.937L7.93393 4.95752C8.17211 4.94498 8.24321 4.94498 8.44949 4.94838ZM10.1773 4.95748C10.1921 4.88531 10.2799 4.45757 10.2807 4.45757C10.2807 4.45757 10.3555 4.14372 10.3601 4.13234C10.3601 4.13234 10.3836 4.09967 10.4071 4.08673H10.4418C10.7684 4.08673 11.1373 4.08673 11.4265 3.87403C11.6232 3.72814 11.7577 3.51272 11.8178 3.2509C11.8333 3.18671 11.8448 3.11036 11.8448 3.03402C11.8448 2.93374 11.8247 2.83454 11.7665 2.75703C11.6191 2.55075 11.3254 2.54695 10.9865 2.5454C10.9854 2.5454 10.8194 2.54695 10.8194 2.54695C10.3855 2.5523 10.2115 2.55075 10.1401 2.54199C10.134 2.5736 10.1227 2.62982 10.1227 2.62982C10.1227 2.62982 9.96724 3.3501 9.96724 3.35127C9.96724 3.35127 9.59533 4.88268 9.57782 4.95485C9.95664 4.95028 10.112 4.95028 10.1773 4.95748ZM10.4653 3.67796C10.4653 3.67796 10.6305 2.95913 10.6298 2.96185L10.6351 2.92499L10.6374 2.89688L10.7035 2.90369C10.7035 2.90369 11.0443 2.93297 11.0522 2.93374C11.1867 2.98578 11.2422 3.1199 11.2035 3.29496C11.1682 3.45495 11.0644 3.58945 10.9311 3.65442C10.8213 3.70947 10.6867 3.71404 10.5482 3.71404H10.4585L10.4653 3.67796ZM11.4941 4.29761C11.4505 4.48376 11.4003 4.82378 11.7114 4.94496C11.8106 4.98717 11.8995 4.99971 11.9898 4.99514C12.0853 4.98999 12.1737 4.94214 12.2555 4.87328C12.2482 4.90158 12.2408 4.92988 12.2334 4.95828L12.2475 4.97647C12.4713 4.96704 12.5407 4.96704 12.7832 4.96888L12.8051 4.95216C12.8406 4.74402 12.8739 4.54192 12.9659 4.14375C13.0108 3.95303 13.0555 3.76416 13.1015 3.57421L13.0943 3.5533C12.844 3.59969 12.777 3.60962 12.5362 3.64375L12.5179 3.65863C12.5155 3.67799 12.513 3.69656 12.5107 3.71514C12.4732 3.65465 12.4189 3.603 12.3352 3.57081C12.2281 3.5287 11.9766 3.58297 11.7604 3.77982C11.6085 3.92035 11.5356 4.11292 11.4941 4.29761ZM12.0199 4.30899C12.0735 4.07956 12.135 3.88544 12.2945 3.88544C12.3954 3.88544 12.4485 3.97851 12.4377 4.13724C12.4292 4.17682 12.4199 4.21854 12.4089 4.26571C12.393 4.33389 12.3757 4.40148 12.3588 4.46918C12.3417 4.51547 12.3218 4.55914 12.2999 4.58822C12.2589 4.64638 12.1612 4.68246 12.105 4.68246C12.089 4.68246 11.9906 4.68246 11.9872 4.53735C11.9864 4.46509 12.0013 4.39069 12.0199 4.30899ZM14.7655 3.55145L14.7462 3.52937C14.4984 3.57955 14.4536 3.58753 14.226 3.61826L14.2093 3.63499C14.2085 3.63771 14.2078 3.64189 14.2067 3.64569L14.2059 3.64189C14.0365 4.03277 14.0414 3.94845 13.9035 4.25617C13.9027 4.24217 13.9027 4.23341 13.902 4.21853L13.8674 3.55145L13.8458 3.52937C13.5863 3.57955 13.5801 3.58753 13.3405 3.61826L13.3218 3.63499C13.3192 3.64296 13.3192 3.65172 13.3176 3.66125L13.3192 3.66465C13.3492 3.81774 13.342 3.7836 13.372 4.02519C13.386 4.14374 13.4047 4.26298 13.4187 4.38008C13.4423 4.57605 13.4556 4.67253 13.4844 4.9716C13.3226 5.23867 13.2843 5.33972 13.1285 5.57411L13.1296 5.57644L13.0198 5.74995C13.0073 5.76823 12.9959 5.78078 12.98 5.78613C12.9625 5.79478 12.9397 5.79634 12.9081 5.79634H12.8473L12.757 6.09686L13.0669 6.10221C13.2489 6.10144 13.3633 6.01634 13.4248 5.90196L13.6197 5.56798H13.6166L13.6371 5.54444C13.7682 5.2622 14.7655 3.55145 14.7655 3.55145ZM11.4941 7.49839H11.3626L11.8493 5.88869H12.0107L12.062 5.72286L12.067 5.90726C12.0609 6.02125 12.1506 6.1223 12.3862 6.10557H12.6586L12.7523 5.79561H12.6498C12.5909 5.79561 12.5636 5.78073 12.567 5.74883L12.562 5.56122H12.0575V5.56219C11.8944 5.5656 11.4074 5.57785 11.3087 5.60411C11.1894 5.63484 11.0636 5.72529 11.0636 5.72529L11.1131 5.55927H10.6412L10.5428 5.88869L10.0496 7.523H9.95394L9.86009 7.83072H10.8L10.7685 7.93333H11.2316L11.2623 7.83072H11.3923L11.4941 7.49839ZM11.1085 6.21576C11.0329 6.23667 10.8923 6.30008 10.8923 6.30008L11.0174 5.88869H11.3923L11.3018 6.18843C11.3018 6.18843 11.186 6.19524 11.1085 6.21576ZM11.1157 6.80349C11.1157 6.80349 10.9979 6.81827 10.9204 6.83578C10.844 6.85892 10.7009 6.93187 10.7009 6.93187L10.83 6.50374H11.2069L11.1157 6.80349ZM10.9056 7.50218H10.5295L10.6385 7.14087H11.0135L10.9056 7.50218ZM11.8113 6.50374H12.3534L12.2755 6.75603H11.7262L11.6438 7.03185H12.1244L11.7605 7.5443C11.735 7.58194 11.7121 7.59526 11.6867 7.60586C11.6613 7.6188 11.6278 7.63397 11.5891 7.63397H11.4558L11.3641 7.93605H11.7129C11.8942 7.93605 12.0013 7.85358 12.0803 7.74533L12.3299 7.40376L12.3835 7.75058C12.3949 7.81555 12.4416 7.85358 12.4732 7.86836C12.5081 7.88586 12.5442 7.91592 12.5951 7.92039C12.6498 7.92273 12.6893 7.92457 12.7155 7.92457H12.8869L12.9898 7.58651H12.9222C12.8834 7.58651 12.8166 7.57999 12.8052 7.56783C12.7938 7.55305 12.7938 7.53029 12.7877 7.49567L12.7333 7.14807H12.5107L12.6083 7.03185H13.1566L13.2409 6.75603H12.7333L12.8124 6.50374H13.3184L13.4123 6.19261H11.9036L11.8113 6.50374ZM7.23262 7.57243L7.35916 7.1515H7.87919L7.97421 6.83843H7.45369L7.53315 6.57934H8.04181L8.13605 6.27619H6.86334L6.77104 6.57934H7.06019L6.98306 6.83843H6.69314L6.59705 7.15685H6.8861L6.71745 7.71375C6.69469 7.78747 6.72815 7.81558 6.74935 7.84981C6.77104 7.88317 6.79302 7.90525 6.84243 7.91779C6.89339 7.92917 6.92831 7.93598 6.97577 7.93598H7.56203L7.66649 7.58916L7.40662 7.62486C7.35643 7.62486 7.21745 7.61883 7.23262 7.57243ZM7.29227 5.55738L7.16049 5.79556C7.13228 5.84759 7.1069 5.87988 7.08404 5.89476C7.06391 5.90731 7.02404 5.91256 6.96626 5.91256H6.8975L6.8056 6.21727H7.03396C7.14376 6.21727 7.22808 6.177 7.26835 6.15687C7.31163 6.13373 7.323 6.14695 7.35646 6.11466L7.43359 6.04785H8.14668L8.24131 5.73059H7.71933L7.81046 5.55738H7.29227ZM8.34502 7.57855C8.33287 7.56105 8.34162 7.53021 8.3602 7.46602L8.5551 6.82092H9.24845C9.3495 6.81946 9.42244 6.81829 9.4699 6.81489C9.52087 6.80954 9.5763 6.79135 9.6367 6.75867C9.69904 6.72444 9.73094 6.68835 9.75788 6.64692C9.78793 6.60559 9.83617 6.51514 9.87761 6.37567L10.1226 5.55929L9.40309 5.56348C9.40309 5.56348 9.18153 5.59615 9.08399 5.63224C8.98556 5.6725 8.84493 5.78493 8.84493 5.78493L8.90989 5.56114H8.46543L7.84318 7.62485C7.8211 7.70499 7.80632 7.76315 7.80291 7.79806C7.80174 7.8357 7.85037 7.87295 7.88189 7.90106C7.91913 7.92916 7.97418 7.92459 8.02699 7.92916C8.08253 7.93335 8.1615 7.93597 8.27053 7.93597H8.61209L8.71694 7.58195L8.41116 7.61084C8.37848 7.61084 8.35485 7.59333 8.34502 7.57855ZM8.68085 6.3852H9.40912L9.36282 6.53031C9.35631 6.53372 9.34074 6.52311 9.26663 6.53187H8.63602L8.68085 6.3852ZM8.82674 5.89853H9.56113L9.50832 6.0733C9.50832 6.0733 9.16218 6.0699 9.10674 6.08011C8.86282 6.12232 8.72034 6.25264 8.72034 6.25264L8.82674 5.89853ZM9.37912 7.01624C9.37309 7.03793 9.36356 7.05115 9.35024 7.06107C9.33545 7.07061 9.31153 7.07401 9.27584 7.07401H9.17206L9.17819 6.89729H8.74656L8.72905 7.76123C8.72837 7.82357 8.7344 7.85965 8.78002 7.88854C8.82563 7.92462 8.96617 7.92919 9.15533 7.92919H9.42581L9.52345 7.60581L9.28799 7.61875L9.2097 7.62332C9.199 7.61875 9.18879 7.61457 9.17741 7.60319C9.16749 7.59336 9.15076 7.59939 9.15349 7.53705L9.15533 7.3156L9.40227 7.30538C9.53561 7.30538 9.5926 7.26201 9.64123 7.22067C9.68762 7.18109 9.7028 7.13557 9.7203 7.07401L9.76173 6.87794H9.4224L9.37912 7.01624Z" fill="#FEFEFE"/>
</svg>
