<svg width="34" height="10" viewBox="0 0 34 10" fill="none" xmlns="http://www.w3.org/2000/svg">
<path d="M24.7207 0.409614C23.9623 0.133289 23.1607 -0.00537249 22.3537 0.000159206C19.7436 0.000159206 17.9002 1.31498 17.8872 3.20239C17.8709 4.58899 19.1971 5.37038 20.2003 5.83367C21.2297 6.31001 21.5739 6.61017 21.5706 7.03594C21.5641 7.68356 20.7485 7.97719 19.9899 7.97719C18.9475 7.97719 18.3782 7.83201 17.5022 7.46823L17.1776 7.31652L16.8073 9.4894C17.4418 9.75367 18.5854 9.98042 19.7664 10C22.5413 10 24.3553 8.69333 24.3765 6.68521C24.3993 5.57756 23.6815 4.7407 22.171 4.04903C21.2525 3.60043 20.6832 3.30027 20.6832 2.84514C20.6832 2.44221 21.171 2.01155 22.1905 2.01155C22.8691 1.99513 23.5434 2.12244 24.1693 2.38511L24.414 2.49441L24.7843 0.394932L24.7207 0.409614ZM31.4938 0.176339H29.4547C28.8201 0.176339 28.3421 0.350887 28.0648 0.980568L24.1432 9.8646H26.918L27.4727 8.40786L30.8592 8.41112C30.9392 8.75206 31.1839 9.8646 31.1839 9.8646H33.6308L31.4938 0.176339ZM14.1336 0.0947737H16.7779L15.1238 9.78793H12.4827L14.1336 0.0915114V0.0947737ZM7.42078 5.43727L7.69484 6.78309L10.2788 0.176339H13.0797L8.91831 9.85155H6.1239L3.84009 1.65919C3.8031 1.5241 3.71623 1.40808 3.59702 1.33456C2.77387 0.909341 1.90169 0.586655 1 0.373724L1.03589 0.169813H5.29194C5.86942 0.192651 6.33434 0.373725 6.48931 0.990355L7.41915 5.44216V5.43727H7.42078ZM28.2312 6.42583L29.285 3.71462C29.272 3.74398 29.502 3.15508 29.6358 2.79131L29.8168 3.62816L30.4286 6.4242H28.2296V6.42583H28.2312Z" fill="#1A1F71"/>
</svg>
