<svg width="102" height="102" viewBox="0 0 102 102" fill="none" xmlns="http://www.w3.org/2000/svg">
    <defs>
        <linearGradient id="paint0_linear_770_3399" x1="379.5" y1="97.5" x2="-91.8803" y2="201.381" gradientUnits="userSpaceOnUse">
            <stop stop-color="#CF1D5B" stop-opacity="0.37"/>
            <stop offset="1" stop-color="white" stop-opacity="0"/>
        </linearGradient>
        <linearGradient id="paint1_linear_770_3399" x1="52.6426" y1="50.2857" x2="52.6426" y2="101" gradientUnits="userSpaceOnUse">
            <stop stop-color="#FFE9F3"/>
            <stop offset="1" stop-color="#FFDAEE" stop-opacity="0"/>
        </linearGradient>
        <linearGradient id="paint2_linear_770_3399" x1="-17.3134" y1="42.2394" x2="-17.885" y2="52.7696" gradientUnits="userSpaceOnUse">
            <stop stop-color="#D97A93"/>
            <stop offset="1" stop-color="#DE8098" stop-opacity="0"/>
        </linearGradient>
        <radialGradient id="paint3_radial_770_3399" cx="0" cy="0" r="1" gradientUnits="userSpaceOnUse" gradientTransform="translate(-12.7427 47.6777) rotate(89.9258) scale(4.75598 11.9203)">
            <stop stop-color="#923C81"/>
            <stop offset="1" stop-color="#933D82" stop-opacity="0.09"/>
        </radialGradient>
        <linearGradient id="paint4_linear_770_3399" x1="-5.95989" y1="44.9286" x2="-5.95989" y2="51" gradientUnits="userSpaceOnUse">
            <stop stop-color="#E7CBE5"/>
            <stop offset="1" stop-color="#D9A8CB"/>
        </linearGradient>
        <linearGradient id="paint5_linear_770_3399" x1="87.693" y1="41.2853" x2="87.693" y2="52.0878" gradientUnits="userSpaceOnUse">
            <stop stop-color="#E7CBE5"/>
            <stop offset="1" stop-color="#D9A8CB"/>
        </linearGradient>
        <linearGradient id="paint6_linear_770_3399" x1="64.7828" y1="43.9161" x2="64.7828" y2="51.7373" gradientUnits="userSpaceOnUse">
            <stop stop-color="#E7CBE5"/>
            <stop offset="1" stop-color="#D9A8CB"/>
        </linearGradient>
        <linearGradient id="paint7_linear_770_3399" x1="119.589" y1="42.904" x2="119.589" y2="51.872" gradientUnits="userSpaceOnUse">
            <stop stop-color="#E7CBE5"/>
            <stop offset="1" stop-color="#D9A8CB"/>
        </linearGradient>
        <linearGradient id="paint8_linear_770_3399" x1="15.8373" y1="76.1336" x2="8.42771" y2="97.7006" gradientUnits="userSpaceOnUse">
            <stop stop-color="#F7D8DF"/>
            <stop offset="1" stop-color="#E3BCDB"/>
        </linearGradient>
        <linearGradient id="paint9_linear_770_3399" x1="9.04804" y1="77.25" x2="1.63842" y2="98.817" gradientUnits="userSpaceOnUse">
            <stop stop-color="#EECBDD"/>
            <stop offset="1" stop-color="#E3BCDB"/>
        </linearGradient>
        <radialGradient id="paint10_radial_770_3399" cx="0" cy="0" r="1" gradientUnits="userSpaceOnUse" gradientTransform="translate(72.1857 32.5205) scale(21.8656 11.8921)">
            <stop stop-color="white" stop-opacity="0.75"/>
            <stop offset="1" stop-color="white" stop-opacity="0"/>
        </radialGradient>
        <linearGradient id="paint11_linear_770_3399" x1="7.19688" y1="7.72622" x2="7.15041" y2="21.4165" gradientUnits="userSpaceOnUse">
            <stop offset="0.163712" stop-color="#F7E7FF"/>
            <stop offset="0.757473" stop-color="#FFECF7" stop-opacity="0"/>
        </linearGradient>
        <linearGradient id="paint12_linear_770_3399" x1="57.8427" y1="17.7857" x2="58.0158" y2="24.5744" gradientUnits="userSpaceOnUse">
            <stop offset="0.163712" stop-color="#F7E7FF"/>
            <stop offset="0.757473" stop-color="#FFECF7" stop-opacity="0"/>
        </linearGradient>
        <linearGradient id="paint13_linear_770_3399" x1="39.5378" y1="21.2802" x2="39.6532" y2="31.9196" gradientUnits="userSpaceOnUse">
            <stop offset="0.163712" stop-color="#F7E7FF"/>
            <stop offset="0.757473" stop-color="#FFECF7" stop-opacity="0"/>
        </linearGradient>
        <linearGradient id="paint14_linear_770_3399" x1="33.5087" y1="16.2482" x2="33.472" y2="22.3013" gradientUnits="userSpaceOnUse">
            <stop offset="0.000347036" stop-color="#F7E7FF"/>
            <stop offset="0.757473" stop-color="#FFECF7" stop-opacity="0"/>
        </linearGradient>
        <linearGradient id="paint15_linear_770_3399" x1="6.27702" y1="29.8252" x2="6.15975" y2="40.8193" gradientUnits="userSpaceOnUse">
            <stop offset="0.163712" stop-color="#F7E7FF"/>
            <stop offset="0.757473" stop-color="#FFECF7" stop-opacity="0"/>
        </linearGradient>
        <linearGradient id="paint16_linear_770_3399" x1="56.0928" y1="64.2833" x2="74.0362" y2="93.2559" gradientUnits="userSpaceOnUse">
            <stop offset="0.0227358" stop-color="#F6D7DF"/>
            <stop offset="0.940142" stop-color="#D49AC0"/>
        </linearGradient>
        <linearGradient id="paint17_linear_770_3399" x1="67.5026" y1="64.6519" x2="74.5667" y2="95.832" gradientUnits="userSpaceOnUse">
            <stop stop-color="#E7CBE5"/>
            <stop offset="1" stop-color="#D9A8CB"/>
        </linearGradient>
        <linearGradient id="paint18_linear_770_3399" x1="21.6019" y1="32.3773" x2="16.2201" y2="23.4397" gradientUnits="userSpaceOnUse">
            <stop stop-color="#C19FD1"/>
            <stop offset="0.260417" stop-color="#DBB6ED"/>
            <stop offset="0.766752" stop-color="#FFE1F3"/>
        </linearGradient>
        <linearGradient id="paint19_linear_770_3399" x1="17.0085" y1="30.4237" x2="17.8444" y2="25.12" gradientUnits="userSpaceOnUse">
            <stop stop-color="#C19FD1"/>
            <stop offset="0.289591" stop-color="#DBB6ED"/>
            <stop offset="0.917183" stop-color="#FFE1F3"/>
        </linearGradient>
        <clipPath id="clip0_770_3399">
            <rect width="134" height="100" fill="white" transform="translate(-14 1)"/>
        </clipPath>
    </defs>
    <rect x="0.5" y="0.5" width="101" height="101" rx="8.5" fill="white" stroke="#E3E4E8"/>
    <mask id="mask0_770_3399" style="mask-type:alpha" maskUnits="userSpaceOnUse" x="1" y="1" width="100" height="100">
        <rect x="1" y="1" width="100" height="100" rx="8" fill="#C4C4C4"/>
    </mask>
    <g mask="url(#mask0_770_3399)">
        <g clip-path="url(#clip0_770_3399)">
            <rect x="-14" y="1" width="375" height="280" fill="white"/>
            <rect x="-14" y="1" width="375" height="280" fill="url(#paint0_linear_770_3399)" fill-opacity="0.5"/>
            <rect x="-14.3574" y="50.2857" width="134" height="50.7143" fill="url(#paint1_linear_770_3399)"/>
            <rect x="-14.3574" y="50.2857" width="134" height="50.7143" fill="#FBEEF2"/>
            <path d="M-13.1111 53.141C-15.3911 53.8428 -14.663 51.8904 -14.1826 50.1317C-5.42397 50.1319 4.753 50.1248 4.40267 50.2858C3.96476 50.487 -2.94423 53.6265 -4.3381 52.739C-7.28474 50.8629 -8.75808 51.8009 -13.1111 53.141Z" fill="url(#paint2_linear_770_3399)"/>
            <path d="M-13.1111 53.141C-15.3911 53.8428 -14.663 51.8904 -14.1826 50.1317C-5.42397 50.1319 4.753 50.1248 4.40267 50.2858C3.96476 50.487 -2.94423 53.6265 -4.3381 52.739C-7.28474 50.8629 -8.75808 51.8009 -13.1111 53.141Z" fill="url(#paint3_radial_770_3399)" fill-opacity="0.2"/>
            <path d="M-12.967 45.6105C-14.4082 46.3475 -16.5012 50.2445 -16.5012 50.2445C-16.5012 50.2445 2.97345 50.2857 4.34826 50.2857C4.81352 49.8783 4.81763 48.4757 4.34826 48.2585C2.70912 47.4998 0.42807 45.6104 -0.800382 45.6104C-2.02883 45.6104 -4.26168 48.64 -5.49024 48.5131C-6.61381 48.397 -7.7581 45.3669 -9.26251 45.1012C-10.7669 44.8355 -11.3591 44.7882 -12.967 45.6105Z" fill="url(#paint4_linear_770_3399)"/>
            <path d="M105.234 46.8607C106.744 46.8607 109.5 49.8878 110.758 50.8169H64.8816C65.4808 49.3482 66.9489 46.4108 68.0273 46.4108C69.1058 46.4108 71.772 45.4518 72.9704 44.9723C73.0903 44.7624 73.5097 44.3427 74.2287 44.3427C75.1274 44.3427 76.925 41.2853 78.9022 41.2853C80.8793 41.2853 82.8566 43.1736 83.7553 44.3427C84.654 45.5118 85.8224 45.7816 87.4401 45.7816C89.0578 45.7816 90.3158 44.3427 91.4841 44.3427C92.6525 44.3427 92.6524 45.7816 93.641 45.7816C94.6296 45.7816 95.5281 44.9723 96.3369 44.9723C96.984 44.9723 98.464 45.5118 99.1231 45.7816C100.531 46.1412 103.724 46.8606 105.234 46.8607Z" fill="url(#paint5_linear_770_3399)"/>
            <path d="M68.0048 45.454C66.2162 45.0195 64.5251 43.9161 62.6481 43.9161C58.6165 43.916 56.611 45.6723 52.7714 46.8527C51.4487 47.2593 50.6266 47.2577 49.39 47.904C47.7972 48.7365 47.0632 50.8171 47.0632 50.8171H82.5939C82.5939 50.8171 82.8317 50.3772 82.5939 50.0849C80.5226 47.5381 77.4741 47.3069 73.6702 46.0717C71.7838 45.4591 70.2931 46.0099 68.0048 45.454Z" fill="url(#paint6_linear_770_3399)"/>
            <path d="M123.283 44.6674C121.232 44.1692 119.293 42.904 117.141 42.904C112.518 42.9039 110.219 44.9177 105.816 46.2712C104.299 46.7374 103.357 46.7355 101.939 47.4766C100.112 48.4312 99.2708 50.8169 99.2708 50.8169H140.011C140.011 50.8169 140.284 50.3125 140.011 49.9774C137.636 47.0571 134.141 46.792 129.779 45.3756C127.616 44.6732 125.907 45.3049 123.283 44.6674Z" fill="url(#paint7_linear_770_3399)"/>
            <path d="M-24.184 65.2857C-29.1867 66 -25.4487 66.5457 -29.7227 67.2641V107.384H126.432V85.1687C121.624 86.2186 110.954 85.1687 106.741 85.1687H83.3733C77.1912 85.1687 66.9879 82.3504 59.432 82.0188C51.8761 81.6873 39.8829 78.3716 34.6167 78.3716C29.3505 78.3716 17.2153 77.0453 12.8649 75.3875C9.38464 74.0613 -4.82631 69.3797 -9.71199 68.1428C-14 67.0573 -19.5387 65.2857 -24.184 65.2857Z" fill="white"/>
            <path d="M-24.184 65.2857C-29.1867 66 -25.4487 66.5457 -29.7227 67.2641V107.384H126.432V85.1687C121.624 86.2186 110.954 85.1687 106.741 85.1687H83.3733C77.1912 85.1687 66.9879 82.3504 59.432 82.0188C51.8761 81.6873 39.8829 78.3716 34.6167 78.3716C29.3505 78.3716 17.2153 77.0453 12.8649 75.3875C9.38464 74.0613 -4.82631 69.3797 -9.71199 68.1428C-14 67.0573 -19.5387 65.2857 -24.184 65.2857Z" fill="url(#paint8_linear_770_3399)"/>
            <path d="M-20.9424 68.3805C-22.9333 61.8929 -32.238 67.6621 -36.512 68.3805V108.5H119.643V86.2851C114.834 87.335 104.165 86.2851 99.9516 86.2851H76.584C70.402 86.2851 60.1986 83.4668 52.6427 83.1352C45.0868 82.8036 33.0936 79.488 27.8274 79.488C22.5612 79.488 10.426 78.1617 6.07562 76.5039C2.59534 75.1776 -10.2134 68.2147 -15.2506 68.3805C-16.8534 66.778 -18.7443 70.1047 -20.9424 68.3805Z" fill="white"/>
            <path d="M-20.9424 68.3805C-22.9333 61.8929 -32.238 67.6621 -36.512 68.3805V108.5H119.643V86.2851C114.834 87.335 104.165 86.2851 99.9516 86.2851H76.584C70.402 86.2851 60.1986 83.4668 52.6427 83.1352C45.0868 82.8036 33.0936 79.488 27.8274 79.488C22.5612 79.488 10.426 78.1617 6.07562 76.5039C2.59534 75.1776 -10.2134 68.2147 -15.2506 68.3805C-16.8534 66.778 -18.7443 70.1047 -20.9424 68.3805Z" fill="url(#paint9_linear_770_3399)"/>
            <ellipse opacity="0.2" cx="72.1857" cy="32.5205" rx="21.8656" ry="21.8776" fill="url(#paint10_radial_770_3399)"/>
            <ellipse opacity="0.2" cx="72.1856" cy="32.5204" rx="5.60769" ry="5.61078" fill="white"/>
            <path d="M10.6995 10.6463C6.98952 10.5679 3.56978 11.8607 1.73086 13.1535C-0.10805 14.4463 -0.140342 14.2896 -3.65683 14.2896C-7.17331 14.2896 -4.65687 18.0504 -2.85024 18.0504C-1.0436 18.0504 -0.624206 20.4401 8.53801 20.6359C17.7002 20.8318 15.8936 16.7968 19.7004 18.638C23.5073 20.4792 31.1855 18.9122 33.5728 19.0298C35.9601 19.1473 38.8959 17.4236 37.4119 15.6215C35.9279 13.8195 30.9596 12.7617 26.5721 12.605C22.1846 12.4483 20.9909 14.3287 20.2811 13.1535C19.5714 11.9782 14.4096 10.7246 10.6995 10.6463Z" fill="url(#paint11_linear_770_3399)"/>
            <path d="M55.254 17.788C57.3173 17.7348 59.2192 18.6121 60.2419 19.4893C61.2646 20.3666 61.2826 20.2602 63.2383 20.2602C65.194 20.2602 67.9029 24.0231 66.8982 24.0231C65.8934 24.0231 61.5517 24.4338 56.4561 24.5667C51.3606 24.6996 52.3653 21.9616 50.2481 23.211C48.131 24.4604 39.4995 23.9433 38.1718 24.0231C36.8441 24.1028 39.5726 22.3869 40.3979 21.1641C41.2233 19.9412 43.9863 19.2235 46.4265 19.1172C48.8666 19.0108 49.5305 20.2868 49.9252 19.4893C50.3199 18.6918 53.1906 17.8412 55.254 17.788Z" fill="url(#paint12_linear_770_3399)"/>
            <path d="M33.923 22.7164C35.1914 22.7164 37.8519 21.8896 40.3704 22.1083C43.2609 22.3593 43.7527 23.7589 47.6635 24.2801C51.5742 24.8013 50.9928 29.5794 49.7244 29.5794C48.4561 29.5794 44.9154 31.4037 41.4803 32.4462C38.0451 33.4887 33.923 31.8381 31.5448 31.4037C29.1666 30.9693 26.5242 32.3593 22.6135 32.4462C18.7027 32.5331 10.4584 31.0562 8.71438 30.3612C6.97039 29.6662 9.6128 25.3226 12.3609 25.3226C15.109 25.3226 16.166 24.8013 18.7555 25.3226C21.3451 25.8438 22.772 24.8013 25.4144 24.2801C28.0568 23.7589 27.7397 24.8013 29.4837 24.8013C31.2277 24.8013 32.6546 22.7164 33.923 22.7164Z" fill="url(#paint13_linear_770_3399)"/>
            <path d="M39.1282 17.393C37.46 17.3929 36.9735 15.6429 32.5252 16.1679C29.6462 16.5077 24.8796 19.4055 26.2697 21.1556C27.6598 22.9057 31.0656 21.0681 32.5252 22.0307C33.9848 22.9932 36.1395 23.0807 39.1282 22.0307C42.1169 20.9806 42.812 21.5056 45.1752 22.0307C47.5384 22.5557 51.2917 21.6806 51.9868 20.5431C52.6818 19.4055 50.1796 18.618 48.9285 18.618C47.6774 18.618 47.8859 18.093 47.1909 17.393C46.4958 16.6929 45.3142 15.6429 42.812 15.6429C40.3098 15.6429 40.7964 17.393 39.1282 17.393Z" fill="url(#paint14_linear_770_3399)"/>
            <path d="M12.1749 31.3093C10.8426 31.3093 8.04793 30.4549 5.40244 30.6809C2.36625 30.9403 1.84959 32.3865 -2.25835 32.9251C-6.3663 33.4637 -5.7555 38.401 -4.4232 38.401C-3.09089 38.401 0.628304 40.2862 4.23664 41.3634C7.84497 42.4407 12.1749 40.735 14.673 40.2862C17.1711 39.8374 19.9468 41.2737 24.0547 41.3634C28.1626 41.4532 36.8226 39.9271 38.6546 39.209C40.4865 38.4908 37.7108 34.0024 34.8242 34.0024C31.9375 34.0024 30.8273 33.4637 28.1071 34.0024C25.387 34.541 23.8882 33.4637 21.1125 32.9251C18.3369 32.3865 18.67 33.4637 16.838 33.4637C15.0061 33.4637 13.5073 31.3093 12.1749 31.3093Z" fill="url(#paint15_linear_770_3399)"/>
            <path d="M54.9714 69.5951L54.9534 69.5948C54.9534 69.5948 58.0007 82.9605 63.6472 87.5412C69.6894 92.4373 74.1131 93.255 74.1288 93.2348C74.1514 93.2464 77.7338 90.6147 81.0098 83.6075C84.0689 77.0545 81.0578 63.6806 81.0578 63.6806L81.0419 63.6886C79.5337 64.4409 76.8369 65.786 72.6511 65.1911C70.6638 64.9086 69.2547 64.2007 68.069 63.605C67.8148 63.4773 67.5709 63.3547 67.3338 63.2426C67.1652 63.4466 66.995 63.663 66.8176 63.8885C65.9902 64.9403 65.0068 66.1903 63.3091 67.3076C59.7334 69.661 56.6795 69.6187 54.9714 69.5951Z" fill="url(#paint16_linear_770_3399)"/>
            <path opacity="0.7" d="M56.2505 70.459L56.2339 70.4588C56.2339 70.4588 59.0293 82.7191 64.2302 86.9161C69.7956 91.402 73.8731 92.1477 73.8876 92.1292C73.9084 92.1397 77.2139 89.7214 80.2416 83.2886C83.0688 77.2727 80.3068 65.0049 80.3068 65.0049L80.2921 65.0122C78.9008 65.704 76.4132 66.9411 72.5548 66.3996C70.7229 66.1425 69.4245 65.4944 68.332 64.9491C68.0978 64.8322 67.873 64.72 67.6545 64.6174C67.4989 64.8048 67.3417 65.0035 67.178 65.2106C66.414 66.1765 65.5061 67.3244 63.9398 68.3514C60.6407 70.5145 57.8252 70.4789 56.2505 70.459Z" fill="url(#paint17_linear_770_3399)"/>
            <path fill-rule="evenodd" clip-rule="evenodd" d="M70.7175 71.8753L67.7452 72.5495L68.6431 76.5082L64.6801 77.407L65.3543 80.3793L69.3173 79.4804L70.2172 83.4479L73.1895 82.7737L72.2896 78.8063L76.2527 77.9074L75.5785 74.9351L71.6154 75.834L70.7175 71.8753Z" fill="#FAE7EE"/>
            <path d="M21.9747 23.1691C19.0663 24.4746 9.07881 30.7279 9.07881 30.7279L6.8009 29.6492L6.69016 31.1405L9.0404 33.3834C9.0404 33.3834 25.9702 27.3751 26.8106 27.0514C27.6509 26.7277 29.7475 25.6757 29.1549 24.2284C28.7327 23.1972 27.7076 23.4343 27.1009 23.1422C25.653 22.4452 24.0243 22.2491 21.9747 23.1691Z" fill="url(#paint18_linear_770_3399)"/>
            <g opacity="0.8">
                <path d="M12.1728 29.5268C12.0836 29.3622 12.1444 29.1564 12.3085 29.067C12.4727 28.9776 12.6782 29.0385 12.7674 29.203L12.8438 29.344C12.933 29.5086 12.8723 29.7144 12.7081 29.8038C12.5439 29.8932 12.3384 29.8323 12.2492 29.6678L12.1728 29.5268Z" fill="white" fill-opacity="0.8"/>
                <path d="M13.0545 29.0467C12.9653 28.8822 13.0261 28.6763 13.1903 28.5869C13.3545 28.4975 13.5599 28.5584 13.6491 28.723L13.7256 28.8639C13.8148 29.0285 13.754 29.2343 13.5898 29.3237C13.4256 29.4131 13.2202 29.3522 13.131 29.1877L13.0545 29.0467Z" fill="white" fill-opacity="0.8"/>
                <path d="M13.9362 28.5666C13.847 28.4021 13.9078 28.1962 14.072 28.1068C14.2362 28.0174 14.4416 28.0783 14.5308 28.2429L14.6073 28.3839C14.6965 28.5484 14.6357 28.7543 14.4715 28.8437C14.3073 28.9331 14.1019 28.8721 14.0127 28.7076L13.9362 28.5666Z" fill="white" fill-opacity="0.8"/>
                <path d="M14.818 28.0865C14.7288 27.922 14.7895 27.7161 14.9537 27.6267C15.1179 27.5373 15.3234 27.5983 15.4126 27.7628L15.489 27.9038C15.5782 28.0683 15.5174 28.2742 15.3533 28.3636C15.1891 28.453 14.9836 28.3921 14.8944 28.2275L14.818 28.0865Z" fill="white" fill-opacity="0.8"/>
                <path d="M15.6997 27.6065C15.6105 27.4419 15.6713 27.2361 15.8355 27.1467C15.9997 27.0573 16.2051 27.1182 16.2943 27.2827L16.3707 27.4237C16.46 27.5882 16.3992 27.7941 16.235 27.8835C16.0708 27.9729 15.8654 27.912 15.7761 27.7474L15.6997 27.6065Z" fill="white" fill-opacity="0.8"/>
                <path d="M16.5814 27.1264C16.4922 26.9618 16.553 26.756 16.7172 26.6666C16.8814 26.5772 17.0868 26.6381 17.176 26.8026L17.2525 26.9436C17.3417 27.1082 17.2809 27.314 17.1167 27.4034C16.9525 27.4928 16.7471 27.4319 16.6579 27.2674L16.5814 27.1264Z" fill="white" fill-opacity="0.8"/>
                <path d="M17.4632 26.6463C17.3739 26.4818 17.4347 26.2759 17.5989 26.1865C17.7631 26.0971 17.9685 26.158 18.0578 26.3225L18.1342 26.4635C18.2234 26.6281 18.1626 26.8339 17.9984 26.9233C17.8342 27.0127 17.6288 26.9518 17.5396 26.7873L17.4632 26.6463Z" fill="white" fill-opacity="0.8"/>
                <path d="M18.3449 26.1662C18.2557 26.0017 18.3165 25.7958 18.4806 25.7064C18.6448 25.617 18.8503 25.6779 18.9395 25.8425L19.0159 25.9835C19.1051 26.148 19.0444 26.3538 18.8802 26.4432C18.716 26.5326 18.5105 26.4717 18.4213 26.3072L18.3449 26.1662Z" fill="white" fill-opacity="0.8"/>
                <path d="M19.2266 25.6861C19.1374 25.5216 19.1982 25.3157 19.3624 25.2263C19.5266 25.1369 19.732 25.1978 19.8212 25.3624L19.8977 25.5034C19.9869 25.6679 19.9261 25.8738 19.7619 25.9632C19.5977 26.0526 19.3923 25.9917 19.3031 25.8271L19.2266 25.6861Z" fill="white" fill-opacity="0.8"/>
                <path d="M20.1083 25.206C20.0191 25.0415 20.0799 24.8356 20.2441 24.7462C20.4083 24.6568 20.6137 24.7178 20.7029 24.8823L20.7794 25.0233C20.8686 25.1878 20.8078 25.3937 20.6436 25.4831C20.4794 25.5725 20.274 25.5116 20.1848 25.347L20.1083 25.206Z" fill="white" fill-opacity="0.8"/>
                <path d="M20.9901 24.726C20.9009 24.5614 20.9616 24.3556 21.1258 24.2662C21.29 24.1768 21.4955 24.2377 21.5847 24.4022L21.6611 24.5432C21.7503 24.7077 21.6895 24.9136 21.5254 25.003C21.3612 25.0924 21.1557 25.0315 21.0665 24.867L20.9901 24.726Z" fill="white" fill-opacity="0.8"/>
            </g>
            <path d="M10.9985 25.1791L9.6305 25.6011L16.0894 29.0204C16.4847 28.914 17.2763 28.7465 17.9038 28.3174C18.4846 27.9203 18.8196 27.4607 19.1437 27.0093L10.9985 25.1791Z" fill="url(#paint19_linear_770_3399)"/>
        </g>
    </g>

</svg>
