<svg width="375" height="280" viewBox="0 0 375 280" fill="none" xmlns="http://www.w3.org/2000/svg">
    <defs>
        <linearGradient id="paint0_linear_624_8811" x1="393.5" y1="96.5" x2="-77.8803" y2="200.381" gradientUnits="userSpaceOnUse">
            <stop stop-color="#CF1D5B" stop-opacity="0.37"/>
            <stop offset="1" stop-color="white" stop-opacity="0"/>
        </linearGradient>
        <linearGradient id="paint1_linear_624_8811" x1="186.5" y1="138" x2="186.5" y2="280" gradientUnits="userSpaceOnUse">
            <stop stop-color="#FFE9F3"/>
            <stop offset="1" stop-color="#FFDAEE" stop-opacity="0"/>
        </linearGradient>
        <linearGradient id="paint2_linear_624_8811" x1="-9.27249" y1="115.47" x2="-10.8738" y2="144.955" gradientUnits="userSpaceOnUse">
            <stop stop-color="#D97A93"/>
            <stop offset="1" stop-color="#DE8098" stop-opacity="0"/>
        </linearGradient>
        <radialGradient id="paint3_radial_624_8811" cx="0" cy="0" r="1" gradientUnits="userSpaceOnUse" gradientTransform="translate(3.51873 130.698) rotate(89.9258) scale(13.3168 33.3592)">
            <stop stop-color="#923C81"/>
            <stop offset="1" stop-color="#933D82" stop-opacity="0.09"/>
        </radialGradient>
        <linearGradient id="paint4_linear_624_8811" x1="22.5" y1="123" x2="22.5" y2="140" gradientUnits="userSpaceOnUse">
            <stop stop-color="#E7CBE5"/>
            <stop offset="1" stop-color="#D9A8CB"/>
        </linearGradient>
        <linearGradient id="paint5_linear_624_8811" x1="284.588" y1="112.799" x2="284.588" y2="143.046" gradientUnits="userSpaceOnUse">
            <stop stop-color="#E7CBE5"/>
            <stop offset="1" stop-color="#D9A8CB"/>
        </linearGradient>
        <linearGradient id="paint6_linear_624_8811" x1="220.475" y1="120.165" x2="220.475" y2="142.064" gradientUnits="userSpaceOnUse">
            <stop stop-color="#E7CBE5"/>
            <stop offset="1" stop-color="#D9A8CB"/>
        </linearGradient>
        <linearGradient id="paint7_linear_624_8811" x1="373.849" y1="117.331" x2="373.849" y2="142.442" gradientUnits="userSpaceOnUse">
            <stop stop-color="#E7CBE5"/>
            <stop offset="1" stop-color="#D9A8CB"/>
        </linearGradient>
        <linearGradient id="paint8_linear_624_8811" x1="83.5" y1="200.374" x2="62.7443" y2="260.755" gradientUnits="userSpaceOnUse">
            <stop stop-color="#F7D8DF"/>
            <stop offset="1" stop-color="#E3BCDB"/>
        </linearGradient>
        <linearGradient id="paint9_linear_624_8811" x1="64.5" y1="203.5" x2="43.7443" y2="263.881" gradientUnits="userSpaceOnUse">
            <stop stop-color="#EECBDD"/>
            <stop offset="1" stop-color="#E3BCDB"/>
        </linearGradient>
        <radialGradient id="paint10_radial_624_8811" cx="0" cy="0" r="1" gradientUnits="userSpaceOnUse" gradientTransform="translate(241.191 88.2573) scale(61.191 33.2979)">
            <stop stop-color="white" stop-opacity="0.75"/>
            <stop offset="1" stop-color="white" stop-opacity="0"/>
        </radialGradient>
        <linearGradient id="paint11_linear_624_8811" x1="59.3198" y1="18.8333" x2="59.1896" y2="57.1662" gradientUnits="userSpaceOnUse">
            <stop offset="0.163712" stop-color="#F7E7FF"/>
            <stop offset="0.757473" stop-color="#FFECF7" stop-opacity="0"/>
        </linearGradient>
        <linearGradient id="paint12_linear_624_8811" x1="201.052" y1="47" x2="201.537" y2="66.0084" gradientUnits="userSpaceOnUse">
            <stop offset="0.163712" stop-color="#F7E7FF"/>
            <stop offset="0.757473" stop-color="#FFECF7" stop-opacity="0"/>
        </linearGradient>
        <linearGradient id="paint13_linear_624_8811" x1="149.826" y1="56.7846" x2="150.149" y2="86.5749" gradientUnits="userSpaceOnUse">
            <stop offset="0.163712" stop-color="#F7E7FF"/>
            <stop offset="0.757473" stop-color="#FFECF7" stop-opacity="0"/>
        </linearGradient>
        <linearGradient id="paint14_linear_624_8811" x1="132.954" y1="42.6949" x2="132.851" y2="59.6434" gradientUnits="userSpaceOnUse">
            <stop offset="0.000347036" stop-color="#F7E7FF"/>
            <stop offset="0.757473" stop-color="#FFECF7" stop-opacity="0"/>
        </linearGradient>
        <linearGradient id="paint15_linear_624_8811" x1="56.7456" y1="80.7107" x2="56.4171" y2="111.494" gradientUnits="userSpaceOnUse">
            <stop offset="0.163712" stop-color="#F7E7FF"/>
            <stop offset="0.757473" stop-color="#FFECF7" stop-opacity="0"/>
        </linearGradient>
        <linearGradient id="paint16_linear_624_8811" x1="232.077" y1="152.596" x2="281.632" y2="232.611" gradientUnits="userSpaceOnUse">
            <stop offset="0.0227358" stop-color="#F6D7DF"/>
            <stop offset="0.940142" stop-color="#D49AC0"/>
        </linearGradient>
        <linearGradient id="paint17_linear_624_8811" x1="263.586" y1="153.609" x2="283.095" y2="239.72" gradientUnits="userSpaceOnUse">
            <stop stop-color="#E7CBE5"/>
            <stop offset="1" stop-color="#D9A8CB"/>
        </linearGradient>
        <linearGradient id="paint18_linear_624_8811" x1="108.633" y1="101.856" x2="93.5597" y2="76.8381" gradientUnits="userSpaceOnUse">
            <stop stop-color="#C19FD1"/>
            <stop offset="0.260417" stop-color="#DBB6ED"/>
            <stop offset="0.766752" stop-color="#FFE1F3"/>
        </linearGradient>
        <linearGradient id="paint19_linear_624_8811" x1="95.7773" y1="96.3862" x2="98.119" y2="81.5363" gradientUnits="userSpaceOnUse">
            <stop stop-color="#C19FD1"/>
            <stop offset="0.289591" stop-color="#DBB6ED"/>
            <stop offset="0.917183" stop-color="#FFE1F3"/>
        </linearGradient>
        <clipPath id="clip0_624_8811">
            <rect width="375" height="280" fill="white"/>
        </clipPath>
    </defs>
    <g clip-path="url(#clip0_624_8811)">
        <rect width="375" height="280" fill="white"/>
        <rect width="375" height="280" fill="url(#paint0_linear_624_8811)" fill-opacity="0.5"/>
        <rect x="-1" y="138" width="375" height="142" fill="url(#paint1_linear_624_8811)"/>
        <rect x="-1" y="138" width="375" height="142" fill="#FBEEF2"/>
        <path d="M2.48768 145.995C-3.89285 147.96 -1.85524 142.493 -0.510841 137.569C24.0001 137.569 52.4804 137.549 51.5001 138C50.2746 138.563 30.9397 147.354 27.0389 144.869C18.7927 139.616 14.6696 142.242 2.48768 145.995Z" fill="url(#paint2_linear_624_8811)"/>
        <path d="M2.48768 145.995C-3.89285 147.96 -1.85524 142.493 -0.510841 137.569C24.0001 137.569 52.4804 137.549 51.5001 138C50.2746 138.563 30.9397 147.354 27.0389 144.869C18.7927 139.616 14.6696 142.242 2.48768 145.995Z" fill="url(#paint3_radial_624_8811)" fill-opacity="0.2"/>
        <path d="M2.89051 124.909C-1.14259 126.973 -7 137.885 -7 137.885C-7 137.885 47.5 138 51.3474 138C52.6495 136.859 52.6609 132.932 51.3474 132.324C46.7603 130.199 40.3767 124.909 36.9389 124.909C33.5011 124.909 27.2524 133.392 23.8143 133.037C20.67 132.712 17.4677 124.227 13.2576 123.483C9.04748 122.739 7.39014 122.607 2.89051 124.909Z" fill="url(#paint4_linear_624_8811)"/>
        <path d="M333.678 128.41C337.903 128.41 345.615 136.886 349.137 139.487H220.75C222.427 135.375 226.536 127.15 229.554 127.15C232.572 127.15 240.033 124.465 243.387 123.122C243.722 122.535 244.896 121.36 246.908 121.36C249.423 121.36 254.454 112.799 259.987 112.799C265.52 112.799 271.054 118.086 273.569 121.36C276.084 124.633 279.353 125.388 283.881 125.388C288.408 125.388 291.928 121.36 295.198 121.36C298.467 121.36 298.467 125.388 301.234 125.388C304 125.388 306.515 123.122 308.778 123.122C310.589 123.122 314.731 124.633 316.575 125.388C320.516 126.396 329.453 128.41 333.678 128.41Z" fill="url(#paint5_linear_624_8811)"/>
        <path d="M229.491 124.471C224.486 123.255 219.753 120.165 214.5 120.165C203.218 120.165 197.606 125.082 186.86 128.388C183.159 129.526 180.858 129.521 177.398 131.331C172.94 133.662 170.886 139.488 170.886 139.488H270.319C270.319 139.488 270.984 138.256 270.319 137.438C264.522 130.307 255.991 129.659 245.346 126.201C240.067 124.485 235.895 126.028 229.491 124.471Z" fill="url(#paint6_linear_624_8811)"/>
        <path d="M384.188 122.269C378.448 120.874 373.022 117.331 366.999 117.331C354.062 117.331 347.627 122.969 335.306 126.759C331.062 128.065 328.423 128.059 324.456 130.135C319.345 132.807 316.989 139.487 316.989 139.487H431.002C431.002 139.487 431.765 138.075 431.002 137.137C424.356 128.96 414.573 128.218 402.367 124.252C396.314 122.285 391.531 124.054 384.188 122.269Z" fill="url(#paint7_linear_624_8811)"/>
        <path d="M-28.5 170C-42.5 172 -32.0392 173.528 -44 175.54V287.874H393V225.672C379.544 228.612 349.684 225.672 337.894 225.672H272.5C255.199 225.672 226.645 217.781 205.5 216.853C184.355 215.924 150.792 206.641 136.054 206.641C121.317 206.641 87.3562 202.927 75.1817 198.285C65.4421 194.572 25.6726 181.463 12 178C0 174.96 -15.5 170 -28.5 170Z" fill="white"/>
        <path d="M-28.5 170C-42.5 172 -32.0392 173.528 -44 175.54V287.874H393V225.672C379.544 228.612 349.684 225.672 337.894 225.672H272.5C255.199 225.672 226.645 217.781 205.5 216.853C184.355 215.924 150.792 206.641 136.054 206.641C121.317 206.641 87.3562 202.927 75.1817 198.285C65.4421 194.572 25.6726 181.463 12 178C0 174.96 -15.5 170 -28.5 170Z" fill="url(#paint8_linear_624_8811)"/>
        <path d="M-19.4284 178.665C-25 160.5 -51.0392 176.654 -63 178.665V291H374V228.798C360.544 231.738 330.684 228.798 318.894 228.798H253.5C236.199 228.798 207.645 220.907 186.5 219.979C165.355 219.05 131.792 209.766 117.054 209.766C102.317 209.766 68.3562 206.053 56.1817 201.411C46.4421 197.697 10.5968 178.201 -3.5 178.665C-7.98534 174.178 -13.277 183.493 -19.4284 178.665Z" fill="white"/>
        <path d="M-19.4284 178.665C-25 160.5 -51.0392 176.654 -63 178.665V291H374V228.798C360.544 231.738 330.684 228.798 318.894 228.798H253.5C236.199 228.798 207.645 220.907 186.5 219.979C165.355 219.05 131.792 209.766 117.054 209.766C102.317 209.766 68.3562 206.053 56.1817 201.411C46.4421 197.697 10.5968 178.201 -3.5 178.665C-7.98534 174.178 -13.277 183.493 -19.4284 178.665Z" fill="url(#paint9_linear_624_8811)"/>
        <ellipse opacity="0.2" cx="241.191" cy="88.2573" rx="61.191" ry="61.2573" fill="url(#paint10_radial_624_8811)"/>
        <ellipse opacity="0.2" cx="241.191" cy="88.2571" rx="15.6932" ry="15.7102" fill="white"/>
        <path d="M69.1221 27.0095C58.7395 26.7901 49.1694 30.4099 44.0231 34.0297C38.8769 37.6495 38.7866 37.2107 28.9456 37.2107C19.1047 37.2107 26.147 47.741 31.2029 47.741C36.2588 47.741 37.4325 54.4321 63.073 54.9806C88.7135 55.529 83.6576 44.2309 94.3111 49.3864C104.965 54.5418 126.452 50.1542 133.133 50.4833C139.814 50.8123 148.03 45.986 143.877 40.9402C139.724 35.8944 125.82 32.9328 113.542 32.494C101.263 32.0553 97.9224 37.3204 95.9362 34.0297C93.95 30.7389 79.5046 27.2289 69.1221 27.0095Z" fill="url(#paint11_linear_624_8811)"/>
        <path d="M193.808 47.0064C199.582 46.8576 204.904 49.3139 207.766 51.7701C210.628 54.2264 210.679 53.9287 216.152 53.9287C221.625 53.9287 229.206 64.4647 226.394 64.4647C223.582 64.4647 211.432 65.6147 197.172 65.9868C182.912 66.359 185.724 58.6924 179.799 62.1908C173.874 65.6891 149.719 64.2414 146.003 64.4647C142.287 64.688 149.923 59.8833 152.233 56.4594C154.543 53.0355 162.275 51.0258 169.104 50.7281C175.932 50.4304 177.79 54.0031 178.895 51.7701C180 49.5371 188.033 47.1553 193.808 47.0064Z" fill="url(#paint12_linear_624_8811)"/>
        <path d="M134.113 60.8058C137.663 60.8059 145.108 58.4907 152.156 59.1031C160.245 59.8059 161.622 63.7248 172.566 65.1842C183.51 66.6437 181.883 80.0222 178.333 80.0222C174.784 80.0222 164.875 85.1304 155.262 88.0493C145.649 90.9683 134.113 86.3466 127.458 85.1304C120.802 83.9141 113.408 87.8061 102.463 88.0493C91.519 88.2926 68.4472 84.1574 63.5666 82.2114C58.6861 80.2655 66.0809 68.1032 73.7715 68.1032C81.462 68.1032 84.42 66.6437 91.6669 68.1032C98.9138 69.5627 102.907 66.6437 110.302 65.1842C117.697 63.7248 116.809 66.6437 121.69 66.6437C126.57 66.6437 130.564 60.8058 134.113 60.8058Z" fill="url(#paint13_linear_624_8811)"/>
        <path d="M148.68 45.9002C144.011 45.9002 142.65 41 130.201 42.4701C122.144 43.4216 108.805 51.5354 112.695 56.4357C116.586 61.3359 126.117 56.1907 130.201 58.8858C134.286 61.5809 140.316 61.8259 148.68 58.8858C157.044 55.9456 158.989 57.4157 165.603 58.8858C172.216 60.3558 182.72 57.9057 184.665 54.7206C186.61 51.5354 179.607 49.3303 176.106 49.3303C172.605 49.3303 173.189 47.8603 171.243 45.9002C169.298 43.9401 165.992 41 158.989 41C151.987 41 153.348 45.9002 148.68 45.9002Z" fill="url(#paint14_linear_624_8811)"/>
        <path d="M73.251 84.866C69.5224 84.8661 61.7015 82.4738 54.2981 83.1066C45.8013 83.8328 44.3554 87.8823 32.8593 89.3904C21.3632 90.8985 23.0725 104.723 26.801 104.723C30.5294 104.723 40.9376 110.001 51.0356 113.018C61.1335 116.034 73.251 111.258 80.2419 110.001C87.2329 108.745 95.0004 112.766 106.497 113.018C117.993 113.269 142.228 108.996 147.354 106.985C152.481 104.974 144.713 92.4066 136.635 92.4066C128.557 92.4066 125.45 90.8985 117.837 92.4066C110.225 93.9147 106.031 90.8985 98.2629 89.3904C90.4952 87.8823 91.4273 90.8985 86.3007 90.8985C81.174 90.8985 76.9795 84.866 73.251 84.866Z" fill="url(#paint15_linear_624_8811)"/>
        <path d="M228.98 167.266L228.93 167.265C228.93 167.265 237.346 204.178 252.94 216.828C269.627 230.35 281.844 232.608 281.887 232.553C281.95 232.584 291.843 225.317 300.891 205.965C309.339 187.867 301.023 150.932 301.023 150.932L300.98 150.954C296.814 153.032 289.366 156.747 277.806 155.104C272.318 154.323 268.426 152.368 265.152 150.723C264.45 150.37 263.776 150.032 263.121 149.722C262.656 150.286 262.186 150.883 261.696 151.506C259.411 154.411 256.695 157.863 252.006 160.949C242.131 167.448 233.697 167.331 228.98 167.266Z" fill="url(#paint16_linear_624_8811)"/>
        <path opacity="0.7" d="M232.511 169.647L232.465 169.647C232.465 169.647 240.185 203.506 254.548 215.097C269.918 227.486 281.179 229.545 281.219 229.494C281.277 229.523 290.406 222.844 298.767 205.079C306.575 188.465 298.948 154.584 298.948 154.584L298.907 154.604C295.065 156.515 288.194 159.932 277.539 158.436C272.479 157.726 268.894 155.936 265.876 154.43C265.23 154.107 264.609 153.798 264.005 153.514C263.576 154.032 263.142 154.58 262.689 155.152C260.579 157.82 258.072 160.99 253.746 163.827C244.635 169.8 236.86 169.702 232.511 169.647Z" fill="url(#paint17_linear_624_8811)"/>
        <path fill-rule="evenodd" clip-rule="evenodd" d="M272.465 173.569L264.256 175.43L266.737 186.367L255.79 188.849L257.652 197.058L268.598 194.575L271.083 205.529L279.292 203.667L276.807 192.713L287.751 190.231L285.889 182.023L274.945 184.505L272.465 173.569Z" fill="#FAE7EE"/>
        <path d="M109.676 76.0734C101.537 79.7289 73.5865 97.2379 73.5865 97.2379L67.2117 94.2177L66.9018 98.3934L73.479 104.673C73.479 104.673 120.857 87.8501 123.209 86.9438C125.561 86.0376 131.428 83.0918 129.77 79.0395C128.588 76.152 125.719 76.8159 124.021 75.9981C119.969 74.0465 115.412 73.4974 109.676 76.0734Z" fill="url(#paint18_linear_624_8811)"/>
        <g opacity="0.8">
            <path d="M82.245 93.8749C81.9953 93.4142 82.1654 92.8378 82.6249 92.5875C83.0844 92.3372 83.6593 92.5077 83.909 92.9684L84.1229 93.3632C84.3726 93.8239 84.2025 94.4003 83.743 94.6506C83.2835 94.9009 82.7086 94.7304 82.4589 94.2697L82.245 93.8749Z" fill="white" fill-opacity="0.8"/>
            <path d="M84.7125 92.5307C84.4628 92.07 84.6329 91.4936 85.0924 91.2432C85.5519 90.9929 86.1268 91.1635 86.3765 91.6242L86.5904 92.019C86.8401 92.4797 86.67 93.0561 86.2105 93.3064C85.751 93.5567 85.1761 93.3862 84.9264 92.9255L84.7125 92.5307Z" fill="white" fill-opacity="0.8"/>
            <path d="M87.18 91.1864C86.9303 90.7257 87.1005 90.1493 87.5599 89.899C88.0194 89.6487 88.5943 89.8192 88.844 90.2799L89.0579 90.6747C89.3076 91.1354 89.1375 91.7118 88.678 91.9622C88.2185 92.2125 87.6436 92.0419 87.394 91.5812L87.18 91.1864Z" fill="white" fill-opacity="0.8"/>
            <path d="M89.6475 89.8422C89.3979 89.3815 89.568 88.8051 90.0275 88.5548C90.487 88.3045 91.0619 88.475 91.3115 88.9357L91.5255 89.3305C91.7751 89.7912 91.605 90.3676 91.1455 90.6179C90.686 90.8682 90.1111 90.6977 89.8615 90.237L89.6475 89.8422Z" fill="white" fill-opacity="0.8"/>
            <path d="M92.1151 88.498C91.8654 88.0373 92.0355 87.4609 92.495 87.2105C92.9545 86.9602 93.5294 87.1308 93.7791 87.5915L93.993 87.9863C94.2427 88.447 94.0726 89.0234 93.6131 89.2737C93.1536 89.524 92.5787 89.3535 92.329 88.8928L92.1151 88.498Z" fill="white" fill-opacity="0.8"/>
            <path d="M94.5826 87.1537C94.3329 86.693 94.503 86.1166 94.9625 85.8663C95.422 85.616 95.9969 85.7865 96.2466 86.2473L96.4605 86.642C96.7102 87.1027 96.5401 87.6791 96.0806 87.9295C95.6211 88.1798 95.0462 88.0092 94.7965 87.5485L94.5826 87.1537Z" fill="white" fill-opacity="0.8"/>
            <path d="M97.0501 85.8095C96.8005 85.3488 96.9706 84.7724 97.4301 84.5221C97.8896 84.2718 98.4644 84.4423 98.7141 84.903L98.9281 85.2978C99.1777 85.7585 99.0076 86.3349 98.5481 86.5852C98.0886 86.8356 97.5137 86.665 97.2641 86.2043L97.0501 85.8095Z" fill="white" fill-opacity="0.8"/>
            <path d="M99.5176 84.4653C99.268 84.0046 99.4381 83.4282 99.8976 83.1779C100.357 82.9275 100.932 83.0981 101.182 83.5588L101.396 83.9536C101.645 84.4143 101.475 84.9907 101.016 85.241C100.556 85.4913 99.9812 85.3208 99.7316 84.8601L99.5176 84.4653Z" fill="white" fill-opacity="0.8"/>
            <path d="M101.985 83.121C101.736 82.6603 101.906 82.0839 102.365 81.8336C102.825 81.5833 103.399 81.7539 103.649 82.2146L103.863 82.6093C104.113 83.0701 103.943 83.6465 103.483 83.8968C103.024 84.1471 102.449 83.9765 102.199 83.5158L101.985 83.121Z" fill="white" fill-opacity="0.8"/>
            <path d="M104.453 81.7768C104.203 81.3161 104.373 80.7397 104.833 80.4894C105.292 80.2391 105.867 80.4096 106.117 80.8703L106.331 81.2651C106.58 81.7258 106.41 82.3022 105.951 82.5525C105.491 82.8029 104.916 82.6323 104.667 82.1716L104.453 81.7768Z" fill="white" fill-opacity="0.8"/>
            <path d="M106.92 80.4326C106.671 79.9719 106.841 79.3955 107.3 79.1452C107.76 78.8948 108.335 79.0654 108.584 79.5261L108.798 79.9209C109.048 80.3816 108.878 80.958 108.418 81.2083C107.959 81.4586 107.384 81.2881 107.134 80.8274L106.92 80.4326Z" fill="white" fill-opacity="0.8"/>
        </g>
        <path d="M78.9583 81.7015L75.13 82.883L93.2052 92.4569C94.3115 92.159 96.5267 91.69 98.2829 90.4886C99.9082 89.3768 100.846 88.09 101.753 86.826L78.9583 81.7015Z" fill="url(#paint19_linear_624_8811)"/>
    </g>
</svg>
