<svg width="24" height="24" viewBox="0 0 24 24" fill="none" xmlns="http://www.w3.org/2000/svg">
<path d="M19.0005 2H5.00049C4.4482 2 4.00049 2.44772 4.00049 3V21C4.00049 21.5523 4.4482 22 5.00049 22H19.0005C19.5528 22 20.0005 21.5523 20.0005 21V3C20.0005 2.44772 19.5528 2 19.0005 2Z" stroke="#454754" stroke-width="2"/>
<path d="M4 7.75H20" stroke="#454754" stroke-width="2" stroke-linecap="round" stroke-linejoin="round"/>
<path d="M14 6C14.5523 6 15 5.55228 15 5C15 4.44772 14.5523 4 14 4C13.4477 4 13 4.44772 13 5C13 5.55228 13.4477 6 14 6Z" fill="#454754"/>
<path d="M17 6C17.5523 6 18 5.55228 18 5C18 4.44772 17.5523 4 17 4C16.4477 4 16 4.44772 16 5C16 5.55228 16.4477 6 17 6Z" fill="#454754"/>
<path d="M12 18.5C13.933 18.5 15.5 16.933 15.5 15C15.5 13.067 13.933 11.5 12 11.5C10.067 11.5 8.5 13.067 8.5 15C8.5 16.933 10.067 18.5 12 18.5Z" stroke="#454754" stroke-width="2"/>
</svg>
