<svg width="16" height="20" viewBox="0 0 16 20" fill="none" xmlns="http://www.w3.org/2000/svg">
<path d="M8.35174 19.3587L8.33805 19.3689L8.325 19.38C8.23444 19.4575 8.11918 19.5001 8 19.5001C7.88117 19.5001 7.76623 19.4577 7.67579 19.3807C7.52177 19.2472 5.71734 17.6835 3.95174 15.4937C2.15938 13.2706 0.5 10.5141 0.5 8C0.5 6.01088 1.29018 4.10322 2.6967 2.6967C4.10322 1.29018 6.01088 0.5 8 0.5C9.98912 0.5 11.8968 1.29018 13.3033 2.6967C14.7098 4.10322 15.5 6.01088 15.5 8C15.5 10.5152 13.8519 13.2722 12.0665 15.4943C11.1848 16.5917 10.291 17.5327 9.59575 18.2154C9.2484 18.5566 8.9516 18.8323 8.732 19.0297C8.62215 19.1285 8.53216 19.2072 8.46528 19.2644C8.4318 19.293 8.40474 19.3157 8.38431 19.3325L8.36003 19.3522C8.35504 19.3562 8.35249 19.3581 8.35188 19.3586C8.3518 19.3587 8.35175 19.3587 8.35174 19.3587ZM7.65774 18.0145L7.99914 18.3351L8.34134 18.0154C9.42344 17.0044 10.9484 15.4014 12.2071 13.6198C13.4513 11.8587 14.5 9.83437 14.5 8C14.5 6.27609 13.8152 4.62279 12.5962 3.40381C11.3772 2.18482 9.72391 1.5 8 1.5C6.27609 1.5 4.62279 2.18482 3.40381 3.40381C2.18482 4.62279 1.5 6.27609 1.5 8C1.5 9.83451 2.54879 11.8564 3.79298 13.6162C5.05171 15.3965 6.57647 16.9992 7.65774 18.0145ZM6.0555 5.08986C6.63108 4.70527 7.30777 4.5 8 4.5C8.92826 4.5 9.8185 4.86875 10.4749 5.52513C11.1313 6.1815 11.5 7.07174 11.5 8C11.5 8.69223 11.2947 9.36892 10.9101 9.9445C10.5256 10.5201 9.97893 10.9687 9.33939 11.2336C8.69985 11.4985 7.99612 11.5678 7.31718 11.4327C6.63825 11.2977 6.01461 10.9644 5.52513 10.4749C5.03564 9.98539 4.7023 9.36175 4.56725 8.68282C4.4322 8.00388 4.50151 7.30015 4.76642 6.66061C5.03133 6.02107 5.47993 5.47444 6.0555 5.08986ZM6.61107 10.0787C7.0222 10.3534 7.50555 10.5 8 10.5C8.66304 10.5 9.29893 10.2366 9.76777 9.76777C10.2366 9.29893 10.5 8.66304 10.5 8C10.5 7.50555 10.3534 7.0222 10.0787 6.61107C9.80397 6.19995 9.41352 5.87952 8.95671 5.6903C8.49989 5.50108 7.99723 5.45157 7.51227 5.54804C7.02732 5.6445 6.58186 5.8826 6.23223 6.23223C5.8826 6.58186 5.6445 7.02732 5.54804 7.51227C5.45157 7.99723 5.50108 8.49989 5.6903 8.95671C5.87952 9.41352 6.19995 9.80397 6.61107 10.0787Z" fill="#ABADBA" stroke="#ABADBA"/>
</svg>
