<svg width="20" height="20" viewBox="0 0 20 20" fill="none" xmlns="http://www.w3.org/2000/svg">
<path d="M9.99967 1.66669C8.23156 1.66669 6.53587 2.36907 5.28563 3.61931C4.03539 4.86955 3.33301 6.56524 3.33301 8.33335C3.33301 12.8334 9.20801 17.9167 9.45801 18.1334C9.60895 18.2625 9.80105 18.3334 9.99967 18.3334C10.1983 18.3334 10.3904 18.2625 10.5413 18.1334C10.833 17.9167 16.6663 12.8334 16.6663 8.33335C16.6663 6.56524 15.964 4.86955 14.7137 3.61931C13.4635 2.36907 11.7678 1.66669 9.99967 1.66669ZM9.99967 16.375C8.22467 14.7084 4.99967 11.1167 4.99967 8.33335C4.99967 7.00727 5.52646 5.7355 6.46414 4.79782C7.40182 3.86014 8.67359 3.33335 9.99967 3.33335C11.3258 3.33335 12.5975 3.86014 13.5352 4.79782C14.4729 5.7355 14.9997 7.00727 14.9997 8.33335C14.9997 11.1167 11.7747 14.7167 9.99967 16.375ZM9.99967 5.00002C9.3404 5.00002 8.69594 5.19552 8.14777 5.56179C7.59961 5.92806 7.17237 6.44866 6.92008 7.05774C6.66778 7.66683 6.60177 8.33705 6.73039 8.98365C6.85901 9.63026 7.17648 10.2242 7.64265 10.6904C8.10883 11.1566 8.70277 11.474 9.34937 11.6026C9.99598 11.7313 10.6662 11.6652 11.2753 11.413C11.8844 11.1607 12.405 10.7334 12.7712 10.1853C13.1375 9.63709 13.333 8.99263 13.333 8.33335C13.333 7.4493 12.9818 6.60145 12.3567 5.97633C11.7316 5.35121 10.8837 5.00002 9.99967 5.00002ZM9.99967 10C9.67004 10 9.34781 9.90227 9.07372 9.71914C8.79964 9.536 8.58602 9.2757 8.45987 8.97116C8.33373 8.66662 8.30072 8.33151 8.36503 8.0082C8.42934 7.6849 8.58808 7.38793 8.82116 7.15484C9.05425 6.92176 9.35122 6.76302 9.67452 6.69871C9.99783 6.6344 10.3329 6.66741 10.6375 6.79355C10.942 6.9197 11.2023 7.13332 11.3855 7.4074C11.5686 7.68149 11.6663 8.00372 11.6663 8.33335C11.6663 8.77538 11.4907 9.1993 11.1782 9.51187C10.8656 9.82443 10.4417 10 9.99967 10Z" fill="#454754"/>
</svg>