<svg width="20" height="20" viewBox="0 0 20 20" fill="none" xmlns="http://www.w3.org/2000/svg">
<path d="M16.6593 1.66834C16.5499 1.66827 16.4415 1.68978 16.3404 1.73164C16.2392 1.7735 16.1473 1.83488 16.0699 1.91227C15.9926 1.98967 15.9312 2.08156 15.8893 2.18269C15.8475 2.28382 15.8259 2.39222 15.826 2.50167V3.03227C15.1232 3.90369 14.2349 4.60743 13.2258 5.09227C12.2167 5.57711 11.1122 5.83084 9.99268 5.835H4.99268C4.32986 5.83572 3.69439 6.09935 3.22571 6.56803C2.75702 7.03672 2.4934 7.67218 2.49268 8.335V10.0017C2.4934 10.6645 2.75702 11.3 3.22571 11.7686C3.69439 12.2373 4.32986 12.5009 4.99268 12.5017H5.39583L3.39356 17.1737C3.33915 17.3004 3.31706 17.4386 3.32927 17.576C3.34148 17.7134 3.38762 17.8455 3.46354 17.9607C3.53945 18.0758 3.64277 18.1703 3.76422 18.2356C3.88566 18.3009 4.02144 18.3351 4.15934 18.335H7.49268C7.6558 18.3351 7.81536 18.2872 7.95151 18.1974C8.08767 18.1075 8.19441 17.9797 8.25847 17.8296L10.5283 12.5333C11.5538 12.6086 12.553 12.8934 13.4642 13.3699C14.3754 13.8465 15.1792 14.5048 15.826 15.3042V15.835C15.826 16.056 15.9138 16.268 16.0701 16.4243C16.2264 16.5805 16.4383 16.6683 16.6593 16.6683C16.8804 16.6683 17.0923 16.5805 17.2486 16.4243C17.4049 16.268 17.4927 16.056 17.4927 15.835V2.50167C17.4927 2.39222 17.4712 2.28382 17.4294 2.18269C17.3875 2.08156 17.3261 1.98967 17.2487 1.91227C17.1713 1.83488 17.0795 1.7735 16.9783 1.73164C16.8772 1.68978 16.7688 1.66827 16.6593 1.66834ZM4.99268 10.835C4.77171 10.8349 4.55983 10.747 4.40358 10.5908C4.24734 10.4345 4.15949 10.2226 4.15934 10.0017V8.335C4.15949 8.11403 4.24734 7.90216 4.40359 7.74591C4.55983 7.58966 4.77171 7.50182 4.99268 7.50167H5.82601V10.835H4.99268ZM6.94336 16.6683H5.42318L7.20866 12.5017H8.72884L6.94336 16.6683ZM15.826 12.9365C14.1829 11.5829 12.1216 10.8402 9.99268 10.835H7.49268V7.50163H9.99268C12.1216 7.49618 14.1829 6.75342 15.826 5.39968V12.9365Z" fill="#454754"/>
</svg>
