<svg width="20" height="20" viewBox="0 0 20 20" fill="none" xmlns="http://www.w3.org/2000/svg">
<defs>
<linearGradient id="paint0_linear_7674_30865" x1="1.66406" y1="18.3333" x2="19.1524" y2="2.57875" gradientUnits="userSpaceOnUse">
<stop stop-color="#CF1E9E"/>
<stop offset="1" stop-color="#7F50B2"/>
</linearGradient>
<linearGradient id="paint1_linear_7674_30865" x1="1.66406" y1="18.3333" x2="19.1524" y2="2.57875" gradientUnits="userSpaceOnUse">
<stop stop-color="#CF1E9E"/>
<stop offset="1" stop-color="#7F50B2"/>
</linearGradient>
</defs>
<path fill-rule="evenodd" clip-rule="evenodd" d="M9.77349 5.62496C9.68551 5.62496 9.61418 5.70331 9.61418 5.79996V6.58033H7.86504C7.77706 6.58033 7.70573 6.65868 7.70573 6.75533V13.2446C7.70573 13.3412 7.77706 13.4196 7.86504 13.4196H9.61418V14.2C9.61418 14.2966 9.68551 14.375 9.77349 14.375H10.4479C10.5359 14.375 10.6072 14.2966 10.6072 14.2V13.4196H11.0635C11.4345 13.4196 11.7782 13.3426 12.0923 13.1861C12.4087 13.0285 12.6628 12.7983 12.8457 12.4919C13.0326 12.1836 13.1224 11.8307 13.1224 11.4344C13.1224 10.988 13.0221 10.6092 12.8062 10.3151C12.6621 10.1188 12.4728 9.96886 12.2438 9.86163C12.3848 9.75338 12.5086 9.62137 12.6121 9.46426C12.7953 9.1862 12.8868 8.8619 12.8868 8.49288C12.8868 7.88654 12.7194 7.39876 12.3627 7.06371C12.0113 6.73354 11.5151 6.58033 10.8985 6.58033H10.6072V5.79996C10.6072 5.70331 10.5359 5.62496 10.4479 5.62496H9.77349ZM8.78715 9.44086V7.5449H9.61418V9.44086H8.78715ZM10.6072 9.44086V7.5449H10.7631C11.1735 7.5449 11.4333 7.63276 11.5788 7.76862C11.7167 7.89744 11.8054 8.12961 11.8054 8.51243C11.8054 8.8345 11.7189 9.05756 11.5701 9.20299C11.418 9.35174 11.1819 9.44086 10.8396 9.44086H10.6072ZM8.78715 12.4578V10.4026H9.61418V12.4578H8.78715ZM10.6072 12.4578V10.4026H10.7925C11.2622 10.4026 11.5754 10.4933 11.7652 10.6431C11.9364 10.7805 12.041 11.0211 12.041 11.4149C12.041 11.828 11.9393 12.0769 11.7761 12.2149C11.5947 12.3685 11.3117 12.4578 10.8985 12.4578H10.6072Z" fill="url(#paint0_linear_7674_30865)"/>
<path fill-rule="evenodd" clip-rule="evenodd" d="M18.3307 9.99996C18.3307 14.6023 14.5998 18.3333 9.9974 18.3333C5.39502 18.3333 1.66406 14.6023 1.66406 9.99996C1.66406 5.39759 5.39502 1.66663 9.9974 1.66663C14.5998 1.66663 18.3307 5.39759 18.3307 9.99996ZM16.6641 9.99996C16.6641 13.6819 13.6793 16.6666 9.9974 16.6666C6.3155 16.6666 3.33073 13.6819 3.33073 9.99996C3.33073 6.31806 6.3155 3.33329 9.9974 3.33329C13.6793 3.33329 16.6641 6.31806 16.6641 9.99996Z" fill="url(#paint1_linear_7674_30865)"/>
</svg>
