<svg width="212" height="200" viewBox="0 0 212 200" fill="none" xmlns="http://www.w3.org/2000/svg">
<defs>
<filter id="filter0_d" x="74.4315" y="0.997253" width="136.583" height="126.582" filterUnits="userSpaceOnUse" color-interpolation-filters="sRGB">
<feFlood flood-opacity="0" result="BackgroundImageFix"/>
<feColorMatrix in="SourceAlpha" type="matrix" values="0 0 0 0 0 0 0 0 0 0 0 0 0 0 0 0 0 0 127 0" result="hardAlpha"/>
<feOffset dx="3" dy="4"/>
<feGaussianBlur stdDeviation="15"/>
<feColorMatrix type="matrix" values="0 0 0 0 0.635294 0 0 0 0 0.560784 0 0 0 0 0.639216 0 0 0 0.2 0"/>
<feBlend mode="normal" in2="BackgroundImageFix" result="effect1_dropShadow"/>
<feBlend mode="normal" in="SourceGraphic" in2="effect1_dropShadow" result="shape"/>
</filter>
<filter id="filter1_d" x="76.788" y="55.7524" width="76.7638" height="74.5286" filterUnits="userSpaceOnUse" color-interpolation-filters="sRGB">
<feFlood flood-opacity="0" result="BackgroundImageFix"/>
<feColorMatrix in="SourceAlpha" type="matrix" values="0 0 0 0 0 0 0 0 0 0 0 0 0 0 0 0 0 0 127 0" result="hardAlpha"/>
<feOffset dx="3" dy="4"/>
<feGaussianBlur stdDeviation="15"/>
<feColorMatrix type="matrix" values="0 0 0 0 0.635294 0 0 0 0 0.560784 0 0 0 0 0.639216 0 0 0 0.2 0"/>
<feBlend mode="normal" in2="BackgroundImageFix" result="effect1_dropShadow"/>
<feBlend mode="normal" in="SourceGraphic" in2="effect1_dropShadow" result="shape"/>
</filter>
<linearGradient id="paint0_linear" x1="61.3263" y1="212.671" x2="173.881" y2="47.2776" gradientUnits="userSpaceOnUse">
<stop stop-color="#D1145A" stop-opacity="0.37"/>
<stop offset="1" stop-color="white" stop-opacity="0"/>
</linearGradient>
<linearGradient id="paint1_linear" x1="131.381" y1="154.386" x2="94.2798" y2="131.456" gradientUnits="userSpaceOnUse">
<stop stop-color="#562F88"/>
<stop offset="1" stop-color="#CFA9E0"/>
</linearGradient>
<linearGradient id="paint2_linear" x1="109.048" y1="199.09" x2="20.1179" y2="134.073" gradientUnits="userSpaceOnUse">
<stop stop-color="#562F88"/>
<stop offset="1" stop-color="#CFA9E0"/>
</linearGradient>
<linearGradient id="paint3_linear" x1="65.4664" y1="109.308" x2="74.4151" y2="148.028" gradientUnits="userSpaceOnUse">
<stop stop-color="#7345A2"/>
<stop offset="1" stop-color="#7A53A2" stop-opacity="0"/>
</linearGradient>
<linearGradient id="paint4_linear" x1="80.4316" y1="210.634" x2="121.189" y2="105.455" gradientUnits="userSpaceOnUse">
<stop stop-color="#E1C5E3"/>
<stop offset="1" stop-color="white" stop-opacity="0"/>
</linearGradient>
<linearGradient id="paint5_linear" x1="55.6378" y1="157.61" x2="96.5381" y2="154.01" gradientUnits="userSpaceOnUse">
<stop stop-color="#F0AEC0"/>
<stop offset="1" stop-color="#F5C0C5" stop-opacity="0"/>
</linearGradient>
<linearGradient id="paint6_linear" x1="27.7266" y1="211.483" x2="70.0364" y2="104.316" gradientUnits="userSpaceOnUse">
<stop stop-color="#E1C5E3"/>
<stop offset="1" stop-color="white" stop-opacity="0"/>
</linearGradient>
<linearGradient id="paint7_linear" x1="2.80844" y1="157.189" x2="43.9256" y2="153.637" gradientUnits="userSpaceOnUse">
<stop stop-color="#F0AEC0"/>
<stop offset="1" stop-color="#F5C0C5" stop-opacity="0"/>
</linearGradient>
<linearGradient id="paint8_linear" x1="111.756" y1="175.123" x2="141.24" y2="162.952" gradientUnits="userSpaceOnUse">
<stop stop-color="#E1A77E"/>
<stop offset="1" stop-color="#F6D3BA" stop-opacity="0"/>
</linearGradient>
<radialGradient id="paint9_radial" cx="0" cy="0" r="1" gradientUnits="userSpaceOnUse" gradientTransform="translate(138.037 143.76) rotate(-175.735) scale(19.1671 39.8563)">
<stop stop-color="white" stop-opacity="0.63"/>
<stop offset="1" stop-color="white" stop-opacity="0"/>
</radialGradient>
<linearGradient id="paint10_linear" x1="53.5487" y1="108.375" x2="67.0303" y2="82.262" gradientUnits="userSpaceOnUse">
<stop stop-color="#DB822F"/>
<stop offset="1" stop-color="#F6D3BA" stop-opacity="0"/>
</linearGradient>
<linearGradient id="paint11_linear" x1="56.0371" y1="96.4302" x2="59.2097" y2="77.3941" gradientUnits="userSpaceOnUse">
<stop/>
<stop offset="1" stop-opacity="0"/>
</linearGradient>
<linearGradient id="paint12_linear" x1="82.7832" y1="94.1348" x2="89.9798" y2="92.6001" gradientUnits="userSpaceOnUse">
<stop stop-color="#322113"/>
<stop offset="1" stop-color="#402D2D" stop-opacity="0"/>
</linearGradient>
<linearGradient id="paint13_linear" x1="81.2876" y1="121.452" x2="74.0376" y2="105.99" gradientUnits="userSpaceOnUse">
<stop stop-color="#E1C5E3"/>
<stop offset="1" stop-color="white" stop-opacity="0"/>
</linearGradient>
<linearGradient id="paint14_linear" x1="70.0106" y1="119.97" x2="79.5539" y2="110.015" gradientUnits="userSpaceOnUse">
<stop stop-color="#F0AEC0"/>
<stop offset="1" stop-color="#F5C0C5" stop-opacity="0"/>
</linearGradient>
<linearGradient id="paint15_linear" x1="52.4253" y1="114.267" x2="62.7414" y2="99.8312" gradientUnits="userSpaceOnUse">
<stop stop-color="#E1C5E3"/>
<stop offset="1" stop-color="white" stop-opacity="0"/>
</linearGradient>
<linearGradient id="paint16_linear" x1="48.3418" y1="103.522" x2="61.5316" y2="106.95" gradientUnits="userSpaceOnUse">
<stop stop-color="#F0AEC0"/>
<stop offset="1" stop-color="#F5C0C5" stop-opacity="0"/>
</linearGradient>
<linearGradient id="paint17_linear" x1="30.4427" y1="139.031" x2="5.92632" y2="124.806" gradientUnits="userSpaceOnUse">
<stop stop-color="#562F88"/>
<stop offset="1" stop-color="#CFA9E0"/>
</linearGradient>
<linearGradient id="paint18_linear" x1="33.6587" y1="157.077" x2="1.1469" y2="144.007" gradientUnits="userSpaceOnUse">
<stop stop-color="#562F88"/>
<stop offset="1" stop-color="#CFA9E0"/>
</linearGradient>
<linearGradient id="paint19_linear" x1="16.7389" y1="115.482" x2="21.7021" y2="126.172" gradientUnits="userSpaceOnUse">
<stop stop-color="#6E489A"/>
<stop offset="1" stop-color="#6E489A" stop-opacity="0"/>
</linearGradient>
<linearGradient id="paint20_linear" x1="49.7186" y1="92.4679" x2="178.164" y2="22.1315" gradientUnits="userSpaceOnUse">
<stop stop-color="#CF1E9E"/>
<stop offset="1" stop-color="#7F50B2"/>
</linearGradient>
<linearGradient id="paint21_linear" x1="72.6552" y1="90.1874" x2="70.5066" y2="64.226" gradientUnits="userSpaceOnUse">
<stop stop-color="#AB6FC8"/>
<stop offset="0.884034" stop-color="#E80088" stop-opacity="0"/>
</linearGradient>
<linearGradient id="paint22_linear" x1="80.3612" y1="88.6389" x2="65.9621" y2="73.0195" gradientUnits="userSpaceOnUse">
<stop/>
<stop offset="1" stop-opacity="0"/>
</linearGradient>
<linearGradient id="paint23_linear" x1="15.2792" y1="3.26776" x2="-7.29525" y2="10.5811" gradientUnits="userSpaceOnUse">
<stop offset="0.1683" stop-color="#282828"/>
<stop offset="1" stop-color="#D5D5D5"/>
</linearGradient>
<linearGradient id="paint24_linear" x1="143.303" y1="124.843" x2="151.447" y2="104.184" gradientUnits="userSpaceOnUse">
<stop stop-color="#D1145A" stop-opacity="0.37"/>
<stop offset="1" stop-color="white" stop-opacity="0"/>
</linearGradient>
<linearGradient id="paint25_linear" x1="140.231" y1="102.484" x2="140.231" y2="123.529" gradientUnits="userSpaceOnUse">
<stop offset="0.676695" stop-opacity="0"/>
<stop offset="1" stop-color="#151515" stop-opacity="0.1"/>
</linearGradient>
<linearGradient id="paint26_linear" x1="1.12574" y1="7.52036" x2="2.28947" y2="0.259392" gradientUnits="userSpaceOnUse">
<stop stop-color="#A474A8"/>
<stop offset="1" stop-color="white" stop-opacity="0"/>
</linearGradient>
<linearGradient id="paint27_linear" x1="0.232912" y1="7.07395" x2="4.19856" y2="4.8118" gradientUnits="userSpaceOnUse">
<stop offset="0.0108745" stop-color="#7F50B2"/>
<stop offset="1" stop-color="white" stop-opacity="0"/>
</linearGradient>
<linearGradient id="paint28_linear" x1="114.147" y1="117.524" x2="123.783" y2="113.128" gradientUnits="userSpaceOnUse">
<stop stop-color="#A474A8"/>
<stop offset="1" stop-color="white" stop-opacity="0"/>
</linearGradient>
<linearGradient id="paint29_linear" x1="113.618" y1="115.327" x2="122.428" y2="117.848" gradientUnits="userSpaceOnUse">
<stop offset="0.0108745" stop-color="#7F50B2"/>
<stop offset="1" stop-color="white" stop-opacity="0"/>
</linearGradient>
<linearGradient id="paint30_linear" x1="107.372" y1="188.328" x2="124.171" y2="129.821" gradientUnits="userSpaceOnUse">
<stop stop-color="#DB822F"/>
<stop offset="1" stop-color="#F6D3BA" stop-opacity="0"/>
</linearGradient>
<linearGradient id="paint31_linear" x1="51.1239" y1="157.739" x2="80.8426" y2="166.074" gradientUnits="userSpaceOnUse">
<stop stop-opacity="0"/>
<stop offset="0.940625"/>
</linearGradient>
<linearGradient id="paint32_linear" x1="69.0053" y1="153.269" x2="81.5781" y2="165.562" gradientUnits="userSpaceOnUse">
<stop stop-opacity="0"/>
<stop offset="0.940625"/>
</linearGradient>
<linearGradient id="paint33_linear" x1="78.5047" y1="163.047" x2="76.3517" y2="153.467" gradientUnits="userSpaceOnUse">
<stop stop-color="#A474A8"/>
<stop offset="1" stop-color="white" stop-opacity="0"/>
</linearGradient>
<linearGradient id="paint34_linear" x1="4.4655" y1="149.545" x2="13.1009" y2="90.6869" gradientUnits="userSpaceOnUse">
<stop stop-color="#DB822F"/>
<stop offset="1" stop-color="#F6D3BA" stop-opacity="0"/>
</linearGradient>
<linearGradient id="paint35_linear" x1="42.8821" y1="148.096" x2="13.9128" y2="59.778" gradientUnits="userSpaceOnUse">
<stop stop-color="#F5F4CA"/>
<stop offset="1" stop-color="white" stop-opacity="0"/>
</linearGradient>
<linearGradient id="paint36_linear" x1="140.264" y1="96.2058" x2="137.221" y2="76.6644" gradientUnits="userSpaceOnUse">
<stop stop-color="#F5F4CA"/>
<stop offset="1" stop-color="white" stop-opacity="0"/>
</linearGradient>
<linearGradient id="paint37_linear" x1="128.235" y1="90.9225" x2="203.994" y2="-15.3852" gradientUnits="userSpaceOnUse">
<stop stop-color="#D1145A" stop-opacity="0.37"/>
<stop offset="1" stop-color="white" stop-opacity="0"/>
</linearGradient>
</defs>
<path d="M17.5657 162.468C-4.32136 134.947 6.03978 66.5994 52.3825 66.5994C63.8331 46.375 110.417 30.522 146.402 53.1481C195.784 84.1981 190.91 168.14 139.815 187.393C80.1673 209.869 48.4908 201.355 17.5657 162.468Z" fill="#FFFBD5"/>
<path d="M17.5657 162.468C-4.32136 134.947 6.03978 66.5994 52.3825 66.5994C63.8331 46.375 110.417 30.522 146.402 53.1481C195.784 84.1981 190.91 168.14 139.815 187.393C80.1673 209.869 48.4908 201.355 17.5657 162.468Z" fill="url(#paint0_linear)"/>
<path d="M136.06 142.316C127.859 126.223 107.684 115.345 98.6213 111.918C107.179 120.143 113.478 143.657 115.558 154.386C119.837 146.876 131.009 143.21 136.06 142.316Z" fill="url(#paint1_linear)"/>
<path d="M61.8833 103.536C52.2106 105.356 40.0642 112.788 35.2 116.277C29.5298 122.101 25.2232 151.83 23.1385 169.121C50.9325 202.313 82.1063 203.949 116.232 195.034L113.999 146.308C109.329 113.911 93.7086 105.811 86.4819 105.811C73.1403 107.631 63.412 107.48 61.8833 103.536Z" fill="url(#paint2_linear)"/>
<path d="M61.8833 103.536C52.2106 105.356 40.0642 112.788 35.2 116.277C29.5298 122.101 25.2232 151.83 23.1385 169.121C50.9325 202.313 82.1063 203.949 116.232 195.034L113.999 146.308C109.329 113.911 93.7086 105.811 86.4819 105.811C73.1403 107.631 63.412 107.48 61.8833 103.536Z" fill="url(#paint3_linear)"/>
<path d="M83.4775 105.307L74.5931 114.712C87.8198 129.47 88.6071 179.957 85.7137 199.634C94.8523 199.634 109.053 197.443 119.989 193.999L114.891 151.817C112.411 128.562 103.868 115.295 99.5974 111.568C93.9761 105.844 87.6108 104.86 83.4775 105.307Z" fill="#F7F7F7"/>
<path d="M83.4775 105.307L74.5931 114.712C87.8198 129.47 88.6071 179.957 85.7137 199.634C94.8523 199.634 109.053 197.443 119.989 193.999L114.891 151.817C112.411 128.562 103.868 115.295 99.5974 111.568C93.9761 105.844 87.6108 104.86 83.4775 105.307Z" fill="url(#paint4_linear)"/>
<path d="M83.4775 105.307L74.5931 114.712C87.8198 129.47 88.6071 179.957 85.7137 199.634C94.8523 199.634 109.053 197.443 119.989 193.999L114.891 151.817C112.411 128.562 103.868 115.295 99.5974 111.568C93.9761 105.844 87.6108 104.86 83.4775 105.307Z" fill="url(#paint5_linear)"/>
<path d="M59.2543 103.536C52.1772 104.613 40.7573 111.761 35.932 115.2C39.1489 128.12 29.2307 149.604 23.8692 158.576L20.6906 166.206C29.9524 179.921 50.1595 193.554 58.2394 195.122C53.9879 176.947 58.6107 120.583 65.4466 110.713L59.2543 103.536Z" fill="#F7F7F7"/>
<path d="M59.2543 103.536C52.1772 104.613 40.7573 111.761 35.932 115.2C39.1489 128.12 29.2307 149.604 23.8692 158.576L20.6906 166.206C29.9524 179.921 50.1595 193.554 58.2394 195.122C53.9879 176.947 58.6107 120.583 65.4466 110.713L59.2543 103.536Z" fill="url(#paint6_linear)"/>
<path d="M59.2543 103.536C52.1772 104.613 40.7573 111.761 35.932 115.2C39.1489 128.12 29.2307 149.604 23.8692 158.576L20.6906 166.206C29.9524 179.921 50.1595 193.554 58.2394 195.122C53.9879 176.947 58.6107 120.583 65.4466 110.713L59.2543 103.536Z" fill="url(#paint7_linear)"/>
<path d="M113.989 173.665C105.915 170.589 106.473 156.658 107.664 150.09C115.491 135.76 126.194 122.176 134.682 115.161C133.253 112.653 134.086 108.443 134.682 106.652C135.575 103.667 138.077 99.308 140.936 105.756C143.795 112.205 137.362 120.385 133.789 123.669C134.503 126.535 135.873 135.909 136.469 140.238C138.256 161.017 129.855 171.127 126.282 173.665C122.708 175.456 119.855 175.9 113.989 173.665Z" fill="#F7D3BA"/>
<path d="M113.989 173.665C105.915 170.589 106.473 156.658 107.664 150.09C115.491 135.76 126.194 122.176 134.682 115.161C133.253 112.653 134.086 108.443 134.682 106.652C135.575 103.667 138.077 99.308 140.936 105.756C143.795 112.205 137.362 120.385 133.789 123.669C134.503 126.535 135.873 135.909 136.469 140.238C138.256 161.017 129.855 171.127 126.282 173.665C122.708 175.456 119.855 175.9 113.989 173.665Z" fill="url(#paint8_linear)"/>
<path d="M113.989 173.665C105.915 170.589 106.473 156.658 107.664 150.09C115.491 135.76 126.194 122.176 134.682 115.161C133.253 112.653 134.086 108.443 134.682 106.652C135.575 103.667 138.077 99.308 140.936 105.756C143.795 112.205 137.362 120.385 133.789 123.669C134.503 126.535 135.873 135.909 136.469 140.238C138.256 161.017 129.855 171.127 126.282 173.665C122.708 175.456 119.855 175.9 113.989 173.665Z" fill="url(#paint9_radial)"/>
<path d="M85.5899 96.6108C83.6075 107.063 72.0868 108.756 67.1774 106.631C59.9853 103.519 53.9041 96.9382 58.7186 87.451C61.4682 79.3846 69.7134 74.9021 77.1311 77.4306C84.5488 79.9591 88.3377 88.5498 85.5899 96.6108Z" fill="#F6D3BA"/>
<path d="M85.5892 96.6104C83.6067 107.063 72.0863 108.756 67.1766 106.631C59.7589 104.102 53.9033 96.9378 58.7178 87.4506C61.4674 79.3842 69.7127 74.9017 77.1303 77.4302C84.548 79.9587 88.337 88.5494 85.5892 96.6104Z" fill="#F7D3BA"/>
<path d="M85.5892 96.6104C83.6067 107.063 72.0863 108.756 67.1766 106.631C59.7589 104.102 53.9033 96.9378 58.7178 87.4506C61.4674 79.3842 69.7127 74.9017 77.1303 77.4302C84.548 79.9587 88.337 88.5494 85.5892 96.6104Z" fill="url(#paint10_linear)"/>
<path d="M85.3676 93.0133C78.4979 94.3364 73.0639 88.6086 70.725 82.5211C66.5382 87.279 62.1538 84.7878 59.8429 86.8552C59.1476 88.895 57.1897 92.5032 56.9741 93.9212C53.0456 90.1409 50.9052 85.3774 55.3022 79.5466C58.816 74.8819 63.2821 74.6306 65.4685 76.0516C68.5231 71.8026 79.2394 70.975 87.063 80.9714C93.3267 88.969 87.7325 96.6685 85.3156 97.8779C85.9476 94.8365 85.481 93.8677 85.3676 93.0133Z" fill="#7A5C47"/>
<path d="M85.3676 93.0133C78.4979 94.3364 73.0639 88.6086 70.725 82.5211C66.5382 87.279 62.1538 84.7878 59.8429 86.8552C59.1476 88.895 57.1897 92.5032 56.9741 93.9212C53.0456 90.1409 50.9052 85.3774 55.3022 79.5466C58.816 74.8819 63.2821 74.6306 65.4685 76.0516C68.5231 71.8026 79.2394 70.975 87.063 80.9714C93.3267 88.969 87.7325 96.6685 85.3156 97.8779C85.9476 94.8365 85.481 93.8677 85.3676 93.0133Z" fill="url(#paint11_linear)" fill-opacity="0.6"/>
<path d="M89.661 88.3956C88.8492 90.4523 88.798 91.3248 85.2529 92.8851C86.0108 94.6763 85.5432 96.9266 85.2998 97.9645C86.3822 97.1234 88.5934 94.8153 89.0504 92.9142C89.7874 90.3627 89.8292 88.9204 89.661 88.3956Z" fill="url(#paint12_linear)"/>
<path d="M83.2953 101.825L87.2142 105.228L84.1898 117.374L74.8266 114.981L74.4259 114.943L74.8929 114.249L83.2953 101.825Z" fill="#F7F7F7"/>
<path d="M83.2953 101.825L87.2142 105.228L84.1898 117.374L74.8266 114.981L74.4259 114.943L74.8929 114.249L83.2953 101.825Z" fill="url(#paint13_linear)"/>
<path d="M83.2953 101.825L87.2142 105.228L84.1898 117.374L74.8266 114.981L74.4259 114.943L74.8929 114.249L83.2953 101.825Z" fill="url(#paint14_linear)"/>
<path d="M98.8652 169.725C98.852 169.71 98.8332 169.691 98.8199 169.676L98.8166 169.681C98.8299 169.697 98.852 169.71 98.8652 169.725Z" fill="#F7F8F8"/>
<path d="M69.0575 111.695L68.8057 111.837L59.9282 115.9L55.4361 103.536L58.9921 100.018L61.1019 102.462L68.8004 111.395L69.0575 111.695Z" fill="#F7F7F7"/>
<path d="M69.0575 111.695L68.8057 111.837L59.9282 115.9L55.4361 103.536L58.9921 100.018L61.1019 102.462L68.8004 111.395L69.0575 111.695Z" fill="url(#paint15_linear)"/>
<path d="M69.0575 111.695L68.8057 111.837L59.9282 115.9L55.4361 103.536L58.9921 100.018L61.1019 102.462L68.8004 111.395L69.0575 111.695Z" fill="url(#paint16_linear)"/>
<path d="M33.4337 110.118L9.58575 139.031C9.58575 139.031 8.97247 133.889 11.1334 130.66C17.3944 121.304 33.4337 110.118 33.4337 110.118Z" fill="url(#paint17_linear)"/>
<path d="M9.52893 139.086C15.8556 131.738 26.882 112.871 32.5583 108.987C43.981 120.825 31.2938 153.505 24.5237 157.436C17.1712 149.866 11.6419 142.491 9.52893 139.086Z" fill="url(#paint18_linear)"/>
<path d="M31.7813 121.132C33.9803 119.238 33.7668 113.267 33.3851 110.519L17.7317 128.004C21.4986 126.503 29.5823 123.026 31.7813 121.132Z" fill="url(#paint19_linear)"/>
<path d="M55.2931 68.1563C45.1157 67.2042 50.1885 74.1594 56.1023 78.1987L86.903 92.0264C86.7406 77.4393 67.7661 69.3232 55.2931 68.1563Z" fill="url(#paint20_linear)"/>
<path d="M56.1296 77.8584C65.3833 87.4828 81.6529 91.9567 88.234 92.9515C89.725 83.5861 91.2111 76.9145 76.8203 71.0722C61.7194 64.9417 56.7888 74.5384 56.1296 77.8584Z" fill="white"/>
<path d="M56.1296 77.8584C65.3833 87.4828 81.6529 91.9567 88.234 92.9515C89.725 83.5861 91.2111 76.9145 76.8203 71.0722C61.7194 64.9417 56.7888 74.5384 56.1296 77.8584Z" fill="url(#paint21_linear)"/>
<path d="M81.9943 87.9213C77.9859 87.1661 74.3042 85.1092 72.9643 84.1751C73.0498 83.3978 74.4722 81.1938 79.3972 82.9154C82.3057 83.9321 82.3673 86.9132 81.9943 87.9213Z" fill="#7A5C47"/>
<path d="M81.9943 87.9213C77.9859 87.1661 74.3042 85.1092 72.9643 84.1751C73.0498 83.3978 74.4722 81.1938 79.3972 82.9154C82.3057 83.9321 82.3673 86.9132 81.9943 87.9213Z" fill="url(#paint22_linear)" fill-opacity="0.3"/>
<rect width="13.3925" height="23.5963" rx="4" transform="matrix(0.49862 0.866821 -0.86682 0.498621 135.28 100.742)" fill="url(#paint23_linear)"/>
<rect x="134.811" y="102.484" width="10.8415" height="21.0453" rx="2" transform="rotate(60.0912 134.811 102.484)" fill="#FFFBD5"/>
<rect x="134.811" y="102.484" width="10.8415" height="21.0453" rx="2" transform="rotate(60.0912 134.811 102.484)" fill="url(#paint24_linear)"/>
<rect x="134.811" y="102.484" width="10.8415" height="21.0453" rx="2" transform="rotate(60.0912 134.811 102.484)" fill="url(#paint25_linear)"/>
<ellipse rx="2.23208" ry="2.23207" transform="matrix(0.498619 0.866821 -0.86682 0.498622 126.886 111.089)" fill="#F7F7F7"/>
<ellipse rx="2.23208" ry="2.23207" transform="matrix(0.498619 0.866821 -0.86682 0.498622 126.886 111.089)" fill="url(#paint26_linear)"/>
<ellipse rx="2.23208" ry="2.23207" transform="matrix(0.498619 0.866821 -0.86682 0.498622 126.886 111.089)" fill="url(#paint27_linear)"/>
<path d="M119.477 111.634C123.928 110.853 127.511 117.081 124.598 120.536C123.384 121.976 121.831 122.127 121.831 122.127L116.71 113.225C116.71 113.225 117.622 111.959 119.477 111.634Z" fill="#F7F7F7"/>
<path d="M119.477 111.634C123.928 110.853 127.511 117.081 124.598 120.536C123.384 121.976 121.831 122.127 121.831 122.127L116.71 113.225C116.71 113.225 117.622 111.959 119.477 111.634Z" fill="url(#paint28_linear)"/>
<path d="M119.477 111.634C123.928 110.853 127.511 117.081 124.598 120.536C123.384 121.976 121.831 122.127 121.831 122.127L116.71 113.225C116.71 113.225 117.622 111.959 119.477 111.634Z" fill="url(#paint29_linear)"/>
<path d="M130.726 115.5C130.726 113.272 129.479 110.063 131.616 109.707C133.248 109.41 135.978 111.757 133.842 123.523C136.364 134.219 139.983 158.575 132.149 168.915C127.093 175.161 117.62 179.252 108.915 170.319C96.9376 158.028 116.037 132.585 127.61 120.848C128.945 119.957 130.577 116.986 130.726 115.5Z" fill="#F7D3BA"/>
<path d="M130.726 115.5C130.726 113.272 129.479 110.063 131.616 109.707C133.248 109.41 135.978 111.757 133.842 123.523C136.364 134.219 139.983 158.575 132.149 168.915C127.093 175.161 117.62 179.252 108.915 170.319C96.9376 158.028 116.037 132.585 127.61 120.848C128.945 119.957 130.577 116.986 130.726 115.5Z" fill="url(#paint30_linear)"/>
<path d="M85.2172 153.77C91.2769 141.184 85.7794 113.733 83.2545 101.86C86.9016 141.932 83.5339 150.505 83.5339 151.989C83.5339 153.176 84.7496 154.067 85.2172 153.77Z" fill="#7A5C47"/>
<path d="M74.3718 149.916C73.1624 149.916 73.0616 150.974 73.1624 151.502L64.3944 152.137C62.9432 152.391 62.7819 153.301 62.8827 153.724L63.1379 161.651C63.1379 163.428 63.4173 165.841 67.6083 165.841L83.4421 164.195C85.2197 164.012 85.7341 163.273 85.769 162.926C85.769 160.638 85.7131 155.616 85.4896 153.827C85.2661 152.039 83.6283 151.321 82.8374 151.185H80.1163C80.1163 149.916 79.2093 149.916 78.9069 149.916H74.3718Z" fill="#7A5C47"/>
<path d="M74.3718 149.916C73.1624 149.916 73.0616 150.974 73.1624 151.502L64.3944 152.137C62.9432 152.391 62.7819 153.301 62.8827 153.724L63.1379 161.651C63.1379 163.428 63.4173 165.841 67.6083 165.841L83.4421 164.195C85.2197 164.012 85.7341 163.273 85.769 162.926C85.769 160.638 85.7131 155.616 85.4896 153.827C85.2661 152.039 83.6283 151.321 82.8374 151.185H80.1163C80.1163 149.916 79.2093 149.916 78.9069 149.916H74.3718Z" fill="url(#paint31_linear)" fill-opacity="0.32"/>
<path d="M76.2696 151.592C75.152 151.592 75.0588 152.524 75.152 152.989L67.0495 153.548C65.7084 153.772 65.5594 154.572 65.6525 154.945L65.9319 164.165C65.9319 165.73 67.0495 165.935 67.6083 165.841L84.6514 164.165C85.322 163.942 85.6759 163.327 85.769 163.047L85.4896 154.386C85.4896 152.43 84.5583 152.71 84.0926 152.71H81.5781C81.5781 151.592 80.7399 151.592 80.4605 151.592H76.2696Z" fill="#7A5C47"/>
<path d="M76.2696 151.592C75.152 151.592 75.0588 152.524 75.152 152.989L67.0495 153.548C65.7084 153.772 65.5594 154.572 65.6525 154.945L65.9319 164.165C65.9319 165.73 67.0495 165.935 67.6083 165.841L84.6514 164.165C85.322 163.942 85.6759 163.327 85.769 163.047L85.4896 154.386C85.4896 152.43 84.5583 152.71 84.0926 152.71H81.5781C81.5781 151.592 80.7399 151.592 80.4605 151.592H76.2696Z" fill="url(#paint32_linear)" fill-opacity="0.32"/>
<ellipse cx="78.7841" cy="158.577" rx="3.63214" ry="3.63215" fill="#F7F7F7"/>
<ellipse cx="78.7841" cy="158.577" rx="3.63214" ry="3.63215" fill="url(#paint33_linear)"/>
<path d="M63.6994 154.666C55.8763 139.243 56.7115 111.732 58.9467 100.183C57.5494 138.74 66.4937 153.548 65.3761 154.666C64.482 155.56 63.8858 155.038 63.6994 154.666Z" fill="#7A5C47"/>
<path fill-rule="evenodd" clip-rule="evenodd" d="M35.65 84.9871C38.9694 80.7281 47.5949 72.8418 55.542 75.3686C63.4891 77.8954 57.1574 81.5149 52.9982 83.0088C51.6894 83.3441 48.856 84.4092 47.9927 85.987C49.4492 85.6309 52.6783 85.2387 52.1695 86.7667C51.6608 88.2947 50.6472 88.8011 46.4028 90.7621C45.0298 91.7134 42.2327 93.8962 42.0284 95.0174C42.1295 97.8861 36.4592 106.279 31.5323 112.858C30.451 114.302 29.5391 115.709 28.6687 117.052C26.1704 120.908 24.0143 124.235 19.1787 126.383L10.9568 137.355L2.17832 126.98L2.20912 126.971C0.737671 123.97 -1.30419 116.553 2.18666 110.621C6.56594 103.178 18.6775 89.644 35.65 84.9871Z" fill="#F7D3BA"/>
<path fill-rule="evenodd" clip-rule="evenodd" d="M35.65 84.9871C38.9694 80.7281 47.5949 72.8418 55.542 75.3686C63.4891 77.8954 57.1574 81.5149 52.9982 83.0088C51.6894 83.3441 48.856 84.4092 47.9927 85.987C49.4492 85.6309 52.6783 85.2387 52.1695 86.7667C51.6608 88.2947 50.6472 88.8011 46.4028 90.7621C45.0298 91.7134 42.2327 93.8962 42.0284 95.0174C42.1295 97.8861 36.4592 106.279 31.5323 112.858C30.451 114.302 29.5391 115.709 28.6687 117.052C26.1704 120.908 24.0143 124.235 19.1787 126.383L10.9568 137.355L2.17832 126.98L2.20912 126.971C0.737671 123.97 -1.30419 116.553 2.18666 110.621C6.56594 103.178 18.6775 89.644 35.65 84.9871Z" fill="url(#paint34_linear)"/>
<g filter="url(#filter0_d)">
<path d="M157.212 34.4819C139.555 20.8258 116.904 26.4806 105.305 46.3688C93.7058 66.2571 109.998 94.4832 129.825 93.5573C149.653 92.6314 177.489 87.5562 178.008 61.9974C178.359 44.6917 165.021 35.18 157.212 34.4819Z" fill="white"/>
<path d="M157.212 34.4819C139.555 20.8258 116.904 26.4806 105.305 46.3688C93.7058 66.2571 109.998 94.4832 129.825 93.5573C149.653 92.6314 177.489 87.5562 178.008 61.9974C178.359 44.6917 165.021 35.18 157.212 34.4819Z" fill="url(#paint35_linear)"/>
</g>
<g filter="url(#filter1_d)">
<path d="M112.079 81.7524C106.145 81.7524 98.7285 92.9856 108.618 95.916C118.507 98.8463 127.902 83.2176 112.079 81.7524Z" fill="white"/>
<path d="M112.079 81.7524C106.145 81.7524 98.7285 92.9856 108.618 95.916C118.507 98.8463 127.902 83.2176 112.079 81.7524Z" fill="url(#paint36_linear)"/>
</g>
<path fill-rule="evenodd" clip-rule="evenodd" d="M124.309 74.3773C123.919 73.9868 123.919 73.3536 124.309 72.9631L128.139 69.1338C128.355 68.9177 128.077 68.1848 127.86 67.9696L125.464 65.5943C125.008 65.1429 125.024 64.4028 125.504 63.9765C129.042 60.8331 133.393 59.0769 137.839 58.7098C138.336 58.6688 138.808 58.4647 139.16 58.1122L141.123 56.1498C142.276 54.9966 141.627 53.0688 139.997 53.0449C133.408 52.9484 126.79 55.2835 121.611 60.0492C121.167 60.458 120.48 60.4489 120.053 60.0226L117.671 57.6487C117.223 57.2022 117.232 56.4733 117.695 56.0429C125.91 48.41 137.171 45.8647 147.417 48.4107C148.123 48.5862 148.876 48.3967 149.39 47.8821L155.371 41.901C155.762 41.5105 156.395 41.5105 156.786 41.901L159.307 44.4224C159.671 44.7866 159.696 45.362 159.38 45.7547L139.673 65.4622C139.647 65.4885 139.622 65.5159 139.599 65.5443L128.245 76.8986C127.854 77.2891 127.221 77.2891 126.831 76.8986L124.309 74.3773ZM146.921 62.7854C145.873 63.833 146.288 65.6444 147.562 66.4004C148.349 66.8671 149.102 67.4088 149.813 68.0255C150.257 68.4112 150.929 68.384 151.347 67.9696L153.743 65.5943C154.199 65.1429 154.183 64.4021 153.704 63.9765C152.603 62.9985 151.423 62.1549 150.187 61.4457C149.447 61.0211 148.523 61.1834 147.92 61.7867L146.921 62.7854ZM154.865 54.8407C153.939 55.767 154.141 57.3189 155.201 58.0883C156.028 58.6884 156.828 59.342 157.597 60.0492C158.041 60.458 158.728 60.4482 159.155 60.0226L161.537 57.6487C161.985 57.2022 161.976 56.4733 161.512 56.0429C160.528 55.1284 159.5 54.2869 158.435 53.5185C157.671 52.9665 156.624 53.0822 155.957 53.7492L154.865 54.8407ZM139.604 69.818C137.144 69.818 135.151 71.8201 135.151 74.2904C135.151 76.7607 137.144 78.7628 139.604 78.7628C142.063 78.7628 144.056 76.7607 144.056 74.2904C144.056 71.8201 142.063 69.818 139.604 69.818Z" fill="#FFFBD5"/>
<path fill-rule="evenodd" clip-rule="evenodd" d="M124.309 74.3773C123.919 73.9868 123.919 73.3536 124.309 72.9631L128.139 69.1338C128.355 68.9177 128.077 68.1848 127.86 67.9696L125.464 65.5943C125.008 65.1429 125.024 64.4028 125.504 63.9765C129.042 60.8331 133.393 59.0769 137.839 58.7098C138.336 58.6688 138.808 58.4647 139.16 58.1122L141.123 56.1498C142.276 54.9966 141.627 53.0688 139.997 53.0449C133.408 52.9484 126.79 55.2835 121.611 60.0492C121.167 60.458 120.48 60.4489 120.053 60.0226L117.671 57.6487C117.223 57.2022 117.232 56.4733 117.695 56.0429C125.91 48.41 137.171 45.8647 147.417 48.4107C148.123 48.5862 148.876 48.3967 149.39 47.8821L155.371 41.901C155.762 41.5105 156.395 41.5105 156.786 41.901L159.307 44.4224C159.671 44.7866 159.696 45.362 159.38 45.7547L139.673 65.4622C139.647 65.4885 139.622 65.5159 139.599 65.5443L128.245 76.8986C127.854 77.2891 127.221 77.2891 126.831 76.8986L124.309 74.3773ZM146.921 62.7854C145.873 63.833 146.288 65.6444 147.562 66.4004C148.349 66.8671 149.102 67.4088 149.813 68.0255C150.257 68.4112 150.929 68.384 151.347 67.9696L153.743 65.5943C154.199 65.1429 154.183 64.4021 153.704 63.9765C152.603 62.9985 151.423 62.1549 150.187 61.4457C149.447 61.0211 148.523 61.1834 147.92 61.7867L146.921 62.7854ZM154.865 54.8407C153.939 55.767 154.141 57.3189 155.201 58.0883C156.028 58.6884 156.828 59.342 157.597 60.0492C158.041 60.458 158.728 60.4482 159.155 60.0226L161.537 57.6487C161.985 57.2022 161.976 56.4733 161.512 56.0429C160.528 55.1284 159.5 54.2869 158.435 53.5185C157.671 52.9665 156.624 53.0822 155.957 53.7492L154.865 54.8407ZM139.604 69.818C137.144 69.818 135.151 71.8201 135.151 74.2904C135.151 76.7607 137.144 78.7628 139.604 78.7628C142.063 78.7628 144.056 76.7607 144.056 74.2904C144.056 71.8201 142.063 69.818 139.604 69.818Z" fill="url(#paint37_linear)"/>
<path d="M73.4714 99.0032C69.6549 98.3535 68.1708 101.079 67.9058 102.523L77.1818 103.877C77.5351 102.523 77.2878 99.6529 73.4714 99.0032Z" fill="#EB6666"/>
</svg>
