<svg width="24" height="24" viewBox="0 0 24 24" fill="none" xmlns="http://www.w3.org/2000/svg">
<defs>
<linearGradient id="paint0_linear_6129_18765" x1="1.98438" y1="21.9104" x2="22.8406" y2="3.06716" gradientUnits="userSpaceOnUse">
<stop stop-color="#CF1E9E"/>
<stop offset="1" stop-color="#7F50B2"/>
</linearGradient>
</defs>
<path d="M19.4425 13.0004C19.2225 13.0004 18.9925 12.9304 18.7725 12.8804C18.327 12.7822 17.8892 12.6518 17.4625 12.4904C16.9986 12.3216 16.4887 12.3304 16.0309 12.515C15.573 12.6996 15.1996 13.047 14.9825 13.4904L14.7625 13.9404C13.7885 13.3985 12.8935 12.7256 12.1025 11.9404C11.3173 11.1494 10.6444 10.2544 10.1025 9.28036L10.5225 9.00036C10.9659 8.78327 11.3133 8.40989 11.4979 7.95205C11.6825 7.49421 11.6913 6.98427 11.5225 6.52036C11.3638 6.09278 11.2335 5.65515 11.1325 5.21036C11.0825 4.99036 11.0425 4.76036 11.0125 4.53036C10.8911 3.82598 10.5222 3.1881 9.97216 2.7316C9.42216 2.27509 8.72724 2.02997 8.01254 2.04036H5.01254C4.58157 2.03631 4.15479 2.12517 3.76125 2.30089C3.36771 2.4766 3.01665 2.73505 2.73197 3.05864C2.44729 3.38222 2.23568 3.76335 2.11153 4.17607C1.98738 4.58879 1.95362 5.02342 2.01254 5.45036C2.54528 9.63974 4.45857 13.5322 7.45019 16.513C10.4418 19.4938 14.3413 21.3929 18.5325 21.9104H18.9125C19.65 21.9114 20.3619 21.6409 20.9125 21.1504C21.2289 20.8674 21.4816 20.5205 21.654 20.1327C21.8264 19.7448 21.9145 19.3248 21.9125 18.9004V15.9004C21.9003 15.2057 21.6473 14.5369 21.1969 14.008C20.7464 13.4791 20.1264 13.123 19.4425 13.0004ZM19.9425 19.0004C19.9424 19.1423 19.9119 19.2827 19.8533 19.412C19.7947 19.5413 19.7092 19.6566 19.6025 19.7504C19.4908 19.8468 19.3601 19.9189 19.2189 19.962C19.0777 20.005 18.9291 20.0181 18.7825 20.0004C15.0374 19.5202 11.5588 17.8068 8.89526 15.1306C6.23174 12.4545 4.53495 8.96769 4.07254 5.22036C4.05663 5.07387 4.07057 4.92569 4.11354 4.78475C4.15651 4.64381 4.22761 4.51304 4.32254 4.40036C4.41625 4.29369 4.5316 4.2082 4.66092 4.14957C4.79024 4.09095 4.93056 4.06054 5.07254 4.06036H8.07254C8.30509 4.05518 8.53217 4.13124 8.71469 4.27543C8.89721 4.41962 9.02375 4.62293 9.07254 4.85036C9.11254 5.12369 9.16254 5.39369 9.22254 5.66036C9.33806 6.1875 9.4918 6.70554 9.68254 7.21036L8.28254 7.86036C8.16284 7.91528 8.05516 7.9933 7.9657 8.08995C7.87624 8.1866 7.80674 8.29997 7.76121 8.42355C7.71568 8.54713 7.69501 8.67849 7.70039 8.81008C7.70577 8.94167 7.73708 9.0709 7.79254 9.19036C9.23174 12.2731 11.7098 14.7512 14.7925 16.1904C15.036 16.2904 15.3091 16.2904 15.5525 16.1904C15.6773 16.1457 15.7919 16.0768 15.8897 15.9875C15.9876 15.8983 16.0667 15.7905 16.1225 15.6704L16.7425 14.2704C17.2595 14.4552 17.7871 14.6088 18.3225 14.7304C18.5892 14.7904 18.8592 14.8404 19.1325 14.8804C19.36 14.9291 19.5633 15.0557 19.7075 15.2382C19.8517 15.4207 19.9277 15.6478 19.9225 15.8804L19.9425 19.0004Z" fill="url(#paint0_linear_6129_18765)"/>
</svg>
