<svg width="20" height="20" viewBox="0 0 20 20" fill="none" xmlns="http://www.w3.org/2000/svg">
<path fill-rule="evenodd" clip-rule="evenodd" d="M9.77618 5.62496C9.68819 5.62496 9.61687 5.70331 9.61687 5.79996V6.58033H7.86773C7.77974 6.58033 7.70842 6.65868 7.70842 6.75533V13.2446C7.70842 13.3412 7.77974 13.4196 7.86773 13.4196H9.61687V14.2C9.61687 14.2966 9.68819 14.375 9.77618 14.375H10.4506C10.5386 14.375 10.6099 14.2966 10.6099 14.2V13.4196H11.0662C11.4372 13.4196 11.7809 13.3426 12.095 13.1861C12.4114 13.0285 12.6654 12.7983 12.8483 12.4919C13.0353 12.1836 13.1251 11.8307 13.1251 11.4344C13.1251 10.988 13.0248 10.6092 12.8089 10.3151C12.6648 10.1188 12.4755 9.96886 12.2464 9.86163C12.3875 9.75338 12.5112 9.62137 12.6148 9.46426C12.798 9.1862 12.8895 8.8619 12.8895 8.49288C12.8895 7.88654 12.722 7.39876 12.3654 7.06371C12.014 6.73354 11.5178 6.58033 10.9012 6.58033H10.6099V5.79996C10.6099 5.70331 10.5386 5.62496 10.4506 5.62496H9.77618ZM8.78983 9.44086V7.5449H9.61687V9.44086H8.78983ZM10.6099 9.44086V7.5449H10.7657C11.1761 7.5449 11.4359 7.63276 11.5815 7.76862C11.7194 7.89744 11.8081 8.12961 11.8081 8.51243C11.8081 8.8345 11.7216 9.05756 11.5728 9.20299C11.4207 9.35174 11.1846 9.44086 10.8423 9.44086H10.6099ZM8.78983 12.4578V10.4026H9.61687V12.4578H8.78983ZM10.6099 12.4578V10.4026H10.7952C11.2649 10.4026 11.5781 10.4933 11.7679 10.6431C11.9391 10.7805 12.0437 11.0211 12.0437 11.4149C12.0437 11.828 11.9419 12.0769 11.7788 12.2149C11.5974 12.3685 11.3143 12.4578 10.9012 12.4578H10.6099Z" fill="#454754"/>
<path fill-rule="evenodd" clip-rule="evenodd" d="M18.3334 9.99996C18.3334 14.6023 14.6025 18.3333 10.0001 18.3333C5.39771 18.3333 1.66675 14.6023 1.66675 9.99996C1.66675 5.39759 5.39771 1.66663 10.0001 1.66663C14.6025 1.66663 18.3334 5.39759 18.3334 9.99996ZM16.6667 9.99996C16.6667 13.6819 13.682 16.6666 10.0001 16.6666C6.31818 16.6666 3.33341 13.6819 3.33341 9.99996C3.33341 6.31806 6.31818 3.33329 10.0001 3.33329C13.682 3.33329 16.6667 6.31806 16.6667 9.99996Z" fill="#454754"/>
</svg>
