<svg width="36" height="36" viewBox="0 0 36 36" fill="none" xmlns="http://www.w3.org/2000/svg">
<defs>
<linearGradient id="paint0_linear_6159_36237" x1="27.8505" y1="8.04969" x2="8.05148" y2="27.8487" gradientUnits="userSpaceOnUse">
<stop stop-color="#BE9DCF"/>
<stop offset="1" stop-color="#DFC4DD"/>
</linearGradient>
<linearGradient id="paint1_linear_6159_36237" x1="26.9253" y1="6.40039" x2="26.9253" y2="26.6226" gradientUnits="userSpaceOnUse">
<stop stop-color="#F4ECF4"/>
<stop offset="1" stop-color="#E9D6EB"/>
</linearGradient>
</defs>
<path fill-rule="evenodd" clip-rule="evenodd" d="M31.1497 13.0006C31.6053 13.4562 32.344 13.4562 32.7996 13.0006C32.7999 13.0003 32.8002 13 32.8005 12.9997L33.9002 14.0994L14.1012 33.8984L13.0029 32.8001C13.4583 32.3445 13.4582 31.6059 13.0027 31.1504C12.5472 30.6949 11.8086 30.6948 11.353 31.1502L10.252 30.0492C10.7064 29.5935 10.7059 28.8558 10.2507 28.4006C9.79556 27.9455 9.05785 27.945 8.60214 28.3993L7.5004 27.2976C7.9544 26.8419 7.95386 26.1044 7.49879 25.6493C7.04371 25.1942 6.30623 25.1937 5.85049 25.6477L4.75327 24.5505C5.2083 24.0948 5.20811 23.3565 4.75269 22.9011C4.29727 22.4457 3.55901 22.4455 3.10335 22.9006L2.00179 21.799L21.8008 2L22.9019 3.10114L22.9016 3.10145C22.446 3.55706 22.446 4.29575 22.9016 4.75136C23.3572 5.20697 24.0959 5.20697 24.5515 4.75136L24.5518 4.75105L25.65 5.84918L25.6497 5.84949C25.194 6.30511 25.194 7.0438 25.6497 7.49941C26.1053 7.95502 26.844 7.95502 27.2996 7.49941L27.2999 7.4991L28.4017 8.60089L28.4016 8.60096C27.946 9.05657 27.946 9.79526 28.4016 10.2509C28.8572 10.7065 29.5959 10.7065 30.0515 10.2509L30.0516 10.2508L31.1506 11.3498C31.1503 11.3501 31.15 11.3504 31.1497 11.3507C30.694 11.8063 30.694 12.545 31.1497 13.0006Z" fill="url(#paint0_linear_6159_36237)"/>
<rect x="20.7031" y="6.40039" width="12.4444" height="20.2222" transform="rotate(45 20.7031 6.40039)" fill="url(#paint1_linear_6159_36237)"/>
</svg>
