<svg width="40" height="40" viewBox="0 0 40 40" fill="none" xmlns="http://www.w3.org/2000/svg">
<rect width="40" height="40" rx="8" fill="#F6E5F6"/>
<path d="M15 14C14.8022 14 14.6089 14.0587 14.4444 14.1685C14.28 14.2784 14.1518 14.4346 14.0761 14.6173C14.0004 14.8001 13.9806 15.0011 14.0192 15.1951C14.0578 15.3891 14.1531 15.5673 14.2929 15.7071C14.4328 15.847 14.6109 15.9422 14.8049 15.9808C14.9989 16.0194 15.2 15.9996 15.3827 15.9239C15.5654 15.8482 15.7216 15.72 15.8315 15.5556C15.9414 15.3911 16 15.1978 16 15C16 14.7348 15.8947 14.4804 15.7071 14.2929C15.5196 14.1054 15.2652 14 15 14ZM29.71 19.78L20.23 10.32C20.1368 10.2195 20.0239 10.1392 19.8983 10.0841C19.7727 10.0291 19.6371 10.0005 19.5 10H13.5C13.3684 9.99926 13.2379 10.0245 13.1161 10.0742C12.9943 10.124 12.8835 10.1973 12.79 10.29L10.29 12.78C10.1973 12.8735 10.124 12.9843 10.0742 13.1061C10.0245 13.2279 9.99926 13.3584 10 13.49V19.49C10.0037 19.7548 10.1073 20.0084 10.29 20.2L19.78 29.7C19.9717 29.8828 20.2253 29.9863 20.49 29.99C20.6216 29.9908 20.7521 29.9656 20.8739 29.9158C20.9958 29.866 21.1066 29.7927 21.2 29.7L29.71 21.19C29.8027 21.0966 29.876 20.9858 29.9258 20.8639C29.9756 20.7421 30.0008 20.6116 30 20.48C29.9938 20.2187 29.8904 19.9691 29.71 19.78ZM20.49 27.59L12 19.09V13.9L13.9 12H19.08L27.58 20.49L20.49 27.59Z" fill="#A33AA3"/>
</svg>
