<svg width="20" height="21" viewBox="0 0 20 21" fill="none" xmlns="http://www.w3.org/2000/svg">
<path d="M12.267 7.82496L8.692 11.4083L7.317 10.0333C7.24229 9.94606 7.15036 9.87521 7.04697 9.82519C6.94358 9.77517 6.83097 9.74706 6.71621 9.74263C6.60144 9.73819 6.487 9.75753 6.38006 9.79943C6.27312 9.84132 6.176 9.90487 6.09479 9.98608C6.01357 10.0673 5.95003 10.1644 5.90813 10.2714C5.86624 10.3783 5.8469 10.4927 5.85133 10.6075C5.85576 10.7223 5.88387 10.8349 5.93389 10.9383C5.98391 11.0417 6.05476 11.1336 6.142 11.2083L8.10033 13.175C8.1782 13.2522 8.27054 13.3133 8.37207 13.3548C8.4736 13.3962 8.58232 13.4173 8.692 13.4166C8.91061 13.4157 9.12011 13.3289 9.27533 13.175L13.442 9.00829C13.5201 8.93082 13.5821 8.83866 13.6244 8.73711C13.6667 8.63556 13.6885 8.52664 13.6885 8.41663C13.6885 8.30662 13.6667 8.19769 13.6244 8.09615C13.5821 7.9946 13.5201 7.90243 13.442 7.82496C13.2859 7.66975 13.0747 7.58263 12.8545 7.58263C12.6343 7.58263 12.4231 7.66975 12.267 7.82496ZM10.0003 2.16663C8.35215 2.16663 6.74099 2.65537 5.37058 3.57105C4.00017 4.48672 2.93206 5.78821 2.30133 7.31093C1.6706 8.83365 1.50558 10.5092 1.82712 12.1257C2.14866 13.7422 2.94234 15.2271 4.10777 16.3925C5.27321 17.558 6.75807 18.3516 8.37458 18.6732C9.99109 18.9947 11.6666 18.8297 13.1894 18.199C14.7121 17.5682 16.0136 16.5001 16.9292 15.1297C17.8449 13.7593 18.3337 12.1481 18.3337 10.5C18.3337 9.40561 18.1181 8.32198 17.6993 7.31093C17.2805 6.29988 16.6667 5.38122 15.8929 4.6074C15.1191 3.83358 14.2004 3.21975 13.1894 2.80096C12.1783 2.38217 11.0947 2.16663 10.0003 2.16663ZM10.0003 17.1666C8.68179 17.1666 7.39286 16.7756 6.29653 16.0431C5.2002 15.3105 4.34572 14.2694 3.84113 13.0512C3.33655 11.833 3.20453 10.4926 3.46176 9.19936C3.719 7.90615 4.35393 6.71826 5.28628 5.78591C6.21863 4.85356 7.40652 4.21863 8.69973 3.96139C9.99293 3.70416 11.3334 3.83618 12.5516 4.34076C13.7697 4.84535 14.8109 5.69983 15.5435 6.79616C16.276 7.89249 16.667 9.18142 16.667 10.5C16.667 12.2681 15.9646 13.9638 14.7144 15.214C13.4641 16.4642 11.7684 17.1666 10.0003 17.1666Z" fill="#A33AA3"/>
</svg>
