<svg width="208" height="212" viewBox="0 0 208 212" fill="none" xmlns="http://www.w3.org/2000/svg">
    <defs>
        <filter id="filter0_d_3025_5389" x="0.969666" y="0.755859" width="149.602" height="137.901" filterUnits="userSpaceOnUse" color-interpolation-filters="sRGB">
            <feFlood flood-opacity="0" result="BackgroundImageFix"/>
            <feColorMatrix in="SourceAlpha" type="matrix" values="0 0 0 0 0 0 0 0 0 0 0 0 0 0 0 0 0 0 127 0" result="hardAlpha"/>
            <feOffset dx="3" dy="4"/>
            <feGaussianBlur stdDeviation="15"/>
            <feColorMatrix type="matrix" values="0 0 0 0 0.635294 0 0 0 0 0.560784 0 0 0 0 0.639216 0 0 0 0.2 0"/>
            <feBlend mode="normal" in2="BackgroundImageFix" result="effect1_dropShadow_3025_5389"/>
            <feBlend mode="normal" in="SourceGraphic" in2="effect1_dropShadow_3025_5389" result="shape"/>
        </filter>
        <filter id="filter1_d_3025_5389" x="69.2121" y="67.0288" width="71.123" height="69.269" filterUnits="userSpaceOnUse" color-interpolation-filters="sRGB">
            <feFlood flood-opacity="0" result="BackgroundImageFix"/>
            <feColorMatrix in="SourceAlpha" type="matrix" values="0 0 0 0 0 0 0 0 0 0 0 0 0 0 0 0 0 0 127 0" result="hardAlpha"/>
            <feOffset dx="3" dy="4"/>
            <feGaussianBlur stdDeviation="15"/>
            <feColorMatrix type="matrix" values="0 0 0 0 0.635294 0 0 0 0 0.560784 0 0 0 0 0.639216 0 0 0 0.2 0"/>
            <feBlend mode="normal" in2="BackgroundImageFix" result="effect1_dropShadow_3025_5389"/>
            <feBlend mode="normal" in="SourceGraphic" in2="effect1_dropShadow_3025_5389" result="shape"/>
        </filter>
        <linearGradient id="paint0_linear_3025_5389" x1="150.957" y1="234.139" x2="25.9627" y2="33.8232" gradientUnits="userSpaceOnUse">
            <stop stop-color="#D1145A" stop-opacity="0.37"/>
            <stop offset="1" stop-color="white" stop-opacity="0"/>
        </linearGradient>
        <linearGradient id="paint1_linear_3025_5389" x1="186.074" y1="168.44" x2="219.967" y2="65.109" gradientUnits="userSpaceOnUse">
            <stop stop-color="#F5F4CA"/>
            <stop offset="1" stop-color="white" stop-opacity="0"/>
        </linearGradient>
        <linearGradient id="paint2_linear_3025_5389" x1="135.88" y1="109.15" x2="131.826" y2="81.7998" gradientUnits="userSpaceOnUse">
            <stop stop-color="#DB822F"/>
            <stop offset="1" stop-color="#F6D3BA" stop-opacity="0"/>
        </linearGradient>
        <linearGradient id="paint3_linear_3025_5389" x1="49.105" y1="131.732" x2="37.3282" y2="130.706" gradientUnits="userSpaceOnUse">
            <stop stop-color="#DB822F"/>
            <stop offset="1" stop-color="#F6D3BA" stop-opacity="0"/>
        </linearGradient>
        <linearGradient id="paint4_linear_3025_5389" x1="96.3029" y1="168.967" x2="73.1308" y2="110.656" gradientUnits="userSpaceOnUse">
            <stop stop-color="#A474A8"/>
            <stop offset="1" stop-color="white" stop-opacity="0"/>
        </linearGradient>
        <linearGradient id="paint5_linear_3025_5389" x1="50.8365" y1="125.08" x2="44.913" y2="119.028" gradientUnits="userSpaceOnUse">
            <stop stop-color="#CF1E9E"/>
            <stop offset="1" stop-color="#7F50B2"/>
        </linearGradient>
        <linearGradient id="paint6_linear_3025_5389" x1="52.6837" y1="127.405" x2="45.7619" y2="120.833" gradientUnits="userSpaceOnUse">
            <stop stop-color="#CF1E9E"/>
            <stop offset="1" stop-color="#7F50B2"/>
        </linearGradient>
        <linearGradient id="paint7_linear_3025_5389" x1="133.246" y1="79.2922" x2="143.788" y2="86.5617" gradientUnits="userSpaceOnUse">
            <stop stop-color="#1C140D"/>
            <stop offset="1" stop-color="#3F2C2C" stop-opacity="0"/>
        </linearGradient>
        <linearGradient id="paint8_linear_3025_5389" x1="104.742" y1="175.881" x2="89.4569" y2="99.6996" gradientUnits="userSpaceOnUse">
            <stop stop-color="#A474A8"/>
            <stop offset="1" stop-color="white" stop-opacity="0"/>
        </linearGradient>
        <linearGradient id="paint9_linear_3025_5389" x1="105.668" y1="104.862" x2="106.717" y2="98.4379" gradientUnits="userSpaceOnUse">
            <stop stop-color="#CF1E9E"/>
            <stop offset="1" stop-color="#7F50B2"/>
        </linearGradient>
        <linearGradient id="paint10_linear_3025_5389" x1="93.6177" y1="113.085" x2="148.622" y2="156.706" gradientUnits="userSpaceOnUse">
            <stop stop-color="#F1E081"/>
            <stop offset="1" stop-color="#F0885C"/>
        </linearGradient>
        <linearGradient id="paint11_linear_3025_5389" x1="71.8678" y1="142.371" x2="154.826" y2="145.971" gradientUnits="userSpaceOnUse">
            <stop stop-color="#F0885C"/>
            <stop offset="1" stop-color="#F1E081"/>
        </linearGradient>
        <linearGradient id="paint12_linear_3025_5389" x1="114.868" y1="85.6375" x2="108.537" y2="82.6055" gradientUnits="userSpaceOnUse">
            <stop stop-color="#322010"/>
            <stop offset="1" stop-color="#3F2C2C" stop-opacity="0"/>
        </linearGradient>
        <linearGradient id="paint13_linear_3025_5389" x1="83.1328" y1="102.25" x2="85.0028" y2="89.7604" gradientUnits="userSpaceOnUse">
            <stop stop-color="#F5F4CA"/>
            <stop offset="1" stop-color="white" stop-opacity="0"/>
        </linearGradient>
        <linearGradient id="paint14_linear_3025_5389" x1="153.682" y1="176.649" x2="63.6343" y2="165.695" gradientUnits="userSpaceOnUse">
            <stop stop-color="#D1145A" stop-opacity="0.37"/>
            <stop offset="1" stop-color="white" stop-opacity="0"/>
        </linearGradient>
        <linearGradient id="paint15_linear_3025_5389" x1="76.9421" y1="126.063" x2="89.6747" y2="148.775" gradientUnits="userSpaceOnUse">
            <stop stop-color="#A33AA3"/>
            <stop offset="1" stop-color="white" stop-opacity="0"/>
        </linearGradient>
        <linearGradient id="paint16_linear_3025_5389" x1="131.342" y1="172.534" x2="144.579" y2="185.447" gradientUnits="userSpaceOnUse">
            <stop stop-color="#DB822F"/>
            <stop offset="1" stop-color="#F6D3BA" stop-opacity="0"/>
        </linearGradient>
        <linearGradient id="paint17_linear_3025_5389" x1="154.585" y1="222.172" x2="169.734" y2="104.785" gradientUnits="userSpaceOnUse">
            <stop stop-color="#E1C5E3"/>
            <stop offset="1" stop-color="white" stop-opacity="0"/>
        </linearGradient>
        <linearGradient id="paint18_linear_3025_5389" x1="53.7075" y1="146.464" x2="70.2084" y2="94.397" gradientUnits="userSpaceOnUse">
            <stop stop-color="#CF1E9E"/>
            <stop offset="1" stop-color="#7F50B2"/>
        </linearGradient>
        <linearGradient id="paint19_linear_3025_5389" x1="75.4558" y1="103.275" x2="63.0434" y2="86.7944" gradientUnits="userSpaceOnUse">
            <stop stop-color="#AB6FC8"/>
            <stop offset="1" stop-color="#E80088" stop-opacity="0"/>
        </linearGradient>
        <linearGradient id="paint20_linear_3025_5389" x1="140.754" y1="179.055" x2="131.817" y2="182.336" gradientUnits="userSpaceOnUse">
            <stop stop-color="#CF1E9E"/>
            <stop offset="1" stop-color="#7F50B2"/>
        </linearGradient>
        <linearGradient id="paint21_linear_3025_5389" x1="144.918" y1="177.544" x2="135.04" y2="181.495" gradientUnits="userSpaceOnUse">
            <stop stop-color="#CF1E9E"/>
            <stop offset="1" stop-color="#7F50B2"/>
        </linearGradient>
        <linearGradient id="paint22_linear_3025_5389" x1="44.5944" y1="106.793" x2="65.2418" y2="108.857" gradientUnits="userSpaceOnUse">
            <stop stop-color="#4B2885"/>
            <stop offset="1" stop-color="#C4C4C4" stop-opacity="0"/>
        </linearGradient>
        <linearGradient id="paint23_linear_3025_5389" x1="57.6711" y1="99.9102" x2="72.1243" y2="101.631" gradientUnits="userSpaceOnUse">
            <stop stop-color="#4B2885"/>
            <stop offset="1" stop-color="#C4C4C4" stop-opacity="0"/>
        </linearGradient>
        <linearGradient id="paint24_linear_3025_5389" x1="50.7483" y1="99.0769" x2="49.4026" y2="93.1594" gradientUnits="userSpaceOnUse">
            <stop stop-color="#C4C4C4"/>
            <stop offset="0.0001" stop-color="#C4C4C4"/>
            <stop offset="1" stop-color="#D7D7D7"/>
        </linearGradient>
        <linearGradient id="paint25_linear_3025_5389" x1="39.7401" y1="104.361" x2="47.6847" y2="100.239" gradientUnits="userSpaceOnUse">
            <stop stop-color="white"/>
            <stop offset="1" stop-color="#C4C4C4" stop-opacity="0"/>
        </linearGradient>
        <linearGradient id="paint26_linear_3025_5389" x1="64.1451" y1="92.5192" x2="62.7992" y2="86.6198" gradientUnits="userSpaceOnUse">
            <stop stop-color="#C4C4C4"/>
            <stop offset="0.0001" stop-color="#C4C4C4"/>
            <stop offset="1" stop-color="#D7D7D7"/>
        </linearGradient>
        <linearGradient id="paint27_linear_3025_5389" x1="53.1397" y1="97.8025" x2="61.0831" y2="93.6829" gradientUnits="userSpaceOnUse">
            <stop stop-color="white"/>
            <stop offset="1" stop-color="#C4C4C4" stop-opacity="0"/>
        </linearGradient>
        <linearGradient id="paint28_linear_3025_5389" x1="76.2537" y1="98.1889" x2="69.0272" y2="117.46" gradientUnits="userSpaceOnUse">
            <stop stop-color="#4B2885"/>
            <stop offset="1" stop-color="#7631C1" stop-opacity="0"/>
        </linearGradient>
        <linearGradient id="paint29_linear_3025_5389" x1="58.5988" y1="98.436" x2="143.888" y2="-20.657" gradientUnits="userSpaceOnUse">
            <stop stop-color="#D1145A" stop-opacity="0.37"/>
            <stop offset="1" stop-color="white" stop-opacity="0"/>
        </linearGradient>
        <linearGradient id="paint30_linear_3025_5389" x1="122.215" y1="138.536" x2="107.414" y2="136.483" gradientUnits="userSpaceOnUse">
            <stop stop-color="#C83192"/>
            <stop offset="1" stop-color="#562F88"/>
        </linearGradient>
        <linearGradient id="paint31_linear_3025_5389" x1="126.282" y1="138.903" x2="129.37" y2="133.395" gradientUnits="userSpaceOnUse">
            <stop stop-color="#FFD95F"/>
            <stop offset="0.1554" stop-color="#FDD056"/>
            <stop offset="0.4209" stop-color="#F6BB3F"/>
            <stop offset="0.7581" stop-color="#ED9A22"/>
            <stop offset="0.8021" stop-color="#EA9523"/>
            <stop offset="0.86" stop-color="#E48926"/>
            <stop offset="0.9257" stop-color="#D97629"/>
            <stop offset="0.9967" stop-color="#CC592C"/>
            <stop offset="1" stop-color="#CB582C"/>
        </linearGradient>
        <linearGradient id="paint32_linear_3025_5389" x1="127.845" y1="134.941" x2="127.947" y2="134.747" gradientUnits="userSpaceOnUse">
            <stop stop-color="#FFD95F"/>
            <stop offset="0.1554" stop-color="#FDD056"/>
            <stop offset="0.4209" stop-color="#F6BB3F"/>
            <stop offset="0.7581" stop-color="#ED9A22"/>
            <stop offset="0.8023" stop-color="#E89422"/>
            <stop offset="0.8605" stop-color="#DD8524"/>
            <stop offset="0.9266" stop-color="#CE7026"/>
            <stop offset="0.998" stop-color="#BB5227"/>
            <stop offset="1" stop-color="#BB5127"/>
        </linearGradient>
        <linearGradient id="paint33_linear_3025_5389" x1="118.038" y1="147.459" x2="113.416" y2="137.349" gradientUnits="userSpaceOnUse">
            <stop stop-color="#C83192"/>
            <stop offset="1" stop-color="#562F88"/>
        </linearGradient>
        <linearGradient id="paint34_linear_3025_5389" x1="110.365" y1="142.577" x2="124.766" y2="143.202" gradientUnits="userSpaceOnUse">
            <stop stop-color="#4C2E84"/>
            <stop offset="0.1655" stop-color="#4F2E85"/>
            <stop offset="0.3309" stop-color="#583087"/>
            <stop offset="0.4964" stop-color="#66358B"/>
            <stop offset="0.661" stop-color="#7A3C92"/>
            <stop offset="0.7807" stop-color="#8B439A"/>
        </linearGradient>
    </defs>
    <path d="M182.935 144.346C205.044 116.502 194.578 47.352 147.765 47.352C136.198 26.8903 89.1406 10.8512 52.7907 33.7429C2.9076 65.1573 7.83087 150.084 59.4444 169.563C119.698 192.303 151.696 183.689 182.935 144.346Z" fill="#FFFBD5"/>
    <path d="M182.935 144.346C205.044 116.502 194.578 47.352 147.765 47.352C136.198 26.8903 89.1406 10.8512 52.7907 33.7429C2.9076 65.1573 7.83087 150.084 59.4444 169.563C119.698 192.303 151.696 183.689 182.935 144.346Z" fill="url(#paint0_linear_3025_5389)"/>
    <g filter="url(#filter0_d_3025_5389)">
        <path d="M52.3093 35.5128C72.9673 19.5353 99.4681 26.1514 113.039 49.4205C126.61 72.6895 107.549 105.714 84.351 104.63C61.1531 103.547 28.5849 97.6093 27.9776 67.7058C27.5664 47.4582 43.1725 36.3296 52.3093 35.5128Z" fill="white"/>
        <path d="M52.3093 35.5128C72.9673 19.5353 99.4681 26.1514 113.039 49.4205C126.61 72.6895 107.549 105.714 84.351 104.63C61.1531 103.547 28.5849 97.6093 27.9776 67.7058C27.5664 47.4582 43.1725 36.3296 52.3093 35.5128Z" fill="url(#paint1_linear_3025_5389)"/>
    </g>
    <path d="M110.874 88.9613C109.465 98.8785 114.044 102.42 124.257 103.483C131.648 103.483 139.05 98.8785 137.64 88.9613C137.64 80.9412 131.648 74.4397 124.257 74.4397C116.866 74.4397 110.874 80.9412 110.874 88.9613Z" fill="#F7D3BA"/>
    <path d="M110.874 88.9613C109.465 98.8785 114.044 102.42 124.257 103.483C131.648 103.483 139.05 98.8785 137.64 88.9613C137.64 80.9412 131.648 74.4397 124.257 74.4397C116.866 74.4397 110.874 80.9412 110.874 88.9613Z" fill="url(#paint2_linear_3025_5389)"/>
    <path d="M34.2901 121.4C33.0008 127.321 39.5719 133.057 43.146 132.972L48.4931 129.446C47.9702 127.495 46.3876 124.649 44.5886 121.157C42.7895 117.665 42.543 120.346 42.4789 122.679C39.893 119.182 35.6192 115.296 34.2901 121.4Z" fill="#F7D3BA"/>
    <path d="M34.2901 121.4C33.0008 127.321 39.5719 133.057 43.146 132.972L48.4931 129.446C47.9702 127.495 46.3876 124.649 44.5886 121.157C42.7895 117.665 42.543 120.346 42.4789 122.679C39.893 119.182 35.6192 115.296 34.2901 121.4Z" fill="url(#paint3_linear_3025_5389)"/>
    <path d="M112.64 84.7824C118.234 88.0471 131.172 86.5961 135.018 81.8805C137.256 87.3942 136.415 86.2334 137.814 88.7726C137.814 90.8034 137.348 92.8834 137.115 94.2137C141.66 92.0373 145.504 88.4091 143.407 81.8805C141.729 76.6576 137.349 75.1103 135.018 75.7146C133.62 70.9989 124.53 67.0088 114.74 73.5381C106.909 78.7616 109.494 87.3216 111.242 89.1353C111.591 86.2334 112.29 85.5079 112.64 84.7824Z" fill="#795B46"/>
    <path d="M48.442 120.73C73.1523 152.951 72.8221 107.513 103.109 106.26C111.754 114.841 128.19 132.087 109.439 159.496C90.6892 186.905 51.6544 172.218 39.6783 134.167L35.8958 130.908L48.442 120.73Z" fill="#F7F7F7"/>
    <path d="M48.442 120.73C73.1523 152.951 72.8221 107.513 103.109 106.26C111.754 114.841 128.19 132.087 109.439 159.496C90.6892 186.905 51.6544 172.218 39.6783 134.167L35.8958 130.908L48.442 120.73Z" fill="url(#paint4_linear_3025_5389)"/>
    <path fill-rule="evenodd" clip-rule="evenodd" d="M49.1081 121.632C48.9568 121.436 48.6872 121.402 48.506 121.557L36.6656 131.659C36.4844 131.814 36.4601 132.098 36.6114 132.294C36.7627 132.49 37.0323 132.524 37.2135 132.369L49.0539 122.267C49.2351 122.112 49.2594 121.828 49.1081 121.632Z" fill="url(#paint5_linear_3025_5389)"/>
    <path fill-rule="evenodd" clip-rule="evenodd" d="M50.7092 123.472C50.5423 123.245 50.2627 123.192 50.0848 123.352L38.4568 133.859C38.2788 134.019 38.2698 134.334 38.4367 134.56C38.6036 134.787 38.8831 134.841 39.0611 134.68L50.6891 124.174C50.8671 124.013 50.876 123.699 50.7092 123.472Z" fill="url(#paint6_linear_3025_5389)"/>
    <path d="M138.056 76.9131C137.81 78.1593 136.575 79.9719 134.726 82.0111C136.575 86.0895 137.316 88.4686 139.167 90.5078C140.77 89.7148 144.273 87.517 143.977 83.7104C143.681 79.9039 139.907 77.5928 138.056 76.9131Z" fill="url(#paint7_linear_3025_5389)"/>
    <path fill-rule="evenodd" clip-rule="evenodd" d="M112.197 102.25C123.886 110.375 134.241 102.25 134.241 102.25L135.433 106.129C135.932 106.255 136.862 106.741 137.518 106.902C145.188 108.787 160.159 112.321 162.541 117.757C165.125 123.657 160.233 156.072 156.166 173.902C156.166 173.902 144.551 178.42 137.026 181.077C127.303 184.514 109.257 184.11 109.257 184.11C109.257 184.11 99.2818 184.084 88.5961 182.845C77.9103 181.606 71.3863 176.215 71.3863 176.215C76.4504 137.295 90.7606 114.924 98.4942 108.143C101.55 105.464 106.979 106.494 110.708 106.129L112.197 102.25Z" fill="white"/>
    <path fill-rule="evenodd" clip-rule="evenodd" d="M112.293 102.563C125.761 109.75 134.337 102.563 134.337 102.563L135.449 106.313C135.948 106.438 136.981 106.777 137.636 106.938C145.449 108.813 160.761 112.563 162.636 118.069C165.221 123.97 160.329 156.385 156.261 174.215C156.261 174.215 144.647 178.733 137.121 181.39C127.399 184.827 109.92 180.063 109.92 180.063C109.92 180.063 99.8845 180.052 89.1987 178.813C78.513 177.574 71.3862 173.813 71.3862 173.813C77.6362 136.625 88.8862 116.938 97.6362 108.813C101.074 105.621 107.033 106.365 110.761 106L112.293 102.563Z" fill="url(#paint8_linear_3025_5389)"/>
    <path d="M133.886 102.885C130.64 104.427 125.622 109.053 112.636 102.875" stroke="url(#paint9_linear_3025_5389)" stroke-width="2" stroke-linecap="round"/>
    <path opacity="0.65" d="M150.449 156C143.806 147.616 144.863 125.038 151.269 110.488C151.45 110.078 150.765 109.99 150.332 109.863L148.886 109.437C148.511 109.327 148.279 109.498 148.144 109.863L143.685 121.336C142.767 123.825 140.279 125.396 137.612 125.172L111.395 122.971C108.28 122.709 105.893 120.101 106.037 117.009C106.09 115.859 106.158 114.693 106.243 113.693C106.466 111.051 106.763 108.029 107.011 106.313C107.078 105.851 106.713 105.662 106.243 105.688L105.136 105.688C104.756 105.709 104.218 105.935 104.199 106.312C103.09 128.245 85.6424 138.269 76.0738 149.75L70.9386 174.542C70.8321 175.056 71.0525 175.575 71.5132 175.827C74.4497 177.43 86.0766 183.158 107.949 186.625C133.574 190.688 154.409 184.945 154.409 184.945C154.409 184.945 161.386 160.085 161.386 157.25C161.386 154.414 156.386 163.494 150.449 156Z" fill="url(#paint10_linear_3025_5389)"/>
    <path d="M149.199 156C142.556 147.616 143.73 124.613 150.136 110.063C150.316 109.653 149.631 109.565 149.199 109.438L147.753 109.012C147.377 108.902 147.146 109.073 147.011 109.438L142.435 121.336C141.517 123.825 139.029 125.396 136.362 125.172L110.145 122.971C107.03 122.709 104.643 120.101 104.787 117.009C104.84 115.859 104.908 114.693 104.993 113.693C105.216 111.051 105.513 108.029 105.761 106.313C105.828 105.851 105.463 105.662 104.993 105.688L103.886 105.688C103.506 105.709 102.968 105.935 102.949 106.312C101.84 128.245 84.3924 138.269 74.8238 149.75L69.6886 174.542C69.5821 175.056 69.8025 175.575 70.2632 175.827C73.1997 177.43 84.8266 183.158 106.699 186.625C132.324 190.688 153.159 184.945 153.159 184.945C153.159 184.945 160.136 160.085 160.136 157.25C160.136 154.414 155.136 163.494 149.199 156Z" fill="white"/>
    <path d="M149.199 156C142.556 147.616 143.73 124.613 150.136 110.063C150.316 109.653 149.631 109.565 149.199 109.438L147.753 109.012C147.377 108.902 147.146 109.073 147.011 109.438L142.435 121.336C141.517 123.825 139.029 125.396 136.362 125.172L110.145 122.971C107.03 122.709 104.643 120.101 104.787 117.009C104.84 115.859 104.908 114.693 104.993 113.693C105.216 111.051 105.513 108.029 105.761 106.313C105.828 105.851 105.463 105.662 104.993 105.688L103.886 105.688C103.506 105.709 102.968 105.935 102.949 106.312C101.84 128.245 84.3924 138.269 74.8238 149.75L69.6886 174.542C69.5821 175.056 69.8025 175.575 70.2632 175.827C73.1997 177.43 84.8266 183.158 106.699 186.625C132.324 190.688 153.159 184.945 153.159 184.945C153.159 184.945 160.136 160.085 160.136 157.25C160.136 154.414 155.136 163.494 149.199 156Z" fill="url(#paint11_linear_3025_5389)" fill-opacity="0.65"/>
    <path d="M110.336 80.6167C111.984 83.6292 111.778 83.6292 112.602 84.6333C111.675 86.4871 111.366 88.2637 111.366 89.2679C110.542 88.2637 109.512 85.5705 109.512 83.9639C109.512 82.3572 110.061 81.063 110.336 80.6167Z" fill="url(#paint12_linear_3025_5389)"/>
    <g filter="url(#filter1_d_3025_5389)">
        <path d="M101.834 93.0288C105.771 93.0288 110.692 100.195 104.131 102.065C97.5691 103.935 91.3351 93.9636 101.834 93.0288Z" fill="white"/>
        <path d="M101.834 93.0288C105.771 93.0288 110.692 100.195 104.131 102.065C97.5691 103.935 91.3351 93.9636 101.834 93.0288Z" fill="url(#paint13_linear_3025_5389)"/>
    </g>
    <path d="M122.537 94.9431C118.268 94.2164 116.608 97.2645 116.312 98.8794L126.687 100.394C127.082 98.8802 126.805 95.6698 122.537 94.9431Z" fill="#EB6666"/>
    <path fill-rule="evenodd" clip-rule="evenodd" d="M92.8341 166.04C100.261 175.081 110.167 181.466 127.528 181.466C132.629 181.466 135.437 180.067 137.558 178.084C139.317 176.44 140.624 174.426 142.252 171.918C142.833 171.022 143.456 170.063 144.154 169.036C146.7 165.29 149.961 161.187 155.377 157.666C160.775 154.157 168.138 151.339 178.76 149.834L179.533 155.286C169.508 156.706 162.954 159.308 158.378 162.283C153.818 165.247 151.045 168.693 148.708 172.131C148.194 172.886 147.684 173.675 147.165 174.476C145.433 177.15 143.615 179.959 141.318 182.106C138.068 185.145 133.866 186.972 127.528 186.972C108.412 186.972 96.9823 179.764 88.5795 169.535C84.4535 164.512 81.0843 158.798 77.8892 153.034C77.1278 151.661 76.3779 150.287 75.6299 148.917C73.2038 144.475 70.7971 140.068 68.0809 135.799L72.7261 132.843C75.5511 137.282 78.0787 141.912 80.5219 146.387C81.2553 147.73 81.981 149.059 82.7049 150.365C85.8761 156.086 89.0452 161.427 92.8341 166.04Z" fill="#4B2885"/>
    <path fill-rule="evenodd" clip-rule="evenodd" d="M92.8341 166.04C100.261 175.081 110.167 181.466 127.528 181.466C132.629 181.466 135.437 180.067 137.558 178.084C139.317 176.44 140.624 174.426 142.252 171.918C142.833 171.022 143.456 170.063 144.154 169.036C146.7 165.29 149.961 161.187 155.377 157.666C160.775 154.157 168.138 151.339 178.76 149.834L179.533 155.286C169.508 156.706 162.954 159.308 158.378 162.283C153.818 165.247 151.045 168.693 148.708 172.131C148.194 172.886 147.684 173.675 147.165 174.476C145.433 177.15 143.615 179.959 141.318 182.106C138.068 185.145 133.866 186.972 127.528 186.972C108.412 186.972 96.9823 179.764 88.5795 169.535C84.4535 164.512 81.0843 158.798 77.8892 153.034C77.1278 151.661 76.3779 150.287 75.6299 148.917C73.2038 144.475 70.7971 140.068 68.0809 135.799L72.7261 132.843C75.5511 137.282 78.0787 141.912 80.5219 146.387C81.2553 147.73 81.981 149.059 82.7049 150.365C85.8761 156.086 89.0452 161.427 92.8341 166.04Z" fill="url(#paint14_linear_3025_5389)"/>
    <path fill-rule="evenodd" clip-rule="evenodd" d="M92.8341 166.04C100.261 175.081 110.167 181.466 127.528 181.466C132.629 181.466 135.437 180.067 137.558 178.084C139.317 176.44 140.624 174.426 142.252 171.918C142.833 171.022 143.456 170.063 144.154 169.036C146.7 165.29 149.961 161.187 155.377 157.666C160.775 154.157 168.138 151.339 178.76 149.834L179.533 155.286C169.508 156.706 162.954 159.308 158.378 162.283C153.818 165.247 151.045 168.693 148.708 172.131C148.194 172.886 147.684 173.675 147.165 174.476C145.433 177.15 143.615 179.959 141.318 182.106C138.068 185.145 133.866 186.972 127.528 186.972C108.412 186.972 96.9823 179.764 88.5795 169.535C84.4535 164.512 81.0843 158.798 77.8892 153.034C77.1278 151.661 76.3779 150.287 75.6299 148.917C73.2038 144.475 70.7971 140.068 68.0809 135.799L72.7261 132.843C75.5511 137.282 78.0787 141.912 80.5219 146.387C81.2553 147.73 81.981 149.059 82.7049 150.365C85.8761 156.086 89.0452 161.427 92.8341 166.04Z" fill="url(#paint15_linear_3025_5389)"/>
    <path d="M134.021 195.2C137.641 194.285 139.68 194.104 145.297 190.267L142.744 179.142C140.76 179.518 136.118 181.859 131.932 182.276C126.882 182.779 130.265 184.743 132.864 185.311C131.467 186.095 131.216 186.022 127.311 186.219C122.43 186.466 123.077 190.906 122.928 192.878C122.779 194.849 130.401 196.116 134.021 195.2Z" fill="#F7D3BA"/>
    <path d="M134.021 195.2C137.641 194.285 139.68 194.104 145.297 190.267L142.744 179.142C140.76 179.518 136.118 181.859 131.932 182.276C126.882 182.779 130.265 184.743 132.864 185.311C131.467 186.095 131.216 186.022 127.311 186.219C122.43 186.466 123.077 190.906 122.928 192.878C122.779 194.849 130.401 196.116 134.021 195.2Z" fill="url(#paint16_linear_3025_5389)"/>
    <path d="M156.224 160.446C152.255 145.443 152.606 145.725 150.764 131.986C149.455 122.228 156.862 108.212 171.733 121.003C186.605 133.794 196.553 152.828 192.852 170.078C189.151 187.327 162.279 199.115 141.694 198.331L136.639 180.189C139.867 176.643 155.079 170.045 156.224 160.446Z" fill="#F7F7F7"/>
    <path d="M156.224 160.446C152.255 145.443 152.606 145.725 150.764 131.986C149.455 122.228 156.862 108.212 171.733 121.003C186.605 133.794 196.553 152.828 192.852 170.078C189.151 187.327 162.279 199.115 141.694 198.331L136.639 180.189C139.867 176.643 155.079 170.045 156.224 160.446Z" fill="url(#paint17_linear_3025_5389)"/>
    <path d="M36.3695 113.815L71.7445 94.8838L79.7653 109.987C84.911 119.677 81.1635 131.77 71.395 136.998C61.6265 142.226 49.536 138.608 44.3903 128.919L36.3695 113.815Z" fill="url(#paint18_linear_3025_5389)"/>
    <path d="M71.6152 94.8523C72.8525 97.1813 65.959 103.29 56.2182 108.497C46.4774 113.704 37.5778 116.037 36.3405 113.708C35.1032 111.379 41.9967 105.27 51.7376 100.063C61.4784 94.8563 70.3779 92.5233 71.6152 94.8523Z" fill="white"/>
    <path d="M71.6152 94.8523C72.8525 97.1813 65.959 103.29 56.2182 108.497C46.4774 113.704 37.5778 116.037 36.3405 113.708C35.1032 111.379 41.9967 105.27 51.7376 100.063C61.4784 94.8563 70.3779 92.5233 71.6152 94.8523Z" fill="url(#paint19_linear_3025_5389)"/>
    <path fill-rule="evenodd" clip-rule="evenodd" d="M136.505 179.55C136.269 179.623 136.136 179.872 136.208 180.108L142.156 199.649C142.228 199.884 142.477 200.017 142.713 199.944C142.948 199.872 143.081 199.622 143.009 199.386L137.061 179.845C136.989 179.61 136.74 179.478 136.505 179.55Z" fill="url(#paint20_linear_3025_5389)"/>
    <path fill-rule="evenodd" clip-rule="evenodd" d="M140.077 178.109C139.843 178.188 139.717 178.441 139.795 178.675L146.327 198.176C146.405 198.41 146.658 198.535 146.891 198.456C147.125 198.377 147.251 198.124 147.173 197.89L140.641 178.389C140.563 178.155 140.31 178.03 140.077 178.109Z" fill="url(#paint21_linear_3025_5389)"/>
    <path d="M41.7227 121.314C40.6904 119.593 36.905 118.561 35.1844 119.593C34.8403 120.396 34.7899 122.936 35.7607 124.687C37.0644 127.038 40.0061 128.358 41.4973 127.784C42.1855 126.179 42.5486 122.69 41.7227 121.314Z" fill="#F7D3BA"/>
    <path d="M55.9504 108.857H44.5944L48.0356 105.416C52.6239 105.416 61.6629 105.485 61.1123 105.76C60.5617 106.036 57.4416 107.94 55.9504 108.857Z" fill="url(#paint22_linear_3025_5389)" fill-opacity="0.4"/>
    <path d="M69.0271 101.975H57.6711L61.1123 98.5337C65.7006 98.5337 74.7396 98.6025 74.189 98.8778C73.6384 99.1531 70.5183 101.057 69.0271 101.975Z" fill="url(#paint23_linear_3025_5389)" fill-opacity="0.4"/>
    <path fill-rule="evenodd" clip-rule="evenodd" d="M37.9299 90.8142C36.4297 91.5895 35.8629 93.4212 36.6639 94.9055L43.9217 108.355L43.9334 108.349C44.2707 108.883 45.7057 108.693 47.1794 107.91C48.6811 107.113 49.6543 106.003 49.3533 105.431C49.3174 105.362 49.2651 105.305 49.1981 105.258L42.0964 92.0979C41.2955 90.6137 39.4301 90.0389 37.9299 90.8142Z" fill="url(#paint24_linear_3025_5389)"/>
    <path fill-rule="evenodd" clip-rule="evenodd" d="M37.9299 90.8142C36.4297 91.5895 35.8629 93.4212 36.6639 94.9055L43.9217 108.355L43.9334 108.349C44.2707 108.883 45.7057 108.693 47.1794 107.91C48.6811 107.113 49.6543 106.003 49.3533 105.431C49.3174 105.362 49.2651 105.305 49.1981 105.258L42.0964 92.0979C41.2955 90.6137 39.4301 90.0389 37.9299 90.8142Z" fill="url(#paint25_linear_3025_5389)"/>
    <path fill-rule="evenodd" clip-rule="evenodd" d="M51.3481 84.2919C49.8479 85.0672 49.2811 86.899 50.0821 88.3832L57.3133 101.784L57.3266 101.777C57.6648 102.307 59.0977 102.115 60.5701 101.334C62.0717 100.536 63.0457 99.4276 62.7456 98.8571C62.7093 98.788 62.656 98.7301 62.5877 98.6829L55.5146 85.5756C54.7137 84.0913 52.8483 83.5166 51.3481 84.2919Z" fill="url(#paint26_linear_3025_5389)"/>
    <path fill-rule="evenodd" clip-rule="evenodd" d="M51.3481 84.2919C49.8479 85.0672 49.2811 86.899 50.0821 88.3832L57.3133 101.784L57.3266 101.777C57.6648 102.307 59.0977 102.115 60.5701 101.334C62.0717 100.536 63.0457 99.4276 62.7456 98.8571C62.7093 98.788 62.656 98.7301 62.5877 98.6829L55.5146 85.5756C54.7137 84.0913 52.8483 83.5166 51.3481 84.2919Z" fill="url(#paint27_linear_3025_5389)"/>
    <path d="M75.2214 134.322C79.3509 129.848 75.5655 116.083 65.9301 102.318C70.4037 98.8772 72.1243 96.583 71.7801 95.0918C72.1243 95.78 73.8449 99.2213 78.3185 107.48C86.5544 122.685 77.6302 132.601 75.2214 134.322Z" fill="url(#paint28_linear_3025_5389)"/>
    <path fill-rule="evenodd" clip-rule="evenodd" d="M53.8595 79.5143C53.6154 79.2702 53.6154 78.8745 53.8595 78.6304L58.4912 73.9987C58.7329 73.7569 58.4224 72.9372 58.1796 72.6965L55.4997 70.0398C54.99 69.5349 55.0071 68.7072 55.544 68.2304C59.6029 64.6247 64.6174 62.6508 69.7225 62.3112C70.0333 62.2906 70.328 62.1619 70.5483 61.9416L74.3772 58.1127C75.0979 57.392 74.6961 56.1743 73.68 56.0938C65.6877 55.4608 57.488 58.0425 51.1903 63.8377C50.6938 64.2949 49.925 64.2848 49.4473 63.808L46.7829 61.1528C46.2818 60.6534 46.2919 59.8381 46.8101 59.3567C56.1498 50.6793 69.0082 47.8806 80.6176 50.9651C81.0571 51.0819 81.5278 50.9621 81.8494 50.6405L89.2997 43.1901C89.5438 42.9461 89.9395 42.9461 90.1836 43.1901L93.7016 46.7081C93.901 46.9075 93.9375 47.2082 93.811 47.4447C93.7822 47.4985 93.7402 47.5438 93.697 47.587L71.043 70.241C70.9998 70.2842 70.9609 70.3326 70.9177 70.3758L58.2613 83.0322C58.0173 83.2763 57.6215 83.2763 57.3775 83.0322L53.8595 79.5143ZM78.3769 68.0197C77.7222 68.6745 77.9805 69.7982 78.8168 70.1957C80.2068 70.8563 81.5261 71.7108 82.7331 72.7591C83.2303 73.1905 83.982 73.16 84.4489 72.6965L87.1288 70.0398C87.6393 69.5349 87.6214 68.7064 87.0853 68.2304C85.6722 66.9752 84.1439 65.918 82.5367 65.0586C82.0665 64.8072 81.4902 64.9065 81.1132 65.2835L78.3769 68.0197ZM87.4808 58.9159C86.9019 59.4948 87.0272 60.4645 87.71 60.9163C89.0108 61.7771 90.2587 62.7508 91.4398 63.8377C91.9362 64.2949 92.705 64.284 93.1828 63.808L95.8472 61.1528C96.3475 60.6534 96.3374 59.8381 95.8191 59.3567C94.5184 58.1482 93.1494 57.0537 91.7252 56.0734C91.2396 55.7391 90.5867 55.8099 90.1699 56.2268L87.4808 58.9159ZM71.3146 74.7639C68.5639 74.7639 66.3345 77.0032 66.3345 79.7662C66.3345 82.5293 68.5639 84.7686 71.3146 84.7686C74.0654 84.7686 76.2948 82.5293 76.2948 79.7662C76.2948 77.0032 74.0654 74.7639 71.3146 74.7639Z" fill="#FFFBD5"/>
    <path fill-rule="evenodd" clip-rule="evenodd" d="M53.8595 79.5143C53.6154 79.2702 53.6154 78.8745 53.8595 78.6304L58.4912 73.9987C58.7329 73.7569 58.4224 72.9372 58.1796 72.6965L55.4997 70.0398C54.99 69.5349 55.0071 68.7072 55.544 68.2304C59.6029 64.6247 64.6174 62.6508 69.7225 62.3112C70.0333 62.2906 70.328 62.1619 70.5483 61.9416L74.3772 58.1127C75.0979 57.392 74.6961 56.1743 73.68 56.0938C65.6877 55.4608 57.488 58.0425 51.1903 63.8377C50.6938 64.2949 49.925 64.2848 49.4473 63.808L46.7829 61.1528C46.2818 60.6534 46.2919 59.8381 46.8101 59.3567C56.1498 50.6793 69.0082 47.8806 80.6176 50.9651C81.0571 51.0819 81.5278 50.9621 81.8494 50.6405L89.2997 43.1901C89.5438 42.9461 89.9395 42.9461 90.1836 43.1901L93.7016 46.7081C93.901 46.9075 93.9375 47.2082 93.811 47.4447C93.7822 47.4985 93.7402 47.5438 93.697 47.587L71.043 70.241C70.9998 70.2842 70.9609 70.3326 70.9177 70.3758L58.2613 83.0322C58.0173 83.2763 57.6215 83.2763 57.3775 83.0322L53.8595 79.5143ZM78.3769 68.0197C77.7222 68.6745 77.9805 69.7982 78.8168 70.1957C80.2068 70.8563 81.5261 71.7108 82.7331 72.7591C83.2303 73.1905 83.982 73.16 84.4489 72.6965L87.1288 70.0398C87.6393 69.5349 87.6214 68.7064 87.0853 68.2304C85.6722 66.9752 84.1439 65.918 82.5367 65.0586C82.0665 64.8072 81.4902 64.9065 81.1132 65.2835L78.3769 68.0197ZM87.4808 58.9159C86.9019 59.4948 87.0272 60.4645 87.71 60.9163C89.0108 61.7771 90.2587 62.7508 91.4398 63.8377C91.9362 64.2949 92.705 64.284 93.1828 63.808L95.8472 61.1528C96.3475 60.6534 96.3374 59.8381 95.8191 59.3567C94.5184 58.1482 93.1494 57.0537 91.7252 56.0734C91.2396 55.7391 90.5867 55.8099 90.1699 56.2268L87.4808 58.9159ZM71.3146 74.7639C68.5639 74.7639 66.3345 77.0032 66.3345 79.7662C66.3345 82.5293 68.5639 84.7686 71.3146 84.7686C74.0654 84.7686 76.2948 82.5293 76.2948 79.7662C76.2948 77.0032 74.0654 74.7639 71.3146 74.7639Z" fill="url(#paint29_linear_3025_5389)"/>
    <path d="M106.954 139.818C106.954 139.818 110.145 135.166 116.876 134.412C116.876 134.412 120.288 134.009 122.468 136.752C122.468 136.752 118.986 136.258 116.095 138.078C116.095 138.078 114.931 138.866 114.398 139.174C114.398 139.169 111.089 141.291 106.954 139.818Z" fill="url(#paint30_linear_3025_5389)"/>
    <path d="M128.317 133.976C125.955 133.991 123.804 135.034 122.469 136.747C123.064 136.835 123.7 136.907 124.316 136.911L124.373 136.914C124.721 136.912 125.07 136.894 125.408 136.863C127.058 136.715 128.607 136.237 129.991 135.499C129.821 135.34 129.633 135.208 129.433 135.098C129.054 134.89 128.614 134.77 128.152 134.761C128.169 134.762 128.187 134.757 128.209 134.758C128.711 134.757 129.188 134.829 129.638 134.972C129.897 135.051 130.149 135.157 130.383 135.28L130.405 135.292C130.731 135.16 131.082 135.085 131.453 135.084C132.115 135.079 132.727 135.308 133.201 135.689C131.374 134.142 129.128 133.971 128.317 133.976ZM127.729 134.777C127.844 134.759 127.959 134.753 128.078 134.752C128.101 134.753 128.118 134.754 128.135 134.755C127.998 134.755 127.867 134.766 127.729 134.777Z" fill="url(#paint31_linear_3025_5389)"/>
    <path d="M128.099 134.826C127.961 134.832 127.83 134.843 127.692 134.859C127.807 134.836 127.922 134.83 128.036 134.824C128.064 134.825 128.082 134.826 128.099 134.826Z" fill="url(#paint32_linear_3025_5389)"/>
    <path d="M127.894 141.104C127.901 141.082 127.697 140.905 127.676 140.881C127.599 140.805 127.522 140.734 127.44 140.657C127.292 140.521 127.138 140.385 126.978 140.26C126.68 140.017 126.376 139.796 126.055 139.585C125.355 139.133 124.601 138.768 123.82 138.493C123.28 138.306 122.722 138.147 122.155 138.066C117.648 137.415 115.238 139.582 112.77 140.83C107.829 143.332 102.72 142.233 102.72 142.233C106.463 144.583 110.288 143.467 110.288 143.467C110.311 143.462 110.334 143.452 110.358 143.447C110.346 143.452 110.334 143.452 110.323 143.457C110.446 143.383 111.768 142.243 113.38 141.644C116.116 140.632 120.621 140.164 124.71 144.396C127.112 143.353 127.894 141.104 127.894 141.104Z" fill="url(#paint33_linear_3025_5389)"/>
    <path d="M124.71 144.408C120.621 140.176 116.111 140.644 113.379 141.655C111.767 142.255 110.446 143.389 110.323 143.468C110.334 143.463 110.346 143.464 110.357 143.459C111.061 143.281 111.621 142.996 112.233 142.826C117.62 141.345 121.241 144.943 121.241 144.943C123.187 145.191 124.716 144.408 124.71 144.408C124.716 144.408 124.71 144.408 124.71 144.408Z" fill="url(#paint34_linear_3025_5389)"/>
</svg>
