<svg width="24" height="24" viewBox="0 0 24 24" fill="none" xmlns="http://www.w3.org/2000/svg">
<path d="M15.4635 3.05731C15.6005 3.00043 15.7513 2.98547 15.8968 3.01431C16.0423 3.04314 16.176 3.11448 16.281 3.21931L21.531 8.46931C21.6008 8.53897 21.6563 8.62174 21.6941 8.71286C21.7319 8.80397 21.7513 8.90166 21.7513 9.00031C21.7513 9.09896 21.7319 9.19664 21.6941 9.28776C21.6563 9.37887 21.6008 9.46164 21.531 9.53131L16.281 14.7813C16.1761 14.8865 16.0423 14.9581 15.8967 14.9872C15.751 15.0162 15.6 15.0014 15.4628 14.9445C15.3256 14.8876 15.2084 14.7913 15.126 14.6677C15.0436 14.5441 14.9997 14.3988 15 14.2503V12.0048C14.1195 12.0198 13.233 12.0798 12.3 12.3468C11.118 12.6843 9.822 13.3638 8.406 14.7813C8.29664 14.8914 8.15585 14.9648 8.00302 14.9915C7.85019 15.0182 7.69284 14.9968 7.55266 14.9303C7.41248 14.8639 7.29636 14.7555 7.22031 14.6203C7.14425 14.4851 7.112 14.3296 7.128 14.1753C7.362 11.8353 8.055 9.77431 9.471 8.29531C10.77 6.93481 12.6 6.15181 15 6.01981V3.75031C15 3.6019 15.0441 3.45683 15.1266 3.33347C15.2091 3.21011 15.3263 3.114 15.4635 3.05731ZM4.5 8.25031C4.5 7.65357 4.73705 7.08127 5.15901 6.65932C5.58097 6.23736 6.15326 6.00031 6.75 6.00031H8.25C8.44891 6.00031 8.63968 5.92129 8.78033 5.78064C8.92098 5.63998 9 5.44922 9 5.25031C9 5.05139 8.92098 4.86063 8.78033 4.71998C8.63968 4.57932 8.44891 4.50031 8.25 4.50031H6.75C5.75544 4.50031 4.80161 4.89539 4.09835 5.59866C3.39509 6.30192 3 7.25574 3 8.25031V17.2503C3 18.2449 3.39509 19.1987 4.09835 19.902C4.80161 20.6052 5.75544 21.0003 6.75 21.0003H15.75C16.7446 21.0003 17.6984 20.6052 18.4017 19.902C19.1049 19.1987 19.5 18.2449 19.5 17.2503V15.7503C19.5 15.5514 19.421 15.3606 19.2803 15.22C19.1397 15.0793 18.9489 15.0003 18.75 15.0003C18.5511 15.0003 18.3603 15.0793 18.2197 15.22C18.079 15.3606 18 15.5514 18 15.7503V17.2503C18 17.847 17.7629 18.4193 17.341 18.8413C16.919 19.2633 16.3467 19.5003 15.75 19.5003H6.75C6.15326 19.5003 5.58097 19.2633 5.15901 18.8413C4.73705 18.4193 4.5 17.847 4.5 17.2503V8.25031Z" fill="black"/>
</svg>
