<svg width="16" height="16" viewBox="0 0 16 16" fill="none" xmlns="http://www.w3.org/2000/svg">
    <defs>
        <linearGradient id="paint0_linear" x1="14.6769" y1="14.1693" x2="3.54016" y2="19.2235" gradientUnits="userSpaceOnUse">
            <stop stop-color="#FFA945"/>
            <stop offset="1" stop-color="#FFDF35"/>
        </linearGradient>
    </defs>
    <path d="M14.6666 6.73334C14.7333 6.40001 14.4666 6.00001 14.1333 6.00001L10.3333 5.46668L8.59992 2.00001C8.53325 1.86668 8.46659 1.80001 8.33325 1.73334C7.99992 1.53334 7.59992 1.66668 7.39992 2.00001L5.73325 5.46668L1.93325 6.00001C1.73325 6.00001 1.59992 6.06668 1.53325 6.20001C1.26659 6.46668 1.26659 6.86668 1.53325 7.13334L4.26659 9.80001L3.59992 13.6C3.59992 13.7333 3.59992 13.8667 3.66659 14C3.86659 14.3333 4.26659 14.4667 4.59992 14.2667L7.99992 12.4667L11.3999 14.2667C11.4666 14.3333 11.5999 14.3333 11.7333 14.3333C11.7999 14.3333 11.7999 14.3333 11.8666 14.3333C12.1999 14.2667 12.4666 13.9333 12.3999 13.5333L11.7333 9.73334L14.4666 7.06668C14.5999 7.00001 14.6666 6.86668 14.6666 6.73334Z" fill="url(#paint0_linear)"/>

</svg>