<svg width="16" height="16" viewBox="0 0 16 16" fill="none" xmlns="http://www.w3.org/2000/svg">
<path d="M6.00016 6.66659C5.82335 6.66659 5.65378 6.73682 5.52876 6.86185C5.40373 6.98687 5.3335 7.15644 5.3335 7.33325V8.66659C5.3335 8.8434 5.40373 9.01297 5.52876 9.13799C5.65378 9.26301 5.82335 9.33325 6.00016 9.33325C6.17697 9.33325 6.34654 9.26301 6.47157 9.13799C6.59659 9.01297 6.66683 8.8434 6.66683 8.66659V7.33325C6.66683 7.15644 6.59659 6.98687 6.47157 6.86185C6.34654 6.73682 6.17697 6.66659 6.00016 6.66659ZM14.0002 7.33325C14.177 7.33325 14.3465 7.26301 14.4716 7.13799C14.5966 7.01297 14.6668 6.8434 14.6668 6.66659V3.99992C14.6668 3.82311 14.5966 3.65354 14.4716 3.52851C14.3465 3.40349 14.177 3.33325 14.0002 3.33325H2.00016C1.82335 3.33325 1.65378 3.40349 1.52876 3.52851C1.40373 3.65354 1.3335 3.82311 1.3335 3.99992V6.66659C1.3335 6.8434 1.40373 7.01297 1.52876 7.13799C1.65378 7.26301 1.82335 7.33325 2.00016 7.33325C2.17697 7.33325 2.34654 7.40349 2.47157 7.52851C2.59659 7.65354 2.66683 7.82311 2.66683 7.99992C2.66683 8.17673 2.59659 8.3463 2.47157 8.47132C2.34654 8.59635 2.17697 8.66659 2.00016 8.66659C1.82335 8.66659 1.65378 8.73682 1.52876 8.86185C1.40373 8.98687 1.3335 9.15644 1.3335 9.33325V11.9999C1.3335 12.1767 1.40373 12.3463 1.52876 12.4713C1.65378 12.5963 1.82335 12.6666 2.00016 12.6666H14.0002C14.177 12.6666 14.3465 12.5963 14.4716 12.4713C14.5966 12.3463 14.6668 12.1767 14.6668 11.9999V9.33325C14.6668 9.15644 14.5966 8.98687 14.4716 8.86185C14.3465 8.73682 14.177 8.66659 14.0002 8.66659C13.8234 8.66659 13.6538 8.59635 13.5288 8.47132C13.4037 8.3463 13.3335 8.17673 13.3335 7.99992C13.3335 7.82311 13.4037 7.65354 13.5288 7.52851C13.6538 7.40349 13.8234 7.33325 14.0002 7.33325ZM13.3335 6.11992C12.9474 6.26006 12.6138 6.51567 12.3781 6.85203C12.1423 7.18839 12.0158 7.58917 12.0158 7.99992C12.0158 8.41067 12.1423 8.81145 12.3781 9.14781C12.6138 9.48417 12.9474 9.73978 13.3335 9.87992V11.3333H6.66683C6.66683 11.1564 6.59659 10.9869 6.47157 10.8618C6.34654 10.7368 6.17697 10.6666 6.00016 10.6666C5.82335 10.6666 5.65378 10.7368 5.52876 10.8618C5.40373 10.9869 5.3335 11.1564 5.3335 11.3333H2.66683V9.87992C3.05293 9.73978 3.38652 9.48417 3.62227 9.14781C3.85801 8.81145 3.98448 8.41067 3.98448 7.99992C3.98448 7.58917 3.85801 7.18839 3.62227 6.85203C3.38652 6.51567 3.05293 6.26006 2.66683 6.11992V4.66659H5.3335C5.3335 4.8434 5.40373 5.01297 5.52876 5.13799C5.65378 5.26301 5.82335 5.33325 6.00016 5.33325C6.17697 5.33325 6.34654 5.26301 6.47157 5.13799C6.59659 5.01297 6.66683 4.8434 6.66683 4.66659H13.3335V6.11992Z" fill="#73768C"/>
</svg>
