<svg width="100" height="100" viewBox="0 0 100 100" fill="none" xmlns="http://www.w3.org/2000/svg">
    <defs>
        <linearGradient id="paint0_linear_1062_4261" x1="-2.58795" y1="-5.34591" x2="72.7096" y2="32.1963" gradientUnits="userSpaceOnUse">
            <stop stop-color="#FEFCFD"/>
            <stop offset="1" stop-color="#F9E5EC"/>
        </linearGradient>
        <linearGradient id="paint1_linear_1062_4261" x1="93.8717" y1="37.8259" x2="-38.0119" y2="233.059" gradientUnits="userSpaceOnUse">
            <stop stop-color="#CF1D5B" stop-opacity="0.37"/>
            <stop offset="1" stop-color="white" stop-opacity="0"/>
        </linearGradient>
        <linearGradient id="paint2_linear_1062_4261" x1="38.0436" y1="49.5852" x2="76.672" y2="48.8487" gradientUnits="userSpaceOnUse">
            <stop stop-color="#CFA9E0"/>
            <stop offset="1" stop-color="#D295B9" stop-opacity="0"/>
        </linearGradient>
        <linearGradient id="paint3_linear_1062_4261" x1="44.4668" y1="100.052" x2="109.001" y2="35.7125" gradientUnits="userSpaceOnUse">
            <stop stop-color="#CFA9E0"/>
            <stop offset="1" stop-color="#D295B9" stop-opacity="0"/>
        </linearGradient>
        <linearGradient id="paint4_linear_1062_4261" x1="-18.3265" y1="100.068" x2="63.0186" y2="35.5286" gradientUnits="userSpaceOnUse">
            <stop stop-color="#CFA9E0"/>
            <stop offset="1" stop-color="#D295B9" stop-opacity="0"/>
        </linearGradient>
    </defs>
    <mask id="mask0_1062_4261" style="mask-type:alpha" maskUnits="userSpaceOnUse" x="0" y="0" width="100" height="100">
<rect width="100" height="100" rx="12" fill="#C4C4C4"/>
</mask>
<g mask="url(#mask0_1062_4261)">
<rect x="-5.9375" width="111.875" height="100" fill="url(#paint0_linear_1062_4261)"/>
<g opacity="0.6">
<path d="M78.2598 43.5239C32.7954 50.2692 -20.9375 100 -20.9375 100L121.495 100L162.813 52.7265C162.813 52.7265 111.069 38.6561 78.2598 43.5239Z" fill="white"/>
<path d="M78.2598 43.5239C32.7954 50.2692 -20.9375 100 -20.9375 100L121.495 100L162.813 52.7265C162.813 52.7265 111.069 38.6561 78.2598 43.5239Z" fill="url(#paint1_linear_1062_4261)" fill-opacity="0.5"/>
</g>
<ellipse cx="65" cy="50" rx="15.3125" ry="15.625" fill="#F4F4F4"/>
<ellipse cx="65" cy="50" rx="15.3125" ry="15.625" fill="url(#paint2_linear_1062_4261)" fill-opacity="0.4"/>
<path d="M90.7651 81.3654C85.0259 81.7475 81.908 79.1826 76.1602 79.1587C58.1718 79.0838 33.4375 100 33.4375 100H116.562V68.125C116.562 68.125 101.692 80.6379 90.7651 81.3654Z" fill="#F4F4F4"/>
<path d="M90.7651 81.3654C85.0259 81.7475 81.908 79.1826 76.1602 79.1587C58.1718 79.0838 33.4375 100 33.4375 100H116.562V68.125C116.562 68.125 101.692 80.6379 90.7651 81.3654Z" fill="url(#paint3_linear_1062_4261)"/>
<path d="M-29.6875 100H55.9375C55.9375 100 46.7757 83.3337 37.5975 78.8174C30.1102 75.1331 24.9631 81.5144 17.1927 78.8174C6.5301 75.1166 4.30423 58.2939 -7.22097 58.7595C-23.1765 59.404 -29.6875 100 -29.6875 100Z" fill="#F4F4F4"/>
<path d="M-29.6875 100H55.9375C55.9375 100 46.7757 83.3337 37.5975 78.8174C30.1102 75.1331 24.9631 81.5144 17.1927 78.8174C6.5301 75.1166 4.30423 58.2939 -7.22097 58.7595C-23.1765 59.404 -29.6875 100 -29.6875 100Z" fill="url(#paint4_linear_1062_4261)"/>
</g>
</svg>
