<svg width="16" height="16" viewBox="0 0 16 16" fill="none" xmlns="http://www.w3.org/2000/svg">
<path d="M4.00004 2C4.17685 2 4.34642 2.07024 4.47145 2.19526C4.59647 2.32029 4.66671 2.48986 4.66671 2.66667V3.33333H12C12.1319 3.33336 12.2607 3.37248 12.3703 3.44573C12.48 3.51899 12.5654 3.6231 12.6158 3.7449C12.6663 3.8667 12.6795 4.00072 12.6538 4.13002C12.6281 4.25932 12.5646 4.3781 12.4714 4.47133L10.276 6.66667L12.4714 8.862C12.5646 8.95524 12.6281 9.07401 12.6538 9.20331C12.6795 9.33261 12.6663 9.46664 12.6158 9.58844C12.5654 9.71024 12.48 9.81435 12.3703 9.8876C12.2607 9.96086 12.1319 9.99997 12 10H4.66671V13.3333C4.66671 13.5101 4.59647 13.6797 4.47145 13.8047C4.34642 13.9298 4.17685 14 4.00004 14C3.82323 14 3.65366 13.9298 3.52864 13.8047C3.40361 13.6797 3.33337 13.5101 3.33337 13.3333V2.66667C3.33337 2.48986 3.40361 2.32029 3.52864 2.19526C3.65366 2.07024 3.82323 2 4.00004 2ZM4.66671 8.66667H10.3907L8.86204 7.138C8.73706 7.01298 8.66685 6.84344 8.66685 6.66667C8.66685 6.48989 8.73706 6.32035 8.86204 6.19533L10.3907 4.66667H4.66671V8.66667Z" fill="#73768C"/>
</svg>
