<svg width="14" height="18" viewBox="0 0 14 18" fill="none" xmlns="http://www.w3.org/2000/svg">
<path d="M1 0C1.26522 0 1.51957 0.105357 1.70711 0.292893C1.89464 0.48043 2 0.734784 2 1V2H13C13.1978 2.00004 13.391 2.05871 13.5555 2.1686C13.7199 2.27848 13.848 2.43465 13.9237 2.61735C13.9993 2.80005 14.0192 3.00108 13.9806 3.19503C13.942 3.38898 13.8468 3.56715 13.707 3.707L10.414 7L13.707 10.293C13.8468 10.4329 13.942 10.611 13.9806 10.805C14.0192 10.9989 13.9993 11.2 13.9237 11.3827C13.848 11.5654 13.7199 11.7215 13.5555 11.8314C13.391 11.9413 13.1978 12 13 12H2V17C2 17.2652 1.89464 17.5196 1.70711 17.7071C1.51957 17.8946 1.26522 18 1 18C0.734784 18 0.48043 17.8946 0.292893 17.7071C0.105357 17.5196 0 17.2652 0 17V1C0 0.734784 0.105357 0.48043 0.292893 0.292893C0.48043 0.105357 0.734784 0 1 0ZM2 10H10.586L8.293 7.707C8.10553 7.51947 8.00021 7.26516 8.00021 7C8.00021 6.73484 8.10553 6.48053 8.293 6.293L10.586 4H2V10Z" fill="#ABADBA"/>
</svg>
