<svg width="16" height="16" viewBox="0 0 16 16" fill="none" xmlns="http://www.w3.org/2000/svg">
<path d="M9.3335 5.33337H10.0002C10.177 5.33337 10.3465 5.26314 10.4716 5.13811C10.5966 5.01309 10.6668 4.84352 10.6668 4.66671C10.6668 4.4899 10.5966 4.32033 10.4716 4.1953C10.3465 4.07028 10.177 4.00004 10.0002 4.00004H9.3335C9.15669 4.00004 8.98712 4.07028 8.86209 4.1953C8.73707 4.32033 8.66683 4.4899 8.66683 4.66671C8.66683 4.84352 8.73707 5.01309 8.86209 5.13811C8.98712 5.26314 9.15669 5.33337 9.3335 5.33337ZM9.3335 8.00004H10.0002C10.177 8.00004 10.3465 7.9298 10.4716 7.80478C10.5966 7.67975 10.6668 7.51019 10.6668 7.33337C10.6668 7.15656 10.5966 6.98699 10.4716 6.86197C10.3465 6.73695 10.177 6.66671 10.0002 6.66671H9.3335C9.15669 6.66671 8.98712 6.73695 8.86209 6.86197C8.73707 6.98699 8.66683 7.15656 8.66683 7.33337C8.66683 7.51019 8.73707 7.67975 8.86209 7.80478C8.98712 7.9298 9.15669 8.00004 9.3335 8.00004ZM6.00016 5.33337H6.66683C6.84364 5.33337 7.01321 5.26314 7.13823 5.13811C7.26326 5.01309 7.3335 4.84352 7.3335 4.66671C7.3335 4.4899 7.26326 4.32033 7.13823 4.1953C7.01321 4.07028 6.84364 4.00004 6.66683 4.00004H6.00016C5.82335 4.00004 5.65378 4.07028 5.52876 4.1953C5.40373 4.32033 5.3335 4.4899 5.3335 4.66671C5.3335 4.84352 5.40373 5.01309 5.52876 5.13811C5.65378 5.26314 5.82335 5.33337 6.00016 5.33337ZM6.00016 8.00004H6.66683C6.84364 8.00004 7.01321 7.9298 7.13823 7.80478C7.26326 7.67975 7.3335 7.51019 7.3335 7.33337C7.3335 7.15656 7.26326 6.98699 7.13823 6.86197C7.01321 6.73695 6.84364 6.66671 6.66683 6.66671H6.00016C5.82335 6.66671 5.65378 6.73695 5.52876 6.86197C5.40373 6.98699 5.3335 7.15656 5.3335 7.33337C5.3335 7.51019 5.40373 7.67975 5.52876 7.80478C5.65378 7.9298 5.82335 8.00004 6.00016 8.00004ZM14.0002 13.3334H13.3335V2.00004C13.3335 1.82323 13.2633 1.65366 13.1382 1.52864C13.0132 1.40361 12.8436 1.33337 12.6668 1.33337H3.3335C3.15669 1.33337 2.98712 1.40361 2.86209 1.52864C2.73707 1.65366 2.66683 1.82323 2.66683 2.00004V13.3334H2.00016C1.82335 13.3334 1.65378 13.4036 1.52876 13.5286C1.40373 13.6537 1.3335 13.8232 1.3335 14C1.3335 14.1769 1.40373 14.3464 1.52876 14.4714C1.65378 14.5965 1.82335 14.6667 2.00016 14.6667H14.0002C14.177 14.6667 14.3465 14.5965 14.4716 14.4714C14.5966 14.3464 14.6668 14.1769 14.6668 14C14.6668 13.8232 14.5966 13.6537 14.4716 13.5286C14.3465 13.4036 14.177 13.3334 14.0002 13.3334ZM8.66683 13.3334H7.3335V10.6667H8.66683V13.3334ZM12.0002 13.3334H10.0002V10C10.0002 9.82323 9.92992 9.65366 9.8049 9.52864C9.67988 9.40361 9.51031 9.33337 9.3335 9.33337H6.66683C6.49002 9.33337 6.32045 9.40361 6.19543 9.52864C6.0704 9.65366 6.00016 9.82323 6.00016 10V13.3334H4.00016V2.66671H12.0002V13.3334Z" fill="#454754"/>
</svg>
