<svg width="24" height="25" viewBox="0 0 24 25" fill="none" xmlns="http://www.w3.org/2000/svg">
<path d="M12 20.5039H12.0006C14.2539 20.5011 16.4142 19.6047 18.0075 18.0114C19.6008 16.4181 20.4972 14.2578 20.5 12.0045V12.0039C20.5 10.3228 20.0015 8.67938 19.0675 7.28156C18.1335 5.88374 16.806 4.79428 15.2528 4.15093C13.6996 3.50759 11.9906 3.33926 10.3417 3.66723C8.6929 3.99521 7.17834 4.80475 5.9896 5.9935C4.80085 7.18225 3.9913 8.6968 3.66333 10.3456C3.33536 11.9945 3.50368 13.7035 4.14703 15.2567C4.79037 16.8099 5.87984 18.1374 7.27766 19.0714C8.67548 20.0054 10.3189 20.5039 12 20.5039ZM6.72209 4.10494C8.28428 3.06112 10.1209 2.50396 11.9997 2.50391C14.5185 2.50674 16.9333 3.50857 18.7143 5.28961C20.4954 7.07071 21.4972 9.4856 21.5 12.0045C21.4999 13.8832 20.9427 15.7197 19.899 17.2818C18.8551 18.8441 17.3714 20.0617 15.6355 20.7808C13.8996 21.4998 11.9895 21.6879 10.1466 21.3214C8.30383 20.9548 6.61109 20.05 5.28249 18.7214C3.95389 17.3928 3.0491 15.7001 2.68254 13.8573C2.31598 12.0144 2.50412 10.1043 3.22315 8.36841C3.94218 6.63252 5.15982 5.14882 6.72209 4.10494ZM11.6465 12.1504C11.7402 12.0566 11.8674 12.0039 12 12.0039C12.1326 12.0039 12.2598 12.0566 12.3536 12.1504C12.4473 12.2441 12.5 12.3713 12.5 12.5039V15.5039C12.5 15.6365 12.4473 15.7637 12.3536 15.8575C12.2598 15.9512 12.1326 16.0039 12 16.0039C11.8674 16.0039 11.7402 15.9512 11.6465 15.8575C11.5527 15.7637 11.5 15.6365 11.5 15.5039V12.5039C11.5 12.3713 11.5527 12.2441 11.6465 12.1504ZM11.5833 8.1303C11.7067 8.04789 11.8517 8.00391 12 8.00391C12.1989 8.00391 12.3897 8.08292 12.5303 8.22358C12.671 8.36423 12.75 8.55499 12.75 8.75391C12.75 8.90224 12.706 9.04725 12.6236 9.17058C12.5412 9.29392 12.4241 9.39005 12.287 9.44682C12.15 9.50358 11.9992 9.51843 11.8537 9.4895C11.7082 9.46056 11.5746 9.38913 11.4697 9.28424C11.3648 9.17935 11.2934 9.04571 11.2644 8.90023C11.2355 8.75474 11.2503 8.60394 11.3071 8.46689C11.3639 8.32985 11.46 8.21272 11.5833 8.1303Z" fill="#454754" stroke="#454754"/>
</svg>
