<svg width="20" height="20" viewBox="0 0 20 20" fill="none" xmlns="http://www.w3.org/2000/svg">
<path d="M12.2665 7.32502L8.69151 10.9084L7.31651 9.53335C7.2418 9.44612 7.14987 9.37527 7.04648 9.32525C6.94309 9.27523 6.83048 9.24712 6.71572 9.24269C6.60095 9.23826 6.48651 9.25759 6.37957 9.29949C6.27263 9.34139 6.17551 9.40493 6.0943 9.48615C6.01309 9.56736 5.94954 9.66448 5.90764 9.77142C5.86575 9.87836 5.84641 9.9928 5.85084 10.1076C5.85528 10.2223 5.88338 10.3349 5.9334 10.4383C5.98342 10.5417 6.05427 10.6336 6.14151 10.7084L8.09984 12.675C8.17771 12.7523 8.27005 12.8134 8.37159 12.8548C8.47312 12.8963 8.58184 12.9173 8.69151 12.9167C8.91012 12.9158 9.11962 12.829 9.27484 12.675L13.4415 8.50835C13.5196 8.43088 13.5816 8.33872 13.6239 8.23717C13.6662 8.13562 13.688 8.0267 13.688 7.91669C13.688 7.80668 13.6662 7.69776 13.6239 7.59621C13.5816 7.49466 13.5196 7.40249 13.4415 7.32502C13.2854 7.16981 13.0742 7.08269 12.854 7.08269C12.6339 7.08269 12.4226 7.16981 12.2665 7.32502ZM9.99984 1.66669C8.35166 1.66669 6.7405 2.15543 5.37009 3.07111C3.99968 3.98679 2.93158 5.28827 2.30084 6.81099C1.67011 8.33371 1.50509 10.0093 1.82663 11.6258C2.14817 13.2423 2.94185 14.7271 4.10728 15.8926C5.27272 17.058 6.75758 17.8517 8.37409 18.1732C9.9906 18.4948 11.6662 18.3297 13.1889 17.699C14.7116 17.0683 16.0131 16.0002 16.9288 14.6298C17.8444 13.2594 18.3332 11.6482 18.3332 10C18.3332 8.90567 18.1176 7.82204 17.6988 6.81099C17.28 5.79994 16.6662 4.88129 15.8924 4.10746C15.1186 3.33364 14.1999 2.71981 13.1889 2.30102C12.1778 1.88224 11.0942 1.66669 9.99984 1.66669ZM9.99984 16.6667C8.6813 16.6667 7.39237 16.2757 6.29604 15.5432C5.19971 14.8106 4.34523 13.7694 3.84064 12.5512C3.33606 11.3331 3.20404 9.99263 3.46127 8.69942C3.71851 7.40621 4.35345 6.21833 5.2858 5.28598C6.21815 4.35363 7.40603 3.71869 8.69924 3.46145C9.99245 3.20422 11.3329 3.33624 12.5511 3.84082C13.7692 4.34541 14.8104 5.19989 15.543 6.29622C16.2755 7.39255 16.6665 8.68148 16.6665 10C16.6665 11.7681 15.9641 13.4638 14.7139 14.7141C13.4636 15.9643 11.768 16.6667 9.99984 16.6667Z" fill="#454754"/>
</svg>
