<svg width="20" height="20" viewBox="0 0 20 20" fill="none" xmlns="http://www.w3.org/2000/svg">
<path d="M14.7577 9.40833L12.6743 7.325C12.5174 7.16808 12.3046 7.07992 12.0827 7.07992C11.8608 7.07992 11.6479 7.16808 11.491 7.325C11.3341 7.48192 11.2459 7.69475 11.2459 7.91667C11.2459 8.13858 11.3341 8.35141 11.491 8.50833L12.1577 9.16667H7.84101L8.50768 8.50833C8.6646 8.35141 8.75276 8.13858 8.75276 7.91667C8.75276 7.69475 8.6646 7.48192 8.50768 7.325C8.35076 7.16808 8.13793 7.07992 7.91601 7.07992C7.6941 7.07992 7.48127 7.16808 7.32435 7.325L5.24101 9.40833C5.16515 9.48759 5.10568 9.58104 5.06602 9.68333C4.98267 9.88622 4.98267 10.1138 5.06602 10.3167C5.10568 10.419 5.16515 10.5124 5.24101 10.5917L7.32435 12.675C7.40182 12.7531 7.49398 12.8151 7.59553 12.8574C7.69708 12.8997 7.806 12.9215 7.91601 12.9215C8.02602 12.9215 8.13495 12.8997 8.2365 12.8574C8.33804 12.8151 8.43021 12.7531 8.50768 12.675C8.58579 12.5975 8.64778 12.5054 8.69009 12.4038C8.7324 12.3023 8.75418 12.1933 8.75418 12.0833C8.75418 11.9733 8.7324 11.8644 8.69009 11.7629C8.64778 11.6613 8.58579 11.5691 8.50768 11.4917L7.84101 10.8333H12.1577L11.491 11.4917C11.4129 11.5691 11.3509 11.6613 11.3086 11.7629C11.2663 11.8644 11.2445 11.9733 11.2445 12.0833C11.2445 12.1933 11.2663 12.3023 11.3086 12.4038C11.3509 12.5054 11.4129 12.5975 11.491 12.675C11.5685 12.7531 11.6607 12.8151 11.7622 12.8574C11.8637 12.8997 11.9727 12.9215 12.0827 12.9215C12.1927 12.9215 12.3016 12.8997 12.4032 12.8574C12.5047 12.8151 12.5969 12.7531 12.6743 12.675L14.7577 10.5917C14.8335 10.5124 14.893 10.419 14.9327 10.3167C15.016 10.1138 15.016 9.88622 14.9327 9.68333C14.893 9.58104 14.8335 9.48759 14.7577 9.40833ZM2.49935 5C2.27834 5 2.06637 5.0878 1.91009 5.24408C1.75381 5.40036 1.66602 5.61232 1.66602 5.83333V14.1667C1.66602 14.3877 1.75381 14.5996 1.91009 14.7559C2.06637 14.9122 2.27834 15 2.49935 15C2.72036 15 2.93232 14.9122 3.0886 14.7559C3.24488 14.5996 3.33268 14.3877 3.33268 14.1667V5.83333C3.33268 5.61232 3.24488 5.40036 3.0886 5.24408C2.93232 5.0878 2.72036 5 2.49935 5ZM17.4993 5C17.2783 5 17.0664 5.0878 16.9101 5.24408C16.7538 5.40036 16.666 5.61232 16.666 5.83333V14.1667C16.666 14.3877 16.7538 14.5996 16.9101 14.7559C17.0664 14.9122 17.2783 15 17.4993 15C17.7204 15 17.9323 14.9122 18.0886 14.7559C18.2449 14.5996 18.3327 14.3877 18.3327 14.1667V5.83333C18.3327 5.61232 18.2449 5.40036 18.0886 5.24408C17.9323 5.0878 17.7204 5 17.4993 5Z" fill="#454754"/>
</svg>
