<svg width="16" height="16" viewBox="0 0 16 16" fill="none" xmlns="http://www.w3.org/2000/svg">
<defs>
<linearGradient id="paint0_linear" x1="1.33331" y1="14.6667" x2="15.324" y2="2.06308" gradientUnits="userSpaceOnUse">
<stop stop-color="#CF1E9E"/>
<stop offset="1" stop-color="#7F50B2"/>
</linearGradient>
</defs>
    <path d="M9.99998 7.33337H8.66665V4.66671C8.66665 4.4899 8.59641 4.32033 8.47139 4.1953C8.34636 4.07028 8.17679 4.00004 7.99998 4.00004C7.82317 4.00004 7.6536 4.07028 7.52858 4.1953C7.40355 4.32033 7.33332 4.4899 7.33332 4.66671V8.00004C7.33332 8.17685 7.40355 8.34642 7.52858 8.47145C7.6536 8.59647 7.82317 8.66671 7.99998 8.66671H9.99998C10.1768 8.66671 10.3464 8.59647 10.4714 8.47145C10.5964 8.34642 10.6666 8.17685 10.6666 8.00004C10.6666 7.82323 10.5964 7.65366 10.4714 7.52864C10.3464 7.40361 10.1768 7.33337 9.99998 7.33337ZM7.99998 1.33337C6.68144 1.33337 5.39251 1.72437 4.29618 2.45691C3.19985 3.18945 2.34537 4.23064 1.84079 5.44882C1.3362 6.66699 1.20418 8.00744 1.46141 9.30064C1.71865 10.5938 2.35359 11.7817 3.28594 12.7141C4.21829 13.6464 5.40617 14.2814 6.69938 14.5386C7.99259 14.7958 9.33303 14.6638 10.5512 14.1592C11.7694 13.6547 12.8106 12.8002 13.5431 11.7038C14.2757 10.6075 14.6666 9.31858 14.6666 8.00004C14.6647 6.23253 13.9617 4.53796 12.7119 3.28814C11.4621 2.03832 9.7675 1.33532 7.99998 1.33337ZM7.99998 13.3334C6.94515 13.3334 5.914 13.0206 5.03694 12.4345C4.15988 11.8485 3.47629 11.0156 3.07263 10.041C2.66896 9.06648 2.56334 7.99412 2.76913 6.95956C2.97492 5.92499 3.48287 4.97468 4.22875 4.2288C4.97463 3.48292 5.92494 2.97497 6.9595 2.76919C7.99407 2.5634 9.06642 2.66902 10.041 3.07268C11.0155 3.47635 11.8485 4.15994 12.4345 5.037C13.0205 5.91406 13.3333 6.94521 13.3333 8.00004C13.3316 9.41399 12.7691 10.7695 11.7693 11.7693C10.7695 12.7691 9.41393 13.3316 7.99998 13.3334Z" fill="url(#paint0_linear)"/>
</svg>
