<svg width="20" height="21" viewBox="0 0 20 21" fill="none" xmlns="http://www.w3.org/2000/svg">
<path d="M9.99935 12.1667C9.79333 12.1667 9.59194 12.2278 9.42063 12.3422C9.24933 12.4567 9.11582 12.6194 9.03698 12.8097C8.95814 13.0001 8.93751 13.2095 8.9777 13.4116C9.01789 13.6136 9.1171 13.7992 9.26278 13.9449C9.40846 14.0906 9.59407 14.1898 9.79613 14.23C9.9982 14.2702 10.2076 14.2496 10.398 14.1707C10.5883 14.0919 10.751 13.9584 10.8655 13.7871C10.9799 13.6158 11.041 13.4144 11.041 13.2084C11.041 12.9321 10.9313 12.6671 10.7359 12.4718C10.5406 12.2764 10.2756 12.1667 9.99935 12.1667ZM9.99935 10.9167C10.2204 10.9167 10.4323 10.8289 10.5886 10.6726C10.7449 10.5163 10.8327 10.3044 10.8327 10.0834V7.58335C10.8327 7.36234 10.7449 7.15038 10.5886 6.9941C10.4323 6.83782 10.2204 6.75002 9.99935 6.75002C9.77834 6.75002 9.56638 6.83782 9.4101 6.9941C9.25382 7.15038 9.16602 7.36234 9.16602 7.58335V10.0834C9.16602 10.3044 9.25382 10.5163 9.4101 10.6726C9.56638 10.8289 9.77834 10.9167 9.99935 10.9167ZM9.99935 2.16669C8.35118 2.16669 6.74001 2.65543 5.3696 3.57111C3.99919 4.48679 2.93109 5.78827 2.30036 7.31099C1.66963 8.83371 1.5046 10.5093 1.82614 12.1258C2.14769 13.7423 2.94136 15.2271 4.1068 16.3926C5.27223 17.558 6.75709 18.3517 8.3736 18.6732C9.99011 18.9948 11.6657 18.8297 13.1884 18.199C14.7111 17.5683 16.0126 16.5002 16.9283 15.1298C17.8439 13.7594 18.3327 12.1482 18.3327 10.5C18.3303 8.29063 17.4515 6.17242 15.8892 4.61014C14.327 3.04787 12.2087 2.16911 9.99935 2.16669ZM9.99935 17.1667C8.68081 17.1667 7.39188 16.7757 6.29555 16.0432C5.19922 15.3106 4.34474 14.2694 3.84016 13.0512C3.33557 11.8331 3.20355 10.4926 3.46078 9.19942C3.71802 7.90621 4.35296 6.71833 5.28531 5.78598C6.21766 4.85363 7.40554 4.21869 8.69875 3.96145C9.99196 3.70422 11.3324 3.83624 12.5506 4.34082C13.7687 4.84541 14.8099 5.69989 15.5425 6.79622C16.275 7.89255 16.666 9.18148 16.666 10.5C16.6638 12.2675 15.9607 13.9619 14.711 15.2116C13.4612 16.4614 11.7668 17.1645 9.99935 17.1667Z" fill="#454754"/>
</svg>
