<svg width="16" height="16" viewBox="0 0 16 16" fill="none" xmlns="http://www.w3.org/2000/svg">
<path d="M6.00004 6.66665C5.82323 6.66665 5.65366 6.73688 5.52864 6.86191C5.40361 6.98693 5.33337 7.1565 5.33337 7.33331V8.66665C5.33337 8.84346 5.40361 9.01303 5.52864 9.13805C5.65366 9.26308 5.82323 9.33331 6.00004 9.33331C6.17685 9.33331 6.34642 9.26308 6.47145 9.13805C6.59647 9.01303 6.66671 8.84346 6.66671 8.66665V7.33331C6.66671 7.1565 6.59647 6.98693 6.47145 6.86191C6.34642 6.73688 6.17685 6.66665 6.00004 6.66665ZM14 7.33331C14.1769 7.33331 14.3464 7.26308 14.4714 7.13805C14.5965 7.01303 14.6667 6.84346 14.6667 6.66665V3.99998C14.6667 3.82317 14.5965 3.6536 14.4714 3.52858C14.3464 3.40355 14.1769 3.33331 14 3.33331H2.00004C1.82323 3.33331 1.65366 3.40355 1.52864 3.52858C1.40361 3.6536 1.33337 3.82317 1.33337 3.99998V6.66665C1.33337 6.84346 1.40361 7.01303 1.52864 7.13805C1.65366 7.26308 1.82323 7.33331 2.00004 7.33331C2.17685 7.33331 2.34642 7.40355 2.47145 7.52858C2.59647 7.6536 2.66671 7.82317 2.66671 7.99998C2.66671 8.17679 2.59647 8.34636 2.47145 8.47138C2.34642 8.59641 2.17685 8.66665 2.00004 8.66665C1.82323 8.66665 1.65366 8.73688 1.52864 8.86191C1.40361 8.98693 1.33337 9.1565 1.33337 9.33331V12C1.33337 12.1768 1.40361 12.3464 1.52864 12.4714C1.65366 12.5964 1.82323 12.6666 2.00004 12.6666H14C14.1769 12.6666 14.3464 12.5964 14.4714 12.4714C14.5965 12.3464 14.6667 12.1768 14.6667 12V9.33331C14.6667 9.1565 14.5965 8.98693 14.4714 8.86191C14.3464 8.73688 14.1769 8.66665 14 8.66665C13.8232 8.66665 13.6537 8.59641 13.5286 8.47138C13.4036 8.34636 13.3334 8.17679 13.3334 7.99998C13.3334 7.82317 13.4036 7.6536 13.5286 7.52858C13.6537 7.40355 13.8232 7.33331 14 7.33331ZM13.3334 6.11998C12.9473 6.26012 12.6137 6.51573 12.3779 6.85209C12.1422 7.18845 12.0157 7.58923 12.0157 7.99998C12.0157 8.41073 12.1422 8.81151 12.3779 9.14787C12.6137 9.48423 12.9473 9.73984 13.3334 9.87998V11.3333H6.66671C6.66671 11.1565 6.59647 10.9869 6.47145 10.8619C6.34642 10.7369 6.17685 10.6666 6.00004 10.6666C5.82323 10.6666 5.65366 10.7369 5.52864 10.8619C5.40361 10.9869 5.33337 11.1565 5.33337 11.3333H2.66671V9.87998C3.05281 9.73984 3.3864 9.48423 3.62215 9.14787C3.85789 8.81151 3.98436 8.41073 3.98436 7.99998C3.98436 7.58923 3.85789 7.18845 3.62215 6.85209C3.3864 6.51573 3.05281 6.26012 2.66671 6.11998V4.66665H5.33337C5.33337 4.84346 5.40361 5.01303 5.52864 5.13805C5.65366 5.26307 5.82323 5.33331 6.00004 5.33331C6.17685 5.33331 6.34642 5.26307 6.47145 5.13805C6.59647 5.01303 6.66671 4.84346 6.66671 4.66665H13.3334V6.11998Z" fill="#73768C"/>
</svg>
