<svg width="20" height="21" viewBox="0 0 20 21" fill="none" xmlns="http://www.w3.org/2000/svg">
<path d="M10.2507 10.6834C10.6953 10.2985 11.0519 9.82242 11.2964 9.28754C11.5408 8.75265 11.6673 8.17144 11.6673 7.58335C11.6673 6.47828 11.2283 5.41848 10.4469 4.63708C9.66553 3.85567 8.60572 3.41669 7.50065 3.41669C6.39558 3.41669 5.33577 3.85567 4.55437 4.63708C3.77297 5.41848 3.33398 6.47828 3.33398 7.58335C3.33398 8.17144 3.46049 8.75265 3.70492 9.28754C3.94936 9.82242 4.306 10.2985 4.75065 10.6834C3.5841 11.2116 2.59437 12.0646 1.8998 13.1405C1.20523 14.2163 0.835211 15.4694 0.833984 16.75C0.833984 16.971 0.921782 17.183 1.07806 17.3393C1.23434 17.4956 1.4463 17.5834 1.66732 17.5834C1.88833 17.5834 2.10029 17.4956 2.25657 17.3393C2.41285 17.183 2.50065 16.971 2.50065 16.75C2.50065 15.4239 3.02744 14.1522 3.96512 13.2145C4.9028 12.2768 6.17457 11.75 7.50065 11.75C8.82673 11.75 10.0985 12.2768 11.0362 13.2145C11.9739 14.1522 12.5007 15.4239 12.5007 16.75C12.5007 16.971 12.5884 17.183 12.7447 17.3393C12.901 17.4956 13.113 17.5834 13.334 17.5834C13.555 17.5834 13.767 17.4956 13.9232 17.3393C14.0795 17.183 14.1673 16.971 14.1673 16.75C14.1661 15.4694 13.7961 14.2163 13.1015 13.1405C12.4069 12.0646 11.4172 11.2116 10.2507 10.6834ZM7.50065 10.0834C7.0062 10.0834 6.52285 9.93673 6.11173 9.66203C5.7006 9.38732 5.38017 8.99688 5.19095 8.54006C5.00173 8.08325 4.95222 7.58058 5.04869 7.09563C5.14515 6.61068 5.38325 6.16522 5.73288 5.81559C6.08252 5.46596 6.52797 5.22785 7.01293 5.13139C7.49788 5.03493 8.00054 5.08444 8.45736 5.27366C8.91418 5.46287 9.30462 5.78331 9.57932 6.19443C9.85403 6.60555 10.0007 7.0889 10.0007 7.58335C10.0007 8.24639 9.73726 8.88228 9.26842 9.35112C8.79958 9.81996 8.16369 10.0834 7.50065 10.0834ZM15.6173 10.35C16.1506 9.74946 16.499 9.00757 16.6205 8.21364C16.742 7.41971 16.6314 6.60758 16.3021 5.87502C15.9728 5.14246 15.4388 4.52068 14.7644 4.08454C14.0899 3.6484 13.3038 3.41647 12.5007 3.41669C12.2796 3.41669 12.0677 3.50448 11.9114 3.66076C11.7551 3.81705 11.6673 4.02901 11.6673 4.25002C11.6673 4.47103 11.7551 4.683 11.9114 4.83928C12.0677 4.99556 12.2796 5.08335 12.5007 5.08335C13.1637 5.08335 13.7996 5.34675 14.2684 5.81559C14.7373 6.28443 15.0007 6.92031 15.0007 7.58335C14.9995 8.02105 14.8834 8.45077 14.664 8.82954C14.4447 9.2083 14.1297 9.52284 13.7507 9.74169C13.6271 9.81295 13.5239 9.91474 13.451 10.0373C13.378 10.1599 13.3377 10.2991 13.334 10.4417C13.3305 10.5832 13.3631 10.7232 13.4287 10.8486C13.4943 10.974 13.5908 11.0806 13.709 11.1584L14.034 11.375L14.1423 11.4334C15.1468 11.9098 15.9942 12.6633 16.5848 13.6053C17.1754 14.5472 17.4844 15.6383 17.4757 16.75C17.4757 16.971 17.5634 17.183 17.7197 17.3393C17.876 17.4956 18.088 17.5834 18.309 17.5834C18.53 17.5834 18.742 17.4956 18.8982 17.3393C19.0545 17.183 19.1423 16.971 19.1423 16.75C19.1491 15.4712 18.8288 14.2119 18.2119 13.0917C17.5949 11.9716 16.7018 11.0278 15.6173 10.35Z" fill="#454754"/>
</svg>
