<svg width="20" height="22" viewBox="0 0 20 22" fill="none" xmlns="http://www.w3.org/2000/svg">
    <defs>
        <linearGradient id="paint0_linear" x1="2.70996e-07" y1="21.2045" x2="22.0554" y2="2.44166" gradientUnits="userSpaceOnUse">
            <stop stop-color="#CF1E9E"/>
            <stop offset="1" stop-color="#7F50B2"/>
        </linearGradient>
    </defs>
    <path d="M10 12.7329C9.75278 12.7329 9.5111 12.8105 9.30554 12.956C9.09998 13.1014 8.93976 13.3081 8.84515 13.55C8.75054 13.7919 8.72579 14.058 8.77402 14.3148C8.82225 14.5716 8.9413 14.8074 9.11612 14.9926C9.29094 15.1777 9.51366 15.3037 9.75614 15.3548C9.99862 15.4059 10.2499 15.3797 10.4784 15.2795C10.7068 15.1793 10.902 15.0096 11.0393 14.792C11.1767 14.5743 11.25 14.3184 11.25 14.0566C11.25 13.7055 11.1183 13.3688 10.8839 13.1206C10.6495 12.8723 10.3315 12.7329 10 12.7329ZM10 11.1445C10.2652 11.1445 10.5196 11.0329 10.7071 10.8343C10.8946 10.6357 11 10.3664 11 10.0855V6.90867C11 6.62782 10.8946 6.35847 10.7071 6.15988C10.5196 5.96129 10.2652 5.84972 10 5.84972C9.73479 5.84972 9.48043 5.96129 9.2929 6.15988C9.10536 6.35847 9 6.62782 9 6.90867V10.0855C9 10.3664 9.10536 10.6357 9.2929 10.8343C9.48043 11.0329 9.73479 11.1445 10 11.1445ZM10 0.0255127C8.02219 0.0255127 6.08879 0.646575 4.4443 1.81016C2.79981 2.97375 1.51809 4.6276 0.761209 6.56257C0.00433284 8.49754 -0.1937 10.6267 0.192152 12.6809C0.578004 14.735 1.53041 16.6219 2.92894 18.1029C4.32746 19.5838 6.10929 20.5924 8.0491 21.001C9.98891 21.4096 11.9996 21.1999 13.8268 20.3984C15.6541 19.5969 17.2159 18.2396 18.3147 16.4982C19.4135 14.7568 20 12.7094 20 10.615C19.9971 7.80743 18.9426 5.11575 17.0679 3.1305C15.1931 1.14526 12.6513 0.0285959 10 0.0255127ZM10 19.0866C8.41775 19.0866 6.87103 18.5897 5.55544 17.6588C4.23985 16.728 3.21447 15.4049 2.60897 13.8569C2.00347 12.3089 1.84504 10.6056 2.15372 8.96226C2.4624 7.31894 3.22433 5.80945 4.34315 4.62468C5.46197 3.4399 6.88743 2.63306 8.43928 2.30619C9.99113 1.97931 11.5997 2.14707 13.0615 2.78827C14.5233 3.42946 15.7727 4.51529 16.6518 5.90843C17.5308 7.30157 18 8.93947 18 10.615C17.9974 12.8609 17.1537 15.0141 15.6539 16.6022C14.1542 18.1903 12.1209 19.0838 10 19.0866Z" fill="url(#paint0_linear)"/>
</svg>
