<svg width="20" height="20" viewBox="0 0 20 20" fill="none" xmlns="http://www.w3.org/2000/svg">
<path d="M0 10C0 4.47715 4.47715 0 10 0C15.5228 0 20 4.47715 20 10C20 15.5228 15.5228 20 10 20C4.47715 20 0 15.5228 0 10Z" fill="#F2C94C"/>
<path d="M8.03732 11.3625L13.3998 5.98751C13.634 5.7547 13.9508 5.62402 14.2811 5.62402C14.6113 5.62402 14.9281 5.7547 15.1623 5.98751C15.2795 6.10372 15.3725 6.24197 15.4359 6.39429C15.4994 6.54662 15.5321 6.71 15.5321 6.87501C15.5321 7.04003 15.4994 7.20341 15.4359 7.35573C15.3725 7.50806 15.2795 7.64631 15.1623 7.76251L8.91232 14.0125C8.67949 14.2434 8.36525 14.3736 8.03732 14.375C7.87281 14.376 7.70973 14.3444 7.55744 14.2822C7.40514 14.22 7.26662 14.1284 7.14982 14.0125L4.21232 11.0625C4.08147 10.9505 3.97519 10.8126 3.90016 10.6575C3.82513 10.5024 3.78297 10.3335 3.77632 10.1613C3.76967 9.98918 3.79868 9.81752 3.86152 9.65711C3.92437 9.4967 4.01969 9.35102 4.14151 9.2292C4.26333 9.10738 4.40901 9.01206 4.56942 8.94922C4.72982 8.88637 4.90149 8.85737 5.07364 8.86402C5.24579 8.87067 5.4147 8.91283 5.56978 8.98786C5.72486 9.06289 5.86276 9.16916 5.97482 9.30001L8.03732 11.3625Z" fill="#A33AA3"/>
</svg>
